<?xml version="1.0" encoding="utf-8"?>
<!-- Generator: Adobe Illustrator 21.0.1, SVG Export Plug-In . SVG Version: 6.00 Build 0)  -->
<svg version="1.1" id="Слой_1" xmlns="http://www.w3.org/2000/svg" xmlns:xlink="http://www.w3.org/1999/xlink" x="0px" y="0px"
	 viewBox="0 0 100 100" style="enable-background:new 0 0 100 100;" xml:space="preserve">
<style type="text/css">
	.st0{fill:#404040;}
	.st1{fill:none;stroke:#474747;stroke-width:0.3204778;stroke-miterlimit:10;}
	.st2{fill:none;stroke:#404040;stroke-width:2.2433448;stroke-miterlimit:10;}
	.st3{fill:none;stroke:#404040;stroke-width:0.6409556;stroke-miterlimit:10;}
	.st4{fill:none;stroke:#404040;stroke-width:0.9614335;stroke-miterlimit:10;}
	.st5{fill:none;stroke:#404040;stroke-width:1.6023891;stroke-miterlimit:10;}
	.st6{fill:none;stroke:#474747;stroke-width:0.2592281;stroke-miterlimit:10;}
	.st7{opacity:0.8;fill:none;stroke:#474747;stroke-width:0.1650537;stroke-miterlimit:10;}
	.st8{opacity:0.75;fill:none;stroke:#404040;stroke-width:0.1650537;stroke-miterlimit:10;}
	.st9{opacity:0.75;fill:none;stroke:#474747;stroke-width:0.1650537;stroke-miterlimit:10;}
	
		.st10{opacity:0.8;fill:none;stroke:#474747;stroke-width:0.4951612;stroke-linecap:round;stroke-linejoin:round;stroke-miterlimit:10;}
	.st11{fill:none;stroke:#474747;stroke-width:0.4951612;stroke-linecap:round;stroke-linejoin:round;stroke-miterlimit:10;}
	.st12{fill:none;stroke:#474747;stroke-width:0.2403584;stroke-linecap:round;stroke-linejoin:round;stroke-miterlimit:10;}
	
		.st13{opacity:0.8;fill:none;stroke:#474747;stroke-width:0.1650537;stroke-linecap:round;stroke-linejoin:round;stroke-miterlimit:10;}
	.st14{opacity:0.8;fill:none;stroke:#474747;stroke-width:0.4951612;stroke-miterlimit:10;}
	.st15{opacity:0.8;fill:none;stroke:#474747;stroke-width:0.3204778;stroke-miterlimit:10;}
</style>
<g>
	<g>
		<g>
			<path class="st0" d="M13.8701143,77.4994125h2.1935701c2.0180397,0,3.656004,1.637886,3.656004,3.6560059
				c0,2.0180435-1.6379642,3.6559219-3.656004,3.6559219h-2.1935701V77.4994125z M14.4550562,84.2264023h1.6086283
				c1.6963139,0,3.071064-1.3746719,3.071064-3.0709839c0-1.6963959-1.3747501-3.0709839-3.071064-3.0709839h-1.6086283V84.2264023z
				"/>
			<path class="st0" d="M20.6950207,77.4994125h3.9483948v0.585022h-3.3634529v2.778511h2.778511v0.5849457h-2.778511v2.778511
				h3.3634529v0.584938h-3.9483948V77.4994125z"/>
			<path class="st0" d="M29.2357445,84.2264023h0.2145386l2.9832153-6.7269897h0.6336212l-3.236763,7.3119278h-0.9748478
				l-3.2367611-7.3119278h0.6337795L29.2357445,84.2264023z"/>
			<path class="st0" d="M34.0426102,77.4994125h3.9483948v0.585022H34.627552v2.778511h2.778511v0.5849457h-2.778511v2.778511
				h3.3634529v0.584938h-3.9483948V77.4994125z"/>
			<path class="st0" d="M42.9145699,84.2264023v0.584938h-3.948391v-7.3119278h0.584938v6.7269897H42.9145699z"/>
			<path class="st0" d="M46.5708961,77.4994125c2.0180397,0,3.6558456,1.637886,3.6558456,3.6560059
				c0,2.0180435-1.6378059,3.6559219-3.6558456,3.6559219c-2.0180359,0-3.656002-1.6378784-3.656002-3.6559219
				C42.9148941,79.1372986,44.5528603,77.4994125,46.5708961,77.4994125z M46.5708961,84.2264023
				c1.6963158,0,3.0709038-1.3746719,3.0709038-3.0709839c0-1.6963959-1.374588-3.0709839-3.0709038-3.0709839
				c-1.696312,0-3.0710602,1.374588-3.0710602,3.0709839C43.499836,82.8517303,44.8745842,84.2264023,46.5708961,84.2264023z"/>
			<path class="st0" d="M51.2023964,77.4994125h3.1685791c1.4817772,0,2.6809959,1.1992188,2.6809959,2.681076
				s-1.1992188,2.6809921-2.6809959,2.6809921h-2.5836372v1.9498596h-0.5849419V77.4994125z M51.7873383,82.2765427h2.5836372
				c1.1600494,0,2.0960541-0.9359207,2.0960541-2.0960541s-0.9360046-2.0960541-2.0960541-2.0960541h-2.5836372V82.2765427z"/>
			<path class="st0" d="M66.3336639,84.8113403h-0.5849457v-6.7269058h-0.0488358l-3.1879234,5.5375214h-0.6726265
				l-3.1782494-5.5375214h-0.0488396v6.7269058h-0.5849419v-7.3119278h0.9750099l3.1782494,5.5376053l3.1780891-5.5376053h0.9750137
				V84.8113403z"/>
			<path class="st0" d="M67.3091583,77.4994125h3.9483948v0.585022h-3.3634567v2.778511h2.778511v0.5849457h-2.778511v2.778511
				h3.3634567v0.584938h-3.9483948V77.4994125z"/>
			<path class="st0" d="M72.2328796,77.4994125h0.9750137l5.0012512,6.3760071v-6.3760071h0.5849457v7.3119278h-0.5849457
				l-5.2742996-6.7269058h-0.1170197v6.7269058h-0.5849457V77.4994125z"/>
			<path class="st0" d="M79.7694244,77.4994125h4.8745651v0.585022h-2.1447372v6.7269058h-0.584938v-6.7269058h-2.1448898
				V77.4994125z"/>
		</g>
	</g>
	<g>
		<g>
			<path class="st0" d="M13.864151,56.3976021h7.8218365c2.9495296,0,5.3461933,2.3965836,5.3461933,5.3462753
				c0,1.9225388-1.0270729,3.6080513-2.5546246,4.5561409c1.5275517,0.9480972,2.5546246,2.607254,2.5546246,4.5297928
				c0,2.9496918-2.3966637,5.3199158-5.3461933,5.3199158H13.864151V56.3976021z M15.4442501,65.4836197h6.2417374
				c2.1595612,0,3.765934-1.7118721,3.765934-3.7397423c0-2.0805817-1.6855145-3.7660942-3.765934-3.7660942h-6.2417374V65.4836197z
				 M15.4442501,74.5695496h6.2417374c2.0804195,0,3.765934-1.6591568,3.765934-3.7397385
				c0-2.0278702-1.6063728-3.766098-3.765934-3.766098h-6.2417374V74.5695496z"/>
			<path class="st0" d="M29.6661091,56.3976021h8.5590992c4.0031967,0,7.2425385,3.2393417,7.2425385,7.2424583
				s-3.2393417,7.2424545-7.2425385,7.2424545h-0.1842346l5.2672119,5.2672119h-2.2122688l-5.2672119-5.2672119h-4.5824966
				v5.2672119h-1.5800991V56.3976021z M31.2462082,69.3023376h6.9790001c3.1340866,0,5.6622772-2.5282745,5.6622772-5.6622772
				c0-3.1340065-2.5281906-5.6622772-5.6622772-5.6622772h-6.9790001V69.3023376z"/>
			<path class="st0" d="M48.0757256,56.3976021h1.5800972v19.7521248h-1.5800972V56.3976021z"/>
			<path class="st0" d="M69.1706848,73.2527466c-3.8450775,3.8714294-10.1130867,3.8714294-13.9581604,0
				c-3.8715096-3.8450775-3.8715096-10.1130867,0-13.9581604c3.8450737-3.8714294,10.1130829-3.8714294,13.9581604,0
				l-1.1060562,1.1061325c-3.239502-3.2393379-8.5067101-3.2393379-11.7460518,0
				c-3.2393417,3.2393417-3.2393417,8.5065536,0,11.7458954s8.5065498,3.2393417,11.7460518,0L69.1706848,73.2527466z"/>
			<path class="st0" d="M75.9396591,66.3000183l8.9543228,9.8497086h-2.1332855l-7.9008179-8.6645889l-1.4748459,1.6328049
				v7.0317841h-1.580101V56.3976021h1.580101v10.3501091l9.4283752-10.3501091h2.1068497L75.9396591,66.3000183z"/>
		</g>
	</g>
</g>
<g>
	<path class="st1" d="M78.0652695,53.2833328"/>
	<line class="st2" x1="2.6441827" y1="53.6241646" x2="97.4012604" y2="54.082653"/>
	<line class="st3" x1="29.032505" y1="14.9353046" x2="29.0626564" y2="53.8032532"/>
	<line class="st4" x1="39.6262741" y1="11.0884428" x2="39.6343956" y2="53.8032532"/>
	<line class="st5" x1="28.7347164" y1="15.0387831" x2="39.6912613" y2="11.0478239"/>
	<line class="st3" x1="55.098835" y1="15.784091" x2="54.9858475" y2="53.8800735"/>
	<line class="st4" x1="59.6358986" y1="21.380867" x2="59.6420708" y2="53.8217773"/>
	<line class="st5" x1="55.0458336" y1="22.080452" x2="59.6892891" y2="21.3677273"/>
	<path class="st1" d="M55.0458336,22.080452"/>
	<line class="st3" x1="71.3869553" y1="24.1671715" x2="71.3011398" y2="53.8801193"/>
	<line class="st4" x1="25.1269913" y1="20.9909019" x2="25.120821" y2="53.8217773"/>
	<line class="st5" x1="28.8804607" y1="21.6938763" x2="25.0765915" y2="20.9940338"/>
	<line class="st3" x1="13.6964159" y1="24.1671715" x2="13.7822256" y2="53.8801193"/>
	<line class="st4" x1="75.8369827" y1="28.2574291" x2="75.8422241" y2="54.0037766"/>
	<line class="st5" x1="71.479599" y1="28.6303978" x2="75.8369827" y2="28.2574291"/>
	<line class="st3" x1="85.8222656" y1="30.1178875" x2="85.7493515" y2="54.0533485"/>
	<line class="st5" x1="25.5555038" y1="20.9127121" x2="13.2808685" y2="24.2002163"/>
	<line class="st5" x1="39.1222191" y1="11.0920086" x2="55.3972893" y2="15.8944054"/>
	<line class="st5" x1="59.3146744" y1="21.3349056" x2="71.6642456" y2="24.1775799"/>
	<line class="st5" x1="75.5097733" y1="28.2247639" x2="86.1520691" y2="30.1889744"/>
	<path class="st1" d="M19.98876,53.6949387"/>
	<path class="st1" d="M25.0765915,53.7165985"/>
	<path class="st6" d="M17.9685192,50.5887985"/>
	<polygon class="st7" points="46.9898605,19.7358074 42.0153008,18.5688629 41.981617,17.6250858 46.9909554,18.860466 	"/>
	<polygon class="st7" points="48.1403694,20.0859528 53.1331787,21.2571793 53.1508064,20.4459877 48.1414642,19.2106094 	"/>
	<polygon class="st7" points="47.9673119,24.5274239 52.9601212,25.3685226 52.9777451,24.5573311 47.9684067,23.6520805 	"/>
	<polygon class="st7" points="48.1403694,29.094244 53.1331787,29.770277 53.1508064,28.9590874 48.1414642,28.2189007 	"/>
	<polygon class="st7" points="46.9912987,24.3001709 41.981617,23.3808022 41.9117622,22.4256611 46.9914703,23.467001 	"/>
	<polygon class="st7" points="46.9916039,28.9205685 42.0059814,28.2391491 41.9656715,27.2558784 46.988842,28.038311 	"/>
	<polygon class="st7" points="46.9907608,33.8502884 41.9621582,33.3751183 41.9621582,32.3263321 46.9925957,32.9367065 	"/>
	<polygon class="st7" points="48.1412735,34.0353699 53.1331787,34.5070763 53.1331787,33.5621986 48.1431084,33.1217842 	"/>
	<polygon class="st7" points="46.9938583,38.3671417 41.9521332,38.0474319 41.9519997,37.0805702 46.9919586,37.4181137 	"/>
	<polygon class="st7" points="48.144371,38.5522232 53.1200638,38.8677483 53.1200638,37.9365654 48.1424675,37.6031952 	"/>
	<polygon class="st7" points="48.144371,43.0753708 53.1200638,43.3908958 53.1200638,42.459713 48.1424675,42.1263428 	"/>
	<polygon class="st7" points="46.9925613,42.9521751 41.8825951,42.7586174 41.8825951,41.7075768 46.9944115,42.0031586 	"/>
	<polygon class="st7" points="46.9943352,47.4262009 41.8825951,47.2337532 41.9547386,46.2536774 46.9944649,46.4644127 	"/>
	<polygon class="st7" points="48.1448479,47.4462166 53.1185532,47.6334686 53.1200638,46.6924591 48.1449776,46.4844284 	"/>
	<polygon class="st8" points="65.2429047,29.2483273 61.5311661,28.5562611 61.5311661,27.9016285 65.2429047,28.6314602 	"/>
	<polygon class="st8" points="65.8836594,29.3841248 69.5953979,30.0761909 69.5953979,29.4970932 65.8836594,28.7672596 	"/>
	<polygon class="st8" points="65.2423553,33.0577736 61.4407272,32.5055962 61.4407272,31.8509636 65.2119217,32.4364319 	"/>
	<polygon class="st8" points="65.8788223,33.1664352 69.6306534,33.71138 69.6306534,33.1322784 65.8483963,32.5450935 	"/>
	<polygon class="st8" points="65.2427673,36.9326439 61.4356155,36.5243225 61.4356155,35.8696899 65.2427673,36.316082 	"/>
	<polygon class="st8" points="65.8663788,37.0177269 69.6126785,37.4195213 69.6126785,36.8404198 65.8663788,36.401165 	"/>
	<polygon class="st8" points="65.2140045,40.6701889 61.4372749,40.3869324 61.4372749,39.7322998 65.211235,40.0530891 	"/>
	<polygon class="st8" points="65.8996506,40.7211685 69.6763763,41.004425 69.6763763,40.4253273 65.8968811,40.1040688 	"/>
	<polygon class="st8" points="65.2427673,44.5115166 61.4356155,44.327507 61.4356155,43.6728706 65.2427673,43.8949547 	"/>
	<polygon class="st8" points="65.913475,44.5115166 69.6597748,44.6925888 69.6597748,44.1134911 65.913475,43.8949547 	"/>
	<polygon class="st8" points="80.4646378,34.5330811 77.7277527,34.1009789 77.7277527,33.5763245 80.4646378,34.046196 	"/>
	<polygon class="st8" points="81.2249756,34.6981468 83.9618607,35.130249 83.9618607,34.6811333 81.2249756,34.2112617 	"/>
	<polygon class="st8" points="80.4640961,37.7135048 77.7673035,37.3650932 77.7673035,36.8404427 80.4640961,37.2260666 	"/>
	<polygon class="st8" points="81.2049332,37.7778397 83.9819031,38.1366081 83.9819031,37.6874886 81.2049332,37.2904015 	"/>
	<polygon class="st8" points="80.4649963,41.1002312 77.7621841,40.8285789 77.7621841,40.3039284 80.4649963,40.6128769 	"/>
	<polygon class="st8" points="81.2253265,41.2046585 83.9962921,41.4831581 83.9962921,41.0340424 81.2253265,40.7173042 	"/>
	<polygon class="st8" points="80.4666519,44.5165634 77.7638474,44.3010139 77.7638474,43.7763634 80.4666519,44.0292053 	"/>
	<polygon class="st8" points="81.2079391,44.6338196 83.9788971,44.8548012 83.9788971,44.4056816 81.2079391,44.1464615 	"/>
	<polygon class="st8" points="80.4669952,48.1926956 77.7621841,48.0765228 77.7621841,47.5518723 80.4669952,47.705368 	"/>
	<polygon class="st8" points="81.2089386,48.2138367 83.9778976,48.3327675 83.9778976,47.8836479 81.2089386,47.7265091 	"/>
	<polygon class="st8" points="65.2426987,48.2058258 61.4372749,48.1381187 61.4372749,47.4834862 65.2426987,47.5892448 	"/>
	<polygon class="st8" points="65.9413376,48.2058258 69.6893692,48.2725105 69.6893692,47.6934128 65.9413376,47.5892448 	"/>
	<polygon class="st9" points="15.0691471,29.901041 18.5856647,29.1776314 18.5925007,28.5220833 15.0691471,29.23139 	"/>
	<polygon class="st9" points="19.3633518,28.983326 22.9781933,28.2314377 22.9781933,27.5118732 19.395298,28.2972736 	"/>
	<polygon class="st9" points="15.1531477,33.7388229 18.5923519,33.0899086 18.5856647,32.4511833 15.1443357,33.0955696 	"/>
	<polygon class="st9" points="19.3228645,32.8700943 22.9296761,32.2106552 22.9296169,31.5797901 19.3214474,32.2726555 	"/>
	<polygon class="st9" points="15.0402279,37.4969978 18.5856647,36.9468117 18.5856647,36.2433662 15.0691471,36.7891922 	"/>
	<polygon class="st9" points="19.395298,36.7186241 23.0186787,36.2246933 23.0186787,35.5127029 19.4038143,36.0543976 	"/>
	<polygon class="st9" points="15.083251,41.2535133 18.6232414,40.7685661 18.6487427,40.1336021 15.1658964,40.5707016 	"/>
	<polygon class="st9" points="19.4166012,40.6623383 23.022686,40.2185783 23.0492668,39.5489235 19.4435844,39.9796982 	"/>
	<polygon class="st9" points="15.2005453,44.9644203 18.741375,44.6433563 18.7879353,44.0198097 15.3318481,44.3304253 	"/>
	<polygon class="st9" points="19.3923912,44.5647583 23.0417767,44.2173691 23.0936337,43.5018234 19.4431057,43.8690567 	"/>
	<polygon class="st9" points="15.1084528,48.8726501 18.7276669,48.6278992 18.803648,47.963501 15.2537861,48.2289238 	"/>
	<polygon class="st9" points="19.5456657,48.5861397 23.2078533,48.3139992 23.2815304,47.6753654 19.6220589,47.9171219 	"/>
	<path class="st10" d="M52.7806435,19.8488617"/>
	<path class="st7" d="M43.0726395,17.5970573"/>
	<path class="st10" d="M52.8107529,21.4165249"/>
	<path class="st7" d="M43.0425301,19.4071674"/>
	<path class="st10" d="M52.80019,24.5734806"/>
	<path class="st7" d="M42.9778023,22.4368267"/>
	<path class="st11" d="M52.9055824,26.137888"/>
	<path class="st7" d="M43.0346947,24.246294"/>
	<path class="st10" d="M52.7931824,28.8921089"/>
	<path class="st7" d="M42.8755379,27.2728653"/>
	<path class="st12" d="M52.9777451,30.8193207"/>
	<path class="st7" d="M43.0240822,29.0771217"/>
	<path class="st12" d="M52.9580116,34.0295982"/>
	<path class="st7" d="M42.94981,32.3807678"/>
	<path class="st12" d="M53.0274162,35.5420952"/>
	<path class="st13" d="M41.9878769,34.3701019"/>
	<path class="st10" d="M52.7612839,40.0779076"/>
	<path class="st7" d="M42.8023949,38.9217262"/>
	<path class="st11" d="M52.9197922,38.2947311"/>
	<path class="st7" d="M42.9609032,37.138546"/>
	<path class="st14" d="M52.5046349,44.0721169"/>
	<path class="st7" d="M42.5457458,43.4711723"/>
	<path class="st14" d="M52.6631432,42.2889366"/>
	<path class="st7" d="M42.7042542,41.6879921"/>
	<path class="st11" d="M52.92519,49.6319504"/>
	<path class="st15" d="M42.9558907,48.588562"/>
	<path class="st12" d="M53.0459366,47.8458176"/>
	<path class="st7" d="M43.0766411,46.2471886"/>
</g>
<g>
</g>
<g>
</g>
<g>
</g>
<g>
</g>
<g>
</g>
</svg>
