<?xml version="1.0" encoding="utf-8"?>
<!-- Generator: Adobe Illustrator 21.0.1, SVG Export Plug-In . SVG Version: 6.00 Build 0)  -->
<svg version="1.1" id="Слой_1" xmlns="http://www.w3.org/2000/svg" xmlns:xlink="http://www.w3.org/1999/xlink" x="0px" y="0px"
	 viewBox="0 0 100 100" style="enable-background:new 0 0 100 100;" xml:space="preserve">
<style type="text/css">
	.st0{fill-rule:evenodd;clip-rule:evenodd;fill:#20AA6A;}
	.st1{fill:#000404;}
</style>
<g>
	<path class="st0" d="M47.0028381,24.137022c0.3978195,0.3724632,1.3163643,1.425909,1.504612,1.7779655
		c0.188221,0.3520317-0.0533447,0.3714943,0.590004,0.6985359c0.6686401,0.3398933,1.2133408,0.765583,1.6579666,1.2274361
		c0.8411293,0.8739071,0.8082161,1.918602,0.3824806,2.856678c-0.3884697,0.8561497-0.7334785,1.0655861-1.0879288,1.6490955
		c1.8777885-0.2985725,2.9890938-0.5380669,5.0041122-0.5415897C69.3982849,31.7795525,70.934288,42.645443,69.5500259,48.952282
		c-8.632206,0.5637054-35.64048-5.5796509-29.5739174-12.1042404c2.6989517-2.9027672,6.4229965-3.2967873,8.4934769-4.1110878
		c0.2375793-0.1284065,0.8114166-0.8654766,0.9976845-1.1032429c1.6966133-2.1648216,1.4580383-2.9603024-1.0519524-4.5621834
		c-0.4717789-0.3011742-0.5001068-0.1581421-1.2924805-0.2182579c-0.237442,0.049015-2.1457253-0.3897133-2.5013733-0.4759693
		c-4.625248-1.121809-12.3447533-3.8219795-13.2727184-6.7161331c-0.1284084-1.3711605,1.1176395-1.9697342,3.3654957-1.9066715
		C39.4976044,18.2830963,44.3457603,21.6496735,47.0028381,24.137022z"/>
	<g>
		<path class="st1" d="M6.6962891,61.2109375l-2.2504883,0.5625v-0.9199219c0-0.8710938,0.1630859-1.4707031,0.4892578-1.796875
			c0.3447266-0.3271484,0.9819336-0.4902344,1.9121094-0.4902344h5.7670898c0.9301758,0,1.5673828,0.1630859,1.9121094,0.4902344
			c0.3261719,0.3261719,0.4892578,0.9257813,0.4892578,1.796875v1.0898438v4.4794922
			c0,0.4511719-0.1142578,0.8134766-0.3427734,1.0869141c-0.2290039,0.2734375-0.4995117,0.4628906-0.8120117,0.5693359
			s-0.597168,0.1601563-0.8530273,0.1601563H6.847168c-0.9272461,0-1.5644531-0.1611328-1.9121094-0.4853516
			c-0.3261719-0.3261719-0.4892578-0.9267578-0.4892578-1.8027344v-1.1435547l2.2504883,0.5263672v1.0888672h6.0693359V64.25
			H7.9311523v-1.8945313h4.8344727v-2.0644531H6.6962891V61.2109375z"/>
		<path class="st1" d="M18.9946289,68.2392578v-9.6728516h2.2695313v4.03125l5.362793-4.03125h3.2578125l-6.4106445,4.5566406
			l7.1977539,5.1162109h-3.6147461l-5.7929688-4.2548828v4.2548828H18.9946289z"/>
		<path class="st1" d="M34.3950195,60.8535156c0-0.875,0.1616211-1.4746094,0.4848633-1.796875
			c0.3447266-0.3271484,0.9829102-0.4902344,1.9135742-0.4902344h7.1225586c0.9365234,0,1.5683594,0.1630859,1.8950195,0.4902344
			c0.3383789,0.3203125,0.5078125,0.9189453,0.5078125,1.796875v5.0976563c0,0.8818359-0.1694336,1.4824219-0.5078125,1.8027344
			c-0.3295898,0.3242188-0.9614258,0.4853516-1.8950195,0.4853516H36.793457c-0.9277344,0-1.5654297-0.1611328-1.9135742-0.4853516
			c-0.3232422-0.3222656-0.4848633-0.9238281-0.4848633-1.8027344V60.8535156z M36.6459961,66.4228516h7.421875v-6.1318359
			h-7.421875V66.4228516z"/>
		<path class="st1" d="M53.1855469,58.5664063h7.9296875l-0.6367188,1.6699219h-7.2929688v2.1005859h6.0537109
			c0.765625,0,1.328125,0.1494141,1.6884766,0.4482422c0.3378906,0.3017578,0.5078125,0.7763672,0.5078125,1.4228516v2.1552734
			c0,0.6621094-0.1699219,1.1445313-0.5078125,1.4453125c-0.3662109,0.2871094-0.9287109,0.4306641-1.6884766,0.4306641h-8.2636719
			v-9.6728516H53.1855469z M59.0517578,66.4042969c0.1367188-0.1191406,0.2050781-0.3183594,0.2050781-0.5996094v-1.0332031
			c0-0.28125-0.0683594-0.4804688-0.2050781-0.5996094c-0.1494141-0.1132813-0.4179688-0.1699219-0.8056641-0.1699219h-5.0605469
			v2.5673828h5.0605469C58.6367188,66.5693359,58.9052734,66.5136719,59.0517578,66.4042969z"/>
		<path class="st1" d="M66.2197266,68.2392578v-1.8164063H71.75h3.1318359v-1.5927734h-6.2636719
			c-0.9365234,0-1.5683594-0.1621094-1.8945313-0.4892578c-0.3359375-0.3203125-0.5039063-0.9199219-0.5039063-1.7978516v-3.9765625
			h2.2509766v4.59375h6.4111328v-4.59375h2.2509766v7.3847656c0,0.8759766-0.1630859,1.4765625-0.4902344,1.8027344
			c-0.3476563,0.3242188-0.9853516,0.4853516-1.9130859,0.4853516h-3.1494141h-2.9619141H66.2197266z"/>
		<path class="st1" d="M81.4873047,68.2392578v-1.8164063h1.2578125v-3.0751953c0-1.5371094,0.46875-2.7177734,1.4052734-3.5410156
			c0.9609375-0.8271484,2.3291016-1.2402344,4.1044922-1.2402344h6.2412109v7.8564453h1.2167969v1.8164063H81.4873047z
			 M92.2265625,60.2910156h-3.9902344c-1.03125,0-1.8242188,0.2558594-2.3798828,0.7695313
			c-0.5761719,0.5371094-0.8642578,1.2871094-0.8642578,2.2509766v3.1113281h7.234375V60.2910156z"/>
	</g>
</g>
<g>
</g>
<g>
</g>
<g>
</g>
<g>
</g>
<g>
</g>
</svg>
