<svg id="Слой_1" data-name="Слой 1" xmlns="http://www.w3.org/2000/svg" viewBox="0 0 577.22 460.99">
    <defs>
        <style>
            .cls-1{fill:#206392;}.cls-2{fill:#4a5567;}.cls-3{fill:#fff;}.cls-4,.cls-6{fill:none;stroke:#fff;}.cls-4{stroke-width:3.3px;}.cls-5{fill:#1c6394;}.cls-6{stroke-width:2.87px;}
        </style>
    </defs>
    <title>nv-for-svg22</title>
    <path class="cls-1"
          d="M303.11,64.76c-110.63,0-200.63,90-200.63,200.63S192.48,466,303.11,466s200.64-90,200.64-200.63S413.74,64.76,303.11,64.76Zm0,396.24c-107.86,0-195.62-87.75-195.62-195.61S195.25,69.78,303.11,69.78s195.61,87.75,195.61,195.61S411,461,303.11,461Z"
          transform="translate(-14.5 -64.76)"/>
    <path class="cls-1"
          d="M303.11,446.3c-99.76,0-180.91-81.15-180.91-180.91s81.15-180.9,180.91-180.9S484,165.64,484,265.39,402.87,446.3,303.11,446.3Zm0-359.75c-98.62,0-178.85,80.23-178.85,178.84s80.23,178.85,178.85,178.85S482,364,482,265.39,401.74,86.55,303.11,86.55Z"
          transform="translate(-14.5 -64.76)"/>
    <path class="cls-2"
          d="M302.39,80.9h1.43v-9h-1.43Zm0,378h1.43v-9h-1.43ZM118.62,264.68h-9v1.42h9Zm369,0v1.42h9v-1.42ZM434.07,135.45l6.35-6.36-1-1L433,134.44ZM172.15,395.35l-6.37,6.35,1,1,6.36-6.35Zm1-260.91-6.36-6.37-1,1,6.37,6.36ZM433,396.35l6.37,6.35,1-1-6.35-6.35ZM233.17,94.68l-3.44-8.32-1.32.55,3.44,8.31ZM373.05,436.1l3.44,8.32,1.32-.55-3.45-8.31ZM132.39,335.33l-8.3,3.44.54,1.32,8.31-3.45ZM473.82,195.45l8.32-3.44-.54-1.32-8.31,3.45ZM374.37,95.22l3.45-8.31-1.32-.55-3.44,8.32ZM231.85,435.56l-3.44,8.31,1.32.55,3.44-8.32ZM132.94,194.13l-8.31-3.45-.54,1.32,8.3,3.44ZM473.29,336.64l8.31,3.45.54-1.32-8.32-3.44ZM267.82,84.31l-1.76-8.82-1.4.28,1.75,8.83ZM338.4,446.47l1.76,8.83,1.4-.28-1.76-8.83ZM122,300.68l-8.82,1.75.27,1.4,8.83-1.76ZM484.2,230.1l8.82-1.75-.28-1.4-8.83,1.76Zm-78-117.71,5-7.48-1.19-.79-5,7.48ZM200,418.39l-5,7.48,1.18.79,5-7.48ZM150.11,162.3l-7.48-5-.8,1.18,7.49,5Zm306,206.17,7.49,5,.79-1.19-7.48-5ZM201.21,111.6l-5-7.48-1.18.79,5,7.48ZM405,419.18l5,7.48,1.19-.79-5-7.48ZM149.32,367.3l-7.49,5,.8,1.19,7.49-5ZM456.9,163.49l7.48-5-.79-1.18-7.49,5ZM338.4,84.31l1.4.28,1.76-8.83-1.4-.28ZM264.66,455l1.4.28,1.76-8.83-1.4-.28ZM122.3,228.7l-8.83-1.76-.27,1.4L122,230.1Zm361.61,73.38,8.83,1.76.28-1.4-8.82-1.75ZM283.43,72.91l.89,9,1.41-.14-.88-9Zm37.06,376.14.89,9,1.41-.15-.89-9Zm-201-166.29-8.95.88.14,1.43,9-.89ZM486.78,248l9-.88-.14-1.42-9,.88ZM420.7,123.24l5.7-7-1.1-.9-5.71,7ZM185.52,407.55l-5.72,7,1.1.91,5.72-7ZM160.95,147.8l-7-5.72-.9,1.11,7,5.71ZM445.27,383l6.95,5.71.9-1.11-7-5.71ZM216.77,102.35l-4.24-7.93-1.25.67,4.25,7.93ZM389.45,428.43l4.25,7.93,1.26-.67-4.25-7.94ZM140.07,351.72,132.14,356l.68,1.26,7.93-4.24ZM466.15,179.05l7.92-4.25-.66-1.25-7.94,4.24ZM356,88.64l1.36.42L360,80.45,358.6,80ZM246.26,450.33l1.36.42,2.61-8.6-1.36-.43ZM126.77,211.16l-8.61-2.62-.41,1.36,8.61,2.61ZM479.45,319.63l8.61,2.61.41-1.36-8.62-2.61ZM246.26,80.45l2.61,8.61,1.36-.42L247.62,80ZM356,442.13l2.6,8.62,1.37-.42-2.61-8.62ZM126.36,318.26l-8.61,2.61.41,1.36,8.61-2.61ZM479.85,212.52l8.62-2.61-.41-1.36-8.61,2.62ZM390.71,103,395,95.1l-1.26-.67-4.25,7.93ZM215.5,427.76l-4.23,7.93,1.25.68,4.24-7.93Zm-74.76-250-7.93-4.24-.68,1.25,7.94,4.25ZM465.47,353l7.94,4.24.66-1.25-7.92-4.25ZM186.63,122.33l-5.72-7-1.1.9,5.72,7Zm233,286.13,5.71,7,1.1-.91-5.7-7ZM160.05,381.87l-7,5.71.89,1.11,7-5.71Zm286.11-233,7-5.71-.9-1.11-6.95,5.72ZM320.49,81.72l1.42.15.89-9-1.41-.15ZM283.43,457.87l1.42.15.88-9-1.41-.15ZM119.58,246.6l-9-.88-.14,1.42,8.95.88Zm367.07,37.58,8.95.89.14-1.42-9-.88ZM294.77,81.09l-.45-9-1.42.07.44,9Zm16.68,368.6.45,9,1.42-.07-.44-9Zm-192.63-176-9,.45.07,1.42,9-.43Zm368.6-16.68,9-.44-.07-1.43-9,.44ZM427.53,129.18l6.05-6.68-1.07-1-6,6.67ZM178.68,401.6l-6,6.66,1.06,1,6-6.67ZM166.89,141l-6.67-6-1,1.05,6.67,6.06ZM439.32,389.82l6.67,6,1-1.05-6.66-6.05ZM224.88,98.31,221,90.18l-1.29.6,3.84,8.14ZM381.35,432.47l3.85,8.13,1.29-.61-3.85-8.14ZM136,343.62l-8.14,3.85.62,1.29,8.13-3.85ZM470.19,187.16l8.14-3.85L477.7,182l-8.13,3.85ZM369,83.45,367.63,83l-3,8.48,1.34.47ZM237.25,447.33l1.35.48,3-8.48-1.34-.48ZM129.64,202.57l-8.47-3-.48,1.35,8.48,3ZM476.57,328.21l8.47,3,.49-1.34-8.48-3ZM255.41,77.88l2.18,8.73,1.39-.35-2.2-8.72Zm91.84,366.64,2.19,8.72,1.38-.35-2.19-8.72ZM124,309.52l-8.73,2.19.34,1.38,8.73-2.19Zm358.27-88.27,8.73-2.19-.36-1.38-8.72,2.18ZM398.57,107.53l4.63-7.72L402,99.07l-4.64,7.72ZM207.65,423.26,203,431l1.22.74,4.63-7.73ZM145.24,169.93l-7.71-4.61-.74,1.21,7.71,4.62ZM461,360.84l7.71,4.62.75-1.21-7.72-4.63ZM193.79,116.78l-5.36-7.23-1.16.85,5.37,7.23ZM412.44,414l5.36,7.23,1.16-.85-5.37-7.23ZM154.5,374.72l-7.23,5.36.85,1.14,7.22-5.37ZM451.72,156.06l7.21-5.36-.84-1.14-7.22,5.36ZM329.48,82.8l1.41.2,1.31-8.89-1.4-.21ZM274,456.67l1.41.21,1.33-8.91-1.42-.21ZM120.73,237.62l-8.9-1.31-.21,1.4,8.9,1.32ZM485.5,293.16l8.89,1.32.22-1.4-8.9-1.32ZM276.75,82.8l-1.33-8.9-1.41.21L275.33,83ZM329.48,448l1.32,8.91,1.4-.21-1.31-8.9Zm-209-156.23-8.91,1.32.22,1.41,8.89-1.33ZM485.7,239l8.89-1.32-.2-1.4-8.9,1.31ZM413.58,117.64l5.36-7.23-1.15-.85-5.36,7.23ZM192.64,413.14l-5.37,7.23,1.16.84,5.35-7.23ZM155.35,154.92l-7.23-5.35-.84,1.14,7.23,5.36ZM450.87,375.87l7.22,5.35.84-1.14-7.21-5.36Zm-242-269.08-4.63-7.72L203,99.8l4.63,7.72ZM397.34,424l4.64,7.72,1.23-.74-4.64-7.72ZM144.51,359.62l-7.72,4.63.74,1.21,7.71-4.62ZM461.72,171.15l7.72-4.62-.75-1.21L461,169.94ZM347.25,86.26l1.37.35,2.19-8.73-1.38-.34ZM255.41,452.89l1.37.35,2.2-8.72-1.39-.35Zm-131.09-233-8.73-2.19-.34,1.38,8.73,2.19Zm357.57,91,8.72,2.19.36-1.38-8.73-2.19ZM237.25,83.45l3,8.48,1.34-.47-3-8.48ZM364.59,439.33l3,8.48,1.33-.48-3-8.48ZM129.17,326.87l-8.48,3,.48,1.34,8.47-3Zm347.88-123,8.48-3-.49-1.35-8.47,3Zm-94.41-105,3.85-8.14-1.29-.6-3.85,8.13Zm-159,332.93L219.74,440l1.29.61,3.85-8.13Zm-87-246L128.5,182l-.62,1.29,8.14,3.85Zm332.94,159,8.13,3.85.62-1.29-8.14-3.85ZM179.73,128.22l-6-6.67-1.06,1,6,6.68ZM426.48,402.57l6,6.67,1.06-1-6.05-6.66ZM165.94,388.75l-6.67,6.05,1,1.05,6.65-6ZM440.29,142,447,136l-1-1.05-6.67,6ZM311.44,81.09l1.43.08.44-9-1.42-.07ZM292.9,458.61l1.42.07.45-9-1.41-.07Zm-174-203-9-.44-.07,1.43,9,.44Zm368.46,19.53,9,.45.08-1.42-9-.45Zm-188-194.2-.22-9-1.43,0,.22,9Zm7.64,368.89.21,9,1.43,0-.22-9ZM118.66,269.21l-9,.21,0,1.43,9-.23Zm368.89-7.63,9-.23,0-1.43-9,.22ZM430.83,132.26l6.21-6.51-1-1-6.2,6.52ZM175.38,398.51l-6.2,6.52,1,1,6.21-6.53ZM170,137.67l-6.52-6.2-1,1L169,138.7ZM436.24,393.12l6.51,6.2,1-1-6.51-6.21ZM229,96.44l-3.66-8.22-1.3.58L227.69,97ZM377.22,434.34l3.64,8.23,1.31-.58-3.65-8.22ZM134.16,339.5l-8.23,3.64.58,1.31,8.23-3.65ZM472,191.28l8.24-3.65-.58-1.31L471.49,190ZM370.18,93.53l3.23-8.4-1.32-.52L368.85,93ZM236.05,437.25l-3.25,8.4,1.34.51,3.24-8.4ZM131.24,198.33l-8.39-3.24-.51,1.33,8.39,3.24ZM475,332.45l8.41,3.24.51-1.32-8.39-3.24ZM260,76.77l2,8.78,1.39-.31-2-8.79Zm82.82,368.78,2,8.77,1.39-.31-2-8.78ZM123,305.11l-8.79,2,.32,1.39,8.77-2Zm360.31-79.45,8.79-2-.32-1.39-8.79,2ZM402.41,109.91l4.82-7.6-1.21-.76-4.81,7.61Zm-198.61,311L199,428.48l1.21.75,4.81-7.6ZM147.63,166.09l-7.6-4.81-.76,1.2,7.6,4.81Zm311,198.59,7.6,4.82.76-1.21-7.59-4.82ZM197.46,114.16l-5.17-7.36-1.18.81L196.3,115Zm211.3,302.47,5.19,7.36,1.17-.81-5.19-7.37ZM151.86,371l-7.36,5.18.83,1.16,7.34-5.18ZM454.36,159.75l7.36-5.18-.82-1.17-7.36,5.19ZM336.89,74.88l-1.39-.24-1.55,8.87,1.41.24Zm-67.56,381,1.4.24,1.55-8.87-1.41-.24ZM121.45,233.16l-8.86-1.54-.25,1.4,8.87,1.54Zm363.3,64.47,8.87,1.54.23-1.41L485,296.22ZM281.22,82.2l-1.1-8.93-1.41.18,1.1,8.93ZM325,448.57l1.1,8.94,1.41-.18-1.1-8.94ZM119.92,287.26,111,288.37l.18,1.42,8.93-1.1ZM486.3,243.52l8.92-1.1-.17-1.42-8.93,1.11ZM417.18,120.38l5.54-7.09-1.13-.87L416,119.51ZM189,410.39l-5.54,7.1,1.14.86,5.53-7.09ZM158.11,151.33,151,145.8l-.88,1.12,7.09,5.53Zm290,228.13L455.2,385l.88-1.12L449,378.33ZM212.8,104.52l-4.44-7.83-1.24.71,4.44,7.83ZM393.43,426.25l4.43,7.84,1.24-.7-4.44-7.83ZM142.24,355.7l-7.83,4.43.7,1.24,7.84-4.44ZM464,175.08l7.83-4.43-.69-1.24-7.83,4.43Zm-108.57-96L354,78.73l-2.4,8.66,1.38.38ZM250.82,451.67l1.37.39,2.42-8.67-1.38-.38ZM125.5,215.5l-8.68-2.39-.39,1.37,8.68,2.4Zm355.21,99.78,8.68,2.4.38-1.38-8.68-2.4ZM241.74,81.9l2.82,8.55,1.35-.45-2.81-8.54ZM360.3,440.78l2.83,8.55,1.36-.44-2.83-8.55ZM127.72,322.58l-8.55,2.82.44,1.35,8.55-2.81ZM478.51,208.19l8.55-2.82L486.6,204l-8.54,2.82ZM386.7,100.92l4-8-1.28-.64-4,8ZM219.53,429.86l-4,8,1.27.65,4-8Zm-80.88-248-8-4.05L130,179l8,4.05ZM467.58,349l8,4,.64-1.27-8-4ZM183.14,125.23l-5.87-6.81-1.08.93,5.88,6.82ZM423.07,405.55l5.88,6.82,1.08-.93-5.88-6.82Zm-260.13-20.2-6.81,5.88.94,1.08,6.81-5.88ZM443.27,145.42l6.82-5.87-.94-1.08-6.81,5.88ZM316,81.35l1.43.11.66-9-1.43-.1ZM288.16,458.29l1.42.11.67-9-1.43-.12Zm-169-207.18-9-.67-.11,1.42,9,.66Zm367.88,28.55,9,.67.11-1.42-9-.66ZM290.24,81.35l-.65-9-1.42.1.67,9ZM316,449.43l.66,9,1.43-.11-.67-9ZM119.07,278.26l-9,.65.11,1.42,9-.65Zm368.08-25.73,9-.67-.11-1.42-9,.67Zm-63-126.36,5.87-6.82-1.08-.93-5.87,6.81ZM182.07,404.61l-5.88,6.82,1.08.93,5.87-6.82ZM163.88,144.35l-6.81-5.88-.94,1.08,6.81,5.87ZM442.34,386.43l6.81,5.88.94-1.09-6.82-5.87ZM220.8,100.29l-4-8-1.28.64,4.05,8ZM385.42,430.5l4.06,8,1.27-.65-4-8ZM138,347.7l-8,4,.64,1.27,8-4ZM468.23,183.08l8-4-.64-1.27-8,4.05ZM360.3,90l1.35.45,2.83-8.55-1.36-.45ZM241.74,448.89l1.36.44,2.81-8.55-1.35-.44Zm-113.58-242L119.61,204l-.44,1.36,8.55,2.82ZM478.07,323.93l8.54,2.82.46-1.35-8.55-2.82ZM254.59,87.4l-2.4-8.66-1.37.37,2.4,8.67Zm97,356,2.41,8.67,1.37-.39L353,443ZM125.12,313.9l-8.68,2.4.39,1.38,8.68-2.4Zm356-97,8.67-2.4-.38-1.36-8.68,2.39ZM394.67,105.22l4.43-7.83-1.23-.7-4.43,7.83ZM211.56,425.56l-4.44,7.83,1.24.7,4.44-7.84ZM142.94,173.83l-7.84-4.43-.7,1.24,7.83,4.43ZM463.28,356.94l7.83,4.44.69-1.24L464,355.7ZM190.17,119.51l-5.54-7.09-1.12.88,5.54,7.08ZM416.06,411.27l5.54,7.09,1.12-.86-5.54-7.1ZM157.23,378.33l-7.09,5.54L151,385l7.08-5.54ZM449,152.44l7.1-5.53-.87-1.12-7.11,5.53ZM325,82.2l1.42.18,1.1-8.93-1.41-.18ZM278.72,457.32l1.42.18,1.09-8.93-1.41-.18ZM120.1,242.1,111.17,241l-.18,1.42,8.93,1.1Zm366,46.57,8.93,1.11.17-1.41-8.92-1.11ZM272.27,83.5l-1.54-8.87-1.4.24,1.54,8.87Zm61.67,363.78,1.55,8.87,1.4-.24L335.35,447ZM121.22,296.22l-8.87,1.54.25,1.41,8.86-1.54ZM485,234.56l8.86-1.54-.23-1.4-8.87,1.54ZM409.92,115l5.18-7.36-1.16-.81-5.19,7.36ZM196.3,415.81l-5.19,7.37,1.18.81,5.17-7.35ZM152.68,158.58l-7.35-5.19-.82,1.17,7.36,5.18ZM453.53,372.2l7.36,5.18.82-1.16L454.36,371ZM205,109.15l-4.82-7.61-1.2.77,4.81,7.6Zm196.2,312.49,4.81,7.6,1.21-.75-4.82-7.62ZM146.87,363.48l-7.61,4.82.76,1.21,7.6-4.82ZM459.37,167.29l7.59-4.81-.77-1.21-7.59,4.82ZM346.19,76.77l-1.38-.32-2,8.79,1.39.31ZM260,454l1.39.32,2-8.79-1.39-.32ZM123.26,224.28l-8.77-2-.32,1.39,8.79,2ZM483,306.5l8.79,2,.32-1.39-8.79-2ZM237.38,93l-3.25-8.4-1.33.52,3.25,8.4ZM368.85,437.76l3.24,8.4,1.32-.51-3.23-8.4ZM130.72,331.12l-8.39,3.24.51,1.32,8.41-3.24ZM475.48,199.66l8.41-3.24-.51-1.33L475,198.33ZM378.52,97l3.65-8.22-1.31-.58-3.64,8.22ZM227.7,433.76,224,442l1.3.58,3.66-8.23ZM134.74,190l-8.23-3.65-.58,1.31,8.23,3.65ZM471.49,340.8l8.23,3.65.58-1.3L472,339.5ZM176.41,131.29l-6.21-6.52-1,1,6.21,6.51Zm253.4,268.2L436,406l1-1-6.21-6.51ZM169,392.08l-6.51,6.21,1,1,6.51-6.2ZM437.22,138.7l6.51-6.21-1-1-6.51,6.21ZM308.58,72l-1.43,0-.21,9,1.42,0ZM297.65,458.79l1.43,0,.22-9-1.43,0Zm-179-198.64-9-.22,0,1.43,9,.23Zm368.83,10.47,9,.22,0-1.42-9-.22Z"
          transform="translate(-14.5 -64.76)"/>
    <path class="cls-3"
          d="M442.38,419.46a17.81,17.81,0,0,1-2.82-.23l-98.47-15.79c-9.19-1.47-16.22-7.83-16.82-15a7.18,7.18,0,0,0-3.67-.88h-35a7.18,7.18,0,0,0-3.67.88c-.6,7.19-7.63,13.55-16.82,15l-98.47,15.79a17.82,17.82,0,0,1-2.82.23,14.54,14.54,0,0,1-11.29-5,15.27,15.27,0,0,1-3.23-12.56l15.79-98.47c.35-2.19.71-4.29,1-6.09l-1.88-1.09-32.07-18.52c-4.78-2.76-7.52-7-7.52-11.73s2.74-9,7.52-11.73l32.07-18.52,1.88-1.09c-.32-1.8-.68-3.9-1-6.09l-15.79-98.47a15.27,15.27,0,0,1,3.23-12.56,14.54,14.54,0,0,1,11.29-5,17.82,17.82,0,0,1,2.82.23l98.47,15.79,5.92,1,20.32-35.19c2.76-4.78,7-7.52,11.73-7.52s9,2.74,11.73,7.52l20.32,35.19,5.92-1,98.47-15.79a17.82,17.82,0,0,1,2.82-.23,14.54,14.54,0,0,1,11.29,5,15.27,15.27,0,0,1,3.23,12.56l-15.79,98.47c-.35,2.19-.71,4.29-1,6.09l34,19.61c4.78,2.76,7.52,7,7.52,11.73s-2.74,9-7.52,11.73L442,296.24l-1.88,1.09c.32,1.8.68,3.9,1,6.09l15.79,98.47a15.27,15.27,0,0,1-3.23,12.56,14.54,14.54,0,0,1-11.29,5Z"
          transform="translate(-14.5 -64.76)"/>
    <path class="cls-2"
          d="M442.38,420.1h0a18.5,18.5,0,0,1-2.92-.24L341,404.08c-9.28-1.49-16.5-7.87-17.32-15.25a6.93,6.93,0,0,0-3.07-.63h-35a6.91,6.91,0,0,0-3.07.63c-.82,7.38-8,13.77-17.32,15.25l-98.47,15.79a18.52,18.52,0,0,1-2.93.24,15.17,15.17,0,0,1-11.78-5.24,15.9,15.9,0,0,1-3.37-13.08l15.79-98.47c.32-2,.65-4,1-5.66l-1.49-.86-32.08-18.52c-5-2.87-7.84-7.35-7.84-12.28s2.86-9.41,7.84-12.28l32.07-18.52,1.49-.86c-.3-1.7-.63-3.64-1-5.66l-15.79-98.47a15.9,15.9,0,0,1,3.37-13.08,15.16,15.16,0,0,1,11.78-5.24,18.48,18.48,0,0,1,2.93.24l98.47,15.79,5.49.89L290.83,94c2.88-5,7.36-7.84,12.29-7.84S312.52,89,315.4,94l20.1,34.81,5.49-.89,98.47-15.79a18.44,18.44,0,0,1,2.93-.24,15.17,15.17,0,0,1,11.78,5.24,15.9,15.9,0,0,1,3.37,13.07l-15.79,98.47c-.32,2-.65,4-.95,5.66l33.56,19.38c5,2.88,7.84,7.36,7.84,12.29s-2.86,9.41-7.84,12.28L442.29,296.8l-1.49.86c.3,1.7.63,3.65.95,5.66l15.79,98.47a15.9,15.9,0,0,1-3.37,13.08A15.16,15.16,0,0,1,442.38,420.1ZM285.63,386.91h35a7.64,7.64,0,0,1,4,1,.64.64,0,0,1,.3.49c.58,6.95,7.43,13,16.28,14.44l98.47,15.79A14.42,14.42,0,0,0,453.19,414a14.64,14.64,0,0,0,3.08-12l-15.79-98.47c-.35-2.18-.7-4.28-1-6.08a.64.64,0,0,1,.31-.66l1.88-1.09,32.07-18.52c4.57-2.64,7.2-6.71,7.2-11.18s-2.62-8.54-7.2-11.18l-34-19.61a.64.64,0,0,1-.31-.66c.32-1.8.67-3.89,1-6.08L456.27,130a14.64,14.64,0,0,0-3.08-12,13.91,13.91,0,0,0-10.81-4.79,17.23,17.23,0,0,0-2.72.22l-98.47,15.79-5.91,1a.64.64,0,0,1-.66-.31L314.29,94.63c-2.64-4.58-6.72-7.2-11.18-7.2s-8.53,2.62-11.18,7.2l-20.32,35.19a.64.64,0,0,1-.66.31l-5.91-1-98.47-15.79a17.27,17.27,0,0,0-2.72-.22A13.91,13.91,0,0,0,153,117.95,14.65,14.65,0,0,0,150,130l15.79,98.47c.35,2.18.7,4.28,1,6.08a.64.64,0,0,1-.31.66l-1.88,1.09-32.07,18.52c-4.58,2.64-7.2,6.71-7.2,11.18s2.62,8.53,7.2,11.17l32.07,18.52,1.88,1.09a.64.64,0,0,1,.31.66c-.32,1.8-.67,3.9-1,6.08L150,402A14.65,14.65,0,0,0,153,414a14.42,14.42,0,0,0,13.53,4.57L265,402.82c8.85-1.42,15.7-7.49,16.28-14.44a.64.64,0,0,1,.3-.49A7.64,7.64,0,0,1,285.63,386.91Z"
          transform="translate(-14.5 -64.76)"/>
    <path class="cls-2"
          d="M356.16,340.64H251.08V318.18H228.47V214h22.61V191.34H356.16V214h21.6V318.18h-21.6Zm-103.93-1.16H355V317h21.6V215.11H355V192.5H252.24v22.61H229.63V317h22.61Z"
          transform="translate(-14.5 -64.76)"/>
    <polygon class="cls-1"
             points="334.51 268.73 334.51 246.27 356.11 246.27 356.11 156.35 334.51 156.35 334.51 133.74 243.73 133.74 243.73 156.35 221.12 156.35 221.12 246.27 243.73 246.27 243.73 268.73 334.51 268.73"/>
    <path class="cls-2"
          d="M350.53,335H256.71V312.55H234.1v-93h22.61V197h93.82v22.61h21.6v93h-21.6Zm-90.78-3h87.74V309.51h21.6V222.63h-21.6V200H259.75v22.61H237.14v86.88h22.61Z"
          transform="translate(-14.5 -64.76)"/>
    <path class="cls-1"
          d="M432.37,394.7l-85.05-13.64v-16.6h-88.4v16.6L173.86,394.7l13.64-85.05h16.4V222.34H187.5l-13.64-85.05,85.05,13.64v16.4h88.4v-16.4l85.05-13.64-13.64,85.05H401v87.31h17.68ZM352,377.11l74.82,12-12-74.82H396.41V217.7h18.37l12-74.82-74.82,12V172H254.28V154.87l-74.82-12,12,74.82h17.09v96.59H191.45l-12,74.82,74.82-12V359.83H352Z"
          transform="translate(-14.5 -64.76)"/>
    <path class="cls-1"
          d="M163.83,413.49a8.69,8.69,0,0,1-6.3-2.45,9.18,9.18,0,0,1-2.3-8.2L171,304.37c.88-5.51,1.37-8.46,1.77-10-.95-.59-2.83-1.71-5.54-3.28l-32.07-18.52c-2.92-1.69-4.53-4-4.53-6.55s1.61-4.87,4.53-6.55l32.07-18.52c2.71-1.57,4.59-2.69,5.54-3.28-.4-1.57-.89-4.52-1.77-10l-15.79-98.47a8.69,8.69,0,0,1,10.49-10.5l98.47,15.79c5.37.86,8.31,1.33,9.91,1.7.64-1.07,2-3.35,3.67-6.3L296.56,97.3c1.69-2.92,4-4.53,6.55-4.53s4.87,1.61,6.55,4.53l18.79,32.54c1.7,2.95,3,5.22,3.67,6.3,1.6-.37,4.53-.84,9.91-1.7l98.47-15.79a8.69,8.69,0,0,1,10.5,10.5l-15.79,98.47c-.88,5.51-1.37,8.45-1.77,10,.95.59,2.83,1.71,5.54,3.28l32.07,18.52c2.92,1.69,4.53,4,4.53,6.55s-1.61,4.87-4.53,6.55L439,291.06c-2.71,1.56-4.59,2.69-5.54,3.28.4,1.57.89,4.52,1.77,10L451,402.84a8.69,8.69,0,0,1-10.5,10.5L342,397.55c-6.63-1.06-11.83-5.51-11.83-10.12,0-3.17-4.4-5.85-9.61-5.85h-35c-5.21,0-9.61,2.68-9.61,5.85,0,4.61-5.2,9.06-11.83,10.12l-98.47,15.79A12,12,0,0,1,163.83,413.49Zm11.59-119c-.21.76-.91,4.35-1.87,10.33l-15.79,98.47a6.15,6.15,0,0,0,7.56,7.56L263.79,395c5.24-.84,9.68-4.32,9.68-7.59,0-4.64,5.46-8.41,12.17-8.41h35c6.71,0,12.17,3.77,12.17,8.41,0,3.27,4.43,6.75,9.68,7.59l98.47,15.79a6.15,6.15,0,0,0,7.56-7.56l-15.79-98.47c-1-6-1.66-9.56-1.87-10.33a1.29,1.29,0,0,1-.12-.3c-.29-1.09-.29-1.09,7-5.3l32.07-18.52c2.1-1.21,3.25-2.75,3.25-4.34s-1.15-3.13-3.25-4.34L437.7,243.14c-7.3-4.21-7.3-4.21-7-5.3a1.24,1.24,0,0,1,.12-.3c.21-.76.91-4.35,1.87-10.33l15.79-98.47a6.15,6.15,0,0,0-7.56-7.56L342.44,137c-5.76.92-9.86,1.63-10.52,1.78l-.1,0c-1,.27-1,.26-5.58-7.65L307.45,98.58c-1.21-2.1-2.75-3.25-4.34-3.25s-3.13,1.15-4.33,3.25L280,131.12c-4.57,7.91-4.57,7.92-5.58,7.65l-.1,0c-.66-.15-4.76-.85-10.52-1.78l-98.47-15.79a6.15,6.15,0,0,0-7.56,7.56l15.79,98.47c1,6,1.66,9.57,1.87,10.33a1.24,1.24,0,0,1,.12.3c.29,1.09.29,1.09-7,5.3l-32.07,18.52c-2.1,1.21-3.25,2.75-3.25,4.34s1.15,3.13,3.25,4.34l32.07,18.52c7.3,4.21,7.3,4.21,7,5.3A1.29,1.29,0,0,1,175.42,294.45Zm256,.53a1.23,1.23,0,0,0,.55.13A1.27,1.27,0,0,1,431.38,295Zm-256.52,0a1.28,1.28,0,0,1-.55.13A1.25,1.25,0,0,0,174.85,295Zm257.07-58.09a1.23,1.23,0,0,0-.55.13A1.26,1.26,0,0,1,431.93,236.88Zm-257.63,0a1.26,1.26,0,0,1,.55.13A1.23,1.23,0,0,0,174.3,236.88Z"
          transform="translate(-14.5 -64.76)"/>
    <path class="cls-2"
          d="M421.84,384.17,356,373.63V355.74H250.19v17.89l-65.8,10.55,10.55-65.8h17.69V213.61H194.94l-10.55-65.8,65.8,10.55V176H356V158.36l65.8-10.55-10.55,65.8h-19V318.37h19Zm-64.52-11.64,63,10.09-10.1-63H391V212.33H410.2l10.1-63-63,10.1v17.88H248.91V159.45l-63-10.1,10.1,63h17.88V319.65H196l-10.1,63,63-10.09V354.46H357.32Zm55.26,2.37-48.85-7.83v-19H242.5v19l-48.85,7.83,7.83-48.85h18.83V205.93H201.49l-7.83-48.85,48.85,7.83v18.83H363.72V164.91l48.85-7.83-7.83,48.85H384.64V326.06h20.11ZM365,366l46,7.38-7.38-46H383.36V204.65h20.29l7.38-46L365,166v19H241.23V166l-46-7.38,7.38,46h19V327.34h-19l-7.38,46,46-7.38V346.78H365Z"
          transform="translate(-14.5 -64.76)"/>
    <polygon class="cls-2"
             points="173.52 86.63 173.6 86.54 174.34 87.28 174.26 87.37 174.26 87.37 176.46 85.17 175.19 84.96 173.52 86.63 173.52 86.63"/>
    <polygon class="cls-2" points="172.21 84.48 171.42 84.36 171.87 84.82 172.21 84.48"/>
    <rect class="cls-2" x="188.37" y="151.19" width="0.12" height="1.05"
          transform="translate(-66.6 112.83) rotate(-44.98)"/>
    <rect class="cls-2" x="186.27" y="149.61" width="0.12" transform="translate(-65.73 110.72) rotate(-44.98)"/>
    <polygon class="cls-2" points="171.87 84.82 171.42 84.36 171.21 84.33 171.79 84.9 171.87 84.82"/>
    <polygon class="cls-2" points="406.08 318.15 406.07 318.12 406.04 318.15 406.08 318.15"/>
    <polygon class="cls-2" points="401.42 314.37 404.91 310.88 404.71 309.61 400.69 313.63 401.42 314.37"/>
    <polygon class="cls-2" points="403.89 316.83 405.59 315.13 405.39 313.86 403.15 316.1 403.89 316.83"/>
    <polygon class="cls-2" points="398.96 311.9 404.23 306.63 404.02 305.35 398.22 311.16 398.96 311.9"/>
    <rect class="cls-2" x="415.45" y="378.27" width="0.12" height="1.05"
          transform="translate(-160.65 340) rotate(-45)"/>
    <rect class="cls-2" x="417.92" y="380.74" width="0.12" height="1.05"
          transform="translate(-161.67 342.47) rotate(-45)"/>
    <rect class="cls-2" x="412.98" y="375.8" width="0.12" height="1.05"
          transform="translate(-159.62 337.53) rotate(-45)"/>
    <polygon class="cls-2" points="174.17 87.46 174.26 87.37 174.26 87.37 174.17 87.46"/>
    <rect class="cls-2" x="187.91" y="151.43" width="0.12" transform="translate(-66.51 112.61) rotate(-45.02)"/>
    <polygon class="cls-2" points="173.43 86.72 171.8 88.35 172 89.62 174.17 87.46 173.43 86.72"/>
    <rect class="cls-2" x="188.28" y="151.28" width="0.12" height="1.05"
          transform="translate(-66.66 112.98) rotate(-45.02)"/>
    <polygon class="cls-2" points="171.79 84.9 171.7 84.99 171.18 84.46 171.32 85.37 171.79 84.9 171.79 84.9"/>
    <polygon class="cls-2" points="171.79 84.9 171.21 84.33 171.16 84.32 171.18 84.46 171.7 84.99 171.79 84.9"/>
    <polygon class="cls-2" points="400.51 313.8 397.53 316.78 398.8 316.99 401.25 314.54 400.51 313.8"/>
    <rect class="cls-2" x="415.36" y="378.36" width="0.12" height="1.05"
          transform="translate(-160.72 340.2) rotate(-45.02)"/>
    <polygon class="cls-2" points="402.98 316.27 401.78 317.47 403.06 317.67 403.72 317.01 402.98 316.27"/>
    <rect class="cls-2" x="417.83" y="380.83" width="0.12" height="1.05"
          transform="translate(-161.74 342.67) rotate(-45.02)"/>
    <polygon class="cls-2" points="398.05 311.33 393.27 316.1 394.55 316.31 398.79 312.07 398.05 311.33"/>
    <rect class="cls-2" x="412.9" y="375.89" width="0.12" height="1.05"
          transform="translate(-159.7 337.73) rotate(-45.02)"/>
    <polygon class="cls-2"
             points="396.49 111.97 396.4 112.05 396.4 112.05 402.63 105.83 402.91 104.06 395.75 111.23 396.49 111.97"/>
    <polygon class="cls-2" points="395.29 103.3 404.51 94.07 404.8 92.31 395.57 101.53 395.29 103.3"/>
    <polygon class="cls-2" points="394.85 93.86 404.07 84.64 402.31 84.92 393.08 94.15 394.85 93.86"/>
    <polygon class="cls-2" points="383.09 95.75 392.31 86.52 390.55 86.81 381.32 96.03 383.09 95.75"/>
    <polygon class="cls-2" points="376.74 92.22 380.56 88.41 378.79 88.69 376 91.48 376.74 92.22"/>
    <polygon class="cls-2" points="394.34 109.18 403.57 99.95 403.85 98.19 394.63 107.41 394.34 109.18"/>
    <polygon class="cls-2" points="396.23 97.42 405.46 88.19 405.74 86.43 396.51 95.66 396.23 97.42"/>
    <polygon class="cls-2" points="388.97 94.81 398.19 85.58 396.43 85.86 387.2 95.09 388.97 94.81"/>
    <polygon class="cls-2"
             points="379.21 94.69 379.13 94.78 379.13 94.78 386.44 87.47 384.67 87.75 378.47 93.95 379.21 94.69"/>
    <polygon class="cls-2" points="374.19 89.84 374.19 89.84 374.68 89.35 373.98 89.46 374.27 89.75 374.19 89.84"/>
    <rect class="cls-2" x="410.14" y="176.03" width="0.12" transform="translate(-18.82 276.86) rotate(-45)"/>
    <rect class="cls-2" x="410.51" y="175.87" width="0.12" height="1.05"
          transform="translate(-18.97 277.23) rotate(-45)"/>
    <polygon class="cls-2" points="376 91.48 375.92 91.57 375.92 91.57 376 91.48"/>
    <rect class="cls-2" x="391.14" y="157.02" width="0.12" transform="translate(-10.95 257.85) rotate(-45)"/>
    <rect class="cls-2" x="390.77" y="156.13" width="0.12" height="1.05"
          transform="translate(-10.8 257.48) rotate(-45)"/>
    <polygon class="cls-2" points="378.47 93.95 378.47 93.95 378.38 94.03 378.38 94.03 378.47 93.95"/>
    <rect class="cls-2" x="393.24" y="158.59" width="0.12" height="1.05"
          transform="translate(-11.82 259.95) rotate(-45)"/>
    <polygon class="cls-2" points="374.27 89.75 373.98 89.46 373.83 89.48 374.19 89.84 374.27 89.75"/>
    <polygon class="cls-2" points="400.6 116.25 400.69 116.16 400.93 116.41 401.02 115.82 400.6 116.25 400.6 116.25"/>
    <polygon class="cls-2" points="398.96 114.44 401.69 111.71 401.97 109.94 398.22 113.69 398.96 114.44"/>
    <polygon class="cls-2" points="400.6 116.25 400.91 116.56 400.93 116.41 400.69 116.16 400.6 116.25"/>
    <rect class="cls-2" x="413.35" y="179.23" width="0.12" transform="translate(-20.15 280.07) rotate(-45)"/>
    <polygon class="cls-2" points="398.22 113.69 398.13 113.78 398.13 113.78 398.22 113.69"/>
    <rect class="cls-2" x="412.98" y="178.34" width="0.12" height="1.05" transform="translate(-20 279.7) rotate(-45)"/>
    <polygon class="cls-2" points="347.12 111.97 349.61 109.48 349.61 108 346.38 111.23 347.12 111.97"/>
    <polygon class="cls-2" points="359.57 99.52 368.8 90.29 367.04 90.58 357.81 99.8 359.57 99.52"/>
    <polygon class="cls-2" points="357.04 92.18 355.28 92.46 341.96 105.78 341.96 106.8 342.19 107.03 357.04 92.18"/>
    <polygon class="cls-2" points="343.52 94.34 341.96 95.91 341.96 97.39 345.28 94.06 343.52 94.34"/>
    <polygon class="cls-2" points="353.69 100.46 362.92 91.23 361.16 91.52 351.93 100.75 353.69 100.46"/>
    <polygon class="cls-2"
             points="349.61 103.06 343.83 108.84 343.83 108.84 343.91 108.76 344.65 109.5 344.57 109.58 344.57 109.58 349.61 104.55 349.61 103.06"/>
    <polygon class="cls-2" points="349.4 93.4 341.96 100.84 341.96 102.32 351.16 93.12 349.4 93.4"/>
    <rect class="cls-2" x="360.78" y="176.03" width="0.12" transform="translate(-33.28 241.95) rotate(-45)"/>
    <rect class="cls-2" x="361.52" y="176.77" width="0.12" transform="translate(-33.59 242.69) rotate(-45)"/>
    <rect class="cls-2" x="361.15" y="175.87" width="0.12" height="1.05"
          transform="translate(-33.43 242.32) rotate(-45)"/>
    <rect class="cls-2" x="356.58" y="171.83" width="0.12" transform="translate(-31.54 237.76) rotate(-45)"/>
    <polygon class="cls-2" points="342.19 107.03 341.96 106.8 341.96 106.97 342.1 107.12 342.19 107.03"/>
    <rect class="cls-2" x="358.68" y="173.4" width="0.12" height="1.05"
          transform="translate(-32.41 239.85) rotate(-45)"/>
    <rect class="cls-2" x="410.8" y="176.85" width="0.12" transform="translate(-19.21 277.56) rotate(-45)"/>
    <polygon class="cls-2" points="379.13 94.78 379.13 94.78 379.04 94.86 379.13 94.78"/>
    <rect class="cls-2" x="388.58" y="154.64" width="0.12" transform="translate(-10.01 255.35) rotate(-45)"/>
    <polygon class="cls-2"
             points="393.4 115.05 396.32 112.14 395.58 111.4 395.66 111.31 395.66 111.31 393.68 113.29 393.4 115.05"/>
    <rect class="cls-2" x="410.43" y="175.96" width="0.12" height="1.05"
          transform="translate(-19.06 277.19) rotate(-45)"/>
    <polygon class="cls-2"
             points="371.33 97.64 376.66 92.31 376.66 92.31 376.57 92.39 375.83 91.65 375.92 91.57 375.92 91.57 369.56 97.92 371.33 97.64"/>
    <rect class="cls-2" x="390.68" y="156.21" width="0.12" height="1.05"
          transform="translate(-10.94 257.3) rotate(-44.98)"/>
    <polygon class="cls-2" points="378.38 94.03 378.38 94.03 378.3 94.12 378.38 94.03"/>
    <polygon class="cls-2" points="378.3 94.12 375.44 96.97 377.21 96.69 379.04 94.86 378.3 94.12"/>
    <rect class="cls-2" x="393.15" y="158.68" width="0.12" height="1.05"
          transform="translate(-12.03 259.62) rotate(-44.96)"/>
    <polygon class="cls-2" points="365.45 98.58 374.1 89.92 373.69 89.51 372.91 89.63 363.69 98.86 365.45 98.58"/>
    <polygon class="cls-2" points="349.59 114.44 349.61 114.42 349.61 112.94 348.85 113.69 349.59 114.44"/>
    <polygon class="cls-2" points="374.19 89.84 373.83 89.48 373.69 89.51 374.1 89.92 374.19 89.84"/>
    <rect class="cls-2" x="363.99" y="179.23" width="0.12" transform="translate(-34.61 245.16) rotate(-45)"/>
    <polygon class="cls-2" points="348.85 113.69 348.76 113.78 348.76 113.78 348.85 113.69"/>
    <rect class="cls-2" x="363.62" y="178.34" width="0.12" height="1.05"
          transform="translate(-34.46 244.79) rotate(-45)"/>
    <rect class="cls-2" x="414.99" y="181.05" width="0.12" transform="translate(-20.95 281.76) rotate(-45)"/>
    <polygon class="cls-2" points="389.64 148.44 396.97 141.1 397.25 139.34 388.16 148.44 389.64 148.44"/>
    <polygon class="cls-2" points="389.63 138.57 398.86 129.34 399.14 127.58 389.91 136.81 389.63 138.57"/>
    <polygon class="cls-2"
             points="380.85 145.87 380.85 145.87 380.94 145.78 381.68 146.52 387.42 140.78 385.94 140.78 380.85 145.87"/>
    <polygon class="cls-2" points="391.8 125.05 391.51 126.81 400.74 117.59 400.88 116.71 400.51 116.33 391.8 125.05"/>
    <polygon class="cls-2" points="376.74 141.59 377.55 140.78 376.06 140.78 376 140.85 376.74 141.59"/>
    <polygon class="cls-2" points="400.51 116.33 400.88 116.71 400.91 116.56 400.6 116.25 400.51 116.33"/>
    <polygon class="cls-2" points="394.58 148.44 396.03 146.98 396.31 145.22 393.1 148.44 394.58 148.44"/>
    <polygon class="cls-2"
             points="383.32 148.34 383.41 148.25 383.59 148.44 384.7 148.44 397.92 135.22 398.2 133.46 383.32 148.34 383.32 148.34"/>
    <polygon class="cls-2"
             points="378.38 143.4 378.47 143.31 379.21 144.06 382.48 140.78 381 140.78 378.38 143.4 378.38 143.4"/>
    <polygon class="cls-2" points="390.57 132.69 399.8 123.47 400.08 121.7 390.86 130.93 390.57 132.69"/>
    <polygon class="cls-2"
             points="392.46 120.94 398.87 114.52 398.87 114.52 398.79 114.61 398.05 113.87 398.13 113.78 398.13 113.78 392.74 119.17 392.46 120.94"/>
    <rect class="cls-2" x="412.9" y="178.43" width="0.12" height="1.05"
          transform="translate(-20.15 279.5) rotate(-44.98)"/>
    <rect class="cls-2" x="395.7" y="210.43" width="0.12" height="1.05"
          transform="translate(-47.75 276.88) rotate(-45)"/>
    <polygon class="cls-2" points="375.92 140.93 375.92 140.93 376 140.85 375.92 140.93"/>
    <rect class="cls-2" x="391.14" y="206.39" width="0.12" transform="translate(-45.86 272.31) rotate(-45)"/>
    <rect class="cls-2" x="390.77" y="205.49" width="0.12" height="1.05"
          transform="translate(-45.7 271.94) rotate(-45)"/>
    <polygon class="cls-2" points="383.32 148.34 383.42 148.44 383.59 148.44 383.41 148.25 383.32 148.34"/>
    <rect class="cls-2" x="393.61" y="208.85" width="0.12" transform="translate(-46.88 274.78) rotate(-45)"/>
    <rect class="cls-2" x="393.24" y="207.96" width="0.12" height="1.05"
          transform="translate(-46.72 274.41) rotate(-45)"/>
    <rect class="cls-2" x="358.96" y="174.38" width="0.12" transform="translate(-32.65 240.19) rotate(-45)"/>
    <rect class="cls-2" x="358.22" y="173.64" width="0.12" transform="translate(-32.34 239.45) rotate(-45)"/>
    <polygon class="cls-2"
             points="347.04 112.05 347.04 112.05 346.95 112.14 346.21 111.4 346.3 111.31 346.3 111.31 337.65 119.96 339.13 119.96 347.04 112.05"/>
    <rect class="cls-2" x="361.06" y="175.96" width="0.12" height="1.05"
          transform="translate(-33.52 242.29) rotate(-45)"/>
    <polygon class="cls-2" points="342.1 107.12 342.01 107.2 341.96 107.14 341.96 107.26 342.1 107.12 342.1 107.12"/>
    <polygon class="cls-2" points="329.26 119.96 336.91 112.31 335.43 112.31 327.78 119.96 329.26 119.96"/>
    <polygon class="cls-2" points="342.1 107.12 341.96 106.97 341.96 107.14 342.01 107.2 342.1 107.12"/>
    <polygon class="cls-2" points="319.39 119.96 327.04 112.31 325.56 112.31 317.91 119.96 319.39 119.96"/>
    <polygon class="cls-2" points="309.51 119.96 317.16 112.31 315.68 112.31 308.03 119.96 309.51 119.96"/>
    <polygon class="cls-2"
             points="301.87 116.25 301.95 116.16 302.69 116.9 302.61 116.99 302.61 116.99 307.29 112.31 305.81 112.31 301.87 116.25 301.87 116.25"/>
    <polygon class="cls-2" points="334.2 119.96 341.85 112.31 340.37 112.31 332.72 119.96 334.2 119.96"/>
    <polygon class="cls-2" points="343.74 108.93 341.96 110.72 341.96 112.2 344.48 109.67 343.74 108.93"/>
    <rect class="cls-2" x="358.59" y="173.49" width="0.12" height="1.05"
          transform="translate(-32.5 239.82) rotate(-45)"/>
    <polygon class="cls-2" points="324.32 119.96 331.97 112.31 330.49 112.31 322.84 119.96 324.32 119.96"/>
    <polygon class="cls-2" points="314.45 119.96 322.1 112.31 320.62 112.31 312.97 119.96 314.45 119.96"/>
    <polygon class="cls-2"
             points="304.34 118.72 304.42 118.63 305.16 119.37 312.23 112.31 310.75 112.31 304.34 118.72 304.34 118.72"/>
    <polygon class="cls-2" points="300.23 114.44 302.35 112.31 300.87 112.31 299.49 113.69 300.23 114.44"/>
    <rect class="cls-2" x="316.72" y="180.81" width="0.12" height="1.05"
          transform="translate(-49.94 212.35) rotate(-45)"/>
    <rect class="cls-2" x="319.56" y="184.17" width="0.12" transform="translate(-51.11 215.19) rotate(-45)"/>
    <rect class="cls-2" x="319.19" y="183.28" width="0.12" height="1.05"
          transform="translate(-51.03 214.55) rotate(-44.96)"/>
    <rect class="cls-2" x="314.62" y="179.23" width="0.12" transform="translate(-49.07 210.25) rotate(-45)"/>
    <polygon class="cls-2" points="299.49 113.69 299.4 113.78 299.4 113.78 299.49 113.69"/>
    <rect class="cls-2" x="314.25" y="178.34" width="0.12" height="1.05"
          transform="translate(-48.91 209.88) rotate(-45)"/>
    <polygon class="cls-2" points="349 119.96 349.61 119.36 349.61 117.88 347.52 119.96 349 119.96"/>
    <polygon class="cls-2"
             points="349.5 114.52 349.42 114.61 348.68 113.87 348.76 113.78 348.76 113.78 342.59 119.96 344.07 119.96 349.5 114.52 349.5 114.52"/>
    <rect class="cls-2" x="363.53" y="178.43" width="0.12" height="1.05"
          transform="translate(-34.59 244.61) rotate(-44.98)"/>
    <polygon class="cls-2" points="380.85 145.87 380.77 145.96 380.85 145.87 380.85 145.87"/>
    <rect class="cls-2" x="397.72" y="213.14" width="0.12" transform="translate(-48.7 278.94) rotate(-45)"/>
    <rect class="cls-2" x="392.78" y="208.2" width="0.12" transform="translate(-46.66 274) rotate(-45)"/>
    <polygon class="cls-2"
             points="370.98 185.36 371.06 185.28 371.81 186.02 376.81 181.01 376.81 179.53 370.98 185.36 370.98 185.36"/>
    <polygon class="cls-2" points="369.16 178.79 376.81 171.14 376.81 169.66 369.16 177.31 369.16 178.79"/>
    <polygon class="cls-2" points="369.16 168.91 376.81 161.26 376.81 159.78 369.16 167.44 369.16 168.91"/>
    <polygon class="cls-2" points="369.16 159.04 376.81 151.39 376.81 149.91 369.16 157.56 369.16 159.04"/>
    <polygon class="cls-2" points="380.77 145.96 378.29 148.44 379.77 148.44 381.51 146.69 380.77 145.96"/>
    <rect class="cls-2" x="395.62" y="210.51" width="0.12" height="1.05"
          transform="translate(-47.83 276.84) rotate(-45)"/>
    <polygon class="cls-2"
             points="376.66 141.67 376.57 141.76 375.83 141.02 375.92 140.93 375.92 140.93 369.16 147.69 369.16 149.17 376.66 141.67 376.66 141.67"/>
    <rect class="cls-2" x="390.68" y="205.58" width="0.12" height="1.05"
          transform="translate(-45.84 271.75) rotate(-44.98)"/>
    <polygon class="cls-2"
             points="369.16 183.37 369.34 183.55 369.25 183.63 369.25 183.63 376.81 176.07 376.81 174.59 369.16 182.25 369.16 183.37"/>
    <polygon class="cls-2" points="369.16 173.85 376.81 166.2 376.81 164.72 369.16 172.37 369.16 173.85"/>
    <polygon class="cls-2" points="383.22 148.44 383.25 148.44 383.24 148.42 383.22 148.44"/>
    <polygon class="cls-2" points="369.16 163.98 376.81 156.33 376.81 154.85 369.16 162.5 369.16 163.98"/>
    <polygon class="cls-2" points="383.24 148.42 383.25 148.44 383.42 148.44 383.32 148.34 383.24 148.42"/>
    <polygon class="cls-2"
             points="379.04 144.23 378.3 143.49 369.16 152.63 369.16 154.11 379.13 144.14 379.13 144.14 379.04 144.23"/>
    <rect class="cls-2" x="393.15" y="208.05" width="0.12" height="1.05"
          transform="translate(-46.91 274.05) rotate(-44.96)"/>
    <polygon class="cls-2" points="371.13 140.78 369.16 142.75 369.16 144.23 372.61 140.78 371.13 140.78"/>
    <rect class="cls-2" x="386.2" y="250.81" width="0.12" transform="translate(-78.72 281.83) rotate(-45)"/>
    <rect class="cls-2" x="385.83" y="249.92" width="0.12" height="1.05"
          transform="translate(-78.56 281.46) rotate(-45)"/>
    <polygon class="cls-2" points="369.25 183.63 369.34 183.55 369.16 183.37 369.16 183.54 369.25 183.63"/>
    <polygon class="cls-2" points="376.74 190.95 376.81 190.88 376.81 189.4 376 190.21 376.74 190.95"/>
    <polygon class="cls-2"
             points="374.27 188.48 374.19 188.57 374.19 188.57 376.81 185.95 376.81 184.47 373.53 187.74 374.27 188.48"/>
    <rect class="cls-2" x="390.77" y="254.86" width="0.12" height="1.05"
          transform="translate(-80.61 286.4) rotate(-45)"/>
    <rect class="cls-2" x="388.3" y="252.39" width="0.12" height="1.05"
          transform="translate(-79.59 283.93) rotate(-45)"/>
    <polygon class="cls-2" points="233.58 97.16 235.27 95.47 235.27 94.59 234.75 94.51 232.84 96.42 233.58 97.16"/>
    <polygon class="cls-2"
             points="231.11 94.69 231.03 94.78 231.03 94.78 231.77 94.03 230.49 93.83 230.37 93.95 231.11 94.69"/>
    <rect class="cls-2" x="247.24" y="161.22" width="0.12" transform="translate(-56.06 157.33) rotate(-45)"/>
    <rect class="cls-2" x="247.98" y="161.96" width="0.12" transform="translate(-56.4 157.95) rotate(-44.98)"/>
    <rect class="cls-2" x="247.61" y="161.06" width="0.12" height="1.05"
          transform="translate(-56.24 157.58) rotate(-44.98)"/>
    <polygon class="cls-2" points="235.22 98.97 235.27 98.92 235.27 98.92 235.22 98.97 235.22 98.97"/>
    <polygon class="cls-2" points="235.27 99.02 235.27 98.92 235.22 98.97 235.27 99.02"/>
    <polygon class="cls-2" points="230.37 93.95 230.37 93.95 230.29 94.03 230.29 94.03 230.37 93.95"/>
    <rect class="cls-2" x="245.14" y="158.59" width="0.12" height="1.05"
          transform="translate(-55.22 155.11) rotate(-44.98)"/>
    <polygon class="cls-2" points="289.77 119.96 297.42 112.31 295.94 112.31 288.29 119.96 289.77 119.96"/>
    <polygon class="cls-2" points="279.89 119.96 287.55 112.31 286.06 112.31 278.41 119.96 279.89 119.96"/>
    <polygon class="cls-2" points="270.02 119.96 277.67 112.31 276.19 112.31 268.54 119.96 270.02 119.96"/>
    <polygon class="cls-2" points="260.15 119.96 267.8 112.31 266.32 112.31 258.67 119.96 260.15 119.96"/>
    <polygon class="cls-2"
             points="252.5 116.25 252.59 116.16 253.33 116.9 253.24 116.99 253.24 116.99 257.93 112.31 256.44 112.31 252.5 116.25 252.5 116.25"/>
    <polygon class="cls-2" points="284.83 119.96 292.48 112.31 291 112.31 283.35 119.96 284.83 119.96"/>
    <polygon class="cls-2" points="274.96 119.96 282.61 112.31 281.13 112.31 273.48 119.96 274.96 119.96"/>
    <polygon class="cls-2" points="265.08 119.96 272.74 112.31 271.25 112.31 263.6 119.96 265.08 119.96"/>
    <polygon class="cls-2"
             points="254.97 118.72 255.06 118.63 255.8 119.37 262.86 112.31 261.38 112.31 254.97 118.72 254.97 118.72"/>
    <polygon class="cls-2"
             points="250.03 113.78 250.12 113.7 250.86 114.44 252.99 112.31 251.51 112.31 250.03 113.78 250.03 113.78"/>
    <rect class="cls-2" x="267.35" y="180.81" width="0.12" height="1.05"
          transform="translate(-64.4 177.45) rotate(-45)"/>
    <rect class="cls-2" x="270.19" y="184.17" width="0.12" transform="translate(-65.6 180.15) rotate(-44.98)"/>
    <rect class="cls-2" x="269.82" y="183.28" width="0.12" height="1.05"
          transform="translate(-65.46 179.67) rotate(-44.96)"/>
    <rect class="cls-2" x="265.25" y="179.23" width="0.12" transform="translate(-63.55 175.22) rotate(-44.98)"/>
    <rect class="cls-2" x="264.88" y="178.34" width="0.12" height="1.05"
          transform="translate(-63.4 174.86) rotate(-44.98)"/>
    <rect class="cls-2" x="317" y="181.79" width="0.12" transform="translate(-50.18 212.69) rotate(-45)"/>
    <rect class="cls-2" x="316.26" y="181.05" width="0.12" transform="translate(-49.87 211.95) rotate(-45)"/>
    <rect class="cls-2" x="318.73" y="183.52" width="0.12" transform="translate(-50.89 214.41) rotate(-45)"/>
    <polygon class="cls-2" points="301.78 116.33 298.16 119.96 299.64 119.96 302.52 117.08 301.78 116.33"/>
    <rect class="cls-2" x="316.63" y="180.89" width="0.12" height="1.05"
          transform="translate(-50.02 212.32) rotate(-45)"/>
    <polygon class="cls-2"
             points="304.99 119.54 304.25 118.8 303.1 119.96 304.58 119.96 305.08 119.46 305.08 119.46 304.99 119.54"/>
    <rect class="cls-2" x="319.1" y="183.36" width="0.12" height="1.05"
          transform="translate(-51.05 214.79) rotate(-45)"/>
    <polygon class="cls-2"
             points="294.7 119.96 300.14 114.52 300.14 114.52 300.05 114.61 299.31 113.87 299.4 113.78 299.4 113.78 293.22 119.96 294.7 119.96"/>
    <rect class="cls-2" x="314.16" y="178.43" width="0.12" height="1.05"
          transform="translate(-49.04 209.72) rotate(-44.98)"/>
    <rect class="cls-2" x="385.37" y="250.16" width="0.12" transform="translate(-78.5 281.06) rotate(-45)"/>
    <polygon class="cls-2" points="369.25 183.63 369.25 183.63 369.17 183.72 369.25 183.63"/>
    <polygon class="cls-2"
             points="371.63 186.19 370.89 185.45 369.16 187.18 369.16 188.66 371.72 186.1 371.72 186.1 371.63 186.19"/>
    <rect class="cls-2" x="385.74" y="250.01" width="0.12" height="1.05"
          transform="translate(-78.65 281.43) rotate(-45)"/>
    <polygon class="cls-2" points="369.16 183.71 369.16 183.72 369.17 183.72 369.16 183.71"/>
    <polygon class="cls-2" points="369.16 183.71 369.17 183.72 369.25 183.63 369.16 183.54 369.16 183.71"/>
    <polygon class="cls-2" points="374.19 188.57 374.19 188.57 374.1 188.66 374.19 188.57"/>
    <polygon class="cls-2" points="371.81 235.38 376.81 230.38 376.81 228.9 371.06 234.64 371.81 235.38"/>
    <polygon class="cls-2" points="371.06 234.64 370.98 234.73 370.98 234.73 371.06 234.64"/>
    <polygon class="cls-2" points="369.16 228.16 376.81 220.5 376.81 219.02 369.16 226.68 369.16 228.16"/>
    <polygon class="cls-2" points="369.16 218.28 376.81 210.63 376.81 209.15 369.16 216.8 369.16 218.28"/>
    <polygon class="cls-2" points="369.16 208.41 376.81 200.76 376.81 199.28 369.16 206.93 369.16 208.41"/>
    <polygon class="cls-2" points="369.16 197.06 369.16 198.53 376.57 191.12 375.83 190.38 369.16 197.06"/>
    <rect class="cls-2" x="390.68" y="254.94" width="0.12" height="1.05"
          transform="translate(-80.66 286.55) rotate(-45.02)"/>
    <polygon class="cls-2"
             points="369.16 232.74 369.34 232.91 376.81 225.44 376.81 223.96 369.16 231.61 369.16 232.74"/>
    <polygon class="cls-2" points="369.16 223.22 376.81 215.57 376.81 214.09 369.16 221.74 369.16 223.22"/>
    <polygon class="cls-2" points="369.16 213.34 376.81 205.69 376.81 204.21 369.16 211.86 369.16 213.34"/>
    <polygon class="cls-2" points="369.16 203.47 376.81 195.82 376.81 194.34 369.16 201.99 369.16 203.47"/>
    <polygon class="cls-2" points="373.36 187.92 369.16 192.12 369.16 193.6 374.1 188.66 373.36 187.92"/>
    <rect class="cls-2" x="388.21" y="252.48" width="0.12" height="1.05"
          transform="translate(-79.63 284.08) rotate(-45.02)"/>
    <polygon class="cls-2" points="371.72 235.47 371.81 235.38 371.72 235.47 371.72 235.47"/>
    <rect class="cls-2" x="385.83" y="299.29" width="0.12" height="1.05"
          transform="translate(-113.5 295.72) rotate(-44.98)"/>
    <polygon class="cls-2" points="369.25 233 369.34 232.91 369.16 232.74 369.16 232.91 369.25 233"/>
    <polygon class="cls-2"
             points="396.49 260.06 396.4 260.15 396.4 260.15 396.73 259.83 396.52 258.55 395.75 259.32 396.49 260.06"/>
    <polygon class="cls-2" points="390.81 254.39 390.73 254.47 390.73 254.47 390.81 254.39"/>
    <polygon class="cls-2" points="391.55 255.13 392.64 254.04 391.16 254.04 390.81 254.39 391.55 255.13"/>
    <polygon class="cls-2" points="376.74 240.32 376.81 240.25 376.81 238.77 376 239.58 376.74 240.32"/>
    <polygon class="cls-2" points="394.02 257.6 396.04 255.57 395.84 254.3 393.28 256.86 394.02 257.6"/>
    <polygon class="cls-2" points="374.27 237.85 376.81 235.31 376.81 233.83 373.53 237.11 374.27 237.85"/>
    <rect class="cls-2" x="410.14" y="324.12" width="0.12" transform="translate(-123.54 320.24) rotate(-45)"/>
    <rect class="cls-2" x="410.51" y="323.97" width="0.12" height="1.05"
          transform="translate(-123.72 320.39) rotate(-44.98)"/>
    <polygon class="cls-2" points="391.47 255.21 391.55 255.13 391.47 255.21 391.47 255.21"/>
    <rect class="cls-2" x="405.58" y="319.03" width="0.12" height="1.05"
          transform="translate(-121.68 315.46) rotate(-44.98)"/>
    <rect class="cls-2" x="390.77" y="304.22" width="0.12" height="1.05"
          transform="translate(-115.52 300.86) rotate(-45)"/>
    <rect class="cls-2" x="408.05" y="321.5" width="0.12" height="1.05"
          transform="translate(-122.67 318.14) rotate(-45)"/>
    <rect class="cls-2" x="388.3" y="301.75" width="0.12" height="1.05"
          transform="translate(-114.49 298.39) rotate(-45)"/>
    <polygon class="cls-2" points="212.33 98.67 219.01 91.99 217.73 91.78 211.05 98.46 212.33 98.67"/>
    <polygon class="cls-2" points="203.82 97.3 210.5 90.62 209.22 90.42 202.54 97.1 203.82 97.3"/>
    <polygon class="cls-2" points="195.31 95.94 201.99 89.26 200.71 89.05 194.03 95.73 195.31 95.94"/>
    <polygon class="cls-2" points="186.8 94.57 193.48 87.89 192.2 87.69 185.53 94.37 186.8 94.57"/>
    <polygon class="cls-2" points="179.28 92.22 184.97 86.53 183.69 86.33 178.54 91.48 179.28 92.22"/>
    <polygon class="cls-2" points="208.07 97.98 214.75 91.31 213.48 91.1 206.8 97.78 208.07 97.98"/>
    <polygon class="cls-2" points="199.56 96.62 206.24 89.94 204.97 89.74 198.29 96.41 199.56 96.62"/>
    <polygon class="cls-2" points="191.06 95.25 197.73 88.58 196.46 88.37 189.78 95.05 191.06 95.25"/>
    <polygon class="cls-2" points="182.55 93.89 189.22 87.21 187.95 87.01 181.27 93.69 182.55 93.89"/>
    <polygon class="cls-2"
             points="176.81 89.75 176.72 89.84 176.73 89.84 180.72 85.85 179.44 85.64 176.07 89.01 176.81 89.75"/>
    <polygon class="cls-2" points="178.45 91.57 178.45 91.57 178.54 91.48 178.45 91.57"/>
    <rect class="cls-2" x="193.67" y="157.02" width="0.12" transform="translate(-68.8 118.12) rotate(-44.98)"/>
    <rect class="cls-2" x="193.3" y="156.13" width="0.12" height="1.05"
          transform="translate(-68.64 117.75) rotate(-44.98)"/>
    <rect class="cls-2" x="190.47" y="153.81" width="0.12" transform="translate(-67.47 114.92) rotate(-44.98)"/>
    <rect class="cls-2" x="190.84" y="153.66" width="0.12" height="1.05"
          transform="translate(-67.61 115.39) rotate(-45)"/>
    <polygon class="cls-2" points="231.03 94.78 231.03 94.78 230.94 94.86 231.03 94.78"/>
    <polygon class="cls-2" points="240.4 119.96 248.05 112.31 246.57 112.31 238.92 119.96 240.4 119.96"/>
    <polygon class="cls-2" points="230.53 119.96 238.18 112.31 236.7 112.31 229.05 119.96 230.53 119.96"/>
    <polygon class="cls-2" points="227.62 112.99 235.27 105.34 235.27 103.86 227.62 111.51 227.62 112.99"/>
    <polygon class="cls-2"
             points="227.62 103.12 233.5 97.24 233.5 97.24 233.41 97.33 232.67 96.59 232.76 96.5 232.76 96.5 227.62 101.64 227.62 103.12"/>
    <rect class="cls-2" x="247.52" y="161.15" width="0.12" height="1.05"
          transform="translate(-56.3 157.66) rotate(-45)"/>
    <polygon class="cls-2" points="220.84 100.03 227.52 93.35 226.24 93.15 219.56 99.83 220.84 100.03"/>
    <polygon class="cls-2" points="235.46 119.96 243.12 112.31 241.63 112.31 233.98 119.96 235.46 119.96"/>
    <polygon class="cls-2" points="227.62 117.93 235.27 110.28 235.27 108.8 227.62 116.44 227.62 117.93"/>
    <polygon class="cls-2"
             points="235.22 98.97 235.22 98.97 227.62 106.57 227.62 108.05 235.27 100.4 235.27 99.19 235.14 99.06 235.22 98.97"/>
    <polygon class="cls-2" points="235.14 99.06 235.27 99.19 235.27 99.02 235.22 98.97 235.14 99.06"/>
    <polygon class="cls-2" points="230.94 94.86 230.2 94.12 223.81 100.51 225.09 100.71 230.94 94.86"/>
    <polygon class="cls-2" points="230.29 94.03 230.2 94.12 230.29 94.03 230.29 94.03"/>
    <rect class="cls-2" x="245.05" y="158.68" width="0.12" height="1.05"
          transform="translate(-55.28 155.21) rotate(-45)"/>
    <polygon class="cls-2" points="216.58 99.35 223.26 92.67 221.98 92.47 215.31 99.14 216.58 99.35"/>
    <rect class="cls-2" x="267.64" y="181.79" width="0.12" transform="translate(-64.64 177.78) rotate(-45)"/>
    <rect class="cls-2" x="266.9" y="181.05" width="0.12" transform="translate(-64.3 177.17) rotate(-45.02)"/>
    <rect class="cls-2" x="269.37" y="183.52" width="0.12" transform="translate(-65.33 179.64) rotate(-45.02)"/>
    <rect class="cls-2" x="264.43" y="178.58" width="0.12" transform="translate(-63.31 174.57) rotate(-45)"/>
    <polygon class="cls-2" points="252.42 116.33 248.79 119.96 250.27 119.96 253.16 117.08 252.42 116.33"/>
    <rect class="cls-2" x="267.27" y="180.89" width="0.12" height="1.05"
          transform="translate(-64.48 177.41) rotate(-45)"/>
    <polygon class="cls-2"
             points="255.63 119.54 254.88 118.8 253.73 119.96 255.21 119.96 255.71 119.46 255.71 119.46 255.63 119.54"/>
    <rect class="cls-2" x="269.74" y="183.36" width="0.12" height="1.05"
          transform="translate(-65.48 180.01) rotate(-45.02)"/>
    <polygon class="cls-2"
             points="250.69 114.61 249.95 113.87 243.86 119.96 245.34 119.96 250.77 114.52 250.77 114.52 250.69 114.61"/>
    <rect class="cls-2" x="264.8" y="178.43" width="0.12" height="1.05"
          transform="translate(-63.43 175.07) rotate(-45.02)"/>
    <polygon class="cls-2" points="370.89 234.81 370.98 234.73 370.98 234.73 370.89 234.81 370.89 234.81"/>
    <polygon class="cls-2"
             points="371.63 235.55 370.89 234.81 369.16 236.55 369.16 238.03 371.72 235.47 371.72 235.47 371.63 235.55"/>
    <rect class="cls-2" x="385.74" y="299.37" width="0.12" height="1.05"
          transform="translate(-113.55 295.91) rotate(-45)"/>
    <polygon class="cls-2" points="369.16 233.08 369.16 233.09 369.17 233.08 369.16 233.08"/>
    <polygon class="cls-2" points="369.16 233.08 369.17 233.08 369.25 233 369.16 232.91 369.16 233.08"/>
    <rect class="cls-2" x="410.8" y="324.95" width="0.12" transform="translate(-123.91 321.15) rotate(-45.02)"/>
    <polygon class="cls-2" points="390.73 254.47 390.64 254.56 390.64 254.56 390.73 254.47 390.73 254.47"/>
    <polygon class="cls-2"
             points="390.05 266.5 396.32 260.24 395.58 259.5 395.66 259.41 395.66 259.41 389.84 265.23 390.05 266.5"/>
    <rect class="cls-2" x="410.43" y="324.06" width="0.12" height="1.05"
          transform="translate(-123.78 320.57) rotate(-45)"/>
    <polygon class="cls-2"
             points="391.47 255.21 391.47 255.21 391.38 255.3 390.64 254.56 383.51 261.69 384.99 261.69 391.47 255.21"/>
    <rect class="cls-2" x="405.49" y="319.12" width="0.12" height="1.05"
          transform="translate(-121.73 315.66) rotate(-45)"/>
    <polygon class="cls-2" points="375.12 261.69 382.77 254.04 381.29 254.04 373.64 261.69 375.12 261.69"/>
    <polygon class="cls-2" points="369.16 257.77 376.81 250.12 376.81 248.64 369.16 256.29 369.16 257.77"/>
    <polygon class="cls-2" points="369.16 246.42 369.16 247.9 376.57 240.49 375.83 239.75 369.16 246.42"/>
    <rect class="cls-2" x="390.68" y="304.31" width="0.12" height="1.05"
          transform="translate(-115.58 301.03) rotate(-45.02)"/>
    <polygon class="cls-2"
             points="393.11 257.03 388.45 261.69 389.28 261.69 389.37 262.25 393.85 257.77 393.11 257.03"/>
    <rect class="cls-2" x="407.96" y="321.59" width="0.12" height="1.05"
          transform="translate(-122.73 318.31) rotate(-45.02)"/>
    <polygon class="cls-2" points="380.06 261.69 387.71 254.04 386.23 254.04 378.58 261.69 380.06 261.69"/>
    <polygon class="cls-2"
             points="369.16 261.69 370.18 261.69 377.83 254.04 376.81 254.04 376.81 253.58 369.16 261.23 369.16 261.69"/>
    <polygon class="cls-2" points="369.16 252.84 376.81 245.19 376.81 243.71 369.16 251.36 369.16 252.84"/>
    <polygon class="cls-2" points="373.36 237.28 369.16 241.48 369.16 242.96 374.1 238.02 373.36 237.28"/>
    <rect class="cls-2" x="388.21" y="301.84" width="0.12" height="1.05"
          transform="translate(-114.55 298.56) rotate(-45.02)"/>
    <polygon class="cls-2"
             points="396.85 308.93 395.82 308.76 396.49 309.43 396.4 309.51 396.4 309.52 403.55 302.37 403.34 301.1 396.66 307.77 396.85 308.93"/>
    <polygon class="cls-2" points="395.5 300.54 402.18 293.86 401.98 292.59 395.3 299.26 395.5 300.54"/>
    <polygon class="cls-2" points="394.14 292.03 400.82 285.35 400.61 284.08 393.94 290.76 394.14 292.03"/>
    <polygon class="cls-2" points="392.78 283.52 399.45 276.85 399.25 275.57 392.57 282.25 392.78 283.52"/>
    <polygon class="cls-2" points="391.41 275.01 398.09 268.34 397.88 267.06 391.21 273.74 391.41 275.01"/>
    <polygon class="cls-2" points="396.19 304.8 402.86 298.12 402.66 296.84 395.98 303.52 396.19 304.8"/>
    <polygon class="cls-2" points="394.82 296.29 401.5 289.61 401.3 288.33 394.62 295.01 394.82 296.29"/>
    <polygon class="cls-2" points="393.46 287.78 400.14 281.1 399.93 279.82 393.25 286.5 393.46 287.78"/>
    <polygon class="cls-2" points="392.09 279.27 398.77 272.59 398.57 271.32 391.89 277.99 392.09 279.27"/>
    <polygon class="cls-2" points="390.73 270.76 397.41 264.08 397.2 262.81 390.52 269.48 390.73 270.76"/>
    <rect class="cls-2" x="410.15" y="373.51" width="0.05" transform="translate(-158.53 333.5) rotate(-44.88)"/>
    <polygon class="cls-2" points="395.66 308.78 396.4 309.51 396.49 309.43 395.82 308.76 395.7 308.74 395.66 308.78"/>
    <rect class="cls-2" x="191.12" y="154.64" width="0.12" transform="translate(-67.85 115.72) rotate(-45)"/>
    <polygon class="cls-2" points="185.3 124.21 178.62 130.89 178.83 132.17 185.5 125.49 185.3 124.21"/>
    <polygon class="cls-2" points="183.94 115.7 177.26 122.38 177.46 123.66 184.14 116.98 183.94 115.7"/>
    <polygon class="cls-2" points="182.57 107.19 175.89 113.87 176.1 115.15 182.78 108.47 182.57 107.19"/>
    <polygon class="cls-2" points="181.21 98.69 174.53 105.36 174.73 106.64 181.41 99.96 181.21 98.69"/>
    <polygon class="cls-2"
             points="179.19 92.31 179.11 92.39 178.37 91.65 178.45 91.57 178.45 91.57 173.16 96.86 173.37 98.13 179.19 92.31 179.19 92.31"/>
    <rect class="cls-2" x="193.22" y="156.21" width="0.12" height="1.05"
          transform="translate(-68.73 117.73) rotate(-44.98)"/>
    <polygon class="cls-2" points="184.62 119.96 177.94 126.64 178.14 127.91 184.82 121.23 184.62 119.96"/>
    <polygon class="cls-2" points="183.25 111.45 176.58 118.13 176.78 119.4 183.46 112.73 183.25 111.45"/>
    <polygon class="cls-2" points="181.89 102.94 175.21 109.62 175.42 110.89 182.09 104.22 181.89 102.94"/>
    <polygon class="cls-2" points="180.53 94.43 173.85 101.11 174.05 102.39 180.73 95.71 180.53 94.43"/>
    <polygon class="cls-2"
             points="175.9 89.18 175.99 89.1 175.99 89.1 172.48 92.6 172.69 93.88 176.64 89.92 175.9 89.18"/>
    <rect class="cls-2" x="190.75" y="153.74" width="0.12" height="1.05"
          transform="translate(-67.68 115.45) rotate(-45.02)"/>
    <polygon class="cls-2" points="206.8 152.08 199.15 159.73 199.15 161.21 206.8 153.56 206.8 152.08"/>
    <polygon class="cls-2" points="206.8 142.21 199.15 149.86 199.15 151.34 206.8 143.69 206.8 142.21"/>
    <polygon class="cls-2" points="198.35 140.78 190.7 148.44 192.18 148.44 199.83 140.78 198.35 140.78"/>
    <polygon class="cls-2"
             points="183.48 145.78 184.22 146.52 189.96 140.78 188.47 140.78 183.39 145.87 183.39 145.87 183.48 145.78"/>
    <polygon class="cls-2" points="186.66 132.72 179.99 139.4 180.19 140.68 186.87 134 186.66 132.72"/>
    <polygon class="cls-2" points="206.8 147.15 199.15 154.79 199.15 156.28 206.8 148.63 206.8 147.15"/>
    <polygon class="cls-2" points="203.28 140.78 195.63 148.44 197.11 148.44 204.76 140.78 203.28 140.78"/>
    <polygon class="cls-2"
             points="193.41 140.78 185.86 148.34 185.86 148.34 185.94 148.25 186.13 148.44 187.24 148.44 194.89 140.78 193.41 140.78"/>
    <polygon class="cls-2"
             points="181.01 143.31 181.75 144.06 187.55 138.25 187.35 136.98 180.92 143.4 180.92 143.4 181.01 143.31"/>
    <polygon class="cls-2" points="185.98 128.47 179.3 135.15 179.51 136.42 186.19 129.74 185.98 128.47"/>
    <rect class="cls-2" x="198.24" y="210.43" width="0.12" height="1.05"
          transform="translate(-105.58 137.13) rotate(-44.98)"/>
    <polygon class="cls-2" points="185.86 148.34 185.96 148.44 186.13 148.44 185.94 148.25 185.86 148.34"/>
    <rect class="cls-2" x="196.14" y="208.85" width="0.12" transform="translate(-104.71 135.15) rotate(-45)"/>
    <rect class="cls-2" x="195.77" y="207.96" width="0.12" height="1.05"
          transform="translate(-104.56 134.78) rotate(-45)"/>
    <polygon class="cls-2"
             points="206.8 161.95 203.14 165.62 203.14 165.62 203.22 165.53 203.96 166.27 203.88 166.35 203.88 166.35 206.8 163.44 206.8 161.95"/>
    <polygon class="cls-2"
             points="206.8 166.89 205.6 168.08 205.6 168.08 205.69 168 206.43 168.74 206.34 168.82 206.34 168.82 206.8 168.37 206.8 166.89"/>
    <polygon class="cls-2"
             points="200.75 163.06 201.49 163.8 206.8 158.5 206.8 157.02 200.67 163.15 200.67 163.15 200.75 163.06"/>
    <rect class="cls-2" x="217.99" y="230.17" width="0.12" height="1.05"
          transform="translate(-113.76 157) rotate(-45)"/>
    <rect class="cls-2" x="220.46" y="232.64" width="0.12" height="1.05"
          transform="translate(-114.78 159.47) rotate(-45)"/>
    <rect class="cls-2" x="215.89" y="228.6" width="0.12" transform="translate(-112.89 154.77) rotate(-44.98)"/>
    <rect class="cls-2" x="215.52" y="227.71" width="0.12" height="1.05"
          transform="translate(-112.74 154.4) rotate(-44.98)"/>
    <polygon class="cls-2" points="322.44 284.75 322.35 284.83 324.87 282.32 323.38 282.32 321.7 284.01 322.44 284.75"/>
    <polygon class="cls-2" points="321.61 284.09 321.61 284.09 321.61 284.09 321.61 284.09"/>
    <polygon class="cls-2" points="322.35 284.83 322.35 284.83 322.35 284.83 322.35 284.83"/>
    <polygon class="cls-2" points="321.61 284.09 321.7 284.01 321.7 284.01 321.61 284.09"/>
    <polygon class="cls-2"
             points="322.44 284.75 321.7 284.01 321.61 284.09 321.61 284.09 322.35 284.83 322.35 284.83 322.44 284.75"/>
    <polygon class="cls-2" points="319.84 282.32 319.89 282.37 319.93 282.32 319.84 282.32"/>
    <polygon class="cls-2" points="353.15 301.92 346.47 308.6 347.75 308.81 354.43 302.13 353.15 301.92"/>
    <polygon class="cls-2"
             points="349.61 297.07 349.61 295.59 341.96 303.24 341.96 304.26 342.19 304.49 349.61 297.07"/>
    <polygon class="cls-2" points="349.61 285.72 341.96 293.37 341.96 294.85 349.61 287.2 349.61 285.72"/>
    <polygon class="cls-2" points="343.13 282.32 335.48 289.97 336.96 289.97 344.61 282.32 343.13 282.32"/>
    <polygon class="cls-2" points="326.64 288.94 327.38 289.68 334.74 282.32 333.26 282.32 326.64 288.94"/>
    <polygon class="cls-2"
             points="349.61 300.53 343.91 306.22 344.65 306.96 350.17 301.44 349.61 301.35 349.61 300.53"/>
    <polygon class="cls-2" points="349.61 290.66 341.96 298.31 341.96 299.79 349.61 292.13 349.61 290.66"/>
    <polygon class="cls-2" points="348.07 282.32 340.42 289.97 341.9 289.97 349.55 282.32 348.07 282.32"/>
    <polygon class="cls-2" points="338.2 282.32 330.55 289.97 332.02 289.97 339.68 282.32 338.2 282.32"/>
    <polygon class="cls-2" points="324.91 287.22 329.8 282.32 328.32 282.32 324.17 286.48 324.91 287.22"/>
    <polygon class="cls-2" points="342.1 304.58 342.1 304.58 342.19 304.49 342.1 304.58"/>
    <polygon class="cls-2" points="342.19 304.49 341.96 304.26 341.96 304.44 342.1 304.58 342.19 304.49"/>
    <rect class="cls-2" x="341.4" y="353.59" width="0.12" height="1.05"
          transform="translate(-164.88 280.41) rotate(-45)"/>
    <rect class="cls-2" x="358.68" y="370.87" width="0.12" height="1.05"
          transform="translate(-172.04 297.69) rotate(-45)"/>
    <rect class="cls-2" x="338.93" y="351.12" width="0.12" height="1.05"
          transform="translate(-163.86 277.74) rotate(-44.98)"/>
    <rect class="cls-2" x="410.8" y="374.31" width="0.12" transform="translate(-158.83 335.63) rotate(-45.02)"/>
    <polygon class="cls-2"
             points="395.58 308.86 395.66 308.78 395.66 308.77 389.02 315.42 390.29 315.63 396.32 309.6 395.58 308.86"/>
    <rect class="cls-2" x="410.43" y="373.42" width="0.12" height="1.05"
          transform="translate(-158.69 335.03) rotate(-45)"/>
    <polygon class="cls-2" points="387.19 307.38 380.51 314.06 381.79 314.26 388.46 307.58 387.19 307.38"/>
    <polygon class="cls-2" points="378.68 306.01 372 312.69 373.28 312.9 379.95 306.22 378.68 306.01"/>
    <polygon class="cls-2" points="370.17 304.65 363.49 311.33 364.77 311.53 371.44 304.86 370.17 304.65"/>
    <polygon class="cls-2" points="361.66 303.29 354.98 309.96 356.26 310.17 362.94 303.49 361.66 303.29"/>
    <polygon class="cls-2" points="391.44 308.06 384.76 314.74 386.04 314.94 392.72 308.26 391.44 308.06"/>
    <polygon class="cls-2" points="382.93 306.7 376.25 313.37 377.53 313.58 384.21 306.9 382.93 306.7"/>
    <polygon class="cls-2" points="374.42 305.33 367.75 312.01 369.02 312.21 375.7 305.54 374.42 305.33"/>
    <polygon class="cls-2" points="365.91 303.97 359.24 310.65 360.51 310.85 367.19 304.17 365.91 303.97"/>
    <polygon class="cls-2" points="357.4 302.6 350.73 309.28 352 309.49 358.68 302.81 357.4 302.6"/>
    <polygon class="cls-2" points="183.39 145.87 183.31 145.96 183.39 145.87 183.39 145.87"/>
    <rect class="cls-2" x="200.25" y="213.14" width="0.12" transform="translate(-106.54 139.43) rotate(-45.02)"/>
    <rect class="cls-2" x="195.32" y="208.2" width="0.12" transform="translate(-104.49 134.38) rotate(-45)"/>
    <polygon class="cls-2"
             points="183.31 145.96 181.35 147.91 181.44 148.44 182.31 148.44 184.04 146.69 183.31 145.96"/>
    <rect class="cls-2" x="198.16" y="210.51" width="0.12" height="1.05"
          transform="translate(-105.67 137.22) rotate(-45)"/>
    <polygon class="cls-2" points="185.76 148.44 185.79 148.44 185.77 148.42 185.76 148.44"/>
    <polygon class="cls-2" points="185.77 148.42 185.79 148.44 185.96 148.44 185.86 148.34 185.77 148.42"/>
    <polygon class="cls-2"
             points="181.66 144.14 181.58 144.23 180.84 143.49 180.67 143.65 180.87 144.93 181.66 144.14 181.66 144.14"/>
    <rect class="cls-2" x="195.69" y="208.05" width="0.12" height="1.05"
          transform="translate(-104.64 134.53) rotate(-44.96)"/>
    <rect class="cls-2" x="217.53" y="230.41" width="0.12" transform="translate(-113.7 156.72) rotate(-45.02)"/>
    <polygon class="cls-2" points="203.79 166.44 203.88 166.35 203.88 166.35 203.79 166.44"/>
    <polygon class="cls-2" points="206.26 168.91 206.34 168.82 206.34 168.82 206.26 168.91"/>
    <polygon class="cls-2" points="205.6 168.08 205.52 168.17 205.6 168.08 205.6 168.08"/>
    <rect class="cls-2" x="215.06" y="227.95" width="0.12" transform="translate(-112.68 154.25) rotate(-45.02)"/>
    <polygon class="cls-2" points="206.8 201.45 199.15 209.1 199.15 210.58 206.8 202.93 206.8 201.45"/>
    <polygon class="cls-2" points="206.8 191.57 199.15 199.22 199.15 200.71 206.8 193.05 206.8 191.57"/>
    <polygon class="cls-2" points="206.8 181.7 199.15 189.35 199.15 190.83 206.8 183.18 206.8 181.7"/>
    <polygon class="cls-2" points="206.8 171.83 199.15 179.48 199.15 180.96 206.8 173.31 206.8 171.83"/>
    <polygon class="cls-2" points="203.05 165.7 199.15 169.61 199.15 171.09 203.79 166.44 203.05 165.7"/>
    <rect class="cls-2" x="217.9" y="230.26" width="0.12" height="1.05"
          transform="translate(-113.85 157.09) rotate(-45.02)"/>
    <polygon class="cls-2" points="206.8 196.51 199.15 204.16 199.15 205.64 206.8 197.99 206.8 196.51"/>
    <polygon class="cls-2" points="206.8 186.64 199.15 194.29 199.15 195.77 206.8 188.12 206.8 186.64"/>
    <polygon class="cls-2" points="206.8 176.76 199.15 184.41 199.15 185.9 206.8 178.24 206.8 176.76"/>
    <polygon class="cls-2" points="205.52 168.17 199.15 174.54 199.15 176.02 206.26 168.91 205.52 168.17"/>
    <rect class="cls-2" x="220.37" y="232.73" width="0.12" height="1.05"
          transform="translate(-114.87 159.56) rotate(-45.02)"/>
    <polygon class="cls-2"
             points="201.41 163.89 201.32 163.97 200.58 163.23 199.15 164.67 199.15 166.15 201.41 163.89 201.41 163.89"/>
    <rect class="cls-2" x="215.43" y="227.79" width="0.12" height="1.05"
          transform="translate(-112.82 154.37) rotate(-44.98)"/>
    <polygon class="cls-2" points="203.96 215.64 206.8 212.8 206.8 211.32 203.22 214.9 203.96 215.64"/>
    <polygon class="cls-2" points="206.43 218.1 206.8 217.74 206.8 216.26 205.69 217.36 206.43 218.1"/>
    <polygon class="cls-2" points="200.75 212.43 200.67 212.51 200.67 212.51 200.75 212.43"/>
    <polygon class="cls-2" points="201.49 213.17 206.8 207.86 206.8 206.38 200.75 212.43 201.49 213.17"/>
    <rect class="cls-2" x="217.99" y="279.54" width="0.12" height="1.05"
          transform="translate(-148.65 171.31) rotate(-44.98)"/>
    <rect class="cls-2" x="220.46" y="282.01" width="0.12" height="1.05"
          transform="translate(-149.67 173.78) rotate(-44.98)"/>
    <polygon class="cls-2" points="201.41 213.25 201.41 213.25 201.49 213.17 201.41 213.25"/>
    <rect class="cls-2" x="215.52" y="277.07" width="0.12" height="1.05"
          transform="translate(-147.63 168.84) rotate(-44.98)"/>
    <polygon class="cls-2" points="272.25 284.09 272.25 284.09 272.25 284.09 272.25 284.09"/>
    <polygon class="cls-2" points="273.07 284.75 272.99 284.83 275.5 282.32 274.02 282.32 272.33 284.01 273.07 284.75"/>
    <polygon class="cls-2" points="272.25 284.09 272.33 284.01 272.33 284.01 272.25 284.09"/>
    <polygon class="cls-2" points="272.99 284.83 272.99 284.83 272.99 284.83 272.99 284.83"/>
    <polygon class="cls-2"
             points="273.07 284.75 272.33 284.01 272.25 284.09 272.25 284.09 272.99 284.83 272.99 284.83 273.07 284.75"/>
    <polygon class="cls-2" points="270.48 282.32 270.52 282.37 270.56 282.32 270.48 282.32"/>
    <polygon class="cls-2" points="321.61 284.09 321.53 284.18 321.53 284.18 321.61 284.09 321.61 284.09"/>
    <polygon class="cls-2"
             points="322.35 284.83 322.27 284.92 321.53 284.18 315.74 289.97 317.21 289.97 322.35 284.83 322.35 284.83"/>
    <rect class="cls-2" x="336.38" y="348.74" width="0.12" height="1.05"
          transform="translate(-162.92 275.44) rotate(-45)"/>
    <polygon class="cls-2" points="313.51 282.32 305.86 289.97 307.34 289.97 314.99 282.32 313.51 282.32"/>
    <polygon class="cls-2" points="303.64 282.32 295.99 289.97 297.47 289.97 305.12 282.32 303.64 282.32"/>
    <polygon class="cls-2" points="293.77 282.32 286.12 289.97 287.6 289.97 295.25 282.32 293.77 282.32"/>
    <polygon class="cls-2" points="277.27 288.94 278.01 289.68 285.37 282.32 283.89 282.32 277.27 288.94"/>
    <polygon class="cls-2" points="319.67 282.32 318.45 282.32 310.8 289.97 312.28 289.97 319.8 282.45 319.67 282.32"/>
    <polygon class="cls-2" points="319.67 282.32 319.8 282.45 319.89 282.37 319.84 282.32 319.67 282.32"/>
    <polygon class="cls-2" points="308.58 282.32 300.93 289.97 302.41 289.97 310.06 282.32 308.58 282.32"/>
    <polygon class="cls-2" points="298.7 282.32 291.05 289.97 292.53 289.97 300.18 282.32 298.7 282.32"/>
    <polygon class="cls-2" points="288.83 282.32 281.18 289.97 282.66 289.97 290.31 282.32 288.83 282.32"/>
    <polygon class="cls-2" points="275.54 287.22 280.44 282.32 278.96 282.32 274.8 286.48 275.54 287.22"/>
    <rect class="cls-2" x="292.04" y="353.59" width="0.12" height="1.05"
          transform="translate(-179.34 245.5) rotate(-45)"/>
    <rect class="cls-2" x="289.57" y="351.12" width="0.12" height="1.05"
          transform="translate(-178.3 242.85) rotate(-44.98)"/>
    <polygon class="cls-2" points="342.1 304.58 342.01 304.67 341.96 304.61 341.96 304.72 342.1 304.58 342.1 304.58"/>
    <polygon class="cls-2" points="342.1 304.58 341.96 304.44 341.96 304.61 342.01 304.67 342.1 304.58"/>
    <polygon class="cls-2" points="326.46 289.12 325.61 289.97 327.09 289.97 327.2 289.86 326.46 289.12"/>
    <rect class="cls-2" x="341.32" y="353.67" width="0.12" height="1.05"
          transform="translate(-164.97 280.38) rotate(-45)"/>
    <polygon class="cls-2" points="343.74 306.39 342.22 307.92 343.49 308.12 344.48 307.13 343.74 306.39"/>
    <rect class="cls-2" x="358.59" y="370.95" width="0.12" height="1.05"
          transform="translate(-172.12 297.65) rotate(-45)"/>
    <polygon class="cls-2" points="324 286.65 320.67 289.97 322.15 289.97 324.74 287.39 324 286.65"/>
    <rect class="cls-2" x="338.85" y="351.21" width="0.12" height="1.05"
          transform="translate(-163.95 277.91) rotate(-45)"/>
    <polygon class="cls-2" points="200.67 212.51 200.58 212.6 200.58 212.6 200.67 212.51 200.67 212.51"/>
    <polygon class="cls-2" points="198.94 260.15 198.94 260.15 198.94 260.15 198.94 260.15"/>
    <polygon class="cls-2" points="198.29 259.32 199.03 260.06 206.8 252.29 206.8 250.81 198.2 259.41 198.29 259.32"/>
    <polygon class="cls-2" points="193.26 254.47 193.26 254.47 193.26 254.47 193.26 254.47"/>
    <polygon class="cls-2" points="206.8 240.94 199.15 248.59 199.15 250.07 206.8 242.42 206.8 240.94"/>
    <polygon class="cls-2" points="194.09 255.13 194 255.21 195.18 254.04 193.7 254.04 193.35 254.39 194.09 255.13"/>
    <polygon class="cls-2" points="206.8 231.07 199.15 238.72 199.15 240.2 206.8 232.55 206.8 231.07"/>
    <polygon class="cls-2" points="206.8 221.19 199.15 228.84 199.15 230.32 206.8 222.67 206.8 221.19"/>
    <polygon class="cls-2" points="203.05 215.07 199.15 218.97 199.15 220.45 203.79 215.81 203.05 215.07"/>
    <rect class="cls-2" x="217.9" y="279.63" width="0.12" height="1.05"
          transform="translate(-148.75 171.42) rotate(-45)"/>
    <polygon class="cls-2"
             points="196.56 257.6 206.8 247.36 206.8 245.88 199.15 253.53 199.15 254.04 198.64 254.04 195.82 256.86 196.56 257.6"/>
    <polygon class="cls-2" points="206.8 236 199.15 243.66 199.15 245.13 206.8 237.48 206.8 236"/>
    <polygon class="cls-2" points="206.8 226.13 199.15 233.78 199.15 235.26 206.8 227.61 206.8 226.13"/>
    <polygon class="cls-2" points="205.52 217.53 199.15 223.91 199.15 225.39 206.26 218.28 205.52 217.53"/>
    <rect class="cls-2" x="220.37" y="282.09" width="0.12" height="1.05"
          transform="translate(-149.78 173.89) rotate(-45)"/>
    <polygon class="cls-2"
             points="201.41 213.25 201.32 213.34 200.58 212.6 199.15 214.03 199.15 215.51 201.41 213.25 201.41 213.25"/>
    <rect class="cls-2" x="215.43" y="277.16" width="0.12" height="1.05"
          transform="translate(-147.73 168.95) rotate(-45)"/>
    <polygon class="cls-2" points="198.2 259.41 198.2 259.41 198.2 259.41 198.2 259.41"/>
    <polygon class="cls-2" points="199.03 260.06 199.03 260.06 198.94 260.15 199.03 260.06"/>
    <polygon class="cls-2"
             points="198.94 260.15 198.94 260.15 199.03 260.06 198.29 259.32 198.2 259.41 198.2 259.41 198.94 260.15"/>
    <polygon class="cls-2" points="194 255.21 194 255.21 194 255.21 194 255.21"/>
    <polygon class="cls-2" points="193.35 254.39 193.26 254.47 193.35 254.39 193.35 254.39"/>
    <polygon class="cls-2"
             points="194.09 255.13 193.35 254.39 193.26 254.47 193.26 254.47 194 255.21 194 255.21 194.09 255.13"/>
    <rect class="cls-2" x="210.58" y="321.5" width="0.12" height="1.05"
          transform="translate(-180.51 178.51) rotate(-45)"/>
    <polygon class="cls-2" points="206.8 261.69 206.8 260.69 205.79 261.69 206.8 261.69"/>
    <polygon class="cls-2" points="202.34 261.69 206.8 257.23 206.8 255.75 200.86 261.69 202.34 261.69"/>
    <polygon class="cls-2" points="272.25 284.09 272.16 284.18 272.16 284.18 272.25 284.09 272.25 284.09"/>
    <polygon class="cls-2"
             points="272.99 284.83 272.9 284.92 272.16 284.18 266.37 289.97 267.85 289.97 272.99 284.83 272.99 284.83"/>
    <rect class="cls-2" x="287.01" y="348.74" width="0.12" height="1.05"
          transform="translate(-177.38 240.53) rotate(-45)"/>
    <polygon class="cls-2" points="264.15 282.32 256.5 289.97 257.98 289.97 265.63 282.32 264.15 282.32"/>
    <polygon class="cls-2" points="254.27 282.32 246.62 289.97 248.1 289.97 255.75 282.32 254.27 282.32"/>
    <polygon class="cls-2" points="244.4 282.32 236.75 289.97 238.23 289.97 245.88 282.32 244.4 282.32"/>
    <polygon class="cls-2" points="233.58 294.62 235.27 292.93 235.27 291.45 232.84 293.88 233.58 294.62"/>
    <polygon class="cls-2" points="228.65 289.68 236.01 282.32 234.53 282.32 227.91 288.94 228.65 289.68"/>
    <polygon class="cls-2"
             points="270.31 282.32 269.08 282.32 261.43 289.97 262.91 289.97 270.44 282.45 270.31 282.32"/>
    <polygon class="cls-2" points="270.31 282.32 270.44 282.45 270.52 282.37 270.48 282.32 270.31 282.32"/>
    <polygon class="cls-2" points="259.21 282.32 251.56 289.97 253.04 289.97 260.69 282.32 259.21 282.32"/>
    <polygon class="cls-2" points="249.34 282.32 241.69 289.97 243.17 289.97 250.82 282.32 249.34 282.32"/>
    <polygon class="cls-2" points="230.37 291.41 231.11 292.15 240.94 282.32 239.47 282.32 230.37 291.41"/>
    <polygon class="cls-2" points="229.59 282.32 227.62 284.29 227.62 285.77 231.07 282.32 229.59 282.32"/>
    <rect class="cls-2" x="247.61" y="358.53" width="0.12" height="1.05"
          transform="translate(-195.84 215.53) rotate(-45)"/>
    <rect class="cls-2" x="242.67" y="353.59" width="0.12" height="1.05"
          transform="translate(-193.77 210.42) rotate(-44.98)"/>
    <polygon class="cls-2" points="235.27 296.48 235.27 296.38 235.22 296.43 235.27 296.48"/>
    <rect class="cls-2" x="245.14" y="356.06" width="0.12" height="1.05"
          transform="translate(-194.82 213.07) rotate(-45)"/>
    <polygon class="cls-2" points="277.1 289.12 276.24 289.97 277.72 289.97 277.84 289.86 277.1 289.12"/>
    <rect class="cls-2" x="291.95" y="353.67" width="0.12" height="1.05"
          transform="translate(-179.43 245.47) rotate(-45)"/>
    <polygon class="cls-2" points="274.63 286.65 271.31 289.97 272.79 289.97 275.37 287.39 274.63 286.65"/>
    <rect class="cls-2" x="289.48" y="351.21" width="0.12" height="1.05" transform="translate(-178.4 243) rotate(-45)"/>
    <polygon class="cls-2" points="198.85 260.24 198.85 260.24 198.94 260.15 198.94 260.15 198.85 260.24"/>
    <polygon class="cls-2" points="193.26 254.47 193.18 254.56 193.18 254.56 193.26 254.47 193.26 254.47"/>
    <polygon class="cls-2" points="186.44 271.18 177.21 280.4 176.93 282.16 186.15 272.94 186.44 271.18"/>
    <polygon class="cls-2"
             points="198.12 259.5 198.2 259.41 198.2 259.41 195.92 261.69 197.4 261.69 198.85 260.24 198.12 259.5"/>
    <rect class="cls-2" x="212.97" y="324.06" width="0.12" height="1.05"
          transform="translate(-181.65 181.1) rotate(-45.02)"/>
    <polygon class="cls-2"
             points="194 255.21 193.92 255.3 193.18 254.56 179.09 268.64 178.81 270.41 194 255.21 194 255.21"/>
    <rect class="cls-2" x="208.03" y="319.12" width="0.12" height="1.05"
          transform="translate(-179.57 176.01) rotate(-45)"/>
    <polygon class="cls-2" points="183.83 254.04 180.98 256.89 180.7 258.65 185.31 254.04 183.83 254.04"/>
    <polygon class="cls-2" points="187.38 265.3 178.15 274.52 177.87 276.29 187.09 267.06 187.38 265.3"/>
    <polygon class="cls-2" points="196.38 257.77 195.65 257.03 190.99 261.69 192.47 261.69 196.38 257.77"/>
    <rect class="cls-2" x="210.5" y="321.59" width="0.12" height="1.05"
          transform="translate(-180.59 178.47) rotate(-45)"/>
    <polygon class="cls-2" points="188.76 254.04 180.03 262.76 179.75 264.53 190.24 254.04 188.76 254.04"/>
    <polygon class="cls-2" points="198.94 309.52 198.94 309.52 198.94 309.52 198.94 309.52"/>
    <polygon class="cls-2" points="198.2 308.78 198.29 308.69 199.03 309.43 203.18 305.27 201.42 305.56 198.2 308.78"/>
    <polygon class="cls-2" points="179.28 289.68 184.27 284.69 184.55 282.93 178.54 288.94 179.28 289.68"/>
    <polygon class="cls-2" points="196.56 306.96 197.3 306.21 196.02 306.42 196.56 306.96"/>
    <polygon class="cls-2" points="181.75 292.15 183.32 290.57 183.61 288.81 181.01 291.41 181.75 292.15"/>
    <polygon class="cls-2"
             points="176.72 287.3 176.73 287.3 185.21 278.82 185.49 277.05 176.26 286.28 176.21 286.62 176.81 287.22 176.72 287.3"/>
    <polygon class="cls-2" points="199.03 309.43 199.03 309.43 198.94 309.52 199.03 309.43"/>
    <polygon class="cls-2" points="198.2 308.78 198.2 308.78 198.2 308.78 198.2 308.78"/>
    <polygon class="cls-2"
             points="198.94 309.52 199.03 309.43 198.29 308.69 198.2 308.78 198.2 308.78 198.94 309.52 198.94 309.52"/>
    <rect class="cls-2" x="193.3" y="353.59" width="0.12" height="1.05"
          transform="translate(-208.21 175.53) rotate(-44.98)"/>
    <polygon class="cls-2" points="196.02 306.42 195.87 306.44 196.47 307.05 196.56 306.96 196.02 306.42"/>
    <rect class="cls-2" x="195.77" y="356.06" width="0.12" height="1.05"
          transform="translate(-209.23 178) rotate(-44.98)"/>
    <polygon class="cls-2" points="176.81 287.22 176.21 286.62 176.19 286.76 176.72 287.3 176.81 287.22"/>
    <polygon class="cls-2" points="229.23 308.85 235.27 302.8 235.27 301.32 227.47 309.13 229.23 308.85"/>
    <polygon class="cls-2" points="224.94 301.79 215.71 311.01 217.47 310.73 226.7 301.5 224.94 301.79"/>
    <polygon class="cls-2" points="227.62 299.1 227.62 300.58 233.41 294.79 232.67 294.05 227.62 299.1"/>
    <rect class="cls-2" x="247.52" y="358.61" width="0.12" height="1.05"
          transform="translate(-195.96 215.68) rotate(-45.02)"/>
    <polygon class="cls-2" points="213.18 303.67 203.95 312.9 205.71 312.62 214.94 303.39 213.18 303.67"/>
    <polygon class="cls-2" points="227.73 289.12 227.62 289.23 227.62 290.7 228.47 289.86 227.73 289.12"/>
    <rect class="cls-2" x="242.58" y="353.67" width="0.12" height="1.05"
          transform="translate(-193.89 210.56) rotate(-45)"/>
    <polygon class="cls-2" points="235.11 307.9 235.27 307.74 235.27 306.26 233.35 308.19 235.11 307.9"/>
    <polygon class="cls-2"
             points="221.59 310.07 223.35 309.79 235.27 297.86 235.27 296.65 235.14 296.52 221.59 310.07"/>
    <polygon class="cls-2" points="235.14 296.52 235.27 296.65 235.27 296.48 235.22 296.43 235.14 296.52"/>
    <polygon class="cls-2" points="230.2 291.58 227.62 294.16 227.62 295.64 230.94 292.32 230.2 291.58"/>
    <polygon class="cls-2" points="219.06 302.73 209.83 311.95 211.59 311.67 220.82 302.44 219.06 302.73"/>
    <rect class="cls-2" x="245.05" y="356.14" width="0.12" height="1.05"
          transform="translate(-194.91 213.03) rotate(-45)"/>
    <polygon class="cls-2" points="200.75 311.16 201.49 311.9 209.06 304.33 207.3 304.61 200.75 311.16"/>
    <polygon class="cls-2" points="200.75 311.16 200.67 311.24 200.67 311.24 200.75 311.16"/>
    <polygon class="cls-2" points="201.41 311.98 201.49 311.9 201.41 311.98 201.41 311.98"/>
    <rect class="cls-2" x="215.52" y="375.8" width="0.12" height="1.05"
          transform="translate(-217.47 197.93) rotate(-45)"/>
    <polygon class="cls-2" points="198.85 309.6 198.85 309.6 198.94 309.52 198.94 309.52 198.85 309.6"/>
    <rect class="cls-2" x="191.12" y="352.1" width="0.12" transform="translate(-207.47 173.56) rotate(-45)"/>
    <polygon class="cls-2"
             points="198.12 308.86 198.2 308.78 198.2 308.78 192.19 314.78 193.96 314.5 198.85 309.6 198.12 308.86"/>
    <rect class="cls-2" x="212.97" y="373.42" width="0.12" height="1.05"
          transform="translate(-216.57 195.57) rotate(-45.02)"/>
    <polygon class="cls-2" points="189.66 307.44 180.44 316.67 182.2 316.38 191.43 307.16 189.66 307.44"/>
    <polygon class="cls-2" points="180.78 306.45 171.55 315.68 171.27 317.44 180.5 308.21 180.78 306.45"/>
    <polygon class="cls-2" points="182.66 294.69 173.44 303.92 173.16 305.68 182.38 296.45 182.66 294.69"/>
    <polygon class="cls-2" points="178.37 289.12 175.32 292.16 175.04 293.92 179.11 289.86 178.37 289.12"/>
    <rect class="cls-2" x="193.22" y="353.67" width="0.12" height="1.05"
          transform="translate(-208.34 175.66) rotate(-45)"/>
    <polygon class="cls-2" points="195.72 306.47 195.54 306.5 186.31 315.73 188.08 315.44 196.38 307.13 195.72 306.47"/>
    <polygon class="cls-2" points="195.72 306.47 196.38 307.13 196.47 307.05 195.87 306.44 195.72 306.47"/>
    <polygon class="cls-2" points="183.78 308.38 174.56 317.61 176.32 317.33 185.55 308.1 183.78 308.38"/>
    <polygon class="cls-2" points="181.72 300.57 172.5 309.8 172.21 311.56 181.44 302.33 181.72 300.57"/>
    <polygon class="cls-2" points="180.84 291.58 174.38 298.04 174.1 299.8 181.58 292.32 180.84 291.58"/>
    <rect class="cls-2" x="195.69" y="356.14" width="0.12" height="1.05"
          transform="translate(-209.37 178.12) rotate(-45)"/>
    <polygon class="cls-2" points="176.16 286.91 175.98 288.04 176.64 287.39 176.16 286.91"/>
    <polygon class="cls-2" points="176.72 287.3 176.19 286.76 176.16 286.91 176.64 287.39 176.72 287.3"/>
    <polygon class="cls-2" points="200.67 311.24 200.58 311.33 200.58 311.33 200.67 311.24 200.67 311.24"/>
    <polygon class="cls-2"
             points="201.41 311.98 201.32 312.07 200.58 311.33 198.07 313.84 199.83 313.56 201.41 311.98 201.41 311.98"/>
    <rect class="cls-2" x="215.43" y="375.89" width="0.12" height="1.05"
          transform="translate(-217.55 197.87) rotate(-45)"/>
    <path class="cls-4" d="M254.58,232.11h10.34v27.2h24.73v-27.2h11.44v67.77H289.65V271.49H264.92v28.39H254.58Z"
          transform="translate(-14.5 -64.76)"/>
    <path class="cls-5"
          d="M14.5,511.47c0-.54.16-.8.48-.8H19V473.94H15q-.48,0-.48-.82t.48-.82H33.89q.5,0,.5.82t-.5.82h-4v15.93H45V473.94H40.9q-.47,0-.47-.82c0-.54.16-.82.47-.82H59.82q.5,0,.5.82t-.5.82h-4v36.72h4q.5,0,.5.8t-.5.83H40.9q-.47,0-.47-.83c0-.54.16-.8.47-.8H45V491.51H29.85v19.15h4q.5,0,.5.8t-.5.83H15Q14.5,512.3,14.5,511.47Z"
          transform="translate(-14.5 -64.76)"/>
    <path class="cls-5"
          d="M61.82,498a14.13,14.13,0,0,1,4.4-10.75,16,16,0,0,1,11.43-4.15q7,0,11,4.15a14.93,14.93,0,0,1,4,10.75,16.29,16.29,0,0,1-1.76,7.68,12.82,12.82,0,0,1-5.09,5.26,15.85,15.85,0,0,1-8,1.91,17.86,17.86,0,0,1-8.36-1.91,13.49,13.49,0,0,1-5.62-5.26A15,15,0,0,1,61.82,498Zm10.82,2.61q0,2.29.11,3.88a20.63,20.63,0,0,0,.42,3A7,7,0,0,0,74,509.8a3.88,3.88,0,0,0,1.47,1.35,5.36,5.36,0,0,0,4.47,0,4,4,0,0,0,1.49-1.35,6.84,6.84,0,0,0,.88-2.29,20.45,20.45,0,0,0,.42-3q.1-1.6.11-3.89v-5.25q0-2.29-.11-3.89a20.79,20.79,0,0,0-.42-3,6.71,6.71,0,0,0-.88-2.3A4.13,4.13,0,0,0,80,484.76a5.24,5.24,0,0,0-4.47,0A4,4,0,0,0,74,486.1a6.87,6.87,0,0,0-.87,2.3,20.65,20.65,0,0,0-.42,3q-.1,1.6-.11,3.89Z"
          transform="translate(-14.5 -64.76)"/>
    <path class="cls-5"
          d="M95.81,498q0-7.47,4.06-11.19t11.86-3.72a19.54,19.54,0,0,1,9.47,2q3.55,2,3.55,5.11A4.56,4.56,0,0,1,123,494a17.76,17.76,0,0,1-6.11,2.43v.21a10.88,10.88,0,0,1,6.42,1.69q2.38,1.69,2.38,5.44a7.15,7.15,0,0,1-1.82,4.83,11.21,11.21,0,0,1-4.78,3.16,19,19,0,0,1-6.49,1.06q-1.88,0-3.51-.16a24.78,24.78,0,0,1-3.39-.58A14.79,14.79,0,0,1,102.6,511a12.69,12.69,0,0,1-2.71-1.85,10.47,10.47,0,0,1-2.18-2.66,13.85,13.85,0,0,1-1.39-3.68A20.63,20.63,0,0,1,95.81,498Zm10.82-2.14h3.31a4.47,4.47,0,0,0,3.77-1.69,7.35,7.35,0,0,0,.08-8.24,3.68,3.68,0,0,0-2.93-1.49,3.8,3.8,0,0,0-3,1.49,6.25,6.25,0,0,0-1.28,4.19Zm0,9.47a6.77,6.77,0,0,0,1.39,4.54,4.16,4.16,0,0,0,6.59,0,6.8,6.8,0,0,0,1.38-4.55,9.92,9.92,0,0,0-1.59-5.92q-1.59-2.21-5.09-2.21h-2.68Z"
          transform="translate(-14.5 -64.76)"/>
    <path class="cls-5"
          d="M129.42,498a14.13,14.13,0,0,1,4.4-10.75,16,16,0,0,1,11.43-4.15q7,0,11,4.15a14.93,14.93,0,0,1,4,10.75,16.29,16.29,0,0,1-1.76,7.68,12.82,12.82,0,0,1-5.09,5.26,15.85,15.85,0,0,1-8,1.91,17.86,17.86,0,0,1-8.36-1.91,13.49,13.49,0,0,1-5.62-5.26A15,15,0,0,1,129.42,498Zm10.82,2.61q0,2.29.11,3.88a20.63,20.63,0,0,0,.42,3,7,7,0,0,0,.87,2.31,3.88,3.88,0,0,0,1.47,1.35,5.36,5.36,0,0,0,4.47,0,4,4,0,0,0,1.49-1.35,6.84,6.84,0,0,0,.88-2.29,20.45,20.45,0,0,0,.42-3q.1-1.6.11-3.89v-5.25q0-2.29-.11-3.89a20.79,20.79,0,0,0-.42-3,6.71,6.71,0,0,0-.88-2.3,4.13,4.13,0,0,0-1.49-1.34,5.24,5.24,0,0,0-4.47,0,4,4,0,0,0-1.47,1.34,6.87,6.87,0,0,0-.87,2.3,20.65,20.65,0,0,0-.42,3q-.1,1.6-.11,3.89Z"
          transform="translate(-14.5 -64.76)"/>
    <path class="cls-5"
          d="M161.68,484.31a1,1,0,0,1,.12-.48.35.35,0,0,1,.3-.21h12.06a.62.62,0,0,1,.76.74v12h4.25a2.15,2.15,0,0,0,1.89-.94,5.49,5.49,0,0,0,.84-2.43q.2-1.49.34-3.07a13.37,13.37,0,0,1,.69-3.15,5.14,5.14,0,0,1,1.6-2.41,6.36,6.36,0,0,1,4.11-1.29,6.25,6.25,0,0,1,4,1.29,4.32,4.32,0,0,1,1.66,3.61,4.59,4.59,0,0,1-1.43,3.57,4.87,4.87,0,0,1-3.39,1.31,5,5,0,0,1-3.44-1.32,4.62,4.62,0,0,1-1.46-3.61v-.21l-.16,0-.16,0a19.34,19.34,0,0,0-.46,2.89,24.46,24.46,0,0,1-.83,4.19q-.55,1.83-1.64,2.15v.16a20.43,20.43,0,0,1,2.48-.16,11.6,11.6,0,0,1,3.31.4,5,5,0,0,1,2.26,1.42,6.17,6.17,0,0,1,1.37,2.86,21.42,21.42,0,0,1,.42,4.68,5,5,0,0,0,.66,2.78,1.91,1.91,0,0,0,1.63,1,2.17,2.17,0,0,0,1.72-.94,4.1,4.1,0,0,0,.75-2.62.42.42,0,0,1,.22-.36.89.89,0,0,1,.49-.15.75.75,0,0,1,.45.13.43.43,0,0,1,.18.37,5.67,5.67,0,0,1-2.11,4.64,9,9,0,0,1-5.83,1.71,7.92,7.92,0,0,1-5.58-2.14q-2.31-2.14-2.31-6.33,0-1.11,0-1.83t-.13-1.57a5.68,5.68,0,0,0-.32-1.37,4.39,4.39,0,0,0-.55-1,2,2,0,0,0-.87-.67,3.4,3.4,0,0,0-1.27-.21h-3.3V512.3h-9.73V485H162.1C161.82,485,161.68,484.75,161.68,484.31Z"
          transform="translate(-14.5 -64.76)"/>
    <path class="cls-5"
          d="M198.78,498a14.13,14.13,0,0,1,4.4-10.75,16,16,0,0,1,11.43-4.15q7,0,11,4.15a14.93,14.93,0,0,1,4,10.75,16.29,16.29,0,0,1-1.76,7.68,12.82,12.82,0,0,1-5.09,5.26,15.85,15.85,0,0,1-8,1.91,17.86,17.86,0,0,1-8.36-1.91,13.49,13.49,0,0,1-5.62-5.26A15,15,0,0,1,198.78,498Zm10.82,2.61q0,2.29.11,3.88a20.63,20.63,0,0,0,.42,3,7,7,0,0,0,.87,2.31,3.88,3.88,0,0,0,1.47,1.35,5.36,5.36,0,0,0,4.47,0,4,4,0,0,0,1.49-1.35,6.84,6.84,0,0,0,.88-2.29,20.45,20.45,0,0,0,.42-3q.1-1.6.11-3.89v-5.25q0-2.29-.11-3.89a20.79,20.79,0,0,0-.42-3,6.71,6.71,0,0,0-.88-2.3,4.13,4.13,0,0,0-1.49-1.34,5.24,5.24,0,0,0-4.47,0A4,4,0,0,0,211,486.1a6.87,6.87,0,0,0-.87,2.3,20.65,20.65,0,0,0-.42,3q-.1,1.6-.11,3.89Z"
          transform="translate(-14.5 -64.76)"/>
    <path class="cls-5"
          d="M229,521.69l.05-.9.32-9.58c0-.18.05-.26.16-.26h4.72q3.93-4.77,3.93-17.73,0-1.08-.21-8.26H234.1a.38.38,0,0,1-.32-.21.83.83,0,0,1-.13-.45.88.88,0,0,1,.13-.48.38.38,0,0,1,.32-.21h22.13q.71,0,.71.58V511h4.91c.11,0,.16.12.16.37q0,.11.07,2.07l.15,4.34q.08,2.38.13,3.11l.05.84a.42.42,0,0,1-.2.37.81.81,0,0,1-.46.13.89.89,0,0,1-.49-.15.42.42,0,0,1-.22-.36,15.7,15.7,0,0,0-.45-2.55,20.07,20.07,0,0,0-1-2.82,7.92,7.92,0,0,0-1.77-2.6,5.25,5.25,0,0,0-2.58-1.42H238a8.22,8.22,0,0,0-3.73,2.2,14.68,14.68,0,0,0-2.89,3.76,7.68,7.68,0,0,0-1.06,3.43.43.43,0,0,1-.19.37.75.75,0,0,1-.45.13.89.89,0,0,1-.49-.15A.42.42,0,0,1,229,521.69Zm6.6-10.74h11.66V485h-7.94q0,.66.08,3.46t.08,4.75Q239.43,506.18,235.55,511Z"
          transform="translate(-14.5 -64.76)"/>
    <path class="cls-5"
          d="M262.84,497.87a19.2,19.2,0,0,1,.77-5.49,16.1,16.1,0,0,1,2.24-4.7,10.62,10.62,0,0,1,3.81-3.32,11.1,11.1,0,0,1,5.27-1.24,12,12,0,0,1,4,.67,12.33,12.33,0,0,1,3.94,2.47v-2.64h8.94q.79,0,.79.74v22.16a3.15,3.15,0,0,0,.64,2.1,1.86,1.86,0,0,0,3,0,3.29,3.29,0,0,0,.62-2.15.42.42,0,0,1,.22-.36.89.89,0,0,1,.49-.15.75.75,0,0,1,.45.13.43.43,0,0,1,.19.37A5.67,5.67,0,0,1,296,511a8,8,0,0,1-5.28,1.87,8.22,8.22,0,0,1-4.34-1.2,7.11,7.11,0,0,1-2.94-3.6q-3.81,4.8-8.94,4.8a9.23,9.23,0,0,1-4.37-1.12,12.23,12.23,0,0,1-3.73-3.07,15.08,15.08,0,0,1-2.57-4.76A18.38,18.38,0,0,1,262.84,497.87Zm9.73,5a8.43,8.43,0,0,0,1.52,5.37,4.48,4.48,0,0,0,3.58,1.91,4.57,4.57,0,0,0,3.66-2,8.45,8.45,0,0,0,1.55-5.38v-11a7.1,7.1,0,0,0-1.53-4.85,4.62,4.62,0,0,0-7.23,0,7.06,7.06,0,0,0-1.55,4.84Z"
          transform="translate(-14.5 -64.76)"/>
    <path class="cls-5"
          d="M299.55,484.31q0-.69.16-.69h12.21v20.79a6.22,6.22,0,0,0,1.44,4.37,4.5,4.5,0,0,0,6.83,0,6.22,6.22,0,0,0,1.44-4.37V483.62h9.73v22.79a3.77,3.77,0,0,0,.65,2.36,1.93,1.93,0,0,0,1.57.83,2,2,0,0,0,1.6-.83,3.66,3.66,0,0,0,.67-2.36.42.42,0,0,1,.22-.36.89.89,0,0,1,.49-.15.75.75,0,0,1,.45.13.43.43,0,0,1,.19.37q-1.06,19.34-11.18,19.34a9.29,9.29,0,0,1-3.42-1q-2.2-1-4.52-2a10.32,10.32,0,0,0-3.77-1q-2.74,0-3.25,3.35c-.05.3-.29.45-.71.45a.76.76,0,0,1-.43-.13.38.38,0,0,1-.2-.32,16.33,16.33,0,0,1,.28-3,12.16,12.16,0,0,1,.92-2.88,9.52,9.52,0,0,1,1.6-2.44,7,7,0,0,1,2.39-1.67,7.81,7.81,0,0,1,3.18-.63,9.79,9.79,0,0,1,3.11.58,21.94,21.94,0,0,1,3.06,1.28,22.06,22.06,0,0,0,3,1.28,9.7,9.7,0,0,0,3.1.58,4.24,4.24,0,0,0,1.23-.17,5.59,5.59,0,0,0,1-.4,2.65,2.65,0,0,0,.8-.7q.38-.47.62-.83a4.79,4.79,0,0,0,.48-1c.16-.45.28-.8.36-1.07a12.07,12.07,0,0,0,.26-1.2q.15-.81.2-1.16c0-.24.09-.63.16-1.17a6.81,6.81,0,0,1-2.65,1.67,9.08,9.08,0,0,1-3.13.59,8.31,8.31,0,0,1-4.44-1.23,6.36,6.36,0,0,1-2.76-3.52,9.84,9.84,0,0,1-4,3.56,12.37,12.37,0,0,1-5.41,1.19,12.5,12.5,0,0,1-4-.65,11.6,11.6,0,0,1-3.47-1.85,8.59,8.59,0,0,1-2.47-3.13,9.82,9.82,0,0,1-.92-4.3V485h-2.48C299.6,485,299.55,484.75,299.55,484.31Z"
          transform="translate(-14.5 -64.76)"/>
    <path class="cls-5"
          d="M337.47,484.26q0-.63.15-.63h11.82q.56,0,.56.63v9.07a13.5,13.5,0,0,1,7.15-2,16,16,0,0,1,3.64.41,13,13,0,0,1,3.35,1.28,11.23,11.23,0,0,1,2.75,2.11,9.13,9.13,0,0,1,1.86,3,10.5,10.5,0,0,1,.69,3.86,9,9,0,0,1-.84,3.89,9.27,9.27,0,0,1-2.24,3,13.53,13.53,0,0,1-3.31,2.14,17.72,17.72,0,0,1-4,1.31,22.21,22.21,0,0,1-4.36.42,21.58,21.58,0,0,1-4.32-.42,16.66,16.66,0,0,1-3.9-1.31,13.21,13.21,0,0,1-3.21-2.14,9.11,9.11,0,0,1-2.17-3,9.38,9.38,0,0,1-.8-3.89V485h-2.66Q337.47,485,337.47,484.26ZM350,506.89a4.75,4.75,0,0,0,1.28,3.53,4.55,4.55,0,0,0,3.34,1.27,5.4,5.4,0,0,0,3.57-1.27,4.36,4.36,0,0,0,1.51-3.53v-9.13a4.3,4.3,0,0,0-1.51-3.48,5.39,5.39,0,0,0-3.57-1.27,4.54,4.54,0,0,0-3.34,1.27,4.68,4.68,0,0,0-1.28,3.48Z"
          transform="translate(-14.5 -64.76)"/>
    <path class="cls-5"
          d="M369.57,484.31a1,1,0,0,1,.12-.48.35.35,0,0,1,.3-.21H382a.62.62,0,0,1,.76.74v12h4.25a2.15,2.15,0,0,0,1.89-.94,5.49,5.49,0,0,0,.84-2.43q.2-1.49.34-3.07a13.37,13.37,0,0,1,.69-3.15,5.14,5.14,0,0,1,1.6-2.41,6.36,6.36,0,0,1,4.11-1.29,6.25,6.25,0,0,1,4,1.29,4.32,4.32,0,0,1,1.66,3.61,4.59,4.59,0,0,1-1.43,3.57,4.87,4.87,0,0,1-3.39,1.31,5,5,0,0,1-3.44-1.32,4.62,4.62,0,0,1-1.46-3.61v-.21l-.16,0-.16,0a19.34,19.34,0,0,0-.46,2.89,24.46,24.46,0,0,1-.83,4.19q-.55,1.83-1.64,2.15v.16a20.43,20.43,0,0,1,2.48-.16,11.6,11.6,0,0,1,3.31.4,5,5,0,0,1,2.26,1.42,6.17,6.17,0,0,1,1.37,2.86,21.42,21.42,0,0,1,.42,4.68,5,5,0,0,0,.66,2.78,1.91,1.91,0,0,0,1.63,1,2.17,2.17,0,0,0,1.72-.94,4.1,4.1,0,0,0,.75-2.62.42.42,0,0,1,.22-.36.89.89,0,0,1,.49-.15.75.75,0,0,1,.45.13.43.43,0,0,1,.18.37,5.67,5.67,0,0,1-2.11,4.64,9,9,0,0,1-5.83,1.71,7.92,7.92,0,0,1-5.58-2.14q-2.31-2.14-2.31-6.33,0-1.11,0-1.83t-.13-1.57a5.68,5.68,0,0,0-.32-1.37,4.39,4.39,0,0,0-.55-1,2,2,0,0,0-.87-.67,3.4,3.4,0,0,0-1.27-.21h-3.3V512.3h-9.73V485H370C369.71,485,369.57,484.75,369.57,484.31Z"
          transform="translate(-14.5 -64.76)"/>
    <path class="cls-5"
          d="M406.09,484.31a1,1,0,0,1,.12-.48.35.35,0,0,1,.3-.21h12.11q.71,0,.71.63v22.1a4.1,4.1,0,0,0,.6,2.39,1.76,1.76,0,0,0,1.47.86,1.86,1.86,0,0,0,1.51-.86,3.91,3.91,0,0,0,.64-2.39.42.42,0,0,1,.22-.36.89.89,0,0,1,.49-.15.81.81,0,0,1,.46.13.42.42,0,0,1,.2.37,5.61,5.61,0,0,1-2.27,4.76,8.75,8.75,0,0,1-5.4,1.7,8.84,8.84,0,0,1-5.42-1.7,5.59,5.59,0,0,1-2.29-4.76V485h-3C406.23,485,406.09,484.75,406.09,484.31Zm2.41-12.47a4.88,4.88,0,0,1,4.83-4.85,4.74,4.74,0,0,1,3.47,1.43,4.66,4.66,0,0,1,1.43,3.43,4.58,4.58,0,0,1-1.45,3.38,4.76,4.76,0,0,1-3.46,1.43,4.66,4.66,0,0,1-3.38-1.43A4.58,4.58,0,0,1,408.5,471.84Z"
          transform="translate(-14.5 -64.76)"/>
    <path class="cls-5"
          d="M449.38,511.47c0-.54.16-.8.48-.8h4.06V473.94h-4.06q-.48,0-.48-.82t.48-.82H471.7q6.78,0,10.3,2.36a7.15,7.15,0,0,1,3.52,6.18,7.42,7.42,0,0,1-2.66,6q-2.66,2.24-8,2.77v.32a14.64,14.64,0,0,1,5.37,1A11.38,11.38,0,0,1,486.8,497a10,10,0,0,1,.88,4.1,9.61,9.61,0,0,1-.58,3.33,9.11,9.11,0,0,1-1.93,3,12.43,12.43,0,0,1-3.34,2.51,19.12,19.12,0,0,1-5,1.69,32.63,32.63,0,0,1-6.73.63H449.85Q449.38,512.3,449.38,511.47Zm15.35-22.09h4a5.06,5.06,0,0,0,3.34-1.15,6.63,6.63,0,0,0,2-2.84,10.6,10.6,0,0,0,.63-3.73,9.55,9.55,0,0,0-1.53-5.41,4.78,4.78,0,0,0-4.19-2.31h-4.25Zm0,21.23q1.29.05,4.8.05a6.16,6.16,0,0,0,3.15-.79,5.68,5.68,0,0,0,2.12-2.15,11.32,11.32,0,0,0,1.15-3,15.16,15.16,0,0,0,.38-3.49,16.48,16.48,0,0,0-.7-4.93,8.63,8.63,0,0,0-2.33-3.78,5.6,5.6,0,0,0-4-1.54h-4.59Z"
          transform="translate(-14.5 -64.76)"/>
    <path class="cls-5"
          d="M490.39,497.92a16.42,16.42,0,0,1,1.21-6.4,12.9,12.9,0,0,1,3.22-4.69A14.7,14.7,0,0,1,499.3,484a14,14,0,0,1,5.16-1,15.37,15.37,0,0,1,5.42,1,15.61,15.61,0,0,1,4.74,2.81,13.24,13.24,0,0,1,3.44,4.84,17,17,0,0,1,1.34,6.73c-.07.25-.2.37-.38.37H500.18q0,6.88,1.48,9.79a5,5,0,0,0,4.76,2.9,14.34,14.34,0,0,0,4.9-.83,10.37,10.37,0,0,0,4-2.57,7.19,7.19,0,0,0,2-4.09.38.38,0,0,1,.21-.32.83.83,0,0,1,.45-.13.88.88,0,0,1,.47.13.38.38,0,0,1,.21.32,8.26,8.26,0,0,1-3.92,6.28,14.52,14.52,0,0,1-8.54,2.56,16.59,16.59,0,0,1-4.72-.69,15.86,15.86,0,0,1-4.32-2,17,17,0,0,1-3.52-3.11,13.36,13.36,0,0,1-2.39-4.14A14.27,14.27,0,0,1,490.39,497.92Zm9.73-.47h9.55V491a7.39,7.39,0,0,0-1.42-4.81,4.12,4.12,0,0,0-6.7,0,7.35,7.35,0,0,0-1.43,4.81Z"
          transform="translate(-14.5 -64.76)"/>
    <path class="cls-5"
          d="M520.82,506.47a.42.42,0,0,1,.2-.37.81.81,0,0,1,.46-.13.83.83,0,0,1,.48.15.42.42,0,0,1,.21.36,4.16,4.16,0,0,0,.73,2.62,2.14,2.14,0,0,0,1.71.94,1.94,1.94,0,0,0,1.64-1,5,5,0,0,0,.67-2.78,21.49,21.49,0,0,1,.42-4.68,6.18,6.18,0,0,1,1.37-2.86,5,5,0,0,1,2.25-1.42,11.6,11.6,0,0,1,3.31-.4,20.44,20.44,0,0,1,2.48.16v-.16a2.35,2.35,0,0,1-1.38-1.51,10.85,10.85,0,0,1-.75-2.64q-.21-1.37-.4-3a12.09,12.09,0,0,0-.38-2.13l-.17,0-.17,0v.21a4.62,4.62,0,0,1-1.46,3.61,5,5,0,0,1-3.44,1.32,4.87,4.87,0,0,1-3.4-1.31,4.6,4.6,0,0,1-1.43-3.57,4.3,4.3,0,0,1,1.67-3.61,6.36,6.36,0,0,1,4-1.29,6.59,6.59,0,0,1,4.17,1.27,4.38,4.38,0,0,1,1.49,2.52,29.24,29.24,0,0,1,.61,3.21q.2,1.52.44,2.81a7.53,7.53,0,0,0,.88,2.38,2,2,0,0,0,1.86,1.1h3.15V485H539c-.28,0-.42-.22-.42-.66a1,1,0,0,1,.12-.48.35.35,0,0,1,.3-.21h15.86a.38.38,0,0,1,.32.21.88.88,0,0,1,.13.48.84.84,0,0,1-.13.45.37.37,0,0,1-.31.21h-3.06v11.39H555a2.14,2.14,0,0,0,1.88-.94,5.52,5.52,0,0,0,.84-2.43q.2-1.49.34-3.07a13.37,13.37,0,0,1,.69-3.15,5.14,5.14,0,0,1,1.6-2.41,6.36,6.36,0,0,1,4.12-1.29,6.25,6.25,0,0,1,4,1.29A4.32,4.32,0,0,1,570,488a4.59,4.59,0,0,1-1.43,3.57,4.87,4.87,0,0,1-3.39,1.31,5,5,0,0,1-3.44-1.32,4.62,4.62,0,0,1-1.46-3.61v-.21l-.16,0-.16,0a19.34,19.34,0,0,0-.46,2.89,24.36,24.36,0,0,1-.83,4.19q-.55,1.83-1.64,2.15v.16a20.43,20.43,0,0,1,2.48-.16,11.61,11.61,0,0,1,3.31.4,5,5,0,0,1,2.25,1.42,6.17,6.17,0,0,1,1.37,2.86,21.42,21.42,0,0,1,.42,4.68,5,5,0,0,0,.66,2.78,1.91,1.91,0,0,0,1.63,1,2.17,2.17,0,0,0,1.72-.94,4.1,4.1,0,0,0,.75-2.62.42.42,0,0,1,.22-.36.89.89,0,0,1,.49-.15.75.75,0,0,1,.45.13.43.43,0,0,1,.18.37,5.67,5.67,0,0,1-2.11,4.64,9,9,0,0,1-5.83,1.71,7.92,7.92,0,0,1-5.58-2.14q-2.31-2.14-2.31-6.33,0-1.35,0-2.19a12.14,12.14,0,0,0-.22-1.78,4.43,4.43,0,0,0-.51-1.46,2.55,2.55,0,0,0-.93-.87,2.93,2.93,0,0,0-1.47-.34h-2.2V512.3h-9.73V497.71h-2.22a3,3,0,0,0-1.48.34,2.55,2.55,0,0,0-.94.87,4.4,4.4,0,0,0-.51,1.46,12,12,0,0,0-.22,1.78q0,.85,0,2.19,0,4.19-2.3,6.33a7.86,7.86,0,0,1-5.55,2.14,9.07,9.07,0,0,1-5.86-1.71A5.65,5.65,0,0,1,520.82,506.47Z"
          transform="translate(-14.5 -64.76)"/>
    <path class="cls-5"
          d="M572.88,484.31a1,1,0,0,1,.12-.48.35.35,0,0,1,.3-.21h12.11q.71,0,.71.63v22.1a4.1,4.1,0,0,0,.6,2.39,1.76,1.76,0,0,0,1.47.86,1.86,1.86,0,0,0,1.51-.86,3.91,3.91,0,0,0,.64-2.39.42.42,0,0,1,.22-.36.89.89,0,0,1,.49-.15.81.81,0,0,1,.46.13.42.42,0,0,1,.2.37,5.61,5.61,0,0,1-2.27,4.76,8.75,8.75,0,0,1-5.4,1.7,8.84,8.84,0,0,1-5.42-1.7,5.59,5.59,0,0,1-2.29-4.76V485h-3C573,485,572.88,484.75,572.88,484.31ZM576.39,474a4.88,4.88,0,0,1,4.83-4.85,4.74,4.74,0,0,1,3.47,1.43,4.66,4.66,0,0,1,1.43,3.43,4.58,4.58,0,0,1-1.45,3.38,4.76,4.76,0,0,1-3.46,1.43,4.66,4.66,0,0,1-3.38-1.43A4.58,4.58,0,0,1,576.39,474Z"
          transform="translate(-14.5 -64.76)"/>
    <path class="cls-6"
          d="M309.44,231H326c4.29,0,23.95.09,23.95,18.17a14.3,14.3,0,0,1-7.55,13.14c7.46,2.52,11.74,8.95,11.74,16.68,0,10-5.4,21-27.49,21H309.44Zm18.73,26.56c8.39,0,9-5.31,9-7.08,0-6.71-6.24-7.08-9-7.08h-6v14.16Zm2.33,30c1.49,0,10.9-.09,10.9-8.67,0-2.61-.93-8.95-10.9-8.95h-8.29v17.61Z"
          transform="translate(-14.5 -64.76)"/>
</svg>