<svg version="1.1" xmlns="http://www.w3.org/2000/svg" xmlns:xlink="http://www.w3.org/1999/xlink" x="0px" y="0px"
	 viewBox="0 0 699 746.4" style="enable-background:new 0 0 699 746.4;" xml:space="preserve">
	<image style="overflow:visible;"
		   width="2905"
		   height="3110"
		   xlink:href="/wp-content/themes/nv/img/level-plan/2-5.png"
		   transform="matrix(0.24 0 0 0.24 0 0)">
		</image>
	<g id="_37" data-name="37" class="two-flat svg-item">
		<path class="st0" d="M300.111,598.203h-67.833l0.042,3.125l-29.125,0.031l0-2.865h-36.542v47.812l9.814,0.012l0.012,7.829
			l-8.741,0.047l-0.051,89.126h141.167v-6.535l28,0.368V633.453h-7.325l-0.083-4.542c0,0-0.568-2.328-1.208-3.375
			s-1.875-2.833-1.875-2.833l-12.292,7.125l-0.042,3.625H300.07L300.111,598.203z"/>
		<g>
			<g>
				<path class="st1" d="M230.453,662.238h5.219l-0.83,2.12h-4.389l-0.419,1.109c1.89,0.071,3.345,0.542,4.364,1.413
					c0.838,0.719,1.258,1.611,1.258,2.68c0,0.685-0.195,1.354-0.583,2.01c-0.389,0.654-0.937,1.158-1.644,1.512
					c-0.707,0.354-1.482,0.53-2.326,0.53c-0.91,0-1.608-0.17-2.096-0.51c-0.34-0.241-0.509-0.515-0.509-0.821
					c0-0.236,0.089-0.444,0.267-0.625c0.178-0.181,0.385-0.271,0.62-0.271c0.214,0,0.43,0.044,0.649,0.132s0.594,0.317,1.126,0.69
					c0.334,0.229,0.622,0.389,0.863,0.477c0.17,0.065,0.362,0.099,0.575,0.099c0.449,0,0.832-0.164,1.146-0.493
					s0.473-0.724,0.473-1.184c0-0.964-0.482-1.748-1.446-2.351s-2.181-0.903-3.649-0.903c-0.148,0-0.37,0.002-0.666,0.008
					L230.453,662.238z"/>
				<path class="st1" d="M241.506,670.366h-4.791v-1.701h4.791V670.366z"/>
				<path class="st1" d="M244.399,667.794v-0.288c0.625-0.181,1.057-0.35,1.298-0.505c0.241-0.156,0.449-0.395,0.625-0.716
					c0.175-0.32,0.263-0.645,0.263-0.974c0-0.455-0.166-0.845-0.497-1.171c-0.332-0.326-0.744-0.489-1.237-0.489
					c-0.767,0-1.419,0.405-1.956,1.217l-0.304-0.107c0.395-0.915,0.9-1.603,1.516-2.062c0.617-0.46,1.303-0.69,2.059-0.69
					c0.772,0,1.409,0.235,1.911,0.707c0.501,0.471,0.752,1.021,0.752,1.651c0,0.411-0.117,0.807-0.349,1.188
					c-0.233,0.381-0.599,0.717-1.097,1.007c0.641,0.312,1.13,0.697,1.467,1.155c0.337,0.457,0.505,1.031,0.505,1.722
					c0,1.161-0.42,2.148-1.261,2.963c-0.841,0.813-1.969,1.22-3.382,1.22c-0.942,0-1.63-0.156-2.062-0.468
					c-0.312-0.22-0.469-0.502-0.469-0.847c0-0.252,0.091-0.467,0.271-0.646c0.181-0.178,0.389-0.267,0.625-0.267
					c0.181,0,0.351,0.038,0.51,0.114c0.087,0.044,0.398,0.284,0.933,0.72s1.034,0.653,1.5,0.653c0.405,0,0.753-0.16,1.043-0.48
					c0.291-0.321,0.436-0.728,0.436-1.221c0-0.751-0.263-1.442-0.789-2.075C246.183,668.471,245.413,668.035,244.399,667.794z"/>
				<path class="st1" d="M253.308,673.612l3.032-9.196h-2.309c-0.904,0-1.583,0.117-2.038,0.354
					c-0.318,0.164-0.581,0.474-0.789,0.929h-0.312l0.806-3.46h6.64l-3.739,11.374H253.308z"/>
				<path class="st1" d="M263.943,670.366h-4.791v-1.701h4.791V670.366z"/>
				<path class="st1" d="M271.314,673.381h-6.558v-0.181c2.01-2.395,3.231-4.005,3.661-4.832s0.645-1.636,0.645-2.425
					c0-0.575-0.178-1.053-0.534-1.434s-0.792-0.571-1.307-0.571c-0.844,0-1.499,0.422-1.964,1.266l-0.304-0.107
					c0.295-1.052,0.745-1.83,1.348-2.334c0.603-0.504,1.298-0.756,2.087-0.756c0.564,0,1.079,0.132,1.545,0.395
					s0.83,0.623,1.093,1.081c0.263,0.457,0.395,0.886,0.395,1.286c0,0.729-0.203,1.468-0.608,2.219
					c-0.553,1.014-1.761,2.427-3.624,4.24h2.408c0.592,0,0.977-0.024,1.155-0.073c0.178-0.05,0.325-0.133,0.439-0.251
					c0.115-0.118,0.266-0.366,0.452-0.744h0.296L271.314,673.381z"/>
				<path class="st1" d="M279.763,670.21h-3.937l-0.468,1.085c-0.154,0.361-0.23,0.66-0.23,0.896c0,0.312,0.126,0.542,0.378,0.69
					c0.148,0.088,0.512,0.153,1.093,0.197v0.304h-3.707v-0.304c0.4-0.061,0.729-0.227,0.986-0.497
					c0.257-0.271,0.575-0.832,0.953-1.681l3.986-8.893h0.156l4.019,9.139c0.383,0.866,0.699,1.411,0.945,1.636
					c0.186,0.17,0.449,0.269,0.789,0.296v0.304h-5.391v-0.304h0.222c0.433,0,0.737-0.061,0.913-0.181
					c0.12-0.088,0.181-0.214,0.181-0.378c0-0.099-0.017-0.2-0.049-0.305c-0.011-0.049-0.093-0.255-0.247-0.616L279.763,670.21z
					 M279.484,669.601l-1.66-3.838l-1.709,3.838H279.484z"/>
			</g>
			<g>
				<path class="st1" d="M241.795,684.712v0.23c-0.992,0.252-1.788,0.576-2.388,0.974c-0.6,0.397-1.074,0.879-1.422,1.446
					c-0.348,0.567-0.618,1.27-0.809,2.108c0.241-0.165,0.441-0.271,0.6-0.321c0.356-0.109,0.715-0.164,1.077-0.164
					c0.833,0,1.527,0.303,2.083,0.908s0.834,1.432,0.834,2.478c0,0.734-0.151,1.408-0.452,2.022
					c-0.301,0.613-0.729,1.087-1.282,1.422c-0.554,0.334-1.146,0.501-1.775,0.501c-0.685,0-1.318-0.188-1.898-0.563
					c-0.581-0.375-1.034-0.924-1.36-1.647c-0.326-0.723-0.489-1.51-0.489-2.358c0-1.249,0.3-2.412,0.9-3.489
					c0.6-1.076,1.452-1.934,2.556-2.572C239.074,685.047,240.349,684.722,241.795,684.712z M237.07,690.135
					c-0.044,0.757-0.066,1.31-0.066,1.66c0,0.757,0.073,1.488,0.218,2.194c0.145,0.707,0.344,1.203,0.596,1.487
					c0.181,0.203,0.395,0.305,0.641,0.305c0.252,0,0.477-0.146,0.674-0.439s0.296-0.89,0.296-1.788c0-1.512-0.184-2.556-0.55-3.131
					c-0.236-0.373-0.554-0.559-0.954-0.559C237.705,689.865,237.42,689.955,237.07,690.135z"/>
				<path class="st1" d="M242.724,691.886l5.293-7.175h1.002v7.175h1.019v1.701h-1.019v2.498h-2.26v-2.498h-4.036V691.886z
					 M243.521,691.886h3.238v-4.397L243.521,691.886z"/>
				<path class="st1" d="M251.559,699.036v-0.361c0.635-0.273,1.097-0.629,1.385-1.064s0.432-0.881,0.432-1.335
					c0-0.094-0.02-0.165-0.058-0.214c-0.039-0.044-0.077-0.065-0.115-0.065c-0.033,0-0.082,0.019-0.148,0.058
					c-0.159,0.093-0.356,0.14-0.592,0.14c-0.323,0-0.604-0.126-0.842-0.378s-0.357-0.548-0.357-0.888c0-0.362,0.137-0.68,0.411-0.954
					c0.274-0.273,0.605-0.41,0.995-0.41c0.471,0,0.874,0.182,1.208,0.546c0.334,0.364,0.501,0.864,0.501,1.5
					c0,0.783-0.237,1.479-0.711,2.088C253.192,698.304,252.49,698.752,251.559,699.036z"/>
				<path class="st1" d="M260.665,689.791c0.784,0.575,1.327,1.11,1.631,1.606s0.456,1.064,0.456,1.705
					c0,0.899-0.338,1.659-1.015,2.281c-0.677,0.622-1.596,0.933-2.757,0.933c-1.102,0-1.954-0.271-2.556-0.813
					c-0.603-0.543-0.904-1.205-0.904-1.989c0-0.597,0.174-1.12,0.522-1.569c0.348-0.449,0.927-0.86,1.738-1.233
					c-0.882-0.674-1.448-1.225-1.697-1.651c-0.25-0.428-0.374-0.923-0.374-1.487c0-0.745,0.316-1.401,0.949-1.969
					s1.5-0.851,2.601-0.851c1.063,0,1.881,0.251,2.453,0.752c0.573,0.501,0.859,1.103,0.859,1.804c0,0.526-0.155,0.99-0.464,1.394
					C261.797,689.104,261.316,689.467,260.665,689.791z M258.396,691.105c-0.17,0.154-0.291,0.294-0.362,0.42
					c-0.109,0.191-0.208,0.471-0.296,0.838c-0.087,0.367-0.131,0.751-0.131,1.15c0,0.516,0.066,0.946,0.197,1.295
					c0.131,0.348,0.319,0.599,0.563,0.752c0.244,0.153,0.494,0.229,0.752,0.229c0.4,0,0.737-0.146,1.011-0.439
					s0.411-0.694,0.411-1.204C260.542,693.084,259.826,692.07,258.396,691.105z M260.04,689.372c0.203-0.274,0.354-0.581,0.452-0.921
					s0.148-0.712,0.148-1.117c0-0.713-0.154-1.258-0.46-1.636c-0.23-0.29-0.548-0.436-0.953-0.436c-0.367,0-0.68,0.133-0.937,0.398
					c-0.258,0.266-0.386,0.596-0.386,0.99c0,0.4,0.144,0.815,0.432,1.245C258.623,688.327,259.191,688.818,260.04,689.372z"/>
				<path class="st1" d="M263.944,688.402h3.213l1.948,4.767l1.948-4.767h3.131v0.304c-0.301,0.017-0.515,0.105-0.641,0.268
					c-0.126,0.161-0.189,0.45-0.189,0.866v4.775c0,0.433,0.059,0.731,0.177,0.896c0.118,0.164,0.336,0.255,0.653,0.271v0.304h-4.051
					v-0.304c0.339-0.006,0.578-0.096,0.715-0.271c0.137-0.175,0.206-0.474,0.206-0.896v-4.923l-2.679,6.394h-0.419l-2.597-6.304
					v4.965c0,0.355,0.06,0.613,0.181,0.772c0.121,0.158,0.356,0.246,0.707,0.263v0.304h-2.301v-0.304
					c0.307-0.011,0.524-0.098,0.653-0.259c0.128-0.162,0.193-0.439,0.193-0.834v-4.907c0-0.378-0.063-0.647-0.189-0.809
					c-0.126-0.162-0.345-0.251-0.657-0.268V688.402z"/>
				<path class="st1" d="M281.778,696.086h-6.558v-0.181c2.01-2.395,3.231-4.005,3.661-4.832s0.645-1.636,0.645-2.425
					c0-0.575-0.178-1.053-0.534-1.434s-0.792-0.571-1.307-0.571c-0.844,0-1.499,0.422-1.964,1.266l-0.304-0.107
					c0.295-1.052,0.745-1.83,1.348-2.334c0.603-0.504,1.298-0.756,2.087-0.756c0.564,0,1.079,0.132,1.545,0.395
					s0.83,0.623,1.093,1.081c0.263,0.457,0.395,0.886,0.395,1.286c0,0.729-0.203,1.468-0.608,2.219
					c-0.553,1.014-1.761,2.427-3.624,4.24h2.408c0.592,0,0.977-0.024,1.155-0.073c0.178-0.05,0.325-0.133,0.439-0.251
					c0.115-0.118,0.266-0.366,0.452-0.744h0.296L281.778,696.086z"/>
			</g>
			<rect x="219.844" y="679.367" class="st1" width="69" height="2.333"/>
		</g>
	</g>
	<g id="_38" data-name="38" class="one-flat svg-item">
		<path class="st2" d="M303.695,488.377h-71.333l-0.128,2.333l-33.497,0.011l-0.094-2.375l-25.594,0.031v-1.688h-5.312l-0.062,51.156
			l8.938-0.031l-0.031,8.812l-9.927-0.083v47l36.5,0.042l0-2.603l28.934,0.066l0.149,2.995h67.958l-0.167-34.792l3.833,0.042
			l0.042-5.917h4.5c0,0,2.25,0.031,4.125-1s2.667-2,2.667-2l-7.208-12.583l-4.167,0.083L303.695,488.377z"/>
		<g>
			<g>
				<path class="st1" d="M213.778,519.805h5.219l-0.83,2.12h-4.389l-0.419,1.109c1.89,0.071,3.345,0.542,4.364,1.413
					c0.838,0.719,1.258,1.611,1.258,2.68c0,0.685-0.195,1.354-0.583,2.01c-0.389,0.654-0.937,1.158-1.644,1.512
					c-0.707,0.354-1.482,0.53-2.326,0.53c-0.91,0-1.608-0.17-2.096-0.51c-0.34-0.241-0.509-0.515-0.509-0.821
					c0-0.236,0.089-0.444,0.267-0.625c0.178-0.181,0.385-0.271,0.62-0.271c0.214,0,0.43,0.044,0.649,0.132s0.594,0.317,1.126,0.69
					c0.334,0.229,0.622,0.389,0.863,0.477c0.17,0.065,0.362,0.099,0.575,0.099c0.449,0,0.832-0.164,1.146-0.493
					s0.473-0.724,0.473-1.184c0-0.964-0.482-1.748-1.446-2.351s-2.181-0.903-3.649-0.903c-0.148,0-0.37,0.002-0.666,0.008
					L213.778,519.805z"/>
				<path class="st1" d="M224.832,527.933h-4.791v-1.701h4.791V527.933z"/>
				<path class="st1" d="M227.725,525.361v-0.288c0.625-0.181,1.057-0.35,1.298-0.505c0.241-0.156,0.449-0.395,0.625-0.716
					c0.175-0.32,0.263-0.645,0.263-0.974c0-0.455-0.166-0.845-0.497-1.171c-0.332-0.326-0.744-0.489-1.237-0.489
					c-0.767,0-1.419,0.405-1.956,1.217l-0.304-0.107c0.395-0.915,0.9-1.603,1.516-2.062c0.617-0.46,1.303-0.69,2.059-0.69
					c0.772,0,1.409,0.235,1.911,0.707c0.501,0.471,0.752,1.021,0.752,1.651c0,0.411-0.117,0.807-0.349,1.188
					c-0.233,0.381-0.599,0.717-1.097,1.007c0.641,0.312,1.13,0.697,1.467,1.155c0.337,0.457,0.505,1.031,0.505,1.722
					c0,1.161-0.42,2.148-1.261,2.963c-0.841,0.813-1.969,1.22-3.382,1.22c-0.942,0-1.63-0.156-2.062-0.468
					c-0.312-0.22-0.469-0.502-0.469-0.847c0-0.252,0.091-0.467,0.271-0.646c0.181-0.178,0.389-0.267,0.625-0.267
					c0.181,0,0.351,0.038,0.51,0.114c0.087,0.044,0.398,0.284,0.933,0.72s1.034,0.653,1.5,0.653c0.405,0,0.753-0.16,1.043-0.48
					c0.291-0.321,0.436-0.728,0.436-1.221c0-0.751-0.263-1.442-0.789-2.075C229.508,526.039,228.738,525.602,227.725,525.361z"/>
				<path class="st1" d="M239.386,524.654c0.784,0.575,1.327,1.11,1.631,1.606s0.456,1.064,0.456,1.705
					c0,0.899-0.338,1.659-1.015,2.281c-0.677,0.622-1.596,0.933-2.757,0.933c-1.102,0-1.954-0.271-2.556-0.813
					c-0.603-0.543-0.904-1.205-0.904-1.989c0-0.597,0.174-1.12,0.522-1.569c0.348-0.449,0.927-0.86,1.738-1.233
					c-0.882-0.674-1.448-1.225-1.697-1.651c-0.25-0.428-0.374-0.923-0.374-1.487c0-0.745,0.316-1.401,0.949-1.969
					s1.5-0.851,2.601-0.851c1.063,0,1.881,0.251,2.453,0.752c0.573,0.501,0.859,1.103,0.859,1.804c0,0.526-0.155,0.99-0.464,1.394
					C240.519,523.967,240.038,524.331,239.386,524.654z M237.118,525.968c-0.17,0.154-0.291,0.294-0.362,0.42
					c-0.109,0.191-0.208,0.471-0.296,0.838c-0.087,0.367-0.131,0.751-0.131,1.15c0,0.516,0.066,0.946,0.197,1.295
					c0.131,0.348,0.319,0.599,0.563,0.752c0.244,0.153,0.494,0.229,0.752,0.229c0.4,0,0.737-0.146,1.011-0.439
					s0.411-0.694,0.411-1.204C239.263,527.947,238.548,526.933,237.118,525.968z M238.762,524.235
					c0.203-0.274,0.354-0.581,0.452-0.921s0.148-0.712,0.148-1.117c0-0.713-0.154-1.258-0.46-1.636
					c-0.23-0.29-0.548-0.436-0.953-0.436c-0.367,0-0.68,0.133-0.937,0.398c-0.258,0.266-0.386,0.596-0.386,0.99
					c0,0.4,0.144,0.815,0.432,1.245C237.344,523.19,237.913,523.681,238.762,524.235z"/>
				<path class="st1" d="M247.268,527.933h-4.791v-1.701h4.791V527.933z"/>
				<path class="st1" d="M253.152,519.575v9.114c0,0.685,0.03,1.122,0.091,1.311c0.06,0.189,0.186,0.344,0.378,0.465
					c0.191,0.12,0.499,0.181,0.92,0.181h0.255v0.304h-5.868v-0.304h0.296c0.477,0,0.816-0.055,1.019-0.164
					c0.203-0.11,0.34-0.261,0.411-0.452c0.071-0.192,0.107-0.639,0.107-1.34v-5.777c0-0.516-0.025-0.837-0.074-0.966
					s-0.141-0.238-0.275-0.329c-0.134-0.09-0.289-0.136-0.464-0.136c-0.279,0-0.619,0.088-1.019,0.264l-0.148-0.296l4.101-1.874
					H253.152z"/>
				<path class="st1" d="M263.088,527.777h-3.937l-0.468,1.085c-0.154,0.361-0.23,0.66-0.23,0.896c0,0.312,0.126,0.542,0.378,0.69
					c0.148,0.088,0.512,0.153,1.093,0.197v0.304h-3.707v-0.304c0.4-0.061,0.729-0.227,0.986-0.497
					c0.257-0.271,0.575-0.832,0.953-1.681l3.986-8.893h0.156l4.019,9.139c0.383,0.866,0.699,1.411,0.945,1.636
					c0.186,0.17,0.449,0.269,0.789,0.296v0.304h-5.391v-0.304h0.222c0.433,0,0.737-0.061,0.913-0.181
					c0.12-0.088,0.181-0.214,0.181-0.378c0-0.099-0.017-0.2-0.049-0.305c-0.011-0.049-0.093-0.255-0.247-0.616L263.088,527.777z
					 M262.809,527.169l-1.66-3.838l-1.709,3.838H262.809z"/>
			</g>
			<g>
				<path class="st1" d="M219.704,548.065v-0.288c0.625-0.181,1.057-0.35,1.298-0.505c0.241-0.156,0.449-0.395,0.625-0.716
					c0.175-0.32,0.263-0.645,0.263-0.974c0-0.455-0.166-0.845-0.497-1.171c-0.332-0.326-0.744-0.489-1.237-0.489
					c-0.767,0-1.419,0.405-1.956,1.217l-0.304-0.107c0.395-0.915,0.9-1.603,1.516-2.062c0.617-0.46,1.303-0.69,2.059-0.69
					c0.772,0,1.409,0.235,1.911,0.707c0.501,0.471,0.752,1.021,0.752,1.651c0,0.411-0.117,0.807-0.349,1.188
					c-0.233,0.381-0.599,0.717-1.097,1.007c0.641,0.312,1.13,0.697,1.467,1.155c0.337,0.457,0.505,1.031,0.505,1.722
					c0,1.161-0.42,2.148-1.261,2.963c-0.841,0.813-1.969,1.22-3.382,1.22c-0.942,0-1.63-0.156-2.062-0.468
					c-0.312-0.22-0.469-0.502-0.469-0.847c0-0.252,0.091-0.467,0.271-0.646c0.181-0.178,0.389-0.267,0.625-0.267
					c0.181,0,0.351,0.038,0.51,0.114c0.087,0.044,0.398,0.284,0.933,0.72s1.034,0.653,1.5,0.653c0.405,0,0.753-0.16,1.043-0.48
					c0.291-0.321,0.436-0.728,0.436-1.221c0-0.751-0.263-1.442-0.789-2.075C221.487,548.743,220.718,548.306,219.704,548.065z"/>
				<path class="st1" d="M226.147,553.883v-0.23c0.91-0.208,1.681-0.515,2.313-0.92s1.134-0.907,1.504-1.504
					c0.37-0.598,0.629-1.285,0.777-2.063c-0.34,0.176-0.629,0.298-0.867,0.366s-0.489,0.103-0.752,0.103
					c-0.844,0-1.546-0.304-2.108-0.912s-0.842-1.441-0.842-2.498c0-0.734,0.152-1.407,0.456-2.019
					c0.304-0.61,0.738-1.084,1.303-1.421c0.564-0.337,1.15-0.506,1.759-0.506c0.652,0,1.268,0.187,1.849,0.559
					c0.581,0.373,1.043,0.912,1.389,1.619s0.518,1.513,0.518,2.416c0,1.173-0.281,2.296-0.843,3.37
					c-0.562,1.073-1.398,1.936-2.511,2.584C228.979,553.476,227.665,553.829,226.147,553.883z M230.865,548.475
					c0.055-0.613,0.082-1.153,0.082-1.618c0-0.998-0.115-1.927-0.345-2.786c-0.131-0.477-0.326-0.827-0.583-1.053
					c-0.137-0.12-0.315-0.181-0.534-0.181c-0.274,0-0.488,0.118-0.641,0.354c-0.214,0.323-0.32,0.939-0.32,1.85
					c0,1.518,0.181,2.563,0.542,3.139c0.236,0.373,0.554,0.56,0.954,0.56C230.232,548.739,230.514,548.651,230.865,548.475z"/>
				<path class="st1" d="M234.883,556.603v-0.361c0.635-0.273,1.097-0.629,1.385-1.064s0.432-0.881,0.432-1.335
					c0-0.094-0.02-0.165-0.058-0.214c-0.039-0.044-0.077-0.065-0.115-0.065c-0.033,0-0.082,0.019-0.148,0.058
					c-0.159,0.093-0.356,0.14-0.592,0.14c-0.323,0-0.604-0.126-0.842-0.378s-0.357-0.548-0.357-0.888c0-0.362,0.137-0.68,0.411-0.954
					c0.274-0.273,0.605-0.41,0.995-0.41c0.471,0,0.874,0.182,1.208,0.546c0.334,0.364,0.501,0.864,0.501,1.5
					c0,0.783-0.237,1.479-0.711,2.088C236.517,555.872,235.814,556.319,234.883,556.603z"/>
				<path class="st1" d="M238.771,553.883v-0.23c0.91-0.208,1.681-0.515,2.313-0.92s1.134-0.907,1.504-1.504
					c0.37-0.598,0.629-1.285,0.777-2.063c-0.34,0.176-0.629,0.298-0.867,0.366s-0.489,0.103-0.752,0.103
					c-0.844,0-1.546-0.304-2.108-0.912s-0.842-1.441-0.842-2.498c0-0.734,0.152-1.407,0.456-2.019
					c0.304-0.61,0.738-1.084,1.303-1.421c0.564-0.337,1.15-0.506,1.759-0.506c0.652,0,1.268,0.187,1.849,0.559
					c0.581,0.373,1.043,0.912,1.389,1.619s0.518,1.513,0.518,2.416c0,1.173-0.281,2.296-0.843,3.37
					c-0.562,1.073-1.398,1.936-2.511,2.584C241.603,553.476,240.288,553.829,238.771,553.883z M243.488,548.475
					c0.055-0.613,0.082-1.153,0.082-1.618c0-0.998-0.115-1.927-0.345-2.786c-0.131-0.477-0.326-0.827-0.583-1.053
					c-0.137-0.12-0.315-0.181-0.534-0.181c-0.274,0-0.488,0.118-0.641,0.354c-0.214,0.323-0.32,0.939-0.32,1.85
					c0,1.518,0.181,2.563,0.542,3.139c0.236,0.373,0.554,0.56,0.954,0.56C242.855,548.739,243.137,548.651,243.488,548.475z"/>
				<path class="st1" d="M247.269,545.969h3.213l1.948,4.767l1.948-4.767h3.131v0.304c-0.301,0.017-0.515,0.105-0.641,0.268
					c-0.126,0.161-0.189,0.45-0.189,0.866v4.775c0,0.433,0.059,0.731,0.177,0.896c0.118,0.164,0.336,0.255,0.653,0.271v0.304h-4.051
					v-0.304c0.339-0.006,0.578-0.096,0.715-0.271c0.137-0.175,0.206-0.474,0.206-0.896v-4.923l-2.679,6.394h-0.419l-2.597-6.304
					v4.965c0,0.355,0.06,0.613,0.181,0.772c0.121,0.158,0.356,0.246,0.707,0.263v0.304h-2.301v-0.304
					c0.307-0.011,0.524-0.098,0.653-0.259c0.128-0.162,0.193-0.439,0.193-0.834v-4.907c0-0.378-0.063-0.647-0.189-0.809
					c-0.126-0.162-0.345-0.251-0.657-0.268V545.969z"/>
				<path class="st1" d="M265.103,553.653h-6.558v-0.181c2.01-2.395,3.231-4.005,3.661-4.832s0.645-1.636,0.645-2.425
					c0-0.575-0.178-1.053-0.534-1.434s-0.792-0.571-1.307-0.571c-0.844,0-1.499,0.422-1.964,1.266l-0.304-0.107
					c0.295-1.052,0.745-1.83,1.348-2.334c0.603-0.504,1.298-0.756,2.087-0.756c0.564,0,1.079,0.132,1.545,0.395
					s0.83,0.623,1.093,1.081c0.263,0.457,0.395,0.886,0.395,1.286c0,0.729-0.203,1.468-0.608,2.219
					c-0.553,1.014-1.761,2.427-3.624,4.24h2.408c0.592,0,0.977-0.024,1.155-0.073c0.178-0.05,0.325-0.133,0.439-0.251
					c0.115-0.118,0.266-0.366,0.452-0.744h0.296L265.103,553.653z"/>
			</g>
			<rect x="203.169" y="536.934" class="st1" width="69" height="2.333"/>
		</g>
	</g>
	<g id="_39" data-name="39" class="one-flat svg-item">
		<path class="st2" d="M340.234,381.503l-20.359-0.13l-0.141-3.068h-87.396l0.021,3.146l-33.875,0.083l0.333-3.229H166.23v47.829
			l1.735,0.025v2.635v53.083v4.521l5.646-0.104l0-1.747l25.354,0.282l-0.062-2.75h33.305v2.75h87.417l-0.083-2.833l24.167,0.167
			l0.135-43.878l3.454,0.094l7.594-12.062c0,0-1.5-1.375-2.594-1.875s-4.125-1.375-4.125-1.375h-4.362v-9.281l-3.44,0.031
			L340.234,381.503z"/>
		<g>
			<g>
				<path class="st1" d="M244.498,411.089h5.219l-0.83,2.121h-4.389l-0.419,1.109c1.89,0.07,3.345,0.542,4.364,1.413
					c0.838,0.718,1.258,1.61,1.258,2.679c0,0.686-0.195,1.355-0.583,2.01c-0.389,0.655-0.937,1.159-1.644,1.513
					c-0.707,0.353-1.482,0.53-2.326,0.53c-0.91,0-1.608-0.17-2.096-0.51c-0.34-0.241-0.509-0.516-0.509-0.822
					c0-0.235,0.089-0.443,0.267-0.625c0.178-0.18,0.385-0.271,0.62-0.271c0.214,0,0.43,0.044,0.649,0.132s0.594,0.317,1.126,0.689
					c0.334,0.23,0.622,0.39,0.863,0.477c0.17,0.066,0.362,0.1,0.575,0.1c0.449,0,0.832-0.164,1.146-0.494
					c0.315-0.328,0.473-0.723,0.473-1.183c0-0.964-0.482-1.748-1.446-2.351s-2.181-0.904-3.649-0.904
					c-0.148,0-0.37,0.003-0.666,0.008L244.498,411.089z"/>
				<path class="st1" d="M255.551,419.218h-4.791v-1.701h4.791V419.218z"/>
				<path class="st1" d="M258.444,416.646v-0.288c0.625-0.181,1.057-0.35,1.298-0.505c0.241-0.156,0.449-0.395,0.625-0.716
					c0.175-0.32,0.263-0.646,0.263-0.974c0-0.455-0.166-0.846-0.497-1.172c-0.332-0.325-0.744-0.488-1.237-0.488
					c-0.767,0-1.419,0.405-1.956,1.217l-0.304-0.107c0.395-0.915,0.9-1.603,1.516-2.062c0.617-0.461,1.303-0.69,2.059-0.69
					c0.772,0,1.409,0.235,1.911,0.706c0.501,0.472,0.752,1.022,0.752,1.652c0,0.411-0.117,0.807-0.349,1.188
					c-0.233,0.381-0.599,0.717-1.097,1.007c0.641,0.312,1.13,0.697,1.467,1.155c0.337,0.457,0.505,1.031,0.505,1.721
					c0,1.162-0.42,2.149-1.261,2.963c-0.841,0.814-1.969,1.221-3.382,1.221c-0.942,0-1.63-0.156-2.062-0.469
					c-0.312-0.219-0.469-0.501-0.469-0.846c0-0.252,0.091-0.467,0.271-0.646s0.389-0.267,0.625-0.267c0.181,0,0.351,0.037,0.51,0.114
					c0.087,0.044,0.398,0.284,0.933,0.72s1.034,0.652,1.5,0.652c0.405,0,0.753-0.16,1.043-0.48s0.436-0.727,0.436-1.221
					c0-0.75-0.263-1.441-0.789-2.074C260.228,417.324,259.458,416.886,258.444,416.646z"/>
				<path class="st1" d="M264.887,422.464v-0.23c0.91-0.208,1.681-0.516,2.313-0.92c0.633-0.406,1.134-0.907,1.504-1.504
					c0.37-0.598,0.629-1.285,0.777-2.063c-0.34,0.175-0.629,0.298-0.867,0.366s-0.489,0.103-0.752,0.103
					c-0.844,0-1.546-0.304-2.108-0.913c-0.562-0.607-0.842-1.44-0.842-2.498c0-0.734,0.152-1.406,0.456-2.018
					s0.738-1.084,1.303-1.422c0.564-0.336,1.15-0.505,1.759-0.505c0.652,0,1.268,0.187,1.849,0.559
					c0.581,0.372,1.043,0.912,1.389,1.619c0.345,0.706,0.518,1.513,0.518,2.416c0,1.173-0.281,2.296-0.843,3.37
					c-0.562,1.073-1.398,1.936-2.511,2.584C267.72,422.057,266.405,422.41,264.887,422.464z M269.605,417.056
					c0.055-0.613,0.082-1.153,0.082-1.619c0-0.997-0.115-1.926-0.345-2.785c-0.131-0.477-0.326-0.828-0.583-1.053
					c-0.137-0.12-0.315-0.181-0.534-0.181c-0.274,0-0.488,0.118-0.641,0.354c-0.214,0.323-0.32,0.939-0.32,1.849
					c0,1.518,0.181,2.564,0.542,3.14c0.236,0.373,0.554,0.56,0.954,0.56C268.972,417.32,269.254,417.232,269.605,417.056z"/>
				<path class="st1" d="M277.988,419.218h-4.791v-1.701h4.791V419.218z"/>
				<path class="st1" d="M283.872,410.86v9.114c0,0.685,0.03,1.121,0.091,1.311c0.06,0.189,0.186,0.344,0.378,0.465
					c0.191,0.12,0.499,0.18,0.92,0.18h0.255v0.305h-5.868v-0.305h0.296c0.477,0,0.816-0.055,1.019-0.164s0.34-0.26,0.411-0.451
					c0.071-0.192,0.107-0.639,0.107-1.34v-5.777c0-0.516-0.025-0.838-0.074-0.967c-0.049-0.128-0.141-0.238-0.275-0.328
					s-0.289-0.136-0.464-0.136c-0.279,0-0.619,0.088-1.019,0.263l-0.148-0.295l4.101-1.874H283.872z"/>
				<path class="st1" d="M287.085,411.089h9.616v3.025h-0.312c-0.104-0.56-0.279-1.016-0.526-1.369s-0.54-0.598-0.879-0.731
					s-0.86-0.201-1.562-0.201h-2.038v4.339h1.471c1.589,0,2.742,0.279,3.46,0.839c0.718,0.559,1.077,1.304,1.077,2.235
					c0,0.636-0.182,1.184-0.547,1.644c-0.364,0.46-0.822,0.803-1.372,1.027c-0.551,0.225-1.355,0.337-2.412,0.337h-5.975v-0.305
					c0.69-0.01,1.133-0.102,1.328-0.275c0.194-0.172,0.292-0.549,0.292-1.129v-7.627c0-0.631-0.099-1.039-0.296-1.225
					c-0.197-0.187-0.638-0.279-1.323-0.279V411.089z M291.384,416.876v3.361c0,0.532,0.074,0.905,0.222,1.122
					c0.148,0.217,0.422,0.324,0.822,0.324c0.641,0,1.125-0.217,1.45-0.648c0.326-0.434,0.489-0.973,0.489-1.619
					c0-0.625-0.148-1.15-0.444-1.574c-0.296-0.425-0.626-0.691-0.99-0.801C292.568,416.93,292.052,416.876,291.384,416.876z"/>
			</g>
			<g>
				<path class="st1" d="M246.818,434.422h5.219l-0.83,2.12h-4.389l-0.419,1.109c1.89,0.071,3.345,0.543,4.364,1.414
					c0.838,0.718,1.258,1.61,1.258,2.679c0,0.686-0.195,1.355-0.583,2.01c-0.389,0.655-0.937,1.159-1.644,1.513
					c-0.707,0.353-1.482,0.529-2.326,0.529c-0.91,0-1.608-0.17-2.096-0.509c-0.34-0.241-0.509-0.516-0.509-0.822
					c0-0.235,0.089-0.443,0.267-0.625c0.178-0.181,0.385-0.271,0.62-0.271c0.214,0,0.43,0.044,0.649,0.131
					c0.219,0.088,0.594,0.318,1.126,0.69c0.334,0.23,0.622,0.39,0.863,0.477c0.17,0.066,0.362,0.099,0.575,0.099
					c0.449,0,0.832-0.164,1.146-0.493c0.315-0.328,0.473-0.723,0.473-1.183c0-0.965-0.482-1.748-1.446-2.351
					s-2.181-0.904-3.649-0.904c-0.148,0-0.37,0.003-0.666,0.008L246.818,434.422z"/>
				<path class="st1" d="M258.151,434.192v9.113c0,0.686,0.03,1.122,0.091,1.312c0.06,0.188,0.186,0.344,0.378,0.464
					c0.191,0.121,0.499,0.181,0.92,0.181h0.255v0.305h-5.868v-0.305h0.296c0.477,0,0.816-0.055,1.019-0.164s0.34-0.26,0.411-0.452
					c0.071-0.191,0.107-0.638,0.107-1.34v-5.777c0-0.515-0.025-0.837-0.074-0.966c-0.049-0.128-0.141-0.238-0.275-0.328
					c-0.134-0.091-0.289-0.136-0.464-0.136c-0.279,0-0.619,0.088-1.019,0.263l-0.148-0.296l4.101-1.873H258.151z"/>
				<path class="st1" d="M261.923,448.516v-0.361c0.635-0.274,1.097-0.629,1.385-1.064s0.432-0.881,0.432-1.336
					c0-0.093-0.02-0.164-0.058-0.213c-0.039-0.044-0.077-0.066-0.115-0.066c-0.033,0-0.082,0.02-0.148,0.058
					c-0.159,0.093-0.356,0.14-0.592,0.14c-0.323,0-0.604-0.126-0.842-0.378s-0.357-0.548-0.357-0.888
					c0-0.361,0.137-0.679,0.411-0.953s0.605-0.411,0.995-0.411c0.471,0,0.874,0.183,1.208,0.547c0.334,0.364,0.501,0.864,0.501,1.5
					c0,0.783-0.237,1.479-0.711,2.087C263.557,447.785,262.854,448.231,261.923,448.516z"/>
				<path class="st1" d="M272.262,445.566h-6.558v-0.181c2.01-2.395,3.231-4.006,3.661-4.833s0.645-1.636,0.645-2.424
					c0-0.575-0.178-1.054-0.534-1.435s-0.792-0.571-1.307-0.571c-0.844,0-1.499,0.422-1.964,1.266l-0.304-0.106
					c0.295-1.052,0.745-1.83,1.348-2.334c0.603-0.504,1.298-0.756,2.087-0.756c0.564,0,1.079,0.131,1.545,0.394
					c0.466,0.264,0.83,0.624,1.093,1.081c0.263,0.458,0.395,0.887,0.395,1.286c0,0.729-0.203,1.469-0.608,2.219
					c-0.553,1.014-1.761,2.428-3.624,4.241h2.408c0.592,0,0.977-0.024,1.155-0.074c0.178-0.049,0.325-0.133,0.439-0.251
					c0.115-0.117,0.266-0.365,0.452-0.743h0.296L272.262,445.566z"/>
				<path class="st1" d="M274.309,437.881h3.213l1.948,4.767l1.948-4.767h3.131v0.305c-0.301,0.016-0.515,0.105-0.641,0.267
					c-0.126,0.162-0.189,0.451-0.189,0.867v4.774c0,0.434,0.059,0.731,0.177,0.896c0.118,0.164,0.336,0.255,0.653,0.271v0.305h-4.051
					v-0.305c0.339-0.005,0.578-0.096,0.715-0.271c0.137-0.176,0.206-0.475,0.206-0.896v-4.923l-2.679,6.395h-0.419l-2.597-6.304
					v4.964c0,0.356,0.06,0.613,0.181,0.772s0.356,0.247,0.707,0.263v0.305h-2.301v-0.305c0.307-0.011,0.524-0.097,0.653-0.259
					c0.128-0.161,0.193-0.439,0.193-0.834v-4.906c0-0.378-0.063-0.647-0.189-0.81c-0.126-0.161-0.345-0.251-0.657-0.267V437.881z"/>
				<path class="st1" d="M292.143,445.566h-6.558v-0.181c2.01-2.395,3.231-4.006,3.661-4.833s0.645-1.636,0.645-2.424
					c0-0.575-0.178-1.054-0.534-1.435s-0.792-0.571-1.307-0.571c-0.844,0-1.499,0.422-1.964,1.266l-0.304-0.106
					c0.295-1.052,0.745-1.83,1.348-2.334c0.603-0.504,1.298-0.756,2.087-0.756c0.564,0,1.079,0.131,1.545,0.394
					c0.466,0.264,0.83,0.624,1.093,1.081c0.263,0.458,0.395,0.887,0.395,1.286c0,0.729-0.203,1.469-0.608,2.219
					c-0.553,1.014-1.761,2.428-3.624,4.241h2.408c0.592,0,0.977-0.024,1.155-0.074c0.178-0.049,0.325-0.133,0.439-0.251
					c0.115-0.117,0.266-0.365,0.452-0.743h0.296L292.143,445.566z"/>
			</g>
			<rect x="233.889" y="428.219" class="st1" width="69" height="2.333"/>
		</g>
	</g>
	<g id="_40" data-name="40" class="one-flat svg-item">
		<path class="st2" d="M343.338,270.284l-23.867-0.03l-0.008-2.22h-87.557l0.059,2.467l-33.31,0.485l-0.104-2.542l-25.608-0.031
			l-0.167-1.667h-5.167v60.167l-1.438-0.13v47.502h32.238v-2.729l34.024,0.047l-0.082,2.565l87.144-0.094l-0.026-2.423l20.271-0.036
			l-0.141-32.649l4.016,0.042l-0.015-9.386h4.151c0,0,3.858-1.172,5.14-1.984s2.359-2.141,2.359-2.141l-8.661-11.963l-3.006-0.042
			L343.338,270.284z"/>
		<g>
			<g>
				<path class="st1" d="M244.498,300.938h5.219l-0.83,2.12h-4.389l-0.419,1.109c1.89,0.071,3.345,0.542,4.364,1.414
					c0.838,0.718,1.258,1.611,1.258,2.679c0,0.685-0.195,1.355-0.583,2.01c-0.389,0.655-0.937,1.159-1.644,1.512
					c-0.707,0.353-1.482,0.53-2.326,0.53c-0.91,0-1.608-0.17-2.096-0.509c-0.34-0.241-0.509-0.515-0.509-0.822
					c0-0.236,0.089-0.444,0.267-0.625c0.178-0.181,0.385-0.271,0.62-0.271c0.214,0,0.43,0.044,0.649,0.131
					c0.219,0.088,0.594,0.318,1.126,0.69c0.334,0.23,0.622,0.389,0.863,0.477c0.17,0.066,0.362,0.099,0.575,0.099
					c0.449,0,0.832-0.164,1.146-0.493c0.315-0.329,0.473-0.723,0.473-1.183c0-0.964-0.482-1.748-1.446-2.351
					s-2.181-0.904-3.649-0.904c-0.148,0-0.37,0.002-0.666,0.008L244.498,300.938z"/>
				<path class="st1" d="M255.551,309.066h-4.791v-1.701h4.791V309.066z"/>
				<path class="st1" d="M256.373,307.882l5.293-7.174h1.002v7.174h1.019v1.701h-1.019v2.499h-2.26v-2.499h-4.036V307.882z
					 M257.17,307.882h3.238v-4.397L257.17,307.882z"/>
				<path class="st1" d="M272.169,306.509c0,1.112-0.156,2.151-0.468,3.115c-0.187,0.592-0.437,1.077-0.752,1.455
					c-0.315,0.378-0.672,0.678-1.072,0.9c-0.4,0.222-0.835,0.333-1.307,0.333c-0.537,0-1.022-0.137-1.455-0.411
					c-0.433-0.274-0.816-0.666-1.151-1.175c-0.241-0.373-0.452-0.868-0.633-1.488c-0.235-0.838-0.353-1.704-0.353-2.597
					c0-1.211,0.169-2.323,0.509-3.337c0.279-0.838,0.704-1.48,1.274-1.927c0.57-0.446,1.172-0.669,1.808-0.669
					c0.646,0,1.25,0.22,1.812,0.661c0.562,0.441,0.974,1.035,1.237,1.779C271.985,304.173,272.169,305.293,272.169,306.509z
					 M269.638,306.493c0-1.951-0.011-3.087-0.033-3.411c-0.055-0.762-0.187-1.277-0.395-1.545c-0.137-0.175-0.359-0.263-0.666-0.263
					c-0.235,0-0.422,0.066-0.559,0.197c-0.203,0.192-0.34,0.53-0.411,1.015c-0.071,0.485-0.107,2.177-0.107,5.075
					c0,1.578,0.055,2.635,0.165,3.172c0.082,0.389,0.2,0.649,0.354,0.781c0.153,0.131,0.356,0.197,0.608,0.197
					c0.274,0,0.479-0.088,0.617-0.263c0.23-0.307,0.361-0.781,0.395-1.422L269.638,306.493z"/>
				<path class="st1" d="M277.988,309.066h-4.791v-1.701h4.791V309.066z"/>
				<path class="st1" d="M283.872,300.708v9.114c0,0.685,0.03,1.122,0.091,1.311c0.06,0.189,0.186,0.344,0.378,0.464
					c0.191,0.121,0.499,0.181,0.92,0.181h0.255v0.304h-5.868v-0.304h0.296c0.477,0,0.816-0.055,1.019-0.164
					c0.203-0.11,0.34-0.26,0.411-0.452c0.071-0.192,0.107-0.638,0.107-1.34v-5.777c0-0.515-0.025-0.837-0.074-0.966
					c-0.049-0.128-0.141-0.238-0.275-0.329s-0.289-0.136-0.464-0.136c-0.279,0-0.619,0.088-1.019,0.263l-0.148-0.296l4.101-1.874
					H283.872z"/>
				<path class="st1" d="M294.293,306.172c1.058,0.247,1.8,0.545,2.228,0.896c0.613,0.499,0.92,1.145,0.92,1.939
					c0,0.838-0.337,1.532-1.011,2.079c-0.827,0.663-2.03,0.995-3.608,0.995h-5.662v-0.304c0.515,0,0.864-0.048,1.048-0.144
					s0.312-0.221,0.386-0.374c0.074-0.153,0.111-0.531,0.111-1.134v-7.232c0-0.603-0.037-0.982-0.111-1.139
					c-0.074-0.156-0.204-0.28-0.391-0.374c-0.186-0.093-0.534-0.14-1.043-0.14v-0.304h5.342c1.276,0,2.181,0.114,2.712,0.341
					c0.532,0.228,0.951,0.567,1.258,1.019c0.307,0.452,0.46,0.933,0.46,1.442c0,0.537-0.194,1.015-0.583,1.434
					C295.958,305.593,295.274,305.926,294.293,306.172z M291.302,306.592v3.575l-0.008,0.411c0,0.296,0.075,0.519,0.226,0.67
					c0.15,0.15,0.374,0.226,0.669,0.226c0.438,0,0.843-0.097,1.212-0.292c0.37-0.194,0.653-0.477,0.851-0.847
					c0.197-0.37,0.296-0.782,0.296-1.237c0-0.521-0.121-0.987-0.362-1.401c-0.241-0.414-0.572-0.703-0.994-0.867
					C292.77,306.666,292.14,306.587,291.302,306.592z M291.302,305.951c0.778,0,1.352-0.087,1.722-0.263
					c0.37-0.175,0.653-0.422,0.851-0.74c0.197-0.317,0.296-0.723,0.296-1.216c0-0.493-0.098-0.897-0.292-1.212
					s-0.472-0.555-0.834-0.719s-0.942-0.244-1.742-0.238V305.951z"/>
			</g>
			<g>
				<path class="st1" d="M247.376,325.748h5.219l-0.83,2.12h-4.389l-0.419,1.109c1.89,0.071,3.345,0.542,4.364,1.414
					c0.838,0.718,1.258,1.611,1.258,2.679c0,0.685-0.195,1.355-0.583,2.01c-0.389,0.655-0.937,1.159-1.644,1.512
					c-0.707,0.353-1.482,0.53-2.326,0.53c-0.91,0-1.608-0.17-2.096-0.509c-0.34-0.241-0.509-0.515-0.509-0.822
					c0-0.236,0.089-0.444,0.267-0.625c0.178-0.181,0.385-0.271,0.62-0.271c0.214,0,0.43,0.044,0.649,0.131
					c0.219,0.088,0.594,0.318,1.126,0.69c0.334,0.23,0.622,0.389,0.863,0.477c0.17,0.066,0.362,0.099,0.575,0.099
					c0.449,0,0.832-0.164,1.146-0.493c0.315-0.329,0.473-0.723,0.473-1.183c0-0.964-0.482-1.748-1.446-2.351
					s-2.181-0.904-3.649-0.904c-0.148,0-0.37,0.002-0.666,0.008L247.376,325.748z"/>
				<path class="st1" d="M258.709,325.518v9.114c0,0.685,0.03,1.122,0.091,1.311c0.06,0.189,0.186,0.344,0.378,0.464
					c0.191,0.121,0.499,0.181,0.92,0.181h0.255v0.304h-5.868v-0.304h0.296c0.477,0,0.816-0.055,1.019-0.164
					c0.203-0.11,0.34-0.26,0.411-0.452c0.071-0.192,0.107-0.638,0.107-1.34v-5.777c0-0.515-0.025-0.837-0.074-0.966
					c-0.049-0.128-0.141-0.238-0.275-0.329s-0.289-0.136-0.464-0.136c-0.279,0-0.619,0.088-1.019,0.263l-0.148-0.296l4.101-1.874
					H258.709z"/>
				<path class="st1" d="M262.481,339.842v-0.361c0.635-0.274,1.097-0.629,1.385-1.064s0.432-0.881,0.432-1.335
					c0-0.093-0.02-0.165-0.058-0.213c-0.039-0.044-0.077-0.066-0.115-0.066c-0.033,0-0.082,0.019-0.148,0.058
					c-0.159,0.093-0.356,0.14-0.592,0.14c-0.323,0-0.604-0.126-0.842-0.378s-0.357-0.548-0.357-0.888
					c0-0.362,0.137-0.679,0.411-0.954c0.274-0.274,0.605-0.411,0.995-0.411c0.471,0,0.874,0.182,1.208,0.546
					c0.334,0.364,0.501,0.864,0.501,1.5c0,0.783-0.237,1.479-0.711,2.087C264.115,339.11,263.413,339.557,262.481,339.842z"/>
				<path class="st1" d="M268.341,331.303v-0.288c0.625-0.181,1.057-0.35,1.298-0.505c0.241-0.156,0.449-0.395,0.625-0.715
					c0.175-0.32,0.263-0.645,0.263-0.974c0-0.455-0.166-0.845-0.497-1.171c-0.332-0.326-0.744-0.489-1.237-0.489
					c-0.767,0-1.419,0.405-1.956,1.216l-0.304-0.107c0.395-0.915,0.9-1.603,1.516-2.063c0.617-0.46,1.303-0.69,2.059-0.69
					c0.772,0,1.409,0.235,1.911,0.707s0.752,1.022,0.752,1.652c0,0.411-0.117,0.807-0.349,1.188
					c-0.233,0.381-0.599,0.716-1.097,1.007c0.641,0.312,1.13,0.697,1.467,1.155s0.505,1.031,0.505,1.722
					c0,1.162-0.42,2.149-1.261,2.963c-0.841,0.813-1.969,1.22-3.382,1.22c-0.942,0-1.63-0.156-2.062-0.468
					c-0.312-0.219-0.469-0.501-0.469-0.847c0-0.252,0.091-0.467,0.271-0.645s0.389-0.267,0.625-0.267c0.181,0,0.351,0.038,0.51,0.115
					c0.087,0.044,0.398,0.284,0.933,0.719s1.034,0.653,1.5,0.653c0.405,0,0.753-0.16,1.043-0.48c0.291-0.321,0.436-0.728,0.436-1.221
					c0-0.75-0.263-1.442-0.789-2.075C270.125,331.981,269.355,331.545,268.341,331.303z"/>
				<path class="st1" d="M274.867,329.208h3.213l1.948,4.767l1.948-4.767h3.131v0.304c-0.301,0.016-0.515,0.105-0.641,0.267
					c-0.126,0.162-0.189,0.451-0.189,0.867v4.775c0,0.433,0.059,0.731,0.177,0.896c0.118,0.164,0.336,0.255,0.653,0.271v0.304h-4.051
					v-0.304c0.339-0.005,0.578-0.096,0.715-0.271c0.137-0.175,0.206-0.474,0.206-0.896v-4.923l-2.679,6.394h-0.419l-2.597-6.304
					v4.964c0,0.356,0.06,0.613,0.181,0.772c0.121,0.159,0.356,0.247,0.707,0.263v0.304h-2.301v-0.304
					c0.307-0.011,0.524-0.097,0.653-0.259c0.128-0.162,0.193-0.439,0.193-0.834v-4.907c0-0.378-0.063-0.647-0.189-0.809
					s-0.345-0.251-0.657-0.267V329.208z"/>
				<path class="st1" d="M292.701,336.892h-6.558v-0.181c2.01-2.395,3.231-4.005,3.661-4.833s0.645-1.636,0.645-2.424
					c0-0.575-0.178-1.053-0.534-1.434s-0.792-0.571-1.307-0.571c-0.844,0-1.499,0.422-1.964,1.266l-0.304-0.107
					c0.295-1.052,0.745-1.83,1.348-2.334c0.603-0.504,1.298-0.756,2.087-0.756c0.564,0,1.079,0.131,1.545,0.394
					c0.466,0.263,0.83,0.624,1.093,1.081c0.263,0.458,0.395,0.886,0.395,1.286c0,0.729-0.203,1.468-0.608,2.219
					c-0.553,1.014-1.761,2.427-3.624,4.241h2.408c0.592,0,0.977-0.024,1.155-0.074c0.178-0.049,0.325-0.133,0.439-0.251
					c0.115-0.118,0.266-0.366,0.452-0.744h0.296L292.701,336.892z"/>
			</g>
			<rect x="233.889" y="318.067" class="st1" width="69" height="2.333"/>
		</g>
	</g>
	<g id="_41" data-name="41" class="one-flat svg-item">
		<path class="st2" d="M165.625,157.963l33.042-0.104l0.104,1.125l140.978-0.189v34.833h3.75v10.833h4c0,0,3.734,0.87,5.078,1.792
			s2.455,2.21,2.455,2.21l-8.047,11.718l-3.353-0.059l-0.175,41.339l-24-0.208v2.667l-87.22,0.317l0.021-2.896l-33.625-0.013
			l-0.042,2.742l-25.733-0.057v1.438h-5.25v-56.625v-3.363l-1.984,0.062V157.963z"/>
		<g>
			<g>
				<path class="st1" d="M246.908,193.438h5.219l-0.83,2.12h-4.389l-0.419,1.109c1.89,0.071,3.345,0.542,4.364,1.414
					c0.838,0.718,1.258,1.611,1.258,2.679c0,0.685-0.195,1.355-0.583,2.01c-0.389,0.655-0.937,1.159-1.644,1.512
					c-0.707,0.353-1.482,0.53-2.326,0.53c-0.91,0-1.608-0.17-2.096-0.509c-0.34-0.241-0.509-0.515-0.509-0.822
					c0-0.236,0.089-0.444,0.267-0.625c0.178-0.181,0.385-0.271,0.62-0.271c0.214,0,0.43,0.044,0.649,0.131
					c0.219,0.088,0.594,0.318,1.126,0.69c0.334,0.23,0.622,0.389,0.863,0.477c0.17,0.066,0.362,0.099,0.575,0.099
					c0.449,0,0.832-0.164,1.146-0.493c0.315-0.329,0.473-0.723,0.473-1.183c0-0.964-0.482-1.748-1.446-2.351
					s-2.181-0.904-3.649-0.904c-0.148,0-0.37,0.002-0.666,0.008L246.908,193.438z"/>
				<path class="st1" d="M257.962,201.566h-4.791v-1.701h4.791V201.566z"/>
				<path class="st1" d="M258.784,200.382l5.293-7.174h1.002v7.174h1.019v1.701h-1.019v2.499h-2.26v-2.499h-4.036V200.382z
					 M259.581,200.382h3.238v-4.397L259.581,200.382z"/>
				<path class="st1" d="M272.262,193.208v9.114c0,0.685,0.03,1.122,0.091,1.311c0.06,0.189,0.186,0.344,0.378,0.464
					c0.191,0.121,0.499,0.181,0.92,0.181h0.255v0.304h-5.868v-0.304h0.296c0.477,0,0.816-0.055,1.019-0.164
					c0.203-0.11,0.34-0.26,0.411-0.452c0.071-0.192,0.107-0.638,0.107-1.34v-5.777c0-0.515-0.025-0.837-0.074-0.966
					c-0.049-0.128-0.141-0.238-0.275-0.329s-0.289-0.136-0.464-0.136c-0.279,0-0.619,0.088-1.019,0.263l-0.148-0.296l4.101-1.874
					H272.262z"/>
				<path class="st1" d="M280.398,201.566h-4.791v-1.701h4.791V201.566z"/>
				<path class="st1" d="M286.282,193.208v9.114c0,0.685,0.03,1.122,0.091,1.311c0.06,0.189,0.186,0.344,0.378,0.464
					c0.191,0.121,0.499,0.181,0.92,0.181h0.255v0.304h-5.868v-0.304h0.296c0.477,0,0.816-0.055,1.019-0.164
					c0.203-0.11,0.34-0.26,0.411-0.452c0.071-0.192,0.107-0.638,0.107-1.34v-5.777c0-0.515-0.025-0.837-0.074-0.966
					c-0.049-0.128-0.141-0.238-0.275-0.329s-0.289-0.136-0.464-0.136c-0.279,0-0.619,0.088-1.019,0.263l-0.148-0.296l4.101-1.874
					H286.282z"/>
				<path class="st1" d="M289.554,193.438h9.829v3.024h-0.304c-0.132-0.745-0.3-1.271-0.506-1.578
					c-0.205-0.307-0.456-0.504-0.752-0.592c-0.296-0.087-0.882-0.131-1.759-0.131h-2.268v8.662c0,0.625,0.092,1.023,0.275,1.196
					c0.184,0.173,0.519,0.259,1.007,0.259h0.288v0.304h-5.811v-0.304h0.312c0.482,0,0.811-0.092,0.986-0.275
					c0.175-0.183,0.263-0.576,0.263-1.179v-7.692c0-0.504-0.073-0.861-0.218-1.072s-0.476-0.316-0.99-0.316h-0.354V193.438z"/>
			</g>
			<g>
				<path class="st1" d="M249.103,216.63h5.219l-0.83,2.12h-4.389l-0.419,1.109c1.89,0.071,3.345,0.542,4.364,1.414
					c0.838,0.718,1.258,1.611,1.258,2.679c0,0.685-0.195,1.355-0.583,2.01c-0.389,0.655-0.937,1.159-1.644,1.512
					c-0.707,0.353-1.482,0.53-2.326,0.53c-0.91,0-1.608-0.17-2.096-0.509c-0.34-0.241-0.509-0.515-0.509-0.822
					c0-0.236,0.089-0.444,0.267-0.625c0.178-0.181,0.385-0.271,0.62-0.271c0.214,0,0.43,0.044,0.649,0.131
					c0.219,0.088,0.594,0.318,1.126,0.69c0.334,0.23,0.622,0.389,0.863,0.477c0.17,0.066,0.362,0.099,0.575,0.099
					c0.449,0,0.832-0.164,1.146-0.493c0.315-0.329,0.473-0.723,0.473-1.183c0-0.964-0.482-1.748-1.446-2.351
					s-2.181-0.904-3.649-0.904c-0.148,0-0.37,0.002-0.666,0.008L249.103,216.63z"/>
				<path class="st1" d="M260.436,216.4v9.114c0,0.685,0.03,1.122,0.091,1.311c0.06,0.189,0.186,0.344,0.378,0.464
					c0.191,0.121,0.499,0.181,0.92,0.181h0.255v0.304h-5.868v-0.304h0.296c0.477,0,0.816-0.055,1.019-0.164
					c0.203-0.11,0.34-0.26,0.411-0.452c0.071-0.192,0.107-0.638,0.107-1.34v-5.777c0-0.515-0.025-0.837-0.074-0.966
					c-0.049-0.128-0.141-0.238-0.275-0.329s-0.289-0.136-0.464-0.136c-0.279,0-0.619,0.088-1.019,0.263l-0.148-0.296l4.101-1.874
					H260.436z"/>
				<path class="st1" d="M264.208,230.724v-0.361c0.635-0.274,1.097-0.629,1.385-1.064s0.432-0.881,0.432-1.335
					c0-0.093-0.02-0.165-0.058-0.213c-0.039-0.044-0.077-0.066-0.115-0.066c-0.033,0-0.082,0.019-0.148,0.058
					c-0.159,0.093-0.356,0.14-0.592,0.14c-0.323,0-0.604-0.126-0.842-0.378s-0.357-0.548-0.357-0.888
					c0-0.362,0.137-0.679,0.411-0.954c0.274-0.274,0.605-0.411,0.995-0.411c0.471,0,0.874,0.182,1.208,0.546
					c0.334,0.364,0.501,0.864,0.501,1.5c0,0.783-0.237,1.479-0.711,2.087C265.842,229.992,265.14,230.439,264.208,230.724z"/>
				<path class="st1" d="M267.997,223.574l5.293-7.174h1.002v7.174h1.019v1.701h-1.019v2.499h-2.26v-2.499h-4.036V223.574z
					 M268.794,223.574h3.238v-4.397L268.794,223.574z"/>
				<path class="st1" d="M276.594,220.089h3.213l1.948,4.767l1.948-4.767h3.131v0.304c-0.301,0.016-0.515,0.105-0.641,0.267
					c-0.126,0.162-0.189,0.451-0.189,0.867v4.775c0,0.433,0.059,0.731,0.177,0.896c0.118,0.164,0.336,0.255,0.653,0.271v0.304h-4.051
					v-0.304c0.339-0.005,0.578-0.096,0.715-0.271c0.137-0.175,0.206-0.474,0.206-0.896v-4.923l-2.679,6.394h-0.419l-2.597-6.304
					v4.964c0,0.356,0.06,0.613,0.181,0.772c0.121,0.159,0.356,0.247,0.707,0.263v0.304h-2.301v-0.304
					c0.307-0.011,0.524-0.097,0.653-0.259c0.128-0.162,0.193-0.439,0.193-0.834v-4.907c0-0.378-0.063-0.647-0.189-0.809
					s-0.345-0.251-0.657-0.267V220.089z"/>
				<path class="st1" d="M294.428,227.774h-6.558v-0.181c2.01-2.395,3.231-4.005,3.661-4.833s0.645-1.636,0.645-2.424
					c0-0.575-0.178-1.053-0.534-1.434s-0.792-0.571-1.307-0.571c-0.844,0-1.499,0.422-1.964,1.266l-0.304-0.107
					c0.295-1.052,0.745-1.83,1.348-2.334c0.603-0.504,1.298-0.756,2.087-0.756c0.564,0,1.079,0.131,1.545,0.394
					c0.466,0.263,0.83,0.624,1.093,1.081c0.263,0.458,0.395,0.886,0.395,1.286c0,0.729-0.203,1.468-0.608,2.219
					c-0.553,1.014-1.761,2.427-3.624,4.241h2.408c0.592,0,0.977-0.024,1.155-0.074c0.178-0.049,0.325-0.133,0.439-0.251
					c0.115-0.118,0.266-0.366,0.452-0.744h0.296L294.428,227.774z"/>
			</g>
			<rect x="236.3" y="210.567" class="st1" width="69" height="2.333"/>
		</g>
	</g>
	<g id="_42" data-name="42" class="two-flat svg-item">
		<path class="st0" d="M361.707,42.261l-0.292,46.167h-17.875v7.969h4.469c0,0,3.312,0.844,4.031,1.406s2.781,2.25,2.781,2.25
			l-7.75,11.594h-3.281l0.125,7.219h-4.125l0.125,34.594l-141.207-0.351v1.042h-33V99.858l27.958-0.042l0.187,7.459l1.562,0.026
			l0.125-104.5h110.125l0.375,23.875l30.875,0.125v15.413L361.707,42.261z"/>
		<g>
			<g>
				<path class="st1" d="M251.532,65.704h5.219l-0.83,2.12h-4.389l-0.419,1.109c1.89,0.071,3.345,0.542,4.364,1.414
					c0.838,0.718,1.258,1.611,1.258,2.679c0,0.685-0.195,1.355-0.583,2.01c-0.389,0.655-0.937,1.159-1.644,1.512
					c-0.707,0.353-1.482,0.53-2.326,0.53c-0.91,0-1.608-0.17-2.096-0.509c-0.34-0.241-0.509-0.515-0.509-0.822
					c0-0.236,0.089-0.444,0.267-0.625c0.178-0.181,0.385-0.271,0.62-0.271c0.214,0,0.43,0.044,0.649,0.131
					c0.219,0.088,0.594,0.318,1.126,0.69c0.334,0.23,0.622,0.389,0.863,0.477c0.17,0.066,0.362,0.099,0.575,0.099
					c0.449,0,0.832-0.164,1.146-0.493c0.315-0.329,0.473-0.723,0.473-1.183c0-0.964-0.482-1.748-1.446-2.351
					s-2.181-0.904-3.649-0.904c-0.148,0-0.37,0.002-0.666,0.008L251.532,65.704z"/>
				<path class="st1" d="M262.586,73.832h-4.791v-1.701h4.791V73.832z"/>
				<path class="st1" d="M263.408,72.649l5.293-7.174h1.002v7.174h1.019v1.701h-1.019v2.499h-2.26V74.35h-4.036V72.649z
					 M264.205,72.649h3.238v-4.397L264.205,72.649z"/>
				<path class="st1" d="M278.374,76.848h-6.558v-0.181c2.01-2.395,3.231-4.005,3.661-4.833s0.645-1.636,0.645-2.424
					c0-0.575-0.178-1.053-0.534-1.434s-0.792-0.571-1.307-0.571c-0.844,0-1.499,0.422-1.964,1.266l-0.304-0.107
					c0.295-1.052,0.745-1.83,1.348-2.334c0.603-0.504,1.298-0.756,2.087-0.756c0.564,0,1.079,0.131,1.545,0.394
					c0.466,0.263,0.83,0.624,1.093,1.081c0.263,0.458,0.395,0.886,0.395,1.286c0,0.729-0.203,1.468-0.608,2.219
					c-0.553,1.014-1.761,2.427-3.624,4.241h2.408c0.592,0,0.977-0.024,1.155-0.074c0.178-0.049,0.325-0.133,0.439-0.251
					c0.115-0.118,0.266-0.366,0.452-0.744h0.296L278.374,76.848z"/>
				<path class="st1" d="M285.022,73.832h-4.791v-1.701h4.791V73.832z"/>
				<path class="st1" d="M292.394,76.848h-6.558v-0.181c2.01-2.395,3.231-4.005,3.661-4.833s0.645-1.636,0.645-2.424
					c0-0.575-0.178-1.053-0.534-1.434s-0.792-0.571-1.307-0.571c-0.844,0-1.499,0.422-1.964,1.266l-0.304-0.107
					c0.295-1.052,0.745-1.83,1.348-2.334c0.603-0.504,1.298-0.756,2.087-0.756c0.564,0,1.079,0.131,1.545,0.394
					c0.466,0.263,0.83,0.624,1.093,1.081c0.263,0.458,0.395,0.886,0.395,1.286c0,0.729-0.203,1.468-0.608,2.219
					c-0.553,1.014-1.761,2.427-3.624,4.241h2.408c0.592,0,0.977-0.024,1.155-0.074c0.178-0.049,0.325-0.133,0.439-0.251
					c0.115-0.118,0.266-0.366,0.452-0.744h0.296L292.394,76.848z"/>
				<path class="st1" d="M294.12,65.704h9.616v3.024h-0.312c-0.104-0.559-0.279-1.015-0.526-1.369
					c-0.247-0.353-0.54-0.597-0.879-0.731s-0.86-0.201-1.562-0.201h-2.038v4.339h1.471c1.589,0,2.742,0.279,3.46,0.838
					c0.718,0.559,1.077,1.304,1.077,2.235c0,0.636-0.182,1.183-0.547,1.644c-0.364,0.46-0.822,0.803-1.372,1.027
					c-0.551,0.225-1.355,0.337-2.412,0.337h-5.975v-0.304c0.69-0.011,1.133-0.103,1.328-0.275c0.194-0.172,0.292-0.549,0.292-1.13
					v-7.626c0-0.63-0.099-1.039-0.296-1.225c-0.197-0.187-0.638-0.279-1.323-0.279V65.704z M298.418,71.49v3.361
					c0,0.532,0.074,0.905,0.222,1.122c0.148,0.217,0.422,0.325,0.822,0.325c0.641,0,1.125-0.216,1.45-0.649
					c0.326-0.433,0.489-0.973,0.489-1.619c0-0.625-0.148-1.149-0.444-1.574c-0.296-0.425-0.626-0.692-0.99-0.801
					C299.603,71.545,299.087,71.49,298.418,71.49z"/>
			</g>
			<g>
				<path class="st1" d="M262.875,88.178v0.23c-0.992,0.252-1.788,0.577-2.388,0.974c-0.6,0.397-1.074,0.879-1.422,1.447
					c-0.348,0.567-0.618,1.27-0.809,2.108c0.241-0.165,0.441-0.271,0.6-0.321c0.356-0.109,0.715-0.164,1.077-0.164
					c0.833,0,1.527,0.303,2.083,0.908s0.834,1.431,0.834,2.478c0,0.734-0.151,1.408-0.452,2.022s-0.729,1.087-1.282,1.422
					c-0.554,0.334-1.146,0.501-1.775,0.501c-0.685,0-1.318-0.188-1.898-0.563c-0.581-0.375-1.034-0.924-1.36-1.647
					c-0.326-0.723-0.489-1.51-0.489-2.359c0-1.249,0.3-2.412,0.9-3.489c0.6-1.077,1.452-1.934,2.556-2.572
					S261.428,88.189,262.875,88.178z M258.149,93.602c-0.044,0.756-0.066,1.31-0.066,1.66c0,0.756,0.073,1.488,0.218,2.194
					c0.145,0.707,0.344,1.203,0.596,1.487c0.181,0.203,0.395,0.304,0.641,0.304c0.252,0,0.477-0.146,0.674-0.439
					s0.296-0.889,0.296-1.788c0-1.512-0.184-2.556-0.55-3.131c-0.236-0.373-0.554-0.559-0.954-0.559
					C258.784,93.331,258.5,93.422,258.149,93.602z"/>
				<path class="st1" d="M265.948,88.408h5.219l-0.83,2.12h-4.389l-0.419,1.109c1.89,0.071,3.345,0.542,4.364,1.414
					c0.838,0.718,1.258,1.611,1.258,2.679c0,0.685-0.195,1.355-0.583,2.01c-0.389,0.655-0.937,1.159-1.644,1.512
					c-0.707,0.353-1.482,0.53-2.326,0.53c-0.91,0-1.608-0.17-2.096-0.509c-0.34-0.241-0.509-0.515-0.509-0.822
					c0-0.236,0.089-0.444,0.267-0.625c0.178-0.181,0.385-0.271,0.62-0.271c0.214,0,0.43,0.044,0.649,0.131
					c0.219,0.088,0.594,0.318,1.126,0.69c0.334,0.23,0.622,0.389,0.863,0.477c0.17,0.066,0.362,0.099,0.575,0.099
					c0.449,0,0.832-0.164,1.146-0.493c0.315-0.329,0.473-0.723,0.473-1.183c0-0.964-0.482-1.748-1.446-2.351
					s-2.181-0.904-3.649-0.904c-0.148,0-0.37,0.002-0.666,0.008L265.948,88.408z"/>
				<path class="st1" d="M272.638,102.503v-0.361c0.635-0.274,1.097-0.629,1.385-1.064s0.432-0.881,0.432-1.335
					c0-0.093-0.02-0.165-0.058-0.213c-0.039-0.044-0.077-0.066-0.115-0.066c-0.033,0-0.082,0.019-0.148,0.058
					c-0.159,0.093-0.356,0.14-0.592,0.14c-0.323,0-0.604-0.126-0.842-0.378s-0.357-0.548-0.357-0.888
					c0-0.362,0.137-0.679,0.411-0.954c0.274-0.274,0.605-0.411,0.995-0.411c0.471,0,0.874,0.182,1.208,0.546
					c0.334,0.364,0.501,0.864,0.501,1.5c0,0.783-0.237,1.479-0.711,2.087C274.271,101.771,273.569,102.218,272.638,102.503z"/>
				<path class="st1" d="M281.744,93.257c0.784,0.575,1.327,1.111,1.631,1.607c0.304,0.496,0.456,1.064,0.456,1.705
					c0,0.899-0.338,1.659-1.015,2.281c-0.677,0.622-1.596,0.933-2.757,0.933c-1.102,0-1.954-0.271-2.556-0.813
					s-0.904-1.205-0.904-1.989c0-0.597,0.174-1.121,0.522-1.57c0.348-0.449,0.927-0.86,1.738-1.233
					c-0.882-0.674-1.448-1.225-1.697-1.652c-0.25-0.427-0.374-0.923-0.374-1.487c0-0.745,0.316-1.401,0.949-1.968
					c0.633-0.567,1.5-0.851,2.601-0.851c1.063,0,1.881,0.25,2.453,0.752c0.573,0.501,0.859,1.103,0.859,1.804
					c0,0.526-0.155,0.99-0.464,1.393S282.396,92.934,281.744,93.257z M279.476,94.572c-0.17,0.154-0.291,0.293-0.362,0.419
					c-0.109,0.192-0.208,0.471-0.296,0.838c-0.087,0.367-0.131,0.751-0.131,1.151c0,0.515,0.066,0.946,0.197,1.294
					c0.131,0.348,0.319,0.599,0.563,0.752c0.244,0.153,0.494,0.23,0.752,0.23c0.4,0,0.737-0.146,1.011-0.439
					c0.274-0.293,0.411-0.695,0.411-1.204C281.621,96.55,280.905,95.536,279.476,94.572z M281.119,92.838
					c0.203-0.274,0.354-0.581,0.452-0.92s0.148-0.712,0.148-1.118c0-0.712-0.154-1.257-0.46-1.636
					c-0.23-0.29-0.548-0.436-0.953-0.436c-0.367,0-0.68,0.133-0.937,0.399c-0.258,0.266-0.386,0.596-0.386,0.99
					c0,0.4,0.144,0.815,0.432,1.245C279.702,91.793,280.27,92.285,281.119,92.838z"/>
				<path class="st1" d="M285.023,91.868h3.213l1.948,4.767l1.948-4.767h3.131v0.304c-0.301,0.016-0.515,0.105-0.641,0.267
					c-0.126,0.162-0.189,0.451-0.189,0.867v4.775c0,0.433,0.059,0.731,0.177,0.896c0.118,0.164,0.336,0.255,0.653,0.271v0.304h-4.051
					v-0.304c0.339-0.005,0.578-0.096,0.715-0.271c0.137-0.175,0.206-0.474,0.206-0.896v-4.923l-2.679,6.394h-0.419l-2.597-6.304
					v4.964c0,0.356,0.06,0.613,0.181,0.772c0.121,0.159,0.356,0.247,0.707,0.263v0.304h-2.301v-0.304
					c0.307-0.011,0.524-0.097,0.653-0.259c0.128-0.162,0.193-0.439,0.193-0.834v-4.907c0-0.378-0.063-0.647-0.189-0.809
					s-0.345-0.251-0.657-0.267V91.868z"/>
				<path class="st1" d="M302.857,99.552h-6.558v-0.181c2.01-2.395,3.231-4.005,3.661-4.833s0.645-1.636,0.645-2.424
					c0-0.575-0.178-1.053-0.534-1.434s-0.792-0.571-1.307-0.571c-0.844,0-1.499,0.422-1.964,1.266l-0.304-0.107
					c0.295-1.052,0.745-1.83,1.348-2.334c0.603-0.504,1.298-0.756,2.087-0.756c0.564,0,1.079,0.131,1.545,0.394
					c0.466,0.263,0.83,0.624,1.093,1.081c0.263,0.458,0.395,0.886,0.395,1.286c0,0.729-0.203,1.468-0.608,2.219
					c-0.553,1.014-1.761,2.427-3.624,4.241h2.408c0.592,0,0.977-0.024,1.155-0.074c0.178-0.049,0.325-0.133,0.439-0.251
					c0.115-0.118,0.266-0.366,0.452-0.744h0.296L302.857,99.552z"/>
			</g>
			<rect x="240.924" y="82.833" class="st1" width="69" height="2.333"/>
		</g>
	</g>
	<g id="_43" data-name="43" class="two-flat svg-item">
		<path class="st0" d="M366.103,41.912l-0.084,46.502l18.292-0.042v7.79l-4.177,0.159c0,0-1.889,0.395-3.467,1.051
			s-3.733,2.659-3.733,2.659l7.968,11.61l3.289,0.024l0.123,7.165l3.793,0.043l0.056,34.269h143.563v-46.672l-1.094,0.016
			L530.416,2.454H422.478l0.125,23.875l-31.875,0.125l0.062,15.562L366.103,41.912z"/>
		<g>
			<g>
				<path class="st1" d="M430.361,62.671h5.219l-0.83,2.12h-4.389l-0.419,1.109c1.89,0.071,3.345,0.542,4.363,1.414
					c0.839,0.718,1.258,1.611,1.258,2.679c0,0.685-0.194,1.355-0.583,2.01c-0.39,0.655-0.938,1.159-1.645,1.512
					c-0.706,0.353-1.481,0.53-2.325,0.53c-0.91,0-1.608-0.17-2.096-0.509c-0.34-0.241-0.51-0.515-0.51-0.822
					c0-0.236,0.089-0.444,0.268-0.625c0.178-0.181,0.385-0.271,0.62-0.271c0.214,0,0.43,0.044,0.649,0.131
					c0.219,0.088,0.594,0.318,1.126,0.69c0.334,0.23,0.621,0.389,0.862,0.477c0.17,0.066,0.362,0.099,0.575,0.099
					c0.449,0,0.832-0.164,1.146-0.493c0.315-0.329,0.473-0.723,0.473-1.183c0-0.964-0.481-1.748-1.446-2.351
					c-0.964-0.603-2.181-0.904-3.648-0.904c-0.148,0-0.37,0.002-0.666,0.008L430.361,62.671z"/>
				<path class="st1" d="M441.415,70.798h-4.791v-1.701h4.791V70.798z"/>
				<path class="st1" d="M442.236,69.615l5.293-7.174h1.003v7.174h1.019v1.701h-1.019v2.499h-2.26v-2.499h-4.036V69.615z
					 M443.034,69.615h3.238v-4.397L443.034,69.615z"/>
				<path class="st1" d="M452.724,68.226v-0.288c0.624-0.181,1.057-0.35,1.298-0.505c0.241-0.156,0.449-0.395,0.625-0.715
					c0.175-0.32,0.263-0.645,0.263-0.974c0-0.455-0.166-0.845-0.497-1.171c-0.331-0.326-0.744-0.489-1.236-0.489
					c-0.768,0-1.42,0.405-1.956,1.216l-0.305-0.107c0.395-0.915,0.9-1.603,1.517-2.063c0.616-0.46,1.303-0.69,2.059-0.69
					c0.772,0,1.409,0.235,1.911,0.707c0.501,0.471,0.752,1.022,0.752,1.652c0,0.411-0.117,0.807-0.35,1.188s-0.599,0.716-1.097,1.007
					c0.641,0.312,1.13,0.697,1.467,1.155s0.505,1.031,0.505,1.722c0,1.162-0.42,2.149-1.261,2.963
					c-0.842,0.813-1.969,1.22-3.383,1.22c-0.942,0-1.63-0.156-2.062-0.468c-0.312-0.219-0.469-0.501-0.469-0.847
					c0-0.252,0.091-0.467,0.271-0.645s0.389-0.267,0.625-0.267c0.181,0,0.351,0.038,0.51,0.115c0.087,0.044,0.398,0.284,0.933,0.719
					s1.034,0.653,1.5,0.653c0.405,0,0.753-0.16,1.043-0.48c0.291-0.321,0.436-0.728,0.436-1.221c0-0.75-0.263-1.442-0.789-2.075
					C454.507,68.904,453.737,68.467,452.724,68.226z"/>
				<path class="st1" d="M463.852,70.798h-4.791v-1.701h4.791V70.798z"/>
				<path class="st1" d="M471.223,73.815h-6.558v-0.181c2.01-2.395,3.23-4.005,3.661-4.833c0.43-0.827,0.645-1.636,0.645-2.424
					c0-0.575-0.178-1.053-0.534-1.434c-0.355-0.381-0.791-0.571-1.307-0.571c-0.844,0-1.498,0.422-1.964,1.266l-0.304-0.107
					c0.295-1.052,0.744-1.83,1.348-2.334c0.603-0.504,1.298-0.756,2.087-0.756c0.564,0,1.079,0.131,1.545,0.394
					c0.466,0.263,0.83,0.624,1.094,1.081c0.263,0.458,0.395,0.886,0.395,1.286c0,0.729-0.203,1.468-0.608,2.219
					c-0.554,1.014-1.762,2.427-3.624,4.241h2.407c0.592,0,0.977-0.024,1.155-0.074c0.178-0.049,0.324-0.133,0.439-0.251
					c0.115-0.118,0.266-0.366,0.452-0.744h0.296L471.223,73.815z"/>
				<path class="st1" d="M472.949,62.671h9.615v3.024h-0.312c-0.104-0.559-0.279-1.015-0.525-1.369
					c-0.247-0.353-0.54-0.597-0.88-0.731s-0.86-0.201-1.562-0.201h-2.038v4.339h1.472c1.589,0,2.742,0.279,3.46,0.838
					c0.718,0.559,1.076,1.304,1.076,2.235c0,0.636-0.182,1.183-0.547,1.644c-0.364,0.46-0.821,0.803-1.372,1.027
					s-1.354,0.337-2.412,0.337h-5.975V73.51c0.69-0.011,1.133-0.103,1.327-0.275c0.194-0.172,0.292-0.549,0.292-1.13v-7.626
					c0-0.63-0.099-1.039-0.296-1.225c-0.197-0.187-0.639-0.279-1.323-0.279V62.671z M477.247,68.456v3.361
					c0,0.532,0.074,0.905,0.222,1.122c0.148,0.217,0.422,0.325,0.822,0.325c0.641,0,1.125-0.216,1.45-0.649
					c0.326-0.433,0.489-0.973,0.489-1.619c0-0.625-0.147-1.149-0.443-1.574c-0.296-0.425-0.626-0.692-0.99-0.801
					C478.432,68.511,477.916,68.456,477.247,68.456z"/>
			</g>
			<g>
				<path class="st1" d="M441.703,85.145v0.23c-0.991,0.252-1.787,0.577-2.388,0.974c-0.6,0.397-1.073,0.879-1.422,1.447
					c-0.348,0.567-0.617,1.27-0.809,2.108c0.24-0.165,0.44-0.271,0.6-0.321c0.355-0.109,0.715-0.164,1.076-0.164
					c0.833,0,1.527,0.303,2.084,0.908c0.556,0.605,0.834,1.431,0.834,2.478c0,0.734-0.151,1.408-0.452,2.022
					c-0.302,0.614-0.729,1.087-1.282,1.422c-0.554,0.334-1.146,0.501-1.775,0.501c-0.685,0-1.317-0.188-1.898-0.563
					c-0.58-0.375-1.034-0.924-1.359-1.647c-0.326-0.723-0.489-1.51-0.489-2.359c0-1.249,0.3-2.412,0.899-3.489
					c0.601-1.077,1.452-1.934,2.557-2.572C438.981,85.48,440.257,85.155,441.703,85.145z M436.978,90.568
					c-0.044,0.756-0.065,1.31-0.065,1.66c0,0.756,0.072,1.488,0.218,2.194c0.145,0.707,0.344,1.203,0.596,1.487
					c0.181,0.203,0.395,0.304,0.641,0.304c0.252,0,0.477-0.146,0.674-0.439s0.296-0.889,0.296-1.788c0-1.512-0.184-2.556-0.55-3.131
					c-0.236-0.373-0.554-0.559-0.954-0.559C437.613,90.297,437.328,90.388,436.978,90.568z"/>
				<path class="st1" d="M447.694,85.145v9.114c0,0.685,0.03,1.122,0.091,1.311c0.06,0.189,0.186,0.344,0.378,0.464
					c0.191,0.121,0.498,0.181,0.92,0.181h0.255v0.304h-5.868v-0.304h0.296c0.477,0,0.816-0.055,1.02-0.164
					c0.202-0.11,0.34-0.26,0.411-0.452c0.07-0.192,0.106-0.638,0.106-1.34v-5.777c0-0.515-0.024-0.837-0.074-0.966
					c-0.049-0.128-0.141-0.238-0.275-0.329c-0.134-0.09-0.289-0.136-0.464-0.136c-0.279,0-0.619,0.088-1.02,0.263l-0.147-0.296
					l4.101-1.874H447.694z"/>
				<path class="st1" d="M451.467,99.469v-0.361c0.635-0.274,1.097-0.629,1.385-1.064c0.287-0.436,0.432-0.881,0.432-1.335
					c0-0.093-0.02-0.165-0.058-0.213c-0.039-0.044-0.077-0.066-0.115-0.066c-0.033,0-0.082,0.019-0.148,0.058
					c-0.158,0.093-0.355,0.14-0.592,0.14c-0.323,0-0.604-0.126-0.842-0.378s-0.357-0.548-0.357-0.888c0-0.362,0.137-0.679,0.41-0.954
					c0.274-0.274,0.605-0.411,0.995-0.411c0.471,0,0.874,0.182,1.208,0.546s0.501,0.864,0.501,1.5c0,0.783-0.237,1.479-0.711,2.087
					C453.101,98.737,452.397,99.184,451.467,99.469z"/>
				<path class="st1" d="M460.317,85.145v9.114c0,0.685,0.03,1.122,0.091,1.311s0.187,0.344,0.378,0.464s0.499,0.181,0.921,0.181
					h0.255v0.304h-5.868v-0.304h0.296c0.477,0,0.816-0.055,1.019-0.164c0.203-0.11,0.34-0.26,0.411-0.452s0.107-0.638,0.107-1.34
					v-5.777c0-0.515-0.025-0.837-0.074-0.966c-0.05-0.128-0.142-0.238-0.275-0.329c-0.135-0.09-0.289-0.136-0.465-0.136
					c-0.279,0-0.619,0.088-1.019,0.263l-0.148-0.296l4.102-1.874H460.317z"/>
				<path class="st1" d="M463.852,88.835h3.214l1.947,4.767l1.948-4.767h3.131v0.304c-0.302,0.016-0.515,0.105-0.641,0.267
					c-0.127,0.162-0.189,0.451-0.189,0.867v4.775c0,0.433,0.059,0.731,0.177,0.896c0.118,0.164,0.336,0.255,0.653,0.271v0.304h-4.052
					v-0.304c0.34-0.005,0.578-0.096,0.715-0.271s0.206-0.474,0.206-0.896v-4.923l-2.68,6.394h-0.419l-2.597-6.304v4.964
					c0,0.356,0.06,0.613,0.181,0.772c0.12,0.159,0.355,0.247,0.706,0.263v0.304h-2.301v-0.304c0.307-0.011,0.524-0.097,0.653-0.259
					s0.193-0.439,0.193-0.834v-4.907c0-0.378-0.063-0.647-0.189-0.809s-0.345-0.251-0.657-0.267V88.835z"/>
				<path class="st1" d="M481.686,96.519h-6.558v-0.181c2.01-2.395,3.23-4.005,3.661-4.833c0.43-0.827,0.645-1.636,0.645-2.424
					c0-0.575-0.178-1.053-0.534-1.434c-0.355-0.381-0.791-0.571-1.307-0.571c-0.844,0-1.498,0.422-1.964,1.266l-0.304-0.107
					c0.295-1.052,0.744-1.83,1.348-2.334c0.603-0.504,1.298-0.756,2.087-0.756c0.564,0,1.079,0.131,1.545,0.394
					c0.466,0.263,0.83,0.624,1.094,1.081c0.263,0.458,0.395,0.886,0.395,1.286c0,0.729-0.203,1.468-0.608,2.219
					c-0.554,1.014-1.762,2.427-3.624,4.241h2.407c0.592,0,0.977-0.024,1.155-0.074c0.178-0.049,0.324-0.133,0.439-0.251
					c0.115-0.118,0.266-0.366,0.452-0.744h0.296L481.686,96.519z"/>
			</g>
			<rect x="419.753" y="79.8" class="st1" width="69" height="2.333"/>
		</g>
	</g>
	<g id="_44" data-name="44" class="one-flat svg-item">
		<path class="st2" d="M387.916,158.747v34.667h-3.667v11.094h-4.229c0,0-2.281,0.438-4.469,1.594s-2.938,2.188-2.938,2.188
			l8.704,12.481l3.078-0.055l0.031,40.855h23.438v2.406c0,0,87.812,0.188,87.812,0.094s0-2.531,0-2.531l34.281-0.062v3.938h1.094
			l0.531-106.667H387.916z"/>
		<g>
			<g>
				<path class="st1" d="M432.658,196.389h5.219l-0.83,2.12h-4.389l-0.419,1.109c1.891,0.071,3.345,0.542,4.364,1.414
					c0.838,0.718,1.258,1.611,1.258,2.679c0,0.685-0.195,1.355-0.584,2.01s-0.937,1.159-1.644,1.512
					c-0.707,0.353-1.482,0.53-2.326,0.53c-0.909,0-1.607-0.17-2.096-0.509c-0.34-0.241-0.509-0.515-0.509-0.822
					c0-0.236,0.089-0.444,0.267-0.625c0.178-0.181,0.385-0.271,0.62-0.271c0.214,0,0.431,0.044,0.649,0.131
					c0.22,0.088,0.595,0.318,1.126,0.69c0.334,0.23,0.622,0.389,0.863,0.477c0.17,0.066,0.361,0.099,0.575,0.099
					c0.449,0,0.831-0.164,1.146-0.493c0.314-0.329,0.473-0.723,0.473-1.183c0-0.964-0.482-1.748-1.446-2.351
					c-0.965-0.603-2.181-0.904-3.649-0.904c-0.147,0-0.37,0.002-0.666,0.008L432.658,196.389z"/>
				<path class="st1" d="M443.712,204.517h-4.791v-1.701h4.791V204.517z"/>
				<path class="st1" d="M444.534,203.333l5.293-7.174h1.002v7.174h1.02v1.701h-1.02v2.499h-2.26v-2.499h-4.035V203.333z
					 M445.331,203.333h3.238v-4.397L445.331,203.333z"/>
				<path class="st1" d="M452.949,203.333l5.293-7.174h1.003v7.174h1.019v1.701h-1.019v2.499h-2.26v-2.499h-4.036V203.333z
					 M453.747,203.333h3.238v-4.397L453.747,203.333z"/>
				<path class="st1" d="M466.148,204.517h-4.791v-1.701h4.791V204.517z"/>
				<path class="st1" d="M472.032,196.159v9.114c0,0.685,0.03,1.122,0.091,1.311s0.187,0.344,0.378,0.464s0.499,0.181,0.921,0.181
					h0.255v0.304h-5.868v-0.304h0.296c0.477,0,0.816-0.055,1.019-0.164c0.203-0.11,0.34-0.26,0.411-0.452s0.107-0.638,0.107-1.34
					v-5.777c0-0.515-0.025-0.837-0.074-0.966c-0.05-0.128-0.142-0.238-0.275-0.329c-0.135-0.09-0.289-0.136-0.465-0.136
					c-0.279,0-0.619,0.088-1.019,0.263l-0.148-0.296l4.102-1.874H472.032z"/>
				<path class="st1" d="M477.021,196.389h9.213v0.304c-0.685,0.022-1.12,0.123-1.307,0.304c-0.187,0.181-0.279,0.57-0.279,1.167
					v7.446c0,0.472,0.035,0.8,0.106,0.986c0.071,0.187,0.229,0.338,0.473,0.456c0.244,0.118,0.579,0.177,1.007,0.177v3.559h-0.304
					c-0.066-0.964-0.417-1.748-1.052-2.351c-0.636-0.603-1.507-0.904-2.614-0.904h-3.032c-1.146,0-2.064,0.281-2.757,0.842
					c-0.693,0.562-1.095,1.366-1.204,2.412h-0.305v-3.559c1.354-0.268,2.322-1.182,2.905-2.741c0.584-1.559,0.875-3.645,0.875-6.258
					c0-0.63-0.107-1.042-0.324-1.237s-0.684-0.294-1.401-0.3V196.389z M482.265,197.112h-2.802v0.953
					c0,1.337-0.091,2.641-0.271,3.912s-0.428,2.27-0.74,2.996c-0.312,0.726-0.729,1.338-1.249,1.837h3.97
					c0.537,0,0.854-0.037,0.949-0.111c0.096-0.074,0.144-0.314,0.144-0.719V197.112z"/>
			</g>
			<g>
				<path class="st1" d="M436.514,226.037l5.293-7.174h1.002v7.174h1.02v1.701h-1.02v2.499h-2.26v-2.499h-4.035V226.037z
					 M437.311,226.037h3.238v-4.397L437.311,226.037z"/>
				<path class="st1" d="M451.479,230.237h-6.559v-0.181c2.011-2.395,3.231-4.005,3.661-4.833c0.431-0.827,0.646-1.636,0.646-2.424
					c0-0.575-0.179-1.053-0.534-1.434c-0.356-0.381-0.792-0.571-1.307-0.571c-0.844,0-1.499,0.422-1.965,1.266l-0.304-0.107
					c0.296-1.052,0.745-1.83,1.348-2.334s1.299-0.756,2.088-0.756c0.564,0,1.079,0.131,1.545,0.394
					c0.466,0.263,0.83,0.624,1.093,1.081s0.395,0.886,0.395,1.286c0,0.729-0.203,1.468-0.608,2.219
					c-0.553,1.014-1.761,2.427-3.624,4.241h2.408c0.592,0,0.977-0.024,1.154-0.074s0.325-0.133,0.439-0.251
					c0.115-0.118,0.267-0.366,0.452-0.744h0.296L451.479,230.237z"/>
				<path class="st1" d="M453.764,233.187v-0.361c0.636-0.274,1.098-0.629,1.385-1.064c0.288-0.436,0.432-0.881,0.432-1.335
					c0-0.093-0.02-0.165-0.058-0.213c-0.038-0.044-0.077-0.066-0.115-0.066c-0.032,0-0.082,0.019-0.147,0.058
					c-0.159,0.093-0.356,0.14-0.592,0.14c-0.323,0-0.604-0.126-0.843-0.378s-0.357-0.548-0.357-0.888
					c0-0.362,0.137-0.679,0.411-0.954c0.273-0.274,0.605-0.411,0.994-0.411c0.472,0,0.874,0.182,1.208,0.546
					c0.335,0.364,0.502,0.864,0.502,1.5c0,0.783-0.237,1.479-0.711,2.087C455.397,232.456,454.695,232.902,453.764,233.187z"/>
				<path class="st1" d="M457.651,230.467v-0.23c0.909-0.208,1.681-0.515,2.313-0.92s1.134-0.907,1.504-1.504
					s0.629-1.285,0.776-2.063c-0.34,0.175-0.629,0.297-0.867,0.366c-0.238,0.069-0.488,0.103-0.752,0.103
					c-0.844,0-1.546-0.304-2.107-0.913c-0.562-0.608-0.843-1.441-0.843-2.498c0-0.734,0.152-1.407,0.456-2.018
					c0.305-0.611,0.738-1.084,1.303-1.421s1.15-0.505,1.759-0.505c0.652,0,1.269,0.186,1.85,0.559
					c0.58,0.373,1.043,0.912,1.389,1.619c0.345,0.707,0.518,1.512,0.518,2.416c0,1.173-0.281,2.296-0.843,3.37
					s-1.398,1.936-2.511,2.584C460.483,230.06,459.169,230.412,457.651,230.467z M462.369,225.059
					c0.055-0.613,0.082-1.153,0.082-1.619c0-0.998-0.115-1.926-0.346-2.786c-0.131-0.477-0.326-0.827-0.583-1.052
					c-0.138-0.12-0.315-0.181-0.534-0.181c-0.274,0-0.488,0.118-0.642,0.354c-0.214,0.323-0.32,0.939-0.32,1.849
					c0,1.518,0.181,2.564,0.542,3.139c0.236,0.373,0.554,0.559,0.954,0.559C461.736,225.322,462.018,225.235,462.369,225.059z"/>
				<path class="st1" d="M466.149,222.553h3.213l1.948,4.767l1.947-4.767h3.131v0.304c-0.301,0.016-0.515,0.105-0.641,0.267
					s-0.189,0.451-0.189,0.867v4.775c0,0.433,0.06,0.731,0.177,0.896c0.118,0.164,0.336,0.255,0.653,0.271v0.304h-4.051v-0.304
					c0.339-0.005,0.577-0.096,0.715-0.271c0.137-0.175,0.205-0.474,0.205-0.896v-4.923l-2.679,6.394h-0.42l-2.597-6.304v4.964
					c0,0.356,0.061,0.613,0.181,0.772c0.121,0.159,0.356,0.247,0.707,0.263v0.304h-2.301v-0.304c0.307-0.011,0.524-0.097,0.653-0.259
					c0.128-0.162,0.192-0.439,0.192-0.834v-4.907c0-0.378-0.062-0.647-0.188-0.809s-0.346-0.251-0.657-0.267V222.553z"/>
				<path class="st1" d="M483.983,230.237h-6.559v-0.181c2.011-2.395,3.231-4.005,3.661-4.833c0.431-0.827,0.646-1.636,0.646-2.424
					c0-0.575-0.179-1.053-0.534-1.434c-0.356-0.381-0.792-0.571-1.307-0.571c-0.844,0-1.499,0.422-1.965,1.266l-0.304-0.107
					c0.296-1.052,0.745-1.83,1.348-2.334s1.299-0.756,2.088-0.756c0.564,0,1.079,0.131,1.545,0.394
					c0.466,0.263,0.83,0.624,1.093,1.081s0.395,0.886,0.395,1.286c0,0.729-0.203,1.468-0.608,2.219
					c-0.553,1.014-1.761,2.427-3.624,4.241h2.408c0.592,0,0.977-0.024,1.154-0.074s0.325-0.133,0.439-0.251
					c0.115-0.118,0.267-0.366,0.452-0.744h0.296L483.983,230.237z"/>
			</g>
			<rect x="422.05" y="213.518" class="st1" width="69" height="2.333"/>
		</g>
	</g>
	<g id="_45" data-name="45" class="one-flat svg-item">
		<path class="st2" d="M387.723,271.298l0.307,32.249h-3.667v3.667h-3.833l-7.823,12.188c0,0,0.469,0.844,1.781,1.594
			s2.719,1.344,4.625,1.656s5.312,0.281,5.312,0.281v20.596l51.562,0.062v30.623l65.25,0.125v-3.188l34,0.125l2.75-0.688l0.938,2.705
			l26.438-8.08l-16.025-47.498l-18.35-50.877h-1.25l-0.062,4.375l-34,0.125l-0.062-2.531l-87.828-0.031l-0.094,2.466L387.723,271.298
			z"/>
		<g>
			<g>
				<path class="st1" d="M440.703,300.938h5.219l-0.83,2.12h-4.389l-0.419,1.109c1.89,0.071,3.345,0.542,4.363,1.414
					c0.839,0.718,1.258,1.611,1.258,2.679c0,0.685-0.194,1.355-0.583,2.01c-0.39,0.655-0.938,1.159-1.645,1.512
					c-0.706,0.353-1.481,0.53-2.325,0.53c-0.91,0-1.608-0.17-2.096-0.509c-0.34-0.241-0.51-0.515-0.51-0.822
					c0-0.236,0.089-0.444,0.268-0.625c0.178-0.181,0.385-0.271,0.62-0.271c0.214,0,0.43,0.044,0.649,0.131
					c0.219,0.088,0.594,0.318,1.126,0.69c0.334,0.23,0.621,0.389,0.862,0.477c0.17,0.066,0.362,0.099,0.575,0.099
					c0.449,0,0.832-0.164,1.146-0.493c0.315-0.329,0.473-0.723,0.473-1.183c0-0.964-0.481-1.748-1.446-2.351
					c-0.964-0.603-2.181-0.904-3.648-0.904c-0.148,0-0.37,0.002-0.666,0.008L440.703,300.938z"/>
				<path class="st1" d="M451.757,309.066h-4.791v-1.701h4.791V309.066z"/>
				<path class="st1" d="M452.578,307.882l5.293-7.174h1.003v7.174h1.019v1.701h-1.019v2.499h-2.26v-2.499h-4.036V307.882z
					 M453.376,307.882h3.238v-4.397L453.376,307.882z"/>
				<path class="st1" d="M463.139,300.938h5.219l-0.83,2.12h-4.389l-0.419,1.109c1.891,0.071,3.345,0.542,4.364,1.414
					c0.838,0.718,1.258,1.611,1.258,2.679c0,0.685-0.195,1.355-0.584,2.01s-0.937,1.159-1.644,1.512
					c-0.707,0.353-1.482,0.53-2.326,0.53c-0.909,0-1.607-0.17-2.096-0.509c-0.34-0.241-0.509-0.515-0.509-0.822
					c0-0.236,0.089-0.444,0.267-0.625c0.178-0.181,0.385-0.271,0.62-0.271c0.214,0,0.431,0.044,0.649,0.131
					c0.22,0.088,0.595,0.318,1.126,0.69c0.334,0.23,0.622,0.389,0.863,0.477c0.17,0.066,0.361,0.099,0.575,0.099
					c0.449,0,0.831-0.164,1.146-0.493c0.314-0.329,0.473-0.723,0.473-1.183c0-0.964-0.482-1.748-1.446-2.351
					c-0.965-0.603-2.181-0.904-3.649-0.904c-0.147,0-0.37,0.002-0.666,0.008L463.139,300.938z"/>
				<path class="st1" d="M474.193,309.066h-4.791v-1.701h4.791V309.066z"/>
				<path class="st1" d="M480.077,300.708v9.114c0,0.685,0.03,1.122,0.091,1.311c0.06,0.189,0.186,0.344,0.378,0.464
					c0.191,0.121,0.498,0.181,0.92,0.181h0.255v0.304h-5.868v-0.304h0.296c0.477,0,0.816-0.055,1.02-0.164
					c0.202-0.11,0.34-0.26,0.411-0.452c0.07-0.192,0.106-0.638,0.106-1.34v-5.777c0-0.515-0.024-0.837-0.074-0.966
					c-0.049-0.128-0.141-0.238-0.275-0.329c-0.134-0.09-0.289-0.136-0.464-0.136c-0.279,0-0.619,0.088-1.02,0.263l-0.147-0.296
					l4.101-1.874H480.077z"/>
				<path class="st1" d="M487.598,301.579v4.536h0.222c0.707,0,1.219-0.222,1.537-0.666c0.317-0.444,0.521-1.098,0.607-1.964h0.312
					v5.835h-0.312c-0.065-0.636-0.204-1.156-0.415-1.562c-0.211-0.406-0.456-0.678-0.735-0.818s-0.685-0.209-1.216-0.209v3.139
					c0,0.614,0.025,0.989,0.078,1.126c0.052,0.137,0.148,0.25,0.291,0.337c0.143,0.088,0.373,0.132,0.69,0.132h0.666
					c1.041,0,1.875-0.241,2.503-0.723c0.627-0.482,1.077-1.217,1.352-2.203h0.304l-0.501,3.542h-9.632v-0.304h0.369
					c0.323,0,0.584-0.058,0.781-0.172c0.143-0.077,0.252-0.208,0.329-0.395c0.06-0.131,0.09-0.477,0.09-1.036v-7.331
					c0-0.504-0.014-0.814-0.041-0.929c-0.055-0.192-0.156-0.34-0.304-0.444c-0.209-0.153-0.493-0.23-0.855-0.23h-0.369v-0.304h9.328
					v3.295h-0.312c-0.159-0.805-0.383-1.383-0.67-1.734c-0.288-0.351-0.694-0.608-1.221-0.772c-0.307-0.099-0.882-0.148-1.726-0.148
					H487.598z"/>
			</g>
			<g>
				<path class="st1" d="M444.558,330.586l5.293-7.174h1.003v7.174h1.019v1.701h-1.019v2.499h-2.26v-2.499h-4.036V330.586z
					 M445.355,330.586h3.238v-4.397L445.355,330.586z"/>
				<path class="st1" d="M455.045,329.197v-0.288c0.624-0.181,1.057-0.35,1.298-0.505c0.241-0.156,0.449-0.395,0.625-0.715
					c0.175-0.32,0.263-0.645,0.263-0.974c0-0.455-0.166-0.845-0.497-1.171c-0.331-0.326-0.744-0.489-1.236-0.489
					c-0.768,0-1.42,0.405-1.956,1.216l-0.305-0.107c0.395-0.915,0.9-1.603,1.517-2.063c0.616-0.46,1.303-0.69,2.059-0.69
					c0.772,0,1.409,0.235,1.911,0.707c0.501,0.471,0.752,1.022,0.752,1.652c0,0.411-0.117,0.807-0.35,1.188s-0.599,0.716-1.097,1.007
					c0.641,0.312,1.13,0.697,1.467,1.155s0.505,1.031,0.505,1.722c0,1.162-0.42,2.149-1.261,2.963
					c-0.842,0.813-1.969,1.22-3.383,1.22c-0.942,0-1.63-0.156-2.062-0.468c-0.312-0.219-0.469-0.501-0.469-0.847
					c0-0.252,0.091-0.467,0.271-0.645s0.389-0.267,0.625-0.267c0.181,0,0.351,0.038,0.51,0.115c0.087,0.044,0.398,0.284,0.933,0.719
					s1.034,0.653,1.5,0.653c0.405,0,0.753-0.16,1.043-0.48c0.291-0.321,0.436-0.728,0.436-1.221c0-0.75-0.263-1.442-0.789-2.075
					C456.828,329.875,456.059,329.439,455.045,329.197z"/>
				<path class="st1" d="M461.809,337.736v-0.361c0.635-0.274,1.097-0.629,1.385-1.064c0.287-0.436,0.432-0.881,0.432-1.335
					c0-0.093-0.02-0.165-0.058-0.213c-0.039-0.044-0.077-0.066-0.115-0.066c-0.033,0-0.082,0.019-0.148,0.058
					c-0.158,0.093-0.355,0.14-0.592,0.14c-0.323,0-0.604-0.126-0.842-0.378s-0.357-0.548-0.357-0.888c0-0.362,0.137-0.679,0.41-0.954
					c0.274-0.274,0.605-0.411,0.995-0.411c0.471,0,0.874,0.182,1.208,0.546s0.501,0.864,0.501,1.5c0,0.783-0.237,1.479-0.711,2.087
					C463.442,337.005,462.739,337.451,461.809,337.736z"/>
				<path class="st1" d="M470.914,328.49c0.784,0.575,1.327,1.111,1.632,1.607c0.304,0.496,0.456,1.064,0.456,1.705
					c0,0.899-0.339,1.659-1.015,2.281c-0.677,0.622-1.596,0.933-2.758,0.933c-1.102,0-1.953-0.271-2.556-0.813
					s-0.904-1.205-0.904-1.989c0-0.597,0.174-1.121,0.522-1.57c0.348-0.449,0.927-0.86,1.737-1.233
					c-0.882-0.674-1.447-1.225-1.696-1.652c-0.25-0.427-0.374-0.923-0.374-1.487c0-0.745,0.316-1.401,0.949-1.968
					c0.633-0.567,1.5-0.851,2.601-0.851c1.063,0,1.881,0.25,2.453,0.752c0.573,0.501,0.859,1.103,0.859,1.804
					c0,0.526-0.155,0.99-0.465,1.393S471.566,328.167,470.914,328.49z M468.646,329.805c-0.17,0.154-0.291,0.293-0.362,0.419
					c-0.109,0.192-0.208,0.471-0.296,0.838c-0.087,0.367-0.131,0.751-0.131,1.151c0,0.515,0.065,0.946,0.197,1.294
					c0.131,0.348,0.318,0.599,0.562,0.752s0.494,0.23,0.752,0.23c0.4,0,0.737-0.146,1.011-0.439c0.274-0.293,0.411-0.695,0.411-1.204
					C470.791,331.783,470.076,330.77,468.646,329.805z M470.29,328.071c0.202-0.274,0.354-0.581,0.452-0.92s0.147-0.712,0.147-1.118
					c0-0.712-0.153-1.257-0.46-1.636c-0.23-0.29-0.548-0.436-0.953-0.436c-0.367,0-0.68,0.133-0.938,0.399
					c-0.258,0.266-0.386,0.596-0.386,0.99c0,0.4,0.144,0.815,0.432,1.245C468.872,327.026,469.44,327.518,470.29,328.071z"/>
				<path class="st1" d="M474.193,327.102h3.214l1.947,4.767l1.948-4.767h3.131v0.304c-0.302,0.016-0.515,0.105-0.641,0.267
					c-0.127,0.162-0.189,0.451-0.189,0.867v4.775c0,0.433,0.059,0.731,0.177,0.896c0.118,0.164,0.336,0.255,0.653,0.271v0.304h-4.052
					v-0.304c0.34-0.005,0.578-0.096,0.715-0.271s0.206-0.474,0.206-0.896v-4.923l-2.68,6.394h-0.419l-2.597-6.304v4.964
					c0,0.356,0.06,0.613,0.181,0.772c0.12,0.159,0.355,0.247,0.706,0.263v0.304h-2.301v-0.304c0.307-0.011,0.524-0.097,0.653-0.259
					s0.193-0.439,0.193-0.834v-4.907c0-0.378-0.063-0.647-0.189-0.809s-0.345-0.251-0.657-0.267V327.102z"/>
				<path class="st1" d="M492.027,334.786h-6.558v-0.181c2.01-2.395,3.23-4.005,3.661-4.833c0.43-0.827,0.645-1.636,0.645-2.424
					c0-0.575-0.178-1.053-0.534-1.434c-0.355-0.381-0.791-0.571-1.307-0.571c-0.844,0-1.498,0.422-1.964,1.266l-0.304-0.107
					c0.295-1.052,0.744-1.83,1.348-2.334c0.603-0.504,1.298-0.756,2.087-0.756c0.564,0,1.079,0.131,1.545,0.394
					c0.466,0.263,0.83,0.624,1.094,1.081c0.263,0.458,0.395,0.886,0.395,1.286c0,0.729-0.203,1.468-0.608,2.219
					c-0.554,1.014-1.762,2.427-3.624,4.241h2.407c0.592,0,0.977-0.024,1.155-0.074c0.178-0.049,0.324-0.133,0.439-0.251
					c0.115-0.118,0.266-0.366,0.452-0.744h0.296L492.027,334.786z"/>
			</g>
			<rect x="430.094" y="318.067" class="st1" width="69" height="2.333"/>
		</g>
	</g>
	<g id="_46" data-name="46" class="one-flat svg-item">
		<path class="st2" d="M435.989,378.464h65.5v2.406l33.969,0.062l5.719-1.234l-0.562-1.453l26.406-8.688l34.938,105.784l-1.047,0.391
			l-0.25-0.781l-5.672,2.141l-0.562-1.422l-22.859,7.969l-48.203-0.047l0,1.266l-33.922-0.031l-0.047-3.438l-15.281-0.112
			l0.072,3.021l-11.764,7.439c0,0-1.396-1.49-2-2.406c-0.604-0.917-1.287-4.471-1.287-4.471l-0.037-2.997l-23.109-0.095V378.464z"/>
		<g>
			<g>
				<path class="st1" d="M479.645,413.937h5.219l-0.83,2.121h-4.389l-0.419,1.109c1.89,0.07,3.345,0.542,4.363,1.413
					c0.839,0.718,1.258,1.61,1.258,2.679c0,0.686-0.194,1.355-0.583,2.01c-0.39,0.655-0.938,1.159-1.645,1.513
					c-0.706,0.353-1.481,0.53-2.325,0.53c-0.91,0-1.608-0.17-2.096-0.51c-0.34-0.241-0.51-0.516-0.51-0.822
					c0-0.235,0.089-0.443,0.268-0.625c0.178-0.18,0.385-0.271,0.62-0.271c0.214,0,0.43,0.044,0.649,0.132
					c0.219,0.088,0.594,0.317,1.126,0.689c0.334,0.23,0.621,0.39,0.862,0.477c0.17,0.066,0.362,0.1,0.575,0.1
					c0.449,0,0.832-0.164,1.146-0.494c0.315-0.328,0.473-0.723,0.473-1.183c0-0.964-0.481-1.748-1.446-2.351
					c-0.964-0.603-2.181-0.904-3.648-0.904c-0.148,0-0.37,0.003-0.666,0.008L479.645,413.937z"/>
				<path class="st1" d="M490.698,422.066h-4.791v-1.701h4.791V422.066z"/>
				<path class="st1" d="M491.52,420.882l5.293-7.175h1.003v7.175h1.019v1.701h-1.019v2.498h-2.26v-2.498h-4.036V420.882z
					 M492.317,420.882h3.238v-4.397L492.317,420.882z"/>
				<path class="st1" d="M507.423,413.708v0.229c-0.992,0.252-1.788,0.577-2.388,0.975c-0.6,0.396-1.074,0.879-1.422,1.446
					s-0.618,1.27-0.81,2.108c0.241-0.165,0.441-0.271,0.6-0.321c0.356-0.109,0.716-0.164,1.077-0.164
					c0.833,0,1.527,0.303,2.083,0.908c0.557,0.605,0.834,1.431,0.834,2.478c0,0.734-0.15,1.408-0.452,2.021
					c-0.301,0.614-0.729,1.088-1.281,1.422c-0.554,0.334-1.146,0.502-1.775,0.502c-0.686,0-1.318-0.188-1.898-0.563
					c-0.581-0.375-1.034-0.925-1.36-1.647s-0.489-1.51-0.489-2.359c0-1.248,0.301-2.412,0.9-3.488s1.452-1.934,2.556-2.572
					C504.701,414.043,505.976,413.718,507.423,413.708z M502.697,419.131c-0.044,0.757-0.066,1.31-0.066,1.66
					c0,0.757,0.073,1.487,0.218,2.194c0.146,0.707,0.344,1.203,0.596,1.487c0.182,0.203,0.395,0.304,0.642,0.304
					c0.252,0,0.477-0.146,0.674-0.439s0.296-0.889,0.296-1.787c0-1.512-0.184-2.557-0.551-3.131
					c-0.235-0.373-0.554-0.559-0.953-0.559C503.332,418.861,503.048,418.951,502.697,419.131z"/>
				<path class="st1" d="M513.135,422.066h-4.791v-1.701h4.791V422.066z"/>
				<path class="st1" d="M519.019,413.708v9.114c0,0.685,0.03,1.121,0.091,1.311c0.06,0.189,0.186,0.344,0.378,0.465
					c0.191,0.12,0.498,0.18,0.92,0.18h0.255v0.305h-5.868v-0.305h0.296c0.477,0,0.816-0.055,1.02-0.164
					c0.202-0.109,0.34-0.26,0.411-0.451c0.07-0.192,0.106-0.639,0.106-1.34v-5.777c0-0.516-0.024-0.838-0.074-0.967
					c-0.049-0.128-0.141-0.238-0.275-0.328c-0.134-0.09-0.289-0.136-0.464-0.136c-0.279,0-0.619,0.088-1.02,0.263l-0.147-0.295
					l4.101-1.874H519.019z"/>
				<path class="st1" d="M533.122,413.937v0.305c-0.669,0.006-1.098,0.098-1.286,0.275c-0.189,0.178-0.284,0.543-0.284,1.097v3.395
					c0.543-0.017,0.914-0.058,1.114-0.124c0.199-0.064,0.389-0.226,0.566-0.48c0.178-0.254,0.35-0.711,0.514-1.368
					c0.214-0.833,0.421-1.457,0.621-1.874c0.199-0.416,0.477-0.746,0.83-0.99c0.353-0.244,0.795-0.365,1.327-0.365
					c0.531,0,0.954,0.148,1.27,0.447c0.314,0.299,0.473,0.664,0.473,1.098c0,0.328-0.101,0.596-0.3,0.801
					c-0.2,0.206-0.468,0.309-0.802,0.309c-0.63,0-0.97-0.359-1.019-1.076c-0.028-0.361-0.165-0.543-0.411-0.543
					c-0.17,0-0.347,0.104-0.53,0.309s-0.398,0.74-0.646,1.606c-0.213,0.739-0.389,1.289-0.525,1.647
					c-0.138,0.359-0.362,0.627-0.674,0.802c0.41,0.132,0.727,0.28,0.949,0.448c0.222,0.166,0.406,0.355,0.555,0.566
					c0.147,0.211,0.46,0.76,0.937,1.648l0.953,1.75c0.285,0.521,0.529,0.844,0.731,0.97c0.203,0.126,0.485,0.188,0.847,0.188v0.305
					h-3.468l-2.162-4.389c-0.208-0.422-0.368-0.677-0.48-0.764c-0.112-0.088-0.336-0.141-0.67-0.156v3.6
					c0,0.547,0.047,0.877,0.14,0.986c0.094,0.109,0.218,0.207,0.374,0.291c0.156,0.085,0.509,0.127,1.057,0.127v0.305h-5.695v-0.305
					c0.433,0,0.754-0.032,0.965-0.098c0.211-0.066,0.363-0.178,0.456-0.338c0.094-0.158,0.141-0.463,0.141-0.912v-3.656
					c-0.302,0.005-0.512,0.046-0.629,0.123c-0.118,0.076-0.271,0.301-0.456,0.674l-2.228,4.512h-3.468v-0.305
					c0.515,0,0.872-0.119,1.072-0.357s0.687-1.088,1.459-2.551c0.542-1.025,0.947-1.682,1.216-1.969s0.677-0.52,1.225-0.694
					c-0.307-0.175-0.528-0.44-0.666-0.798c-0.137-0.355-0.312-0.906-0.525-1.651c-0.252-0.866-0.47-1.401-0.653-1.606
					s-0.36-0.309-0.53-0.309c-0.241,0-0.375,0.182-0.402,0.543c-0.056,0.717-0.395,1.076-1.02,1.076
					c-0.334,0-0.603-0.103-0.806-0.309c-0.202-0.205-0.304-0.475-0.304-0.809c0-0.406,0.153-0.764,0.46-1.073
					s0.734-0.464,1.282-0.464c0.543,0,0.987,0.123,1.336,0.369c0.348,0.247,0.623,0.578,0.825,0.994
					c0.203,0.417,0.408,1.039,0.617,1.866c0.229,0.894,0.485,1.445,0.768,1.656s0.758,0.316,1.427,0.316v-3.395
					c0-0.559-0.104-0.927-0.312-1.104c-0.209-0.179-0.625-0.268-1.249-0.268v-0.305H533.122z"/>
			</g>
			<g>
				<path class="st1" d="M483.499,443.586l5.293-7.174h1.003v7.174h1.019v1.701h-1.019v2.499h-2.26v-2.499h-4.036V443.586z
					 M484.297,443.586h3.238v-4.396L484.297,443.586z"/>
				<path class="st1" d="M493.986,442.197v-0.287c0.624-0.182,1.057-0.35,1.298-0.506s0.449-0.395,0.625-0.715
					c0.175-0.32,0.263-0.646,0.263-0.974c0-0.455-0.166-0.846-0.497-1.172c-0.331-0.325-0.744-0.488-1.236-0.488
					c-0.768,0-1.42,0.405-1.956,1.216l-0.305-0.106c0.395-0.915,0.9-1.603,1.517-2.063c0.616-0.46,1.303-0.689,2.059-0.689
					c0.772,0,1.409,0.235,1.911,0.706c0.501,0.472,0.752,1.022,0.752,1.652c0,0.411-0.117,0.807-0.35,1.188s-0.599,0.716-1.097,1.007
					c0.641,0.312,1.13,0.697,1.467,1.154c0.337,0.458,0.505,1.031,0.505,1.722c0,1.162-0.42,2.149-1.261,2.963
					c-0.842,0.813-1.969,1.221-3.383,1.221c-0.942,0-1.63-0.156-2.062-0.469c-0.312-0.219-0.469-0.501-0.469-0.847
					c0-0.252,0.091-0.467,0.271-0.645c0.181-0.179,0.389-0.268,0.625-0.268c0.181,0,0.351,0.038,0.51,0.115
					c0.087,0.044,0.398,0.283,0.933,0.719s1.034,0.653,1.5,0.653c0.405,0,0.753-0.16,1.043-0.48c0.291-0.32,0.436-0.728,0.436-1.221
					c0-0.75-0.263-1.442-0.789-2.075C495.77,442.875,495,442.438,493.986,442.197z"/>
				<path class="st1" d="M500.75,450.736v-0.361c0.635-0.274,1.097-0.629,1.385-1.064c0.287-0.436,0.432-0.881,0.432-1.336
					c0-0.093-0.02-0.164-0.058-0.213c-0.039-0.044-0.077-0.066-0.115-0.066c-0.033,0-0.082,0.02-0.148,0.058
					c-0.158,0.093-0.355,0.14-0.592,0.14c-0.323,0-0.604-0.126-0.842-0.378s-0.357-0.548-0.357-0.888c0-0.361,0.137-0.679,0.41-0.953
					c0.274-0.274,0.605-0.411,0.995-0.411c0.471,0,0.874,0.183,1.208,0.547s0.501,0.864,0.501,1.5c0,0.783-0.237,1.479-0.711,2.087
					S501.681,450.451,500.75,450.736z"/>
				<path class="st1" d="M504.637,448.015v-0.229c0.91-0.208,1.681-0.516,2.313-0.921s1.135-0.906,1.504-1.504
					c0.37-0.597,0.629-1.284,0.777-2.062c-0.34,0.175-0.629,0.297-0.867,0.365c-0.238,0.069-0.489,0.104-0.752,0.104
					c-0.844,0-1.547-0.305-2.108-0.913c-0.562-0.607-0.842-1.44-0.842-2.498c0-0.734,0.151-1.406,0.456-2.018
					c0.304-0.611,0.738-1.085,1.303-1.422c0.563-0.337,1.15-0.505,1.759-0.505c0.651,0,1.268,0.186,1.849,0.559
					c0.581,0.372,1.044,0.912,1.389,1.619c0.346,0.706,0.519,1.512,0.519,2.416c0,1.173-0.281,2.296-0.843,3.369
					c-0.562,1.074-1.398,1.936-2.511,2.585S506.154,447.961,504.637,448.015z M509.354,442.608c0.055-0.613,0.082-1.153,0.082-1.619
					c0-0.997-0.115-1.926-0.345-2.786c-0.132-0.477-0.326-0.827-0.584-1.052c-0.137-0.12-0.314-0.181-0.534-0.181
					c-0.273,0-0.487,0.117-0.641,0.354c-0.214,0.323-0.32,0.939-0.32,1.849c0,1.518,0.181,2.564,0.542,3.14
					c0.235,0.373,0.554,0.559,0.953,0.559C508.722,442.871,509.004,442.784,509.354,442.608z"/>
				<path class="st1" d="M513.135,440.101h3.214l1.947,4.767l1.948-4.767h3.131v0.305c-0.302,0.016-0.515,0.105-0.641,0.267
					c-0.127,0.162-0.189,0.451-0.189,0.867v4.774c0,0.434,0.059,0.731,0.177,0.896c0.118,0.164,0.336,0.255,0.653,0.271v0.305h-4.052
					v-0.305c0.34-0.005,0.578-0.096,0.715-0.271c0.137-0.176,0.206-0.475,0.206-0.896v-4.923l-2.68,6.395h-0.419l-2.597-6.304v4.964
					c0,0.356,0.06,0.613,0.181,0.772c0.12,0.159,0.355,0.247,0.706,0.263v0.305h-2.301v-0.305c0.307-0.011,0.524-0.097,0.653-0.259
					c0.129-0.161,0.193-0.439,0.193-0.834v-4.906c0-0.378-0.063-0.647-0.189-0.81c-0.126-0.161-0.345-0.251-0.657-0.267V440.101z"/>
				<path class="st1" d="M530.969,447.786h-6.558v-0.181c2.01-2.395,3.23-4.006,3.661-4.833c0.43-0.827,0.645-1.636,0.645-2.424
					c0-0.575-0.178-1.054-0.534-1.435c-0.355-0.381-0.791-0.571-1.307-0.571c-0.844,0-1.498,0.422-1.964,1.266l-0.304-0.106
					c0.295-1.052,0.744-1.83,1.348-2.334c0.603-0.504,1.298-0.756,2.087-0.756c0.564,0,1.079,0.131,1.545,0.394
					c0.466,0.264,0.83,0.624,1.094,1.081c0.263,0.458,0.395,0.887,0.395,1.286c0,0.729-0.203,1.469-0.608,2.219
					c-0.554,1.014-1.762,2.428-3.624,4.241h2.407c0.592,0,0.977-0.024,1.155-0.074c0.178-0.049,0.324-0.133,0.439-0.251
					c0.115-0.117,0.266-0.365,0.452-0.743h0.296L530.969,447.786z"/>
			</g>
			<rect x="469.036" y="431.067" class="st1" width="69" height="2.333"/>
		</g>
	</g>
	<g id="_47" data-name="47" class="one-flat svg-item">
		<path class="st2" d="M489.473,487.634h33.943v1.234l48.042-0.078l24.779-8.939l-0.656-1.556l5.663-2.172l-0.176-0.599l1.035-0.413
			l37.126,107.841l-29.895,10.178l0-1.115l-28.25,0.062l-0.031,2.352H517.26l-0.156-2.452l-23.417,0.083l-0.031-32.663h-3.333
			l-0.101-5.491l-4.8,0.012c0,0-2.606-0.523-4.376-1.565s-2.2-1.977-2.2-1.977l7.655-12.185h3.292L489.473,487.634z"/>
		<g>
			<rect x="518.973" y="539.589" class="st1" width="69" height="2.333"/>
			<g>
				<path class="st1" d="M530.143,523.627h5.219l-0.83,2.12h-4.389l-0.419,1.109c1.89,0.071,3.345,0.543,4.363,1.414
					c0.839,0.718,1.258,1.61,1.258,2.679c0,0.686-0.194,1.355-0.583,2.01c-0.39,0.655-0.938,1.159-1.645,1.513
					c-0.706,0.353-1.481,0.529-2.325,0.529c-0.91,0-1.608-0.17-2.096-0.509c-0.34-0.241-0.51-0.516-0.51-0.822
					c0-0.235,0.089-0.443,0.268-0.625c0.178-0.181,0.385-0.271,0.62-0.271c0.214,0,0.43,0.044,0.649,0.131
					c0.219,0.088,0.594,0.318,1.126,0.69c0.334,0.23,0.621,0.39,0.862,0.477c0.17,0.066,0.362,0.099,0.575,0.099
					c0.449,0,0.832-0.164,1.146-0.493c0.315-0.328,0.473-0.723,0.473-1.183c0-0.965-0.481-1.748-1.446-2.351
					c-0.964-0.603-2.181-0.904-3.648-0.904c-0.148,0-0.37,0.003-0.666,0.008L530.143,523.627z"/>
				<path class="st1" d="M541.196,531.755h-4.791v-1.701h4.791V531.755z"/>
				<path class="st1" d="M542.018,530.571l5.293-7.174h1.003v7.174h1.019v1.701h-1.019v2.499h-2.26v-2.499h-4.036V530.571z
					 M542.815,530.571h3.238v-4.396L542.815,530.571z"/>
				<path class="st1" d="M552.998,535.001l3.032-9.196h-2.31c-0.904,0-1.583,0.118-2.038,0.354c-0.317,0.164-0.581,0.475-0.789,0.929
					h-0.312l0.806-3.46h6.641l-3.739,11.374H552.998z"/>
				<path class="st1" d="M563.633,531.755h-4.791v-1.701h4.791V531.755z"/>
				<path class="st1" d="M569.517,523.397v9.113c0,0.686,0.03,1.122,0.091,1.312c0.06,0.188,0.186,0.344,0.378,0.464
					c0.191,0.121,0.498,0.181,0.92,0.181h0.255v0.305h-5.868v-0.305h0.296c0.477,0,0.816-0.055,1.02-0.164
					c0.202-0.109,0.34-0.26,0.411-0.452c0.07-0.191,0.106-0.638,0.106-1.34v-5.777c0-0.515-0.024-0.837-0.074-0.966
					c-0.049-0.128-0.141-0.238-0.275-0.328c-0.134-0.091-0.289-0.136-0.464-0.136c-0.279,0-0.619,0.088-1.02,0.263l-0.147-0.296
					l4.101-1.873H569.517z"/>
				<path class="st1" d="M573.33,526.799v-3.428h0.305c0.06,0.395,0.211,0.592,0.451,0.592c0.11,0,0.302-0.055,0.576-0.164
					c0.729-0.285,1.424-0.428,2.087-0.428c1.14,0,2.021,0.282,2.643,0.847c0.621,0.564,0.933,1.214,0.933,1.948
					c0,0.345-0.078,0.694-0.234,1.048c-0.156,0.353-0.419,0.674-0.789,0.961c-0.37,0.288-0.963,0.538-1.779,0.752
					c1.189,0.197,2.024,0.58,2.507,1.146c0.482,0.567,0.724,1.177,0.724,1.829c0,0.564-0.166,1.094-0.498,1.59
					c-0.331,0.496-0.811,0.875-1.438,1.139c-0.628,0.263-1.421,0.395-2.38,0.395c-0.926,0-1.658-0.126-2.198-0.378
					s-1.023-0.666-1.45-1.241l0.345-0.346c0.762,0.822,1.562,1.233,2.4,1.233c0.69,0,1.233-0.224,1.631-0.67s0.596-1.029,0.596-1.747
					c0-0.548-0.126-1.022-0.378-1.426c-0.252-0.402-0.556-0.668-0.912-0.797s-0.885-0.201-1.586-0.218v-0.724
					c0.191,0.006,0.351,0.009,0.477,0.009c0.767,0,1.311-0.213,1.631-0.637c0.321-0.425,0.481-1.045,0.481-1.862
					c0-0.777-0.165-1.335-0.493-1.672c-0.329-0.337-0.718-0.506-1.167-0.506c-0.608,0-1.103,0.24-1.483,0.72
					s-0.594,1.157-0.637,2.034H573.33z"/>
			</g>
			<g>
				<path class="st1" d="M536.068,551.886v-0.287c0.625-0.182,1.058-0.35,1.299-0.506s0.449-0.395,0.624-0.715
					c0.176-0.32,0.264-0.646,0.264-0.974c0-0.455-0.166-0.846-0.497-1.172c-0.332-0.325-0.744-0.488-1.237-0.488
					c-0.767,0-1.419,0.405-1.956,1.216l-0.304-0.106c0.395-0.915,0.899-1.603,1.516-2.063c0.617-0.46,1.303-0.689,2.06-0.689
					c0.772,0,1.409,0.235,1.91,0.706c0.502,0.472,0.752,1.022,0.752,1.652c0,0.411-0.116,0.807-0.349,1.188
					c-0.233,0.381-0.599,0.716-1.098,1.007c0.641,0.312,1.13,0.697,1.467,1.154c0.337,0.458,0.506,1.031,0.506,1.722
					c0,1.162-0.421,2.149-1.262,2.963s-1.969,1.221-3.382,1.221c-0.942,0-1.63-0.156-2.062-0.469
					c-0.312-0.219-0.469-0.501-0.469-0.847c0-0.252,0.091-0.467,0.271-0.645c0.181-0.179,0.389-0.268,0.624-0.268
					c0.181,0,0.351,0.038,0.51,0.115c0.088,0.044,0.398,0.283,0.933,0.719s1.034,0.653,1.5,0.653c0.405,0,0.753-0.16,1.044-0.48
					c0.29-0.32,0.436-0.728,0.436-1.221c0-0.75-0.263-1.442-0.789-2.075S537.082,552.128,536.068,551.886z"/>
				<path class="st1" d="M547.73,551.179c0.783,0.575,1.327,1.111,1.631,1.607c0.305,0.495,0.456,1.063,0.456,1.705
					c0,0.898-0.338,1.659-1.015,2.28c-0.677,0.622-1.596,0.933-2.757,0.933c-1.102,0-1.954-0.271-2.557-0.813
					c-0.603-0.542-0.903-1.205-0.903-1.988c0-0.598,0.174-1.121,0.521-1.57s0.928-0.859,1.738-1.232
					c-0.882-0.674-1.448-1.225-1.697-1.652c-0.249-0.427-0.374-0.923-0.374-1.487c0-0.745,0.316-1.401,0.949-1.968
					c0.633-0.567,1.5-0.851,2.602-0.851c1.062,0,1.881,0.25,2.453,0.752c0.572,0.501,0.858,1.103,0.858,1.804
					c0,0.525-0.154,0.99-0.464,1.393C548.863,550.494,548.382,550.856,547.73,551.179z M545.462,552.495
					c-0.17,0.153-0.29,0.293-0.361,0.419c-0.109,0.192-0.208,0.472-0.296,0.838c-0.088,0.367-0.132,0.751-0.132,1.151
					c0,0.515,0.066,0.946,0.197,1.294c0.132,0.348,0.319,0.599,0.563,0.752c0.243,0.153,0.494,0.23,0.752,0.23
					c0.399,0,0.736-0.146,1.011-0.439c0.273-0.294,0.411-0.695,0.411-1.204C547.607,554.472,546.892,553.459,545.462,552.495z
					 M547.105,550.76c0.203-0.273,0.354-0.58,0.452-0.92s0.148-0.713,0.148-1.118c0-0.712-0.154-1.257-0.461-1.636
					c-0.229-0.29-0.548-0.436-0.953-0.436c-0.367,0-0.68,0.133-0.937,0.399c-0.258,0.266-0.387,0.596-0.387,0.99
					c0,0.399,0.144,0.814,0.432,1.245C545.688,549.715,546.257,550.208,547.105,550.76z"/>
				<path class="st1" d="M551.248,560.425v-0.361c0.635-0.274,1.097-0.629,1.385-1.064c0.287-0.436,0.432-0.881,0.432-1.336
					c0-0.093-0.02-0.164-0.058-0.213c-0.039-0.044-0.077-0.066-0.115-0.066c-0.033,0-0.082,0.02-0.148,0.058
					c-0.158,0.093-0.355,0.14-0.592,0.14c-0.323,0-0.604-0.126-0.842-0.378s-0.357-0.548-0.357-0.888c0-0.361,0.137-0.679,0.41-0.953
					c0.274-0.274,0.605-0.411,0.995-0.411c0.471,0,0.874,0.183,1.208,0.547s0.501,0.864,0.501,1.5c0,0.783-0.237,1.479-0.711,2.087
					S552.179,560.14,551.248,560.425z"/>
				<path class="st1" d="M557.601,557.705l3.032-9.196h-2.309c-0.904,0-1.584,0.118-2.038,0.354
					c-0.318,0.164-0.581,0.475-0.789,0.929h-0.312l0.806-3.46h6.64l-3.739,11.374H557.601z"/>
				<path class="st1" d="M563.633,549.791h3.214l1.947,4.767l1.948-4.767h3.131v0.305c-0.302,0.016-0.515,0.105-0.641,0.267
					c-0.127,0.162-0.189,0.451-0.189,0.867v4.774c0,0.434,0.059,0.731,0.177,0.896c0.118,0.164,0.336,0.255,0.653,0.271v0.305h-4.052
					v-0.305c0.34-0.005,0.578-0.096,0.715-0.271c0.137-0.176,0.206-0.475,0.206-0.896v-4.923l-2.68,6.395h-0.419l-2.597-6.304v4.964
					c0,0.356,0.06,0.613,0.181,0.772c0.12,0.159,0.355,0.247,0.706,0.263v0.305h-2.301v-0.305c0.307-0.011,0.524-0.097,0.653-0.259
					c0.129-0.161,0.193-0.439,0.193-0.834v-4.906c0-0.378-0.063-0.647-0.189-0.81c-0.126-0.161-0.345-0.251-0.657-0.267V549.791z"/>
				<path class="st1" d="M581.467,557.475h-6.558v-0.181c2.01-2.395,3.23-4.006,3.661-4.833c0.43-0.827,0.645-1.636,0.645-2.424
					c0-0.575-0.178-1.054-0.534-1.435c-0.355-0.381-0.791-0.571-1.307-0.571c-0.844,0-1.498,0.422-1.964,1.266l-0.304-0.106
					c0.295-1.052,0.744-1.83,1.348-2.334c0.603-0.504,1.298-0.756,2.087-0.756c0.564,0,1.079,0.131,1.545,0.394
					c0.466,0.264,0.83,0.624,1.094,1.081c0.263,0.458,0.395,0.887,0.395,1.286c0,0.729-0.203,1.469-0.608,2.219
					c-0.554,1.014-1.762,2.428-3.624,4.241h2.407c0.592,0,0.977-0.024,1.155-0.074c0.178-0.049,0.324-0.133,0.439-0.251
					c0.115-0.117,0.266-0.365,0.452-0.743h0.296L581.467,557.475z"/>
			</g>
		</g>
	</g>
	<g id="_48" data-name="48" class="two-flat svg-item">
		<path class="st0" d="M493.457,600.687l0.042,33h-3.5v12.083h-3.667l-7.542,12.542c0,0,0.917,0.917,2.125,1.542
			s3.458,1.375,4.25,1.417c0.792,0.042,4.75,0,4.75,0v40.042h11.792v35.792h27.833v5.333h163.167l-38.062-110.937l1.438-0.313
			l-15.75-44.5l-31.188,11.375l-0.125,2.75l-28.125-0.187l0.188-2.563H517.02v2.5L493.457,600.687z"/>
		<g>
			<g>
				<path class="st1" d="M552.737,659.205h5.219l-0.83,2.12h-4.389l-0.419,1.109c1.89,0.071,3.345,0.542,4.363,1.413
					c0.839,0.719,1.258,1.611,1.258,2.68c0,0.685-0.194,1.354-0.583,2.01c-0.39,0.654-0.938,1.158-1.645,1.512
					c-0.706,0.354-1.481,0.53-2.325,0.53c-0.91,0-1.608-0.17-2.096-0.51c-0.34-0.241-0.51-0.515-0.51-0.821
					c0-0.236,0.089-0.444,0.268-0.625c0.178-0.181,0.385-0.271,0.62-0.271c0.214,0,0.43,0.044,0.649,0.132
					c0.219,0.088,0.594,0.317,1.126,0.69c0.334,0.229,0.621,0.389,0.862,0.477c0.17,0.065,0.362,0.099,0.575,0.099
					c0.449,0,0.832-0.164,1.146-0.493c0.315-0.329,0.473-0.724,0.473-1.184c0-0.964-0.481-1.748-1.446-2.351
					c-0.964-0.603-2.181-0.903-3.648-0.903c-0.148,0-0.37,0.002-0.666,0.008L552.737,659.205z"/>
				<path class="st1" d="M563.791,667.333H559v-1.701h4.791V667.333z"/>
				<path class="st1" d="M564.612,666.149l5.293-7.175h1.003v7.175h1.019v1.701h-1.019v2.498h-2.26v-2.498h-4.036V666.149z
					 M565.41,666.149h3.238v-4.397L565.41,666.149z"/>
				<path class="st1" d="M578.346,664.053c0.783,0.575,1.327,1.11,1.631,1.606c0.305,0.496,0.456,1.064,0.456,1.705
					c0,0.899-0.338,1.659-1.015,2.281s-1.596,0.933-2.757,0.933c-1.102,0-1.954-0.271-2.557-0.813
					c-0.603-0.543-0.903-1.205-0.903-1.989c0-0.597,0.174-1.12,0.521-1.569s0.928-0.86,1.738-1.233
					c-0.882-0.674-1.448-1.225-1.697-1.651c-0.249-0.428-0.374-0.923-0.374-1.487c0-0.745,0.316-1.401,0.949-1.969
					s1.5-0.851,2.602-0.851c1.062,0,1.881,0.251,2.453,0.752s0.858,1.103,0.858,1.804c0,0.526-0.154,0.99-0.464,1.394
					C579.479,663.367,578.997,663.73,578.346,664.053z M576.077,665.368c-0.17,0.154-0.29,0.294-0.361,0.42
					c-0.109,0.191-0.208,0.471-0.296,0.838s-0.132,0.751-0.132,1.15c0,0.516,0.066,0.946,0.197,1.295
					c0.132,0.348,0.319,0.599,0.563,0.752c0.243,0.153,0.494,0.229,0.752,0.229c0.399,0,0.736-0.146,1.011-0.439
					c0.273-0.293,0.411-0.694,0.411-1.204C578.223,667.346,577.507,666.333,576.077,665.368z M577.721,663.634
					c0.203-0.274,0.354-0.581,0.452-0.921s0.148-0.712,0.148-1.117c0-0.713-0.154-1.258-0.461-1.636
					c-0.229-0.29-0.548-0.436-0.953-0.436c-0.367,0-0.68,0.133-0.937,0.398c-0.258,0.266-0.387,0.596-0.387,0.99
					c0,0.4,0.144,0.815,0.432,1.245C576.304,662.589,576.872,663.081,577.721,663.634z"/>
				<path class="st1" d="M586.228,667.333h-4.791v-1.701h4.791V667.333z"/>
				<path class="st1" d="M593.599,670.348h-6.558v-0.181c2.01-2.395,3.23-4.005,3.661-4.832c0.43-0.827,0.645-1.636,0.645-2.425
					c0-0.575-0.178-1.053-0.534-1.434c-0.355-0.381-0.791-0.571-1.307-0.571c-0.844,0-1.498,0.422-1.964,1.266l-0.304-0.107
					c0.295-1.052,0.744-1.83,1.348-2.334c0.603-0.504,1.298-0.756,2.087-0.756c0.564,0,1.079,0.132,1.545,0.395
					s0.83,0.623,1.094,1.081c0.263,0.457,0.395,0.886,0.395,1.286c0,0.729-0.203,1.468-0.608,2.219
					c-0.554,1.014-1.762,2.427-3.624,4.24h2.407c0.592,0,0.977-0.024,1.155-0.073c0.178-0.05,0.324-0.133,0.439-0.251
					s0.266-0.366,0.452-0.744h0.296L593.599,670.348z"/>
				<path class="st1" d="M595.383,659.205h9.829v3.024h-0.304c-0.132-0.745-0.301-1.271-0.506-1.578s-0.456-0.504-0.752-0.592
					s-0.882-0.132-1.759-0.132h-2.269v8.662c0,0.625,0.092,1.023,0.275,1.196s0.52,0.259,1.007,0.259h0.288v0.304h-5.811v-0.304
					h0.312c0.481,0,0.811-0.092,0.985-0.275c0.176-0.184,0.264-0.576,0.264-1.18v-7.692c0-0.504-0.073-0.861-0.218-1.072
					c-0.146-0.211-0.476-0.316-0.99-0.316h-0.354V659.205z"/>
			</g>
			<g>
				<path class="st1" d="M564.08,681.678v0.229c-0.992,0.252-1.788,0.577-2.388,0.975c-0.6,0.396-1.074,0.879-1.422,1.446
					s-0.618,1.27-0.81,2.108c0.241-0.165,0.441-0.271,0.6-0.321c0.356-0.109,0.716-0.164,1.077-0.164
					c0.833,0,1.527,0.303,2.083,0.908c0.557,0.605,0.834,1.431,0.834,2.478c0,0.734-0.15,1.408-0.452,2.021
					c-0.301,0.614-0.729,1.088-1.281,1.422c-0.554,0.334-1.146,0.502-1.775,0.502c-0.686,0-1.318-0.188-1.898-0.563
					c-0.581-0.375-1.034-0.925-1.36-1.647s-0.489-1.51-0.489-2.359c0-1.248,0.301-2.412,0.9-3.488s1.452-1.934,2.556-2.572
					C561.358,682.013,562.633,681.689,564.08,681.678z M559.354,687.102c-0.044,0.757-0.066,1.31-0.066,1.66
					c0,0.757,0.073,1.487,0.218,2.194c0.146,0.707,0.344,1.203,0.596,1.487c0.182,0.203,0.395,0.304,0.642,0.304
					c0.252,0,0.477-0.146,0.674-0.439s0.296-0.889,0.296-1.787c0-1.512-0.184-2.557-0.551-3.131
					c-0.235-0.373-0.554-0.559-0.953-0.559C559.989,686.832,559.705,686.922,559.354,687.102z"/>
				<path class="st1" d="M565.106,693.283v-0.23c0.91-0.208,1.681-0.516,2.313-0.92c0.633-0.406,1.135-0.907,1.504-1.504
					c0.37-0.598,0.629-1.285,0.777-2.063c-0.34,0.175-0.629,0.298-0.867,0.366s-0.489,0.103-0.752,0.103
					c-0.844,0-1.547-0.304-2.108-0.913c-0.562-0.607-0.842-1.44-0.842-2.498c0-0.734,0.151-1.406,0.456-2.018
					c0.304-0.611,0.738-1.084,1.303-1.422c0.563-0.336,1.15-0.505,1.759-0.505c0.651,0,1.268,0.187,1.849,0.559
					s1.044,0.912,1.389,1.619c0.346,0.706,0.519,1.513,0.519,2.416c0,1.173-0.281,2.296-0.843,3.37
					c-0.562,1.073-1.398,1.936-2.511,2.584C567.939,692.876,566.624,693.228,565.106,693.283z M569.824,687.875
					c0.055-0.613,0.082-1.153,0.082-1.619c0-0.997-0.115-1.926-0.345-2.785c-0.132-0.477-0.326-0.828-0.584-1.053
					c-0.137-0.12-0.314-0.181-0.534-0.181c-0.273,0-0.487,0.118-0.641,0.354c-0.214,0.323-0.32,0.939-0.32,1.849
					c0,1.518,0.181,2.564,0.542,3.14c0.235,0.373,0.554,0.56,0.953,0.56C569.191,688.138,569.474,688.05,569.824,687.875z"/>
				<path class="st1" d="M573.843,696.003v-0.361c0.636-0.274,1.098-0.629,1.385-1.064c0.288-0.436,0.432-0.881,0.432-1.335
					c0-0.094-0.02-0.165-0.058-0.214c-0.038-0.044-0.077-0.065-0.115-0.065c-0.032,0-0.082,0.019-0.147,0.057
					c-0.159,0.094-0.356,0.141-0.592,0.141c-0.323,0-0.604-0.127-0.843-0.379s-0.357-0.547-0.357-0.887
					c0-0.362,0.137-0.68,0.411-0.954c0.273-0.274,0.605-0.411,0.994-0.411c0.472,0,0.874,0.183,1.208,0.547
					c0.335,0.364,0.502,0.864,0.502,1.5c0,0.783-0.237,1.479-0.711,2.088C575.477,695.271,574.774,695.718,573.843,696.003z"/>
				<path class="st1" d="M580.196,693.283l3.032-9.197h-2.31c-0.904,0-1.583,0.118-2.038,0.354c-0.317,0.164-0.581,0.475-0.789,0.93
					h-0.312l0.806-3.461h6.641l-3.739,11.375H580.196z"/>
				<path class="st1" d="M586.229,685.369h3.213l1.948,4.766l1.947-4.766h3.131v0.304c-0.301,0.017-0.515,0.105-0.641,0.267
					c-0.126,0.162-0.189,0.451-0.189,0.867v4.775c0,0.433,0.06,0.73,0.177,0.896c0.118,0.164,0.336,0.255,0.653,0.271v0.305h-4.051
					v-0.305c0.339-0.005,0.577-0.096,0.715-0.271c0.137-0.175,0.205-0.474,0.205-0.896v-4.924l-2.679,6.395h-0.42l-2.597-6.304v4.964
					c0,0.356,0.061,0.613,0.181,0.773c0.121,0.158,0.356,0.246,0.707,0.262v0.305h-2.301v-0.305c0.307-0.01,0.524-0.097,0.653-0.258
					c0.128-0.162,0.192-0.439,0.192-0.834v-4.907c0-0.378-0.062-0.647-0.188-0.81c-0.126-0.161-0.346-0.25-0.657-0.267V685.369z"/>
				<path class="st1" d="M604.062,693.052h-6.559v-0.181c2.011-2.395,3.231-4.005,3.661-4.833c0.431-0.826,0.646-1.635,0.646-2.424
					c0-0.575-0.179-1.053-0.534-1.434c-0.356-0.381-0.792-0.572-1.307-0.572c-0.844,0-1.499,0.422-1.965,1.266l-0.304-0.106
					c0.296-1.052,0.745-1.83,1.348-2.334s1.299-0.756,2.088-0.756c0.564,0,1.079,0.132,1.545,0.394
					c0.466,0.264,0.83,0.624,1.093,1.082c0.263,0.457,0.395,0.886,0.395,1.285c0,0.729-0.203,1.469-0.608,2.219
					c-0.553,1.014-1.761,2.428-3.624,4.241h2.408c0.592,0,0.977-0.024,1.154-0.073c0.178-0.05,0.325-0.133,0.439-0.252
					c0.115-0.117,0.267-0.365,0.452-0.743h0.296L604.062,693.052z"/>
			</g>
			<rect x="542.305" y="674.928" class="st1" width="69" height="2.333"/>
		</g>
	</g>
</svg>
