<?xml version="1.0" encoding="utf-8"?>
<!-- Generator: Adobe Illustrator 21.0.1, SVG Export Plug-In . SVG Version: 6.00 Build 0)  -->
<svg version="1.1" xmlns="http://www.w3.org/2000/svg" xmlns:xlink="http://www.w3.org/1999/xlink" x="0px" y="0px"
	 viewBox="0 0 356 104.6666641" style="enable-background:new 0 0 356 104.6666641;" xml:space="preserve">
<style type="text/css">
	.st0{opacity:0.2;}
	.st1{fill:#D3D3D3;stroke:#D8D8D8;stroke-width:2;}
	.st2{display:none;}
	.st3{display:inline;opacity:0.3;}
</style>
<g id="Слой_1">
	<g class="st0">
		<path class="st1" d="M32.7224922,10.4798174h1.4711914v33.4277344h-1.4711914V31.1604824H9.8133135v12.7470684H8.3426104
			V10.4798174h1.4707031v19.3881836h22.9091797V10.4798174z"/>
		<path class="st1" d="M44.8230782,39.2278633c-3.3725586-3.4765625-5.0585938-7.5395489-5.0585938-12.1904278
			c0-4.6499023,1.7084961-8.6757813,5.1254883-12.078126c3.4165039-3.4023438,7.5170898-5.1035156,12.3017578-5.1035156
			c4.7832031,0,8.8691444,1.6938477,12.2568398,5.0810547c3.387207,3.387208,5.0810547,7.4208994,5.0810547,12.1005869
			c0,4.6801758-1.6791992,8.7514629-5.0366211,12.2124004c-3.3583984,3.4619141-7.3696327,5.1923828-12.0341835,5.1923828h-0.668457
			C52.1844063,44.4422188,48.1951485,42.7039375,44.8230782,39.2278633z M73.0584335,27.126791
			c0-4.3823242-1.5527344-8.1411133-4.6572266-11.2763681c-3.1054688-3.1342773-6.8496132-4.7021484-11.2319374-4.7021484
			c-4.3833008,0-8.1342773,1.5678711-11.2539063,4.7021484c-3.1201172,3.1352549-4.6801758,6.8940439-4.6801758,11.2763681
			c0,4.3833008,1.5600586,8.1494122,4.6801758,11.2988262c3.1196289,3.1494141,6.8637695,4.7241211,11.2314453,4.7241211
			c4.3681641,0,8.1118202-1.574707,11.2319374-4.7241211C71.4983749,35.2762032,73.0584335,31.5100918,73.0584335,27.126791z"/>
		<path class="st1" d="M80.1004257,10.4798174h1.4262695c1.9311523,0,3.550293,0.6015625,4.8583984,1.8051758
			c1.3071289,1.203125,1.9609375,2.7407227,1.9609375,4.6127939c0,1.1298828-0.3642578,2.2807617-1.0922852,3.4541016
			c-0.7280273,1.1743164-1.5820313,1.9389648-2.5625,2.2954102c2.2875977,0.5649414,4.1894531,1.7832031,5.7050781,3.6547852
			c1.5151367,1.8720703,2.2729492,4.2275391,2.2729492,7.0644512c0,2.8378906-1.0849609,5.3041992-3.253418,7.3989258
			c-2.1694336,2.0947266-4.7993164,3.1420898-7.8891602,3.1420898h-1.4262695V10.4798174z M81.5266953,11.7278643v10.5185556
			h0.3564453c1.3374023,0,2.5185547-0.5419922,3.543457-1.6269531c1.0249023-1.0844727,1.5375977-2.3320313,1.5375977-3.7436523
			c0-1.4111338-0.5053711-2.6220713-1.5151367-3.6328135c-1.0107422-1.0097656-2.1992188-1.5151367-3.565918-1.5151367H81.5266953z
			 M81.5266953,23.4495449v19.209959h0.3564453c2.5551758,0,4.7617188-0.9506836,6.6186523-2.8525391
			c1.8569336-1.9008789,2.7856445-4.159668,2.7856445-6.7744141s-0.9213867-4.8652325-2.7631836-6.7524395
			c-1.8427734-1.8867188-4.0561523-2.8305664-6.6411133-2.8305664H81.5266953z"/>
		<path class="st1" d="M101.5159531,39.2278633c-3.3725586-3.4765625-5.0585938-7.5395489-5.0585938-12.1904278
			c0-4.6499023,1.7084961-8.6757813,5.1254883-12.078126c3.4165039-3.4023438,7.5170898-5.1035156,12.3017578-5.1035156
			c4.7832031,0,8.8691406,1.6938477,12.2568359,5.0810547c3.3871994,3.387208,5.0810471,7.4208994,5.0810471,12.1005869
			c0,4.6801758-1.6791992,8.7514629-5.0366135,12.2124004c-3.3583984,3.4619141-7.3696289,5.1923828-12.0341797,5.1923828h-0.668457
			C108.8772812,44.4422188,104.8880234,42.7039375,101.5159531,39.2278633z M129.751297,27.126791
			c0-4.3823242-1.5527344-8.1411133-4.6572189-11.2763681c-3.1054688-3.1342773-6.8496094-4.7021484-11.2319336-4.7021484
			c-4.3833008,0-8.1342773,1.5678711-11.2539063,4.7021484c-3.1201172,3.1352549-4.6801758,6.8940439-4.6801758,11.2763681
			c0,4.3833008,1.5600586,8.1494122,4.6801758,11.2988262c3.1196289,3.1494141,6.8637695,4.7241211,11.2314453,4.7241211
			c4.3681641,0,8.1118164-1.574707,11.2319336-4.7241211C128.1912384,35.2762032,129.751297,31.5100918,129.751297,27.126791z"/>
		<path class="st1" d="M136.7932892,10.4798174h1.4262695v12.2568369l14.1289063-12.2568369h1.7827148l-15.2875977,13.3266611
			l19.2099609,20.1010723h-1.9614258l-17.828125-18.5859356v18.5859356h-1.4707031V10.4798174z"/>
		<path class="st1" d="M163.3347931,39.2278633c-3.3725586-3.4765625-5.0585938-7.5395489-5.0585938-12.1904278
			c0-4.6499023,1.7084961-8.6757813,5.1254883-12.078126c3.4165039-3.4023438,7.5170898-5.1035156,12.3017578-5.1035156
			c4.7832031,0,8.8691406,1.6938477,12.2568359,5.0810547c3.387207,3.387208,5.0810547,7.4208994,5.0810547,12.1005869
			c0,4.6801758-1.6791992,8.7514629-5.0366211,12.2124004c-3.3583984,3.4619141-7.3696289,5.1923828-12.0341797,5.1923828h-0.668457
			C170.6961212,44.4422188,166.7068634,42.7039375,163.3347931,39.2278633z M191.5701447,27.126791
			c0-4.3823242-1.5527344-8.1411133-4.6572266-11.2763681c-3.1054688-3.1342773-6.8496094-4.7021484-11.2319336-4.7021484
			c-4.3833008,0-8.1342773,1.5678711-11.2539063,4.7021484c-3.1201172,3.1352549-4.6801758,6.8940439-4.6801758,11.2763681
			c0,4.3833008,1.5600586,8.1494122,4.6801758,11.2988262c3.1196289,3.1494141,6.8637695,4.7241211,11.2314453,4.7241211
			c4.3681641,0,8.1118164-1.574707,11.2319336-4.7241211C190.0100861,35.2762032,191.5701447,31.5100918,191.5701447,27.126791z"/>
		<path class="st1" d="M193.7097931,48.230793v-5.6157227h2.4511719l16.0898438-32.8930664l16.090332,32.8930664h2.1391602
			v5.6157227h-1.3818359v-4.3232422h-34.0961914v4.3232422H193.7097931z M212.1175079,12.7972002l-14.574707,29.8178711h29.2827148
			L212.1175079,12.7972002z"/>
		<path class="st1" d="M249.8235626,9.6775713l16.7133942,34.2299805h-1.5595703l-6.3291016-12.7470684h-17.8725739
			l-6.2397461,12.7470684h-1.3818359L249.8235626,9.6775713z M249.6897736,12.7527666l-8.3344727,17.1152344h16.758316
			L249.6897736,12.7527666z"/>
		<path class="st1" d="M294.1263123,43.9075508H270.993988V10.4798174h1.4707031v32.1352539h18.0512695V10.4798174h1.4707031
			v32.1352539h3.4326172v5.6157227h-1.2929688V43.9075508z"/>
		<path class="st1" d="M299.8763123,10.4798174h1.4707031v13.059083h0.4013672c2.4355469,0,4.7246094,1.0102539,6.8632813,3.0307617
			c2.1396484,2.0209961,3.2099609,4.3979492,3.2099609,7.1313457c0,2.7338867-1.0478516,5.1186523-3.1425781,7.1533203
			c-2.0947266,2.0356445-4.5390625,3.0532227-7.3320313,3.0532227h-1.4707031V10.4798174z M301.7034607,24.8313808h-0.3564453
			v17.7836895h0.3564453c2.2285156,0,4.2265625-0.8916016,5.9951172-2.6743164
			c1.7675781-1.7827148,2.6513672-3.8623047,2.6513672-6.2397461c0-2.3769512-0.8759766-4.4492168-2.6289063-6.2177715
			C305.9671326,25.7156582,303.9612732,24.8313808,301.7034607,24.8313808z"/>
		<path class="st1" d="M317.3919373,10.4798174h1.4257813v12.2568369l14.1289063-12.2568369h1.7832031l-15.2880859,13.3266611
			l19.2099609,20.1010723h-1.9609375l-17.828125-18.5859356v18.5859356h-1.4707031V10.4798174z"/>
		<path class="st1" d="M343.3313904,10.4798174h1.4707031v33.4277344h-1.4707031V10.4798174z"/>
		<path class="st1" d="M8.3426104,63.9641914h1.4262695c1.9311523,0,3.550293,0.6015663,4.8583984,1.8051796
			c1.3071289,1.203125,1.9609385,2.7407227,1.9609385,4.612793c0,1.1298828-0.3642578,2.2807617-1.0922861,3.4541016
			c-0.7280273,1.1743164-1.5820313,1.9389648-2.5625,2.2954102c2.2875977,0.5649414,4.1894541,1.7832031,5.7050791,3.6547852
			c1.5151367,1.8720703,2.2729492,4.2275391,2.2729492,7.0644531c0,2.8378906-1.0849609,5.3041992-3.253418,7.3989258
			c-2.1694345,2.0947266-4.7993174,3.1420898-7.8891611,3.1420898H8.3426104V63.9641914z M9.7688799,65.2122421v10.5185547
			h0.3564453c1.3374023,0,2.5185547-0.5419922,3.543457-1.6269531c1.0249023-1.0844727,1.5375977-2.3320313,1.5375977-3.7436523
			c0-1.4111328-0.5053711-2.6220703-1.5151367-3.6328125c-1.0107422-1.0097656-2.1992188-1.5151367-3.565918-1.5151367H9.7688799z
			 M9.7688799,76.9339218v19.2099609h0.3564453c2.5551758,0,4.7617188-0.9506836,6.6186533-2.8525391
			c1.8569336-1.9008789,2.7856445-4.159668,2.7856445-6.7744141s-0.9213867-4.8652344-2.7631836-6.7524414
			c-1.8427744-1.8867188-4.0561533-2.8305664-6.6411142-2.8305664H9.7688799z"/>
		<path class="st1" d="M37.8035469,65.2566757H27.2849941V83.441246h8.7802715v1.2924805h-8.7802715v11.3657227h10.5185528
			v1.2924805H25.814291V63.9641914h11.9892559V65.2566757z"/>
		<path class="st1" d="M58.6619453,63.9641914h1.4262695v12.0786171l11.0981483-12.0786171h1.6489258L60.6228828,77.2459335
			l18.0957069,20.1459961h-1.8271484L60.0882149,78.8059921v18.5859375h-1.4262695V78.8059921L41.9036446,97.3919296h-1.8720703
			L58.171711,77.2459335L45.9593086,63.9641914h1.6044922l11.0981445,12.0786171V63.9641914z"/>
		<path class="st1" d="M83.3982773,63.9641914h1.4711914v33.4277382h-1.4711914V63.9641914z"/>
	</g>
</g>
<g id="Слой_2" class="st2">
	<g class="st3">
		<path class="st1" d="M8.3426104,206.4798126h1.4262695c1.9311523,0,3.550293,0.6015625,4.8583984,1.8051758
			c1.3071289,1.203125,1.9609385,2.7407227,1.9609385,4.612793c0,1.1298828-0.3642578,2.2807617-1.0922861,3.4541016
			c-0.7280273,1.1743164-1.5820313,1.9389648-2.5625,2.2954102c2.2875977,0.5649414,4.1894541,1.7832031,5.7050791,3.6547852
			c1.5151367,1.8720703,2.2729492,4.2275391,2.2729492,7.0644531c0,2.8378906-1.0849609,5.3041992-3.253418,7.3989258
			c-2.1694345,2.0947266-4.7993174,3.1420898-7.8891611,3.1420898H8.3426104V206.4798126z M9.7688799,207.7278595v10.5185547
			h0.3564453c1.3374023,0,2.5185547-0.5419922,3.543457-1.6269531c1.0249023-1.0844727,1.5375977-2.3320313,1.5375977-3.7436523
			c0-1.4111328-0.5053711-2.6220703-1.5151367-3.6328125c-1.0107422-1.0097656-2.1992188-1.5151367-3.565918-1.5151367H9.7688799z
			 M9.7688799,219.4495392v19.2099609h0.3564453c2.5551758,0,4.7617188-0.9506836,6.6186533-2.8525391
			c1.8569336-1.9008789,2.7856445-4.159668,2.7856445-6.7744141s-0.9213867-4.8652344-2.7631836-6.7524414
			c-1.8427744-1.8867188-4.0561533-2.8305664-6.6411142-2.8305664H9.7688799z"/>
		<path class="st1" d="M55.4085274,212.5857697c0,2.4960938-1.1889648,4.4277344-3.5654297,5.7944336
			c2.4067383,0.534668,4.3901367,1.8793945,5.949707,4.0336914c1.5600586,2.1542969,2.340332,4.4946289,2.340332,7.0195313
			c0,3.0307617-1.1142578,5.6313477-3.3427734,7.7998047c-2.2285156,2.1694336-4.918457,3.2539063-8.0673828,3.2539063
			c-1.9018555,0-3.6625977-0.4238281-5.2817383-1.2705078c-1.6196289-0.8466797-2.8901367-2.027832-3.8105469-3.543457v-2.4956055
			c0.8022461,1.7827148,2.0126953,3.2314453,3.6323242,4.3457031c1.6191406,1.1142578,3.4541016,1.6713867,5.5043945,1.6713867
			c2.7036133,0,5.0288086-0.965332,6.9755859-2.8974609c1.9458008-1.9311523,2.9189453-4.2563477,2.9189453-6.9750977
			s-0.9580078-5.0732422-2.8745117-7.0644531c-1.9165039-1.9902344-4.2563477-2.9863281-7.0200195-2.9863281h-1.6933594v-1.2480469
			h1.4262695c1.5151367,0,2.800293-0.534668,3.8549805-1.6044922c1.0546875-1.0693359,1.5825195-2.3466797,1.5825195-3.8330078
			c0-1.4853516-0.527832-2.7553711-1.5825195-3.8105469c-1.0546875-1.0546875-2.2661133-1.5825195-3.6323242-1.5825195
			c-1.3671875,0-2.5556641,0.3422852-3.5654297,1.0253906c-1.0107422,0.6835938-1.6938477,1.5751953-2.050293,2.6743164v-2.3178711
			c1.3369141-1.7827148,3.0454102-2.6743164,5.1254883-2.6743164c2.0795898,0,3.7954102,0.6538086,5.1479492,1.9614258
			C54.7322578,209.1692657,55.4085274,210.7439728,55.4085274,212.5857697z"/>
		<path class="st1" d="M77.2473984,207.7722931H66.7288437v18.1845703h8.7802734v1.2924805h-8.7802734v11.3657227h10.5185547
			v1.2924805H65.2581406v-33.4277344h11.9892578V207.7722931z"/>
		<path class="st1" d="M96.1004257,205.7220001l16.6245117,34.1855469h-1.6044922l-15.1538086-30.9765625L80.9016953,239.907547
			h-1.4262695L96.1004257,205.7220001z"/>
		<path class="st1" d="M129.1707306,207.7722931h-10.5185471v18.1845703h8.7802734v1.2924805h-8.7802734v11.3657227h10.5185471
			v1.2924805h-11.9892502v-33.4277344h11.9892502V207.7722931z"/>
		<path class="st1" d="M158.0071564,206.4798126h1.4711914v33.4277344h-1.4711914v-12.7470703h-22.9091797v12.7470703h-1.4707031
			v-33.4277344h1.4707031v19.3881836h22.9091797V206.4798126z"/>
		<path class="st1" d="M170.1077423,235.2278595c-3.3725586-3.4765625-5.0585938-7.5395508-5.0585938-12.1904297
			c0-4.6499023,1.7084961-8.6757813,5.1254883-12.078125c3.4165039-3.4023438,7.5170898-5.1035156,12.3017578-5.1035156
			c4.7832031,0,8.8691406,1.6938477,12.2568359,5.0810547c3.387207,3.387207,5.0810547,7.4208984,5.0810547,12.1005859
			c0,4.6801758-1.6791992,8.7514648-5.0366211,12.2124023c-3.3583984,3.4619141-7.3696289,5.1923828-12.0341797,5.1923828h-0.668457
			C177.4690704,240.442215,173.4798126,238.7039337,170.1077423,235.2278595z M198.3430939,223.1267853
			c0-4.3823242-1.5527344-8.1411133-4.6572266-11.2763672c-3.1054688-3.1342773-6.8496094-4.7021484-11.2319336-4.7021484
			c-4.3833008,0-8.1342773,1.5678711-11.2539063,4.7021484c-3.1201172,3.1352539-4.6801758,6.894043-4.6801758,11.2763672
			c0,4.3833008,1.5600586,8.1494141,4.6801758,11.2988281c3.1196289,3.1494141,6.8637695,4.7241211,11.2314453,4.7241211
			c4.3681641,0,8.1118164-1.574707,11.2319336-4.7241211C196.7830353,231.2761993,198.3430939,227.5100861,198.3430939,223.1267853z
			"/>
		<path class="st1" d="M239.6595001,206.4798126v33.4277344h-1.4707031v-31.6894531l-15.777832,32.3134766l-15.6889648-32.3134766
			v31.6894531h-1.3369141v-33.4277344h2.1391602l15.0205078,30.8427734l15.0649414-30.8427734H239.6595001z"/>
		<path class="st1" d="M12.2869463,288.7122498c-3.3725586-3.4765625-5.0585933-7.5395508-5.0585933-12.1904297
			c0-4.6499023,1.7084956-8.6757813,5.1254878-12.078125c3.4165039-3.4023438,7.5170908-5.1035156,12.3017588-5.1035156
			c4.7832031,0,8.8691387,1.6938477,12.256834,5.0810547c3.387207,3.387207,5.0810547,7.4208984,5.0810547,12.1005859
			c0,4.6801758-1.6791992,8.7514648-5.0366211,12.2124023c-3.3583984,3.4619141-7.369627,5.1923828-12.0341778,5.1923828h-0.668457
			C19.6482754,293.9266052,15.6590166,292.188324,12.2869463,288.7122498z M40.5222969,276.6111755
			c0-4.3823242-1.5527344-8.1411133-4.6572266-11.2763672c-3.1054688-3.1342773-6.8496075-4.7021484-11.2319317-4.7021484
			c-4.3833008,0-8.1342773,1.5678711-11.2539072,4.7021484c-3.1201172,3.1352539-4.6801758,6.894043-4.6801758,11.2763672
			c0,4.3833008,1.5600586,8.1494141,4.6801758,11.2988281c3.1196299,3.1494141,6.8637705,4.7241211,11.2314463,4.7241211
			c4.3681641,0,8.1118145-1.574707,11.2319317-4.7241211C38.9622383,284.7605896,40.5222969,280.9944763,40.5222969,276.6111755z"/>
		<path class="st1" d="M58.8855782,259.1619568l16.713871,34.2299805h-1.5600586l-6.3291016-12.7470703H49.8377266
			l-6.2397461,12.7470703h-1.3818359L58.8855782,259.1619568z M58.7517891,262.2371521l-8.3344727,17.1152344H67.175621
			L58.7517891,262.2371521z"/>
		<path class="st1" d="M94.0511093,266.0701599c0,2.4960938-1.1889648,4.4277344-3.5654297,5.7944336
			c2.4067383,0.534668,4.3901367,1.8793945,5.949707,4.0336914c1.5600586,2.1542969,2.340332,4.4946289,2.340332,7.0195313
			c0,3.0307617-1.1142578,5.6313477-3.3427734,7.7998047c-2.2285156,2.1694336-4.918457,3.2539063-8.0673828,3.2539063
			c-1.9018555,0-3.6625977-0.4238281-5.2817383-1.2705078c-1.6196289-0.8466797-2.8901367-2.027832-3.8105469-3.543457v-2.4956055
			c0.8022461,1.7827148,2.0126953,3.2314453,3.6323242,4.3457031c1.6191406,1.1142578,3.4541016,1.6713867,5.5043945,1.6713867
			c2.7036133,0,5.0288086-0.965332,6.9755859-2.8974609c1.9458008-1.9311523,2.9189453-4.2563477,2.9189453-6.9750977
			s-0.9580078-5.0732422-2.8745117-7.0644531c-1.9165039-1.9902344-4.2563477-2.9863281-7.0200195-2.9863281h-1.6933594v-1.2480469
			h1.4262695c1.5151367,0,2.800293-0.534668,3.8549805-1.6044922c1.0546875-1.0693359,1.5825195-2.3466797,1.5825195-3.8330078
			c0-1.4853516-0.527832-2.7553711-1.5825195-3.8105469c-1.0546875-1.0546875-2.2661133-1.5825195-3.6323242-1.5825195
			c-1.3671875,0-2.5556641,0.3422852-3.5654297,1.0253906c-1.0107422,0.6835938-1.6938477,1.5751953-2.050293,2.6743164v-2.3178711
			c1.3369141-1.7827148,3.0454102-2.6743164,5.1254883-2.6743164c2.0795898,0,3.7954102,0.6538086,5.1479492,1.9614258
			C93.3748398,262.653656,94.0511093,264.228363,94.0511093,266.0701599z"/>
		<path class="st1" d="M130.0633087,259.9642029v33.4277344h-1.4707031v-31.3330078l-23.310051,31.3330078h-1.3818359v-33.4277344
			h1.4707031v31.2436523l23.2211838-31.2436523H130.0633087z"/>
		<path class="st1" d="M153.2400665,293.8821716h-0.4902344c-3.0610352,0-5.9135742-0.8022461-8.5576172-2.4067383
			c-2.6450195-1.6044922-4.7324219-3.7363281-6.262207-6.3959961c-1.5307617-2.6586914-2.2954102-5.4887695-2.2954102-8.4907227
			c0-4.7241211,1.7084961-8.7871094,5.1254883-12.1899414c3.4165039-3.4018555,7.5024414-5.1030273,12.2568359-5.1030273
			c3.1791992,0,6.1953125,0.8320313,9.0478516,2.4956055v1.6494141c-2.793457-1.9013672-5.8095703-2.8525391-9.0478516-2.8525391
			c-4.3676758,0-8.1118164,1.5673828-11.2314453,4.7021484c-3.1201172,3.1352539-4.6801758,6.8935547-4.6801758,11.2763672
			c0,4.3833008,1.5600586,8.1494141,4.6801758,11.2983398c3.1196289,3.1499023,6.8637695,4.7246094,11.2314453,4.7246094
			c3.2382813,0,6.2543945-0.9506836,9.0478516-2.8525391v1.6489258
			C159.360672,293.0506287,156.4192657,293.8821716,153.2400665,293.8821716z"/>
		<path class="st1" d="M178.9568634,261.2566833h-10.5185547v18.1845703h8.7802734v1.2924805h-8.7802734v11.3657227h10.5185547
			v1.2924805h-11.9892578v-33.4277344h11.9892578V261.2566833z"/>
	</g>
</g>
<g id="Слой_3" class="st2">
	<g class="st3">
		<path class="st1" d="M8.3430986,587.1467896h1.4262695v12.2568359l14.1289072-12.2568359h1.7827148l-15.2875986,13.3261719
			l19.2099609,20.1015625h-1.9614258l-17.828125-18.5859375v18.5859375H8.3430986V587.1467896z"/>
		<path class="st1" d="M34.8846016,615.8948364c-3.3725567-3.4765625-5.0585918-7.5400391-5.0585918-12.1904297
			s1.7084961-8.6757813,5.1254864-12.078125c3.4165039-3.4023438,7.5170898-5.1035156,12.3017578-5.1035156
			c4.7832031,0,8.8691406,1.6933594,12.2568359,5.0810547c3.387207,3.3867188,5.0810585,7.4208984,5.0810585,12.1005859
			s-1.679203,8.7509766-5.0366249,12.2119141c-3.3583984,3.4619141-7.3696289,5.1923828-12.0341797,5.1923828h-0.668457
			C42.2459297,621.1087036,38.2566719,619.3704224,34.8846016,615.8948364z M63.1199532,603.7932739
			c0-4.3818359-1.5527344-8.140625-4.6572266-11.2763672c-3.1054688-3.1337891-6.8496094-4.7021484-11.2319336-4.7021484
			c-4.3833008,0-8.1342773,1.5683594-11.2539063,4.7021484c-3.1201172,3.1357422-4.6801739,6.8945313-4.6801739,11.2763672
			c0,4.3837891,1.5600567,8.1494141,4.6801739,11.2988281c3.1196289,3.1494141,6.8637695,4.7246094,11.2314453,4.7246094
			c4.3681641,0,8.1118164-1.5751953,11.2319336-4.7246094C61.5598946,611.942688,63.1199532,608.177063,63.1199532,603.7932739z"/>
		<path class="st1" d="M104.4363632,587.1467896v33.4277344h-1.4707031v-31.6894531l-15.777832,32.3134766l-15.6889648-32.3134766
			v31.6894531h-1.3369141v-33.4277344h2.1391602l15.0205078,30.8427734l15.0649414-30.8427734H104.4363632z"/>
		<path class="st1" d="M125.9192734,621.6887817v-2.6748047h-0.3120117c-4.2495117,0-7.9111328-1.5224609-10.9863281-4.5683594
			c-3.0756836-3.0449219-4.6132813-6.6181641-4.6132813-10.71875s1.5375977-7.6435547,4.6132813-10.6298828
			c3.0751953-2.9863281,6.722168-4.4794922,10.9418945-4.4794922h0.3564453v-2.5849609h1.4707031v2.5849609h0.3120117
			c4.2490158,0,7.9111252,1.5224609,10.9868088,4.5683594c3.0751953,3.0458984,4.612793,6.6035156,4.612793,10.6748047
			s-1.5454102,7.6142578-4.6352539,10.6298828c-3.0908203,3.015625-6.7456055,4.5234375-10.9643478,4.5234375h-0.3120117v2.6748047
			H125.9192734z M125.6072617,617.8108521h0.3120117v-27.9902344h-0.3564453c-3.8330078,0-7.1391602,1.3818359-9.9169922,4.1455078
			c-2.7788086,2.7626953-4.1674805,6.0390625-4.1674805,9.8271484c0,3.7890625,1.3886719,7.0722656,4.1674805,9.8505859
			C118.4236679,616.4221802,121.7444687,617.8108521,125.6072617,617.8108521z M127.7469101,589.8206177h-0.3569336v27.9902344
			h0.3120117c3.8330002,0,7.153801-1.3818359,9.9614182-4.1445313c2.8081055-2.7636719,4.2119141-6.0322266,4.2119141-9.8056641
			s-1.4189453-7.0566406-4.2563477-9.8505859C134.7810822,591.2180786,131.4905548,589.8206177,127.7469101,589.8206177z"/>
		<path class="st1" d="M152.8167267,615.8948364c-3.3725586-3.4765625-5.0585938-7.5400391-5.0585938-12.1904297
			s1.7084961-8.6757813,5.1254883-12.078125c3.4165039-3.4023438,7.5170898-5.1035156,12.3017578-5.1035156
			c4.7832031,0,8.8691406,1.6933594,12.2568359,5.0810547c3.387207,3.3867188,5.0810547,7.4208984,5.0810547,12.1005859
			s-1.6791992,8.7509766-5.0366211,12.2119141c-3.3583984,3.4619141-7.3696289,5.1923828-12.0341797,5.1923828h-0.668457
			C160.1780548,621.1087036,156.188797,619.3704224,152.8167267,615.8948364z M181.0520782,603.7932739
			c0-4.3818359-1.5527344-8.140625-4.6572266-11.2763672c-3.1054688-3.1337891-6.8496094-4.7021484-11.2319336-4.7021484
			c-4.3833008,0-8.1342773,1.5683594-11.2539063,4.7021484c-3.1201172,3.1357422-4.6801758,6.8945313-4.6801758,11.2763672
			c0,4.3837891,1.5600586,8.1494141,4.6801758,11.2988281c3.1196289,3.1494141,6.8637695,4.7246094,11.2314453,4.7246094
			c4.3681641,0,8.1118164-1.5751953,11.2319336-4.7246094C179.4920197,611.942688,181.0520782,608.177063,181.0520782,603.7932739z"
			/>
		<path class="st1" d="M188.0935822,587.1467896h1.4707031c3.090332,0,5.7197266,1.0625,7.8891602,3.1865234
			c2.168457,2.125,3.253418,4.6279297,3.253418,7.5097656c0,2.8828125-1.121582,5.3642578-3.3647461,7.4433594
			c-2.2441406,2.0800781-4.7177734,3.1201172-7.4213867,3.1201172h-0.3564453v12.1679688h-1.4707031V587.1467896z
			 M189.5642853,607.1585083h0.3564453c2.4960938,0,4.6723633-0.9208984,6.5297852-2.7636719
			c1.8564453-1.8417969,2.7856445-4.0253906,2.7856445-6.5517578c0-2.5244141-0.9438477-4.7246094-2.8300781-6.5957031
			c-1.887207-1.8720703-4.0488281-2.8085938-6.4853516-2.8085938h-0.3564453V607.1585083z"/>
		<path class="st1" d="M220.8528595,587.1467896v1.2919922h-7.621582v32.1357422h-1.4711914v-32.1357422h-7.7104492v-1.2919922
			H220.8528595z"/>
		<path class="st1" d="M267.0706482,587.1467896v33.4277344h-1.4707031v-31.3330078l-23.3100739,31.3330078h-1.3818359v-33.4277344
			h1.4707031v31.2431641l23.2212067-31.2431641H267.0706482z"/>
		<path class="st1" d="M289.3558044,587.1467896h1.4257813v12.2568359l14.1289063-12.2568359h1.7832031l-15.2880859,13.3261719
			l19.2099609,20.1015625h-1.9609375l-17.828125-18.5859375v18.5859375h-1.4707031V587.1467896z"/>
		<path class="st1" d="M329.513031,586.3440552l16.7138672,34.2304688h-1.5595703l-6.3291016-12.7470703h-17.8730469
			l-6.2392578,12.7470703h-1.3818359L329.513031,586.3440552z M329.3792419,589.4192505l-8.3339844,17.1152344h16.7578125
			L329.3792419,589.4192505z"/>
		<path class="st1" d="M344.4436951,598.0667114v-10.9199219h1.4716797v10.6074219
			c0,2.4365234,0.8242188,4.5234375,2.4736328,6.2617188c1.6484375,1.7382813,3.6542969,2.6074219,6.0166016,2.6074219
			s4.3681641-0.8691406,6.0166016-2.6074219c1.6494141-1.7382813,2.4736328-3.8251953,2.4736328-6.2617188v-10.6074219h1.4716797
			v33.4277344h-1.4716797v-18.0957031c-0.7431641,1.5751953-1.8574219,2.875-3.3427734,3.8994141
			c-1.4853516,1.0253906-3.1191406,1.5380859-4.9023438,1.5380859h-0.4453125c-2.6455078,0-4.9326172-0.9873047-6.8642578-2.9638672
			C345.4095154,602.9768677,344.4436951,600.6809692,344.4436951,598.0667114z"/>
		<path class="st1" d="M383.0413513,588.4387817h-10.5185547v18.1845703h8.7802734v1.2929688h-8.7802734v11.3652344h10.5185547
			v1.2929688h-11.9892578v-33.4277344h11.9892578V588.4387817z"/>
		<path class="st1" d="M403.9895935,621.0647583h-0.4902344c-3.0605469,0-5.9130859-0.8027344-8.5576172-2.4072266
			c-2.6455078-1.6044922-4.7324219-3.7363281-6.2626953-6.3955078s-2.2949219-5.4892578-2.2949219-8.4912109
			c0-4.7236328,1.7080078-8.7871094,5.1259766-12.1894531c3.4160156-3.4023438,7.5019531-5.1035156,12.2568359-5.1035156
			c3.1787109,0,6.1953125,0.8320313,9.0478516,2.4960938v1.6494141c-2.7939453-1.9013672-5.8095703-2.8525391-9.0478516-2.8525391
			c-4.3681641,0-8.1123047,1.5673828-11.2324219,4.7021484c-3.1191406,3.1347656-4.6796875,6.8935547-4.6796875,11.2763672
			s1.5605469,8.1494141,4.6796875,11.2978516c3.1201172,3.1503906,6.8642578,4.7246094,11.2324219,4.7246094
			c3.2382813,0,6.2539063-0.9501953,9.0478516-2.8525391v1.6494141
			C410.1106873,620.2327271,407.1683044,621.0647583,403.9895935,621.0647583z"/>
		<path class="st1" d="M432.2903748,587.1467896v1.2919922h-7.6210938v32.1357422h-1.4707031v-32.1357422h-7.7109375v-1.2919922
			H432.2903748z"/>
		<path class="st1" d="M436.747406,587.1467896h1.4257813c1.9316406,0,3.5507813,0.6015625,4.8583984,1.8046875
			s1.9609375,2.7412109,1.9609375,4.6132813c0,1.1298828-0.3642578,2.2802734-1.0917969,3.4541016
			c-0.7285156,1.1738281-1.5820313,1.9384766-2.5625,2.2949219c2.2880859,0.5654297,4.1894531,1.7832031,5.7050781,3.6552734
			s2.2734375,4.2275391,2.2734375,7.0644531c0,2.8378906-1.0859375,5.3037109-3.2539063,7.3984375
			c-2.1699219,2.0947266-4.7988281,3.1425781-7.8896484,3.1425781h-1.4257813V587.1467896z M438.1731873,588.3948364v10.5185547
			h0.3574219c1.3369141,0,2.5175781-0.5419922,3.5429688-1.6269531s1.5380859-2.3320313,1.5380859-3.7441406
			c0-1.4111328-0.5058594-2.6220703-1.515625-3.6328125c-1.0107422-1.0097656-2.1992188-1.5146484-3.5654297-1.5146484H438.1731873z
			 M438.1731873,600.1165161v19.2099609h0.3574219c2.5546875,0,4.7607422-0.9511719,6.6181641-2.8525391
			c1.8564453-1.9013672,2.7861328-4.1601563,2.7861328-6.7744141c0-2.6152344-0.921875-4.8652344-2.7636719-6.7529297
			c-1.8427734-1.8867188-4.0556641-2.8300781-6.640625-2.8300781H438.1731873z"/>
		<path class="st1" d="M458.1634216,615.8948364c-3.3730469-3.4765625-5.0585938-7.5400391-5.0585938-12.1904297
			s1.7080078-8.6757813,5.1259766-12.078125c3.4160156-3.4023438,7.5166016-5.1035156,12.3007813-5.1035156
			s8.8701172,1.6933594,12.2568359,5.0810547c3.3876953,3.3867188,5.0810547,7.4208984,5.0810547,12.1005859
			s-1.6787109,8.7509766-5.0361328,12.2119141c-3.3583984,3.4619141-7.3691406,5.1923828-12.0341797,5.1923828h-0.6679688
			C465.5247498,621.1087036,461.5354919,619.3704224,458.1634216,615.8948364z M486.3987732,603.7932739
			c0-4.3818359-1.5527344-8.140625-4.6572266-11.2763672c-3.1054688-3.1337891-6.8496094-4.7021484-11.2324219-4.7021484
			s-8.1337891,1.5683594-11.2539063,4.7021484c-3.1191406,3.1357422-4.6796875,6.8945313-4.6796875,11.2763672
			c0,4.3837891,1.5605469,8.1494141,4.6796875,11.2988281c3.1201172,3.1494141,6.8642578,4.7246094,11.2324219,4.7246094
			c4.3671875,0,8.1113281-1.5751953,11.2314453-4.7246094S486.3987732,608.177063,486.3987732,603.7932739z"/>
	</g>
</g>
<g id="Слой_4" class="st2">
	<g class="st3">
		<path class="st1" d="M8.3426104,747.8128052h1.4262695c1.9311523,0,3.550293,0.6015625,4.8583984,1.8056641
			c1.3071289,1.203125,1.9609385,2.7402344,1.9609385,4.6123047c0,1.1298828-0.3642578,2.28125-1.0922861,3.4541016
			c-0.7280273,1.1748047-1.5820313,1.9394531-2.5625,2.2958984c2.2875977,0.5644531,4.1894541,1.7832031,5.7050791,3.6542969
			c1.5151367,1.8720703,2.2729492,4.2275391,2.2729492,7.0644531c0,2.8378906-1.0849609,5.3046875-3.253418,7.3994141
			c-2.1694345,2.0947266-4.7993174,3.1416016-7.8891611,3.1416016H8.3426104V747.8128052z M9.7688799,749.0608521v10.5185547
			h0.3564453c1.3374023,0,2.5185547-0.5419922,3.543457-1.6269531c1.0249023-1.0839844,1.5375977-2.3320313,1.5375977-3.7431641
			s-0.5053711-2.6220703-1.5151367-3.6328125c-1.0107422-1.0097656-2.1992188-1.515625-3.565918-1.515625H9.7688799z
			 M9.7688799,760.7825317v19.2099609h0.3564453c2.5551758,0,4.7617188-0.9501953,6.6186533-2.8525391
			c1.8569336-1.9003906,2.7856445-4.1591797,2.7856445-6.7744141c0-2.6142578-0.9213867-4.8652344-2.7631836-6.7519531
			c-1.8427744-1.8867188-4.0561533-2.8310547-6.6411142-2.8310547H9.7688799z"/>
		<path class="st1" d="M25.5911465,747.8128052h1.9165039c2.8818359,0,5.4155254,1.0625,7.5991192,3.1865234
			c2.184082,2.125,3.2758789,4.6210938,3.2758789,7.4882813c0,2.8681641-1.1142578,5.3564453-3.3427734,7.4658203
			s-4.6206036,3.1640625-7.1757793,3.1640625H27.552084l11.4995098,12.1230469h-1.9165039L27.017416,770.6331177v10.6074219
			h-1.4262695V747.8128052z M27.017416,767.8255005h0.8022461c2.4067383,0,4.5307598-0.9208984,6.3735332-2.7636719
			c1.8422852-1.8417969,2.7631836-4.0263672,2.7631836-6.5517578s-0.9511719-4.7246094-2.8520508-6.5966797
			c-1.9023438-1.8720703-4.0712872-2.8076172-6.5073223-2.8076172H27.017416V767.8255005z"/>
		<path class="st1" d="M43.9539375,747.8128052h1.4711914v33.4277344h-1.4711914V747.8128052z"/>
		<path class="st1" d="M68.600914,781.7307739h-0.4902344c-3.0605469,0-5.9130898-0.8017578-8.557621-2.40625
			c-2.6450195-1.6044922-4.7319336-3.7363281-6.2617188-6.3964844c-1.5307617-2.6582031-2.2954102-5.4882813-2.2954102-8.4902344
			c0-4.7246094,1.7080078-8.7871094,5.1254883-12.1904297c3.4165039-3.4013672,7.5024414-5.1025391,12.2568398-5.1025391
			c3.1791992,0,6.1953125,0.8320313,9.0478516,2.4951172v1.6494141c-2.793457-1.9013672-5.8095703-2.8525391-9.0478516-2.8525391
			c-4.3681641,0-8.1118202,1.5673828-11.2319374,4.7021484c-3.1196289,3.1357422-4.6796875,6.8935547-4.6796875,11.2763672
			c0,4.3837891,1.5600586,8.1494141,4.6796875,11.2988281c3.1201172,3.1494141,6.8637733,4.7246094,11.2319374,4.7246094
			c3.2382813,0,6.2543945-0.9511719,9.0478516-2.8525391v1.6484375
			C74.7220078,780.8997192,71.7801132,781.7307739,68.600914,781.7307739z"/>
		<path class="st1" d="M83.4427109,747.8128052h1.4262695v12.2568359l14.1289063-12.2568359h1.7827148l-15.2875977,13.3271484
			l19.2099609,20.1005859h-1.9614258l-17.828125-18.5859375v18.5859375h-1.4707031V747.8128052z"/>
		<path class="st1" d="M124.5359726,747.8128052h1.4262695c4.9916916,0,9.0180588,1.6425781,12.0786057,4.9248047
			c3.0600586,3.2841797,4.5908203,7.2207031,4.5908203,11.8115234s-1.5229492,8.5205078-4.5683594,11.7890625
			c-3.0463867,3.2685547-7.0800781,4.9023438-12.1010666,4.9023438h-1.4262695V747.8128052z M126.3186874,749.1497192h-0.3564453
			v30.7089844h0.3564453c4.337883,0,7.8959885-1.5,10.6747971-4.5009766
			c2.777832-3.0009766,4.1674805-6.6035156,4.1674805-10.8085938c0-4.2041016-1.3896484-7.8222656-4.1674805-10.8525391
			C134.2146759,750.6653442,130.6565704,749.1497192,126.3186874,749.1497192z"/>
		<path class="st1" d="M147.9793243,747.8128052h11.9892578v1.2929688h-10.5185547v18.1845703h8.7802734v1.2919922h-8.7802734
			v11.3662109h10.5185547v1.2919922h-11.9892578V747.8128052z"/>
		<path class="st1" d="M178.598465,781.9983521l-16.6245117-34.1855469h1.6044922l15.1538086,30.9765625l15.0649414-30.9765625
			h1.4262695L178.598465,781.9983521z"/>
		<path class="st1" d="M199.4573517,747.8128052h11.9892578v1.2929688h-10.5185547v18.1845703h8.7802734v1.2919922h-8.7802734
			v11.3662109h10.5185547v1.2919922h-11.9892578V747.8128052z"/>
		<path class="st1" d="M217.3743439,747.8128052v32.1357422h10.340332v1.2919922h-11.8110352v-33.4277344H217.3743439z"/>
		<path class="st1" d="M230.7678986,776.6057739c-3.3725586-3.4765625-5.0585938-7.5400391-5.0585938-12.1904297
			c0-4.6494141,1.7080078-8.6757813,5.1254883-12.078125c3.4165039-3.4023438,7.5170898-5.1035156,12.3012695-5.1035156
			c4.7836914,0,8.8696289,1.6933594,12.2568359,5.0810547c3.3877106,3.3867188,5.0810699,7.4208984,5.0810699,12.1005859
			s-1.6791992,8.7509766-5.0366364,12.2128906c-3.3579102,3.4609375-7.3691406,5.1923828-12.0336914,5.1923828h-0.668457
			C238.1287384,781.8206177,234.1399689,780.0823364,230.7678986,776.6057739z M259.0032654,764.5042114
			c0-4.3818359-1.5532227-8.140625-4.6577301-11.2763672c-3.1054688-3.1337891-6.8491211-4.7021484-11.2314453-4.7021484
			c-4.3833008,0-8.1342773,1.5683594-11.2543945,4.7021484c-3.1196289,3.1357422-4.6796875,6.8945313-4.6796875,11.2763672
			c0,4.3837891,1.5600586,8.1494141,4.6796875,11.2988281c3.1201172,3.1503906,6.8637695,4.7246094,11.2319336,4.7246094
			c4.3676758,0,8.1118164-1.5742188,11.2314453-4.7246094C257.4432068,772.6536255,259.0032654,768.8880005,259.0032654,764.5042114
			z"/>
		<path class="st1" d="M265.7771912,747.8128052h1.4707031c3.0908203,0,5.7197266,1.0625,7.8896484,3.1865234
			c2.1679688,2.125,3.2543945,4.6289063,3.2543945,7.5107422s-1.1225586,5.3632813-3.3657227,7.4433594
			c-2.2441406,2.0800781-4.7177734,3.1201172-7.4208984,3.1201172h-0.3574219v12.1669922h-1.4707031V747.8128052z
			 M267.2478943,767.8255005h0.3574219c2.4951172,0,4.671875-0.9208984,6.5292969-2.7636719
			c1.8564453-1.8417969,2.7851563-4.0263672,2.7851563-6.5517578s-0.9433594-4.7246094-2.8300781-6.5966797
			s-4.0488281-2.8076172-6.484375-2.8076172h-0.3574219V767.8255005z"/>
		<path class="st1" d="M317.4798279,747.8128052v33.4277344h-1.4707031v-31.6894531L300.231781,781.864563l-15.6894531-32.3134766
			v31.6894531h-1.3369141v-33.4277344h2.1396484l15.0195313,30.8427734l15.0654297-30.8427734H317.4798279z"/>
		<path class="st1" d="M324.1643982,747.8128052h11.9892578v1.2929688h-10.5185547v18.1845703h8.7802734v1.2919922h-8.7802734
			v11.3662109h10.5185547v1.2919922h-11.9892578V747.8128052z"/>
		<path class="st1" d="M365.2132263,747.8128052h1.2929688v33.9179688l-24.6025391-30.2626953v29.7724609h-1.2929688v-33.9179688
			l24.6025391,30.21875V747.8128052z"/>
		<path class="st1" d="M387.5423279,747.8128052v1.2929688h-7.6210938v32.1347656h-1.4707031v-32.1347656h-7.7109375v-1.2929688
			H387.5423279z"/>
	</g>
</g>
<g id="Слой_5" class="st2">
	<g class="st3">
		<path class="st1" d="M24.8343105,429.0647888h-0.4902344c-3.0610352,0-5.9135742-0.8027344-8.5576181-2.4072266
			c-2.6450195-1.6044922-4.7324219-3.7363281-6.262207-6.3955078c-1.5307612-2.6591797-2.2954097-5.4892578-2.2954097-8.4912109
			c0-4.7241211,1.7084956-8.7871094,5.1254878-12.1899414c3.4165039-3.4018555,7.5024424-5.1030273,12.2568369-5.1030273
			c3.1791992,0,6.1953125,0.8320313,9.0478497,2.4956055v1.6494141c-2.7934551-1.9013672-5.8095684-2.8525391-9.0478497-2.8525391
			c-4.3676758,0-8.1118164,1.5673828-11.2314463,4.7021484c-3.1201172,3.1352539-4.6801758,6.894043-4.6801758,11.2768555
			s1.5600586,8.1494141,4.6801758,11.2978516c3.1196299,3.1503906,6.8637705,4.7246094,11.2314463,4.7246094
			c3.2382813,0,6.2543945-0.9501953,9.0478497-2.8525391v1.6494141
			C30.954916,428.2327576,28.0135098,429.0647888,24.8343105,429.0647888z"/>
		<path class="st1" d="M62.9412422,395.1463318h1.4711952v33.4282227h-1.4711952v-12.7470703H40.0320625v12.7470703h-1.4707031
			v-33.4282227h1.4707031v19.3881836h22.9091797V395.1463318z"/>
		<path class="st1" d="M97.260582,395.1463318v33.4282227h-1.4707031v-31.3334961l-23.3100586,31.3334961h-1.3818359v-33.4282227
			h1.4707031v31.2436523l23.2211914-31.2436523H97.260582z"/>
		<path class="st1" d="M120.3479843,395.1463318h1.4262695v12.0786133l11.0981369-12.0786133h1.6489258l-12.2123947,13.2817383
			l18.0956955,20.1464844h-1.8271484l-16.803215-18.5859375v18.5859375h-1.4262695v-18.5859375l-16.7583008,18.5859375h-1.8720703
			l18.1401367-20.1464844l-12.2124023-13.2817383h1.6044922l11.0981445,12.0786133V395.1463318z"/>
		<path class="st1" d="M156.8509064,396.4388123h-10.5185547v18.1845703h8.7802734v1.2929688h-8.7802734v11.3652344h10.5185547
			v1.2929688h-11.9892578v-33.4282227h11.9892578V396.4388123z"/>
		<path class="st1" d="M185.6873322,395.1463318h1.4711914v33.4282227h-1.4711914v-12.7470703h-22.9091797v12.7470703h-1.4707031
			v-33.4282227h1.4707031v19.3881836h22.9091797V395.1463318z"/>
		<path class="st1" d="M220.0061798,395.1463318v33.4282227h-1.4707031v-31.3334961l-23.3100586,31.3334961h-1.3818359v-33.4282227
			h1.4707031v31.2436523l23.2211914-31.2436523H220.0061798z"/>
		<path class="st1" d="M238.6814728,396.4388123h-10.5185547v18.1845703h8.7802734v1.2929688h-8.7802734v11.3652344h10.5185547
			v1.2929688H226.692215v-33.4282227h11.9892578V396.4388123z"/>
		<path class="st1" d="M8.3430986,448.6311951H29.380209v33.4277344h-1.4707031v-32.1357422H9.8138018v32.1357422H8.3430986
			V448.6311951z"/>
		<path class="st1" d="M50.4622383,447.8733826l16.6245155,34.1855469h-1.6044922l-15.1538124-30.9765625l-15.0649414,30.9765625
			h-1.4262695L50.4622383,447.8733826z"/>
		<path class="st1" d="M85.9842148,447.8284607l16.7138672,34.2304688h-1.5600586l-6.3291016-12.7470703H76.9363632
			l-6.2397461,12.7470703h-1.3818359L85.9842148,447.8284607z M85.8504257,450.903656l-8.3344727,17.1152344h16.7583008
			L85.8504257,450.903656z"/>
		<path class="st1" d="M115.4895859,448.6311951v1.2919922h-7.621582v32.1357422h-1.4711914v-32.1357422h-7.7104492v-1.2919922
			H115.4895859z"/>
		<path class="st1" d="M131.935379,449.9231873H121.416832v18.1845703h8.7802658v1.2929688h-8.7802658v11.3652344h10.5185471
			v1.2929688h-11.9892502v-33.4277344h11.9892502V449.9231873z"/>
		<path class="st1" d="M152.7937775,448.6311951h1.4262695v12.078125l11.0981445-12.078125h1.6489258l-12.2124023,13.28125
			l18.0957031,20.1464844h-1.8271484l-16.8032227-18.5859375v18.5859375h-1.4262695v-18.5859375l-16.7583008,18.5859375h-1.8720703
			l18.1401367-20.1464844l-12.2124023-13.28125h1.6044922l11.0981445,12.078125V448.6311951z"/>
		<path class="st1" d="M189.2967072,449.9231873h-10.5185547v18.1845703h8.7802734v1.2929688h-8.7802734v11.3652344h10.5185547
			v1.2929688h-11.9892578v-33.4277344h11.9892578V449.9231873z"/>
		<path class="st1" d="M219.9158478,448.6311951v33.4277344h-1.4707031v-31.3330078l-23.3100586,31.3330078h-1.3818359v-33.4277344
			h1.4707031v31.2431641l23.2211914-31.2431641H219.9158478z M204.4949493,443.3050232
			c0.8310547,0.7871094,1.7895508,1.1806641,2.8745117,1.1806641c1.0844727,0,2.0424805-0.4013672,2.875-1.203125
			c0.831543-0.8027344,1.3071289-1.7382813,1.4262695-2.8076172h1.2924805
			c-0.0600586,1.3964844-0.6171875,2.6064453-1.6713867,3.6318359c-1.0551758,1.0253906-2.2954102,1.5380859-3.7216797,1.5380859
			h-0.3564453c-1.4262695,0-2.659668-0.5048828-3.699707-1.515625c-1.0400391-1.0097656-1.5898438-2.2285156-1.6489258-3.6542969
			h1.2480469C203.2019806,441.5745544,203.6624298,442.5179138,204.4949493,443.3050232z"/>
	</g>
</g>
</svg>
