<?xml version="1.0" encoding="utf-8"?>
<!-- Generator: Adobe Illustrator 21.0.1, SVG Export Plug-In . SVG Version: 6.00 Build 0)  -->
<svg version="1.1" xmlns="http://www.w3.org/2000/svg" xmlns:xlink="http://www.w3.org/1999/xlink" x="0px" y="0px"
	 viewBox="0 0 388.8333435 43.6666679" style="enable-background:new 0 0 388.8333435 43.6666679;" xml:space="preserve">
<style type="text/css">
	.st0{display:none;}
	.st1{display:inline;opacity:0.2;}
	.st2{fill:#D3D3D3;stroke:#D8D8D8;stroke-width:2;}
	.st3{opacity:0.2;}
	.st4{display:inline;opacity:0.3;}
</style>
<g id="Слой_1" class="st0">
	<g class="st1">
		<path class="st2" d="M32.7224922-11.1868486h1.4711914v33.4277344h-1.4711914V9.4938154H9.8133135v12.7470694H8.3426104
			v-33.4277344h1.4707031V8.201335h22.9091797V-11.1868486z"/>
		<path class="st2" d="M44.8230782,17.5611973c-3.3725586-3.4765615-5.0585938-7.5395498-5.0585938-12.1904297
			c0-4.6499023,1.7084961-8.6757813,5.1254883-12.078125c3.4165039-3.4023433,7.5170898-5.1035151,12.3017578-5.1035151
			c4.7832031,0,8.8691444,1.6938477,12.2568398,5.0810542c3.387207,3.3872073,5.0810547,7.4208984,5.0810547,12.1005859
			c0,4.6801763-1.6791992,8.7514648-5.0366211,12.2124023c-3.3583984,3.4619141-7.3696327,5.1923828-12.0341835,5.1923828h-0.668457
			C52.1844063,22.7755527,48.1951485,21.0372715,44.8230782,17.5611973z M73.0584335,5.4601235
			c0-4.3823242-1.5527344-8.1411133-4.6572266-11.2763672c-3.1054688-3.1342769-6.8496132-4.702148-11.2319374-4.702148
			c-4.3833008,0-8.1342773,1.5678711-11.2539063,4.702148c-3.1201172,3.1352541-4.6801758,6.894043-4.6801758,11.2763672
			c0,4.3833013,1.5600586,8.1494141,4.6801758,11.2988281c3.1196289,3.1494141,6.8637695,4.7241211,11.2314453,4.7241211
			c4.3681641,0,8.1118202-1.574707,11.2319374-4.7241211C71.4983749,13.6095381,73.0584335,9.8434248,73.0584335,5.4601235z"/>
		<path class="st2" d="M80.1004257-11.1868486h1.4262695c1.9311523,0,3.550293,0.6015625,4.8583984,1.8051758
			c1.3071289,1.203125,1.9609375,2.7407222,1.9609375,4.6127925c0,1.1298831-0.3642578,2.280762-1.0922852,3.4541016
			c-0.7280273,1.1743164-1.5820313,1.9389648-2.5625,2.2954102c2.2875977,0.5649413,4.1894531,1.7832031,5.7050781,3.6547849
			c1.5151367,1.8720703,2.2729492,4.2275395,2.2729492,7.0644536c0,2.8378906-1.0849609,5.3041983-3.253418,7.3989248
			c-2.1694336,2.0947266-4.7993164,3.1420898-7.8891602,3.1420898h-1.4262695V-11.1868486z M81.5266953-9.9388018V0.5797526
			h0.3564453c1.3374023,0,2.5185547-0.5419922,3.543457-1.6269531c1.0249023-1.0844725,1.5375977-2.3320313,1.5375977-3.7436523
			c0-1.4111328-0.5053711-2.6220703-1.5151367-3.632812c-1.0107422-1.0097656-2.1992188-1.5151367-3.565918-1.5151367H81.5266953z
			 M81.5266953,1.7828776v19.2099609h0.3564453c2.5551758,0,4.7617188-0.9506836,6.6186523-2.8525391
			c1.8569336-1.9008789,2.7856445-4.159667,2.7856445-6.7744131s-0.9213867-4.8652349-2.7631836-6.7524419
			c-1.8427734-1.8867185-4.0561523-2.8305664-6.6411133-2.8305664H81.5266953z"/>
		<path class="st2" d="M101.5159531,17.5611973c-3.3725586-3.4765615-5.0585938-7.5395498-5.0585938-12.1904297
			c0-4.6499023,1.7084961-8.6757813,5.1254883-12.078125c3.4165039-3.4023433,7.5170898-5.1035151,12.3017578-5.1035151
			c4.7832031,0,8.8691406,1.6938477,12.2568359,5.0810542c3.3871994,3.3872073,5.0810471,7.4208984,5.0810471,12.1005859
			c0,4.6801763-1.6791992,8.7514648-5.0366135,12.2124023c-3.3583984,3.4619141-7.3696289,5.1923828-12.0341797,5.1923828h-0.668457
			C108.8772812,22.7755527,104.8880234,21.0372715,101.5159531,17.5611973z M129.751297,5.4601235
			c0-4.3823242-1.5527344-8.1411133-4.6572189-11.2763672c-3.1054688-3.1342769-6.8496094-4.702148-11.2319336-4.702148
			c-4.3833008,0-8.1342773,1.5678711-11.2539063,4.702148c-3.1201172,3.1352541-4.6801758,6.894043-4.6801758,11.2763672
			c0,4.3833013,1.5600586,8.1494141,4.6801758,11.2988281c3.1196289,3.1494141,6.8637695,4.7241211,11.2314453,4.7241211
			c4.3681641,0,8.1118164-1.574707,11.2319336-4.7241211C128.1912384,13.6095381,129.751297,9.8434248,129.751297,5.4601235z"/>
		<path class="st2" d="M136.7932892-11.1868486h1.4262695V1.0699869l14.1289063-12.2568359h1.7827148L138.8435822,2.1398113
			l19.2099609,20.1010742h-1.9614258L138.2639923,3.654948v18.5859375h-1.4707031V-11.1868486z"/>
		<path class="st2" d="M163.3347931,17.5611973c-3.3725586-3.4765615-5.0585938-7.5395498-5.0585938-12.1904297
			c0-4.6499023,1.7084961-8.6757813,5.1254883-12.078125c3.4165039-3.4023433,7.5170898-5.1035151,12.3017578-5.1035151
			c4.7832031,0,8.8691406,1.6938477,12.2568359,5.0810542c3.387207,3.3872073,5.0810547,7.4208984,5.0810547,12.1005859
			c0,4.6801763-1.6791992,8.7514648-5.0366211,12.2124023c-3.3583984,3.4619141-7.3696289,5.1923828-12.0341797,5.1923828h-0.668457
			C170.6961212,22.7755527,166.7068634,21.0372715,163.3347931,17.5611973z M191.5701447,5.4601235
			c0-4.3823242-1.5527344-8.1411133-4.6572266-11.2763672c-3.1054688-3.1342769-6.8496094-4.702148-11.2319336-4.702148
			c-4.3833008,0-8.1342773,1.5678711-11.2539063,4.702148c-3.1201172,3.1352541-4.6801758,6.894043-4.6801758,11.2763672
			c0,4.3833013,1.5600586,8.1494141,4.6801758,11.2988281c3.1196289,3.1494141,6.8637695,4.7241211,11.2314453,4.7241211
			c4.3681641,0,8.1118164-1.574707,11.2319336-4.7241211C190.0100861,13.6095381,191.5701447,9.8434248,191.5701447,5.4601235z"/>
		<path class="st2" d="M193.7097931,26.564127v-5.6157227h2.4511719l16.0898438-32.8930664l16.090332,32.8930664h2.1391602
			v5.6157227h-1.3818359v-4.3232422h-34.0961914v4.3232422H193.7097931z M212.1175079-8.8694658l-14.574707,29.8178711h29.2827148
			L212.1175079-8.8694658z"/>
		<path class="st2" d="M249.8235626-11.9890947l16.7133942,34.2299805h-1.5595703l-6.3291016-12.7470694h-17.8725739
			l-6.2397461,12.7470694h-1.3818359L249.8235626-11.9890947z M249.6897736-8.9138994L241.3553009,8.201335h16.758316
			L249.6897736-8.9138994z"/>
		<path class="st2" d="M294.1263123,22.2408848H270.993988v-33.4277344h1.4707031v32.1352539h18.0512695v-32.1352539h1.4707031
			v32.1352539h3.4326172v5.6157227h-1.2929688V22.2408848z"/>
		<path class="st2" d="M299.8763123-11.1868486h1.4707031V1.872233h0.4013672c2.4355469,0,4.7246094,1.010254,6.8632813,3.0307617
			c2.1396484,2.0209961,3.2099609,4.3979497,3.2099609,7.1313481c0,2.7338867-1.0478516,5.1186514-3.1425781,7.1533194
			c-2.0947266,2.0356445-4.5390625,3.0532227-7.3320313,3.0532227h-1.4707031V-11.1868486z M301.7034607,3.1647136h-0.3564453
			v17.7836914h0.3564453c2.2285156,0,4.2265625-0.8916016,5.9951172-2.6743164
			c1.7675781-1.7827148,2.6513672-3.8623037,2.6513672-6.2397451c0-2.3769531-0.8759766-4.4492192-2.6289063-6.2177739
			C305.9671326,4.0489907,303.9612732,3.1647136,301.7034607,3.1647136z"/>
		<path class="st2" d="M317.3919373-11.1868486h1.4257813V1.0699869l14.1289063-12.2568359h1.7832031L319.4417419,2.1398113
			l19.2099609,20.1010742h-1.9609375L318.8626404,3.654948v18.5859375h-1.4707031V-11.1868486z"/>
		<path class="st2" d="M343.3313904-11.1868486h1.4707031v33.4277344h-1.4707031V-11.1868486z"/>
		<path class="st2" d="M8.3426104,42.2975273h1.4262695c1.9311523,0,3.550293,0.6015625,4.8583984,1.8051758
			c1.3071289,1.203125,1.9609385,2.7407227,1.9609385,4.612793c0,1.1298828-0.3642578,2.2807617-1.0922861,3.4541016
			c-0.7280273,1.1743164-1.5820313,1.9389648-2.5625,2.2954102c2.2875977,0.5649414,4.1894541,1.7832031,5.7050791,3.6547852
			c1.5151367,1.8720703,2.2729492,4.2275391,2.2729492,7.0644493c0,2.8378906-1.0849609,5.3041992-3.253418,7.3989258
			c-2.1694345,2.0947266-4.7993174,3.1420898-7.8891611,3.1420898H8.3426104V42.2975273z M9.7688799,43.5455742v10.5185547
			h0.3564453c1.3374023,0,2.5185547-0.5419922,3.543457-1.6269531c1.0249023-1.0844727,1.5375977-2.3320313,1.5375977-3.7436523
			c0-1.4111328-0.5053711-2.6220703-1.5151367-3.6328125c-1.0107422-1.0097656-2.1992188-1.5151367-3.565918-1.5151367H9.7688799z
			 M9.7688799,55.2672539V74.477211h0.3564453c2.5551758,0,4.7617188-0.9506836,6.6186533-2.8525391
			c1.8569336-1.9008789,2.7856445-4.159668,2.7856445-6.7744141c0-2.6147423-0.9213867-4.8652306-2.7631836-6.7524376
			c-1.8427744-1.8867188-4.0561533-2.8305664-6.6411142-2.8305664H9.7688799z"/>
		<path class="st2" d="M37.8035469,43.5900078H27.2849941v18.1845703h8.7802715v1.2924805h-8.7802715v11.3657188h10.5185528
			v1.2924805H25.814291V42.2975273h11.9892559V43.5900078z"/>
		<path class="st2" d="M58.6619453,42.2975273h1.4262695v12.0786133l11.0981483-12.0786133h1.6489258L60.6228828,55.5792656
			l18.0957069,20.1459923h-1.8271484L60.0882149,57.1393242v18.5859337h-1.4262695V57.1393242L41.9036446,75.7252579h-1.8720703
			L58.171711,55.5792656L45.9593086,42.2975273h1.6044922l11.0981445,12.0786133V42.2975273z"/>
		<path class="st2" d="M83.3982773,42.2975273h1.4711914v33.4277306h-1.4711914V42.2975273z"/>
	</g>
</g>
<g id="Слой_2" class="st0">
	<g class="st1">
		<path class="st2" d="M8.0096025,8.4796553h1.4262695c1.9311523,0,3.550293,0.6015625,4.8583984,1.8051758
			c1.3071289,1.203125,1.9609385,2.7407227,1.9609385,4.612793c0,1.1298819-0.3642588,2.2807608-1.0922861,3.4541006
			c-0.7280273,1.1743164-1.5820313,1.9389648-2.5625,2.2954102c2.2875977,0.5649414,4.1894541,1.7832031,5.7050791,3.6547852
			c1.5151367,1.8720703,2.2729492,4.2275391,2.2729492,7.0644531c0,2.8378925-1.0849609,5.3042011-3.253418,7.3989277
			c-2.1694345,2.0947266-4.7993174,3.1420898-7.8891611,3.1420898H8.0096025V8.4796553z M9.4358721,9.7277021v10.5185537h0.3564453
			c1.3374023,0,2.5185547-0.5419922,3.543457-1.6269531c1.0249023-1.0844727,1.5375977-2.3320313,1.5375977-3.7436514
			c0-1.4111328-0.5053711-2.6220703-1.5151367-3.6328125c-1.0107422-1.0097656-2.1992188-1.5151367-3.565918-1.5151367H9.4358721z
			 M9.4358721,21.4493809v19.2099628h0.3564453c2.5551758,0,4.7617188-0.9506836,6.6186533-2.8525391
			c1.8569336-1.9008789,2.7856445-4.159668,2.7856445-6.774416s-0.9213867-4.8652344-2.7631836-6.7524414
			c-1.8427744-1.8867188-4.0561533-2.8305664-6.6411142-2.8305664H9.4358721z"/>
		<path class="st2" d="M55.0755196,14.5856123c0,2.4960928-1.1889648,4.4277334-3.5654297,5.7944326
			c2.4067383,0.534668,4.3901367,1.8793945,5.949707,4.0336914c1.5600586,2.1542969,2.340332,4.4946289,2.340332,7.0195313
			c0,3.0307636-1.1142578,5.6313496-3.3427734,7.7998066c-2.2285156,2.1694336-4.918457,3.2539063-8.0673828,3.2539063
			c-1.9018555,0-3.6625977-0.4238281-5.2817383-1.2705078c-1.6196289-0.8466797-2.8901367-2.027832-3.8105469-3.543457v-2.4956055
			c0.8022461,1.7827148,2.0126953,3.2314453,3.6323242,4.3457031c1.6191406,1.1142578,3.4541016,1.6713867,5.5043945,1.6713867
			c2.7036133,0,5.0288086-0.965332,6.9755859-2.8974609c1.9458008-1.9311523,2.9189453-4.2563477,2.9189453-6.9750996
			s-0.9580078-5.0732422-2.8745117-7.0644531c-1.9165039-1.9902344-4.2563477-2.9863281-7.0200195-2.9863281h-1.6933594v-1.2480469
			h1.4262695c1.5151367,0,2.800293-0.534668,3.8549805-1.6044922c1.0546875-1.0693359,1.5825195-2.3466797,1.5825195-3.8330069
			c0-1.4853516-0.527832-2.7553711-1.5825195-3.8105469c-1.0546875-1.0546875-2.2661133-1.5825195-3.6323242-1.5825195
			c-1.3671875,0-2.5556641,0.3422852-3.5654297,1.0253906c-1.0107422,0.6835938-1.6938477,1.5751953-2.050293,2.6743164v-2.3178711
			c1.3369141-1.7827148,3.0454102-2.6743169,5.1254883-2.6743169c2.0795898,0,3.7954102,0.6538091,5.1479492,1.9614263
			C54.39925,11.1691084,55.0755196,12.7438154,55.0755196,14.5856123z"/>
		<path class="st2" d="M76.9143906,9.7721357H66.3958359v18.1845703h8.7802734v1.2924805h-8.7802734v11.3657246h10.5185547
			v1.2924805H64.9251328V8.4796553h11.9892578V9.7721357z"/>
		<path class="st2" d="M95.7674179,7.7218423l16.6245117,34.1855469h-1.6044922L95.6336288,10.9308271L80.5686874,41.9073906
			h-1.4262695L95.7674179,7.7218423z"/>
		<path class="st2" d="M128.8377228,9.7721357h-10.5185471v18.1845703h8.7802734v1.2924805h-8.7802734v11.3657246h10.5185471
			v1.2924805h-11.9892502V8.4796553h11.9892502V9.7721357z"/>
		<path class="st2" d="M157.6741486,8.4796553h1.4711914v33.4277344h-1.4711914V29.1603184h-22.9091797v12.7470722h-1.4707031
			V8.4796553h1.4707031v19.3881836h22.9091797V8.4796553z"/>
		<path class="st2" d="M169.7747345,37.2277031c-3.3725586-3.4765625-5.0585938-7.5395527-5.0585938-12.1904316
			c0-4.6499023,1.7084961-8.6757813,5.1254883-12.078124c3.4165039-3.4023438,7.5170898-5.1035161,12.3017578-5.1035161
			c4.7832031,0,8.8691406,1.6938481,12.2568359,5.0810552c3.387207,3.3872061,5.0810547,7.4208975,5.0810547,12.100585
			c0,4.6801758-1.6791992,8.7514668-5.0366211,12.2124043c-3.3583984,3.4619141-7.3696289,5.1923828-12.0341797,5.1923828h-0.668457
			C177.1360626,42.4420586,173.1468048,40.7037773,169.7747345,37.2277031z M198.0100861,25.126627
			c0-4.3823242-1.5527344-8.1411133-4.6572266-11.2763662c-3.1054688-3.1342773-6.8496094-4.7021484-11.2319336-4.7021484
			c-4.3833008,0-8.1342773,1.5678711-11.2539063,4.7021484c-3.1201172,3.135253-4.6801758,6.894042-4.6801758,11.2763662
			c0,4.3833008,1.5600586,8.149416,4.6801758,11.29883c3.1196289,3.1494141,6.8637695,4.7241211,11.2314453,4.7241211
			c4.3681641,0,8.1118164-1.574707,11.2319336-4.7241211C196.4500275,33.2760429,198.0100861,29.5099277,198.0100861,25.126627z"/>
		<path class="st2" d="M239.3264923,8.4796553v33.4277344h-1.4707031V10.2179365l-15.777832,32.3134766l-15.6889648-32.3134766
			v31.6894531h-1.3369141V8.4796553h2.1391602l15.0205078,30.8427734l15.0649414-30.8427734H239.3264923z"/>
		<path class="st2" d="M11.9539385,90.7120743c-3.3725586-3.4765625-5.0585933-7.5395508-5.0585933-12.1904297
			c0-4.6499023,1.7084956-8.6757813,5.1254878-12.078125c3.4165039-3.4023399,7.5170908-5.1035118,12.3017588-5.1035118
			c4.7832031,0,8.8691387,1.6938477,12.256834,5.0810509c3.387207,3.387207,5.0810547,7.4208984,5.0810547,12.1005859
			c0,4.6801758-1.6791992,8.7514648-5.0366211,12.2124023c-3.3583984,3.4619141-7.369627,5.1923828-12.0341778,5.1923828h-0.668457
			C19.3152676,95.9264297,15.3260088,94.1881485,11.9539385,90.7120743z M40.1892891,78.6110001
			c0-4.3823242-1.5527344-8.1411133-4.6572266-11.2763672c-3.1054688-3.1342773-6.8496075-4.7021446-11.2319317-4.7021446
			c-4.3833008,0-8.1342773,1.5678673-11.2539072,4.7021446c-3.1201172,3.1352539-4.6801758,6.894043-4.6801758,11.2763672
			c0,4.3833008,1.5600586,8.1494141,4.6801758,11.2988281c3.1196299,3.1494141,6.8637705,4.7241211,11.2314463,4.7241211
			c4.3681641,0,8.1118145-1.574707,11.2319317-4.7241211C38.6292305,86.7604141,40.1892891,82.9943008,40.1892891,78.6110001z"/>
		<path class="st2" d="M58.5525703,61.1617851l16.713871,34.2299767h-1.5600586l-6.3291016-12.7470703H49.5047188
			l-6.2397461,12.7470703h-1.3818359L58.5525703,61.1617851z M58.4187813,64.2369766L50.0843086,81.352211h16.7583046
			L58.4187813,64.2369766z"/>
		<path class="st2" d="M93.7181015,68.0699844c0,2.4960938-1.1889648,4.4277344-3.5654297,5.7944336
			c2.4067383,0.534668,4.3901367,1.8793945,5.949707,4.0336914c1.5600586,2.1542969,2.340332,4.4946289,2.340332,7.0195313
			c0,3.0307617-1.1142578,5.6313477-3.3427734,7.7998047c-2.2285156,2.1694336-4.918457,3.2539063-8.0673828,3.2539063
			c-1.9018555,0-3.6625977-0.4238281-5.2817383-1.2705078c-1.6196289-0.8466797-2.8901367-2.027832-3.8105469-3.543457v-2.4956055
			c0.8022461,1.7827148,2.0126953,3.2314453,3.6323242,4.3457031c1.6191406,1.1142578,3.4541016,1.6713867,5.5043945,1.6713867
			c2.7036133,0,5.0288086-0.965332,6.9755859-2.8974609c1.9458008-1.9311523,2.9189453-4.2563477,2.9189453-6.9750977
			s-0.9580078-5.0732422-2.8745117-7.0644531c-1.9165039-1.9902344-4.2563477-2.9863281-7.0200195-2.9863281h-1.6933594v-1.2480469
			h1.4262695c1.5151367,0,2.800293-0.534668,3.8549805-1.6044922c1.0546875-1.0693359,1.5825195-2.3466797,1.5825195-3.8330078
			c0-1.4853516-0.527832-2.7553711-1.5825195-3.8105469c-1.0546875-1.0546837-2.2661133-1.5825157-3.6323242-1.5825157
			c-1.3671875,0-2.5556641,0.3422852-3.5654297,1.0253906c-1.0107422,0.6835899-1.6938477,1.5751915-2.050293,2.6743126V64.058754
			c1.3369141-1.782711,3.0454102-2.6743126,5.1254883-2.6743126c2.0795898,0,3.7954102,0.6538086,5.1479492,1.9614258
			C93.041832,64.6534805,93.7181015,66.2281876,93.7181015,68.0699844z"/>
		<path class="st2" d="M129.7303009,61.9640312v33.4277306h-1.4707031V64.058754l-23.310051,31.3330078h-1.3818359V61.9640312
			h1.4707031v31.2436485l23.2211838-31.2436485H129.7303009z"/>
		<path class="st2" d="M152.9070587,95.8819962h-0.4902344c-3.0610352,0-5.9135742-0.8022461-8.5576172-2.4067383
			c-2.6450195-1.6044922-4.7324219-3.7363281-6.262207-6.3959961c-1.5307617-2.6586914-2.2954102-5.4887695-2.2954102-8.4907227
			c0-4.7241211,1.7084961-8.7871094,5.1254883-12.1899414c3.4165039-3.4018517,7.5024414-5.1030235,12.2568359-5.1030235
			c3.1791992,0,6.1953125,0.8320313,9.0478516,2.4956055v1.6494102c-2.793457-1.9013634-5.8095703-2.8525352-9.0478516-2.8525352
			c-4.3676758,0-8.1118164,1.567379-11.2314453,4.7021446c-3.1201172,3.1352539-4.6801758,6.8935547-4.6801758,11.2763672
			c0,4.3833008,1.5600586,8.1494141,4.6801758,11.2983398c3.1196289,3.1499023,6.8637695,4.7246094,11.2314453,4.7246094
			c3.2382813,0,6.2543945-0.9506836,9.0478516-2.8525391v1.6489258
			C159.0276642,95.0504532,156.0862579,95.8819962,152.9070587,95.8819962z"/>
		<path class="st2" d="M178.6238556,63.2565117h-10.5185547v18.1845665h8.7802734v1.2924805h-8.7802734v11.3657227h10.5185547
			v1.2924805h-11.9892578V61.9640312h11.9892578V63.2565117z"/>
	</g>
</g>
<g id="Слой_3" class="st0">
	<g class="st1">
		<path class="st2" d="M5.009603,10.8131514h1.4262695v12.256835l14.1289063-12.256835h1.7827148L7.059896,24.1398106
			l19.2099609,20.1010761h-1.9614258L6.4803061,25.6549473v18.5859394H5.009603V10.8131514z"/>
		<path class="st2" d="M31.5511074,39.5611992c-3.3725586-3.4765625-5.0585938-7.5395508-5.0585938-12.1904316
			c0-4.6499023,1.7084961-8.6757813,5.1254883-12.078124c3.416502-3.4023438,7.5170879-5.1035156,12.3017559-5.1035156
			c4.7832031,0,8.8691406,1.6938477,12.2568359,5.0810547c3.387207,3.3872061,5.0810547,7.4208975,5.0810547,12.100585
			c0,4.6801777-1.6791992,8.7514668-5.0366211,12.2124043c-3.3583984,3.4619141-7.3696289,5.1923828-12.0341797,5.1923828h-0.668457
			C38.9124336,44.7755547,34.9231758,43.0372734,31.5511074,39.5611992z M59.7864571,27.4601231
			c0-4.3823242-1.5527344-8.1411133-4.6572266-11.2763672c-3.1054688-3.1342764-6.8496094-4.7021475-11.2319336-4.7021475
			c-4.3833008,0-8.1342773,1.5678711-11.2539063,4.7021475c-3.1201153,3.1352539-4.6801739,6.894043-4.6801739,11.2763672
			c0,4.3833008,1.5600586,8.149416,4.6801739,11.29883c3.1196289,3.1494141,6.8637695,4.7241211,11.2314453,4.7241211
			c4.3681641,0,8.1118164-1.574707,11.2319336-4.7241211C58.2263985,35.609539,59.7864571,31.8434238,59.7864571,27.4601231z"/>
		<path class="st2" d="M101.1028671,10.8131514v33.4277344H99.632164V12.5514326L83.854332,44.8649101L68.1653671,12.5514326
			v31.6894531h-1.3369141V10.8131514h2.1391602L83.988121,41.6559258l15.0649414-30.8427734H101.1028671z"/>
		<path class="st2" d="M122.5857773,45.3551445v-2.6743164h-0.3120117c-4.2495117,0-7.9111328-1.5224609-10.9863281-4.5683594
			c-3.0756836-3.0454102-4.6132813-6.6186543-4.6132813-10.7192402s1.5375977-7.6435547,4.6132813-10.6298828
			c3.0751953-2.9863272,6.722168-4.4794912,10.9418945-4.4794912h0.3564453V9.6988935h1.4707031v2.5849609h0.3120117
			c4.2490158,0,7.9111252,1.5229492,10.9868088,4.5683584c3.0751953,3.0463867,4.612793,6.6040039,4.612793,10.6748047
			c0,4.0712891-1.5454102,7.614748-4.6352539,10.6298847c-3.0908203,3.0161133-6.7456055,4.5239258-10.9643478,4.5239258h-0.3120117
			v2.6743164H122.5857773z M122.2737656,41.4777031h0.3120117V13.4874678h-0.3564453
			c-3.8330078,0-7.1391602,1.3813477-9.9169922,4.1450186c-2.7788086,2.7631836-4.1674805,6.0390625-4.1674805,9.8276367
			s1.3886719,7.0722675,4.1674805,9.8500996C115.0901718,40.0890312,118.4109726,41.4777031,122.2737656,41.4777031z
			 M124.413414,13.4874678h-0.3569336v27.9902344h0.3120117c3.8330002,0,7.153801-1.3818359,9.9614182-4.1450195
			c2.8081055-2.7636719,4.2119141-6.0317402,4.2119141-9.805666c0-3.7734375-1.4189453-7.0566406-4.2563477-9.8500977
			C131.4475861,14.8844404,128.1570587,13.4874678,124.413414,13.4874678z"/>
		<path class="st2" d="M149.4832306,39.5611992c-3.3725586-3.4765625-5.0585938-7.5395508-5.0585938-12.1904316
			c0-4.6499023,1.7084961-8.6757813,5.1254883-12.078124c3.4165039-3.4023438,7.5170898-5.1035156,12.3017578-5.1035156
			c4.7832031,0,8.8691406,1.6938477,12.2568359,5.0810547c3.387207,3.3872061,5.0810547,7.4208975,5.0810547,12.100585
			c0,4.6801777-1.6791992,8.7514668-5.0366211,12.2124043c-3.3583984,3.4619141-7.3696289,5.1923828-12.0341797,5.1923828h-0.668457
			C156.8445587,44.7755547,152.8553009,43.0372734,149.4832306,39.5611992z M177.7185822,27.4601231
			c0-4.3823242-1.5527344-8.1411133-4.6572266-11.2763672c-3.1054688-3.1342764-6.8496094-4.7021475-11.2319336-4.7021475
			c-4.3833008,0-8.1342773,1.5678711-11.2539063,4.7021475c-3.1201172,3.1352539-4.6801758,6.894043-4.6801758,11.2763672
			c0,4.3833008,1.5600586,8.149416,4.6801758,11.29883c3.1196289,3.1494141,6.8637695,4.7241211,11.2314453,4.7241211
			c4.3681641,0,8.1118164-1.574707,11.2319336-4.7241211C176.1585236,35.609539,177.7185822,31.8434238,177.7185822,27.4601231z"/>
		<path class="st2" d="M184.7600861,10.8131514h1.4707031c3.090332,0,5.7197266,1.0625,7.8891602,3.1865234
			c2.168457,2.124999,3.253418,4.628417,3.253418,7.510253c0,2.8823242-1.121582,5.3637695-3.3647461,7.4433594
			c-2.2441406,2.0800781-4.7177734,3.1201191-7.4213867,3.1201191h-0.3564453v12.1674805h-1.4707031V10.8131514z
			 M186.2307892,30.8253574h0.3564453c2.4960938,0,4.6723633-0.9208984,6.5297852-2.7636719
			c1.8564453-1.8417969,2.7856445-4.0258789,2.7856445-6.5517578c0-2.5249023-0.9438477-4.7246094-2.8300781-6.5961905
			c-1.887207-1.8720703-4.0488281-2.8081055-6.4853516-2.8081055h-0.3564453V30.8253574z"/>
		<path class="st2" d="M217.5193634,10.8131514v1.2924805h-7.621582v32.1352539H208.42659V12.1056318h-7.7104492v-1.2924805
			H217.5193634z"/>
		<path class="st2" d="M263.7371521,10.8131514v33.4277344h-1.4707031V12.9078779l-23.3100739,31.3330078h-1.3818359V10.8131514
			h1.4707031v31.2436523l23.2212067-31.2436523H263.7371521z"/>
		<path class="st2" d="M286.0227966,10.8131514h1.4257813v12.256835l14.1289063-12.256835h1.7832031l-15.2880859,13.3266592
			l19.2099609,20.1010761h-1.9609375l-17.828125-18.5859394v18.5859394h-1.4707031V10.8131514z"/>
		<path class="st2" d="M326.1800232,10.0109053l16.7138672,34.2299805h-1.5595703l-6.3291016-12.7470722h-17.8730469
			l-6.2392578,12.7470722h-1.3818359L326.1800232,10.0109053z M326.0462341,13.0861006l-8.3339844,17.1152344h16.7578125
			L326.0462341,13.0861006z"/>
		<path class="st2" d="M341.1106873,21.7330723V10.8131514h1.4716797v10.6079092
			c0,2.4365234,0.8242188,4.5234375,2.4736328,6.2617188c1.6484375,1.7382813,3.6542969,2.6074219,6.0166016,2.6074219
			s4.3681641-0.8691406,6.0166016-2.6074219c1.6494141-1.7382813,2.4736328-3.8251953,2.4736328-6.2617188V10.8131514h1.4716797
			v33.4277344h-1.4716797v-18.095705c-0.7431641,1.5751953-1.8574219,2.875-3.3427734,3.8999023
			c-1.4853516,1.0253906-3.1191406,1.5375977-4.9023438,1.5375977h-0.4453125c-2.6455078,0-4.9326172-0.9873047-6.8642578-2.9638672
			C342.0765076,26.6432285,341.1106873,24.3478184,341.1106873,21.7330723z"/>
		<path class="st2" d="M379.7083435,12.1056318h-10.5185547v18.1845703h8.7802734v1.2924805h-8.7802734v11.3657246h10.5185547
			v1.2924805h-11.9892578V10.8131514h11.9892578V12.1056318z"/>
		<path class="st2" d="M400.6565857,44.7311211h-0.4902344c-3.0605469,0-5.9130859-0.8022461-8.5576172-2.4067383
			c-2.6455078-1.6044922-4.7324219-3.7363281-6.2626953-6.3959961c-1.5302734-2.6586914-2.2949219-5.4887714-2.2949219-8.4907246
			c0-4.7241211,1.7080078-8.7871094,5.1259766-12.1899405c3.4160156-3.4018555,7.5019531-5.1030273,12.2568359-5.1030273
			c3.1787109,0,6.1953125,0.8320313,9.0478516,2.4956055v1.6494141c-2.7939453-1.9013672-5.8095703-2.8525391-9.0478516-2.8525391
			c-4.3681641,0-8.1123047,1.5673828-11.2324219,4.7021475c-3.1191406,3.1352539-4.6796875,6.8935547-4.6796875,11.2763672
			c0,4.3833008,1.5605469,8.149416,4.6796875,11.2983418c3.1201172,3.1499023,6.8642578,4.7246094,11.2324219,4.7246094
			c3.2382813,0,6.2539063-0.9506836,9.0478516-2.8525391v1.6489258
			C406.7776794,43.8995781,403.8352966,44.7311211,400.6565857,44.7311211z"/>
		<path class="st2" d="M428.9573669,10.8131514v1.2924805h-7.6210938v32.1352539h-1.4707031V12.1056318h-7.7109375v-1.2924805
			H428.9573669z"/>
		<path class="st2" d="M433.4143982,10.8131514h1.4257813c1.9316406,0,3.5507813,0.6015625,4.8583984,1.8051758
			c1.3076172,1.203125,1.9609375,2.7407227,1.9609375,4.612792c0,1.1298828-0.3642578,2.2807617-1.0917969,3.4541016
			c-0.7285156,1.1743164-1.5820313,1.9389648-2.5625,2.2954102c2.2880859,0.5649414,4.1894531,1.7832031,5.7050781,3.6547852
			c1.515625,1.8720703,2.2734375,4.2275391,2.2734375,7.064455c0,2.8378906-1.0859375,5.3041992-3.2539063,7.3989258
			c-2.1699219,2.0947266-4.7988281,3.1420898-7.8896484,3.1420898h-1.4257813V10.8131514z M434.8401794,12.0611982V22.579752
			h0.3574219c1.3369141,0,2.5175781-0.5419922,3.5429688-1.6269531c1.0253906-1.0844727,1.5380859-2.3320313,1.5380859-3.7436523
			c0-1.4111319-0.5058594-2.6220694-1.515625-3.6328115c-1.0107422-1.0097656-2.1992188-1.5151367-3.5654297-1.5151367H434.8401794z
			 M434.8401794,23.782877v19.2099628h0.3574219c2.5546875,0,4.7607422-0.9506836,6.6181641-2.8525391
			c1.8564453-1.9008789,2.7861328-4.159668,2.7861328-6.7744141s-0.921875-4.8652363-2.7636719-6.7524433
			c-1.8427734-1.8867188-4.0556641-2.8305664-6.640625-2.8305664H434.8401794z"/>
		<path class="st2" d="M454.8304138,39.5611992c-3.3730469-3.4765625-5.0585938-7.5395508-5.0585938-12.1904316
			c0-4.6499023,1.7080078-8.6757813,5.1259766-12.078124c3.4160156-3.4023438,7.5166016-5.1035156,12.3007813-5.1035156
			s8.8701172,1.6938477,12.2568359,5.0810547c3.3876953,3.3872061,5.0810547,7.4208975,5.0810547,12.100585
			c0,4.6801777-1.6787109,8.7514668-5.0361328,12.2124043c-3.3583984,3.4619141-7.3691406,5.1923828-12.0341797,5.1923828
			h-0.6679688C462.1917419,44.7755547,458.2024841,43.0372734,454.8304138,39.5611992z M483.0657654,27.4601231
			c0-4.3823242-1.5527344-8.1411133-4.6572266-11.2763672c-3.1054688-3.1342764-6.8496094-4.7021475-11.2324219-4.7021475
			s-8.1337891,1.5678711-11.2539063,4.7021475c-3.1191406,3.1352539-4.6796875,6.894043-4.6796875,11.2763672
			c0,4.3833008,1.5605469,8.149416,4.6796875,11.29883c3.1201172,3.1494141,6.8642578,4.7241211,11.2324219,4.7241211
			c4.3671875,0,8.1113281-1.574707,11.2314453-4.7241211S483.0657654,31.8434238,483.0657654,27.4601231z"/>
	</g>
</g>
<g id="Слой_4">
	<g class="st3">
		<path class="st2" d="M5.6785483,6.0743814h1.4262695c1.9311519,0,3.5502925,0.6015625,4.858398,1.8051758
			c1.3071289,1.2031255,1.9609375,2.7407231,1.9609375,4.6127934c0,1.1298828-0.3642578,2.2807617-1.0922852,3.4541016
			c-0.7280273,1.1743155-1.5820313,1.9389639-2.5625,2.2954092c2.2875977,0.5649414,4.1894531,1.7832031,5.7050781,3.6547852
			c1.5151377,1.8720703,2.2729502,4.2275391,2.2729502,7.0644531c0,2.8378906-1.0849609,5.3042011-3.2534189,7.3989277
			c-2.1694336,2.0947266-4.7993164,3.1420898-7.8891597,3.1420898H5.6785483V6.0743814z M7.1048179,7.3224282v10.5185547h0.3564453
			c1.3374019,0,2.5185542-0.5419922,3.5434566-1.6269531c1.0249023-1.0844717,1.5375977-2.3320303,1.5375977-3.7436514
			c0-1.4111328-0.5053711-2.6220703-1.5151367-3.6328125c-1.0107422-1.0097661-2.1992188-1.5151372-3.5659175-1.5151372H7.1048179z
			 M7.1048179,19.0441074v19.2099628h0.3564453c2.5551753,0,4.7617183-0.9506836,6.6186519-2.8525391
			c1.8569336-1.9008789,2.7856455-4.1596699,2.7856455-6.774416s-0.9213877-4.8652344-2.7631845-6.7524414
			c-1.8427734-1.8867188-4.0561523-2.8305664-6.6411128-2.8305664H7.1048179z"/>
		<path class="st2" d="M22.927084,6.0743814h1.9165039c2.8818359,0,5.4155273,1.0625,7.5991192,3.1865239
			c2.184082,2.125,3.2758789,4.6210938,3.2758789,7.487792c0,2.8681641-1.1142578,5.3564453-3.3427734,7.4658203
			c-2.2285137,2.1098633-4.6206036,3.1645508-7.1757793,3.1645508h-0.3120117l11.4995098,12.1230488h-1.9165039
			L24.3533535,28.8942051v10.6079121H22.927084V6.0743814z M24.3533535,26.0865879h0.8022461
			c2.4067383,0,4.5307617-0.9208984,6.3735352-2.7636719c1.8422832-1.8417969,2.7631817-4.0258789,2.7631817-6.5517578
			c0-2.5249014-0.9511719-4.7246084-2.8520489-6.5961905c-1.9023438-1.8720703-4.0712891-2.8081059-6.5073242-2.8081059h-0.5795898
			V26.0865879z"/>
		<path class="st2" d="M41.289875,6.0743814h1.4711914v33.4277344H41.289875V6.0743814z"/>
		<path class="st2" d="M65.9368515,39.9923515h-0.4902344c-3.0605507,0-5.9130898-0.8022461-8.557621-2.4067383
			c-2.6450195-1.6044922-4.7319336-3.7363281-6.2617188-6.395998c-1.5307617-2.6586914-2.2954102-5.4887695-2.2954102-8.4907227
			c0-4.7241211,1.7080078-8.7871084,5.1254883-12.1899405c3.4165039-3.4018559,7.5024414-5.1030278,12.2568398-5.1030278
			c3.1791992,0,6.1953125,0.8320313,9.0478516,2.4956055v1.6494145c-2.793457-1.9013677-5.8095703-2.8525395-9.0478516-2.8525395
			c-4.3681679,0-8.1118202,1.5673833-11.2319374,4.7021489c-3.1196289,3.1352539-4.6796875,6.8935537-4.6796875,11.2763662
			c0,4.3833008,1.5600586,8.1494141,4.6796875,11.2983418c3.1201172,3.1499023,6.8637695,4.7246094,11.2319374,4.7246094
			c3.2382813,0,6.2543945-0.9506836,9.0478516-2.8525391v1.6489258
			C72.0579453,39.1608086,69.1160507,39.9923515,65.9368515,39.9923515z"/>
		<path class="st2" d="M80.7786484,6.0743814h1.4262695v12.2568359L96.3338242,6.0743814h1.7827148L82.8289413,19.401041
			l19.2099609,20.1010761h-1.9614258l-17.828125-18.5859394v18.5859394h-1.4707031V6.0743814z"/>
		<path class="st2" d="M121.8719101,6.0743814h1.4262695c4.9916916,0,9.0180588,1.6420898,12.0786057,4.9248052
			c3.0600586,3.2836914,4.5908203,7.2207022,4.5908203,11.8115225c0,4.590332-1.5229492,8.5205078-4.5683594,11.7885761
			c-3.0463867,3.269043-7.0800781,4.902832-12.1010666,4.902832h-1.4262695V6.0743814z M123.6546249,7.4112954h-0.3564453
			v30.7089863h0.3564453c4.3378906,0,7.8959885-1.5,10.6747971-4.5014648
			c2.777832-3.0009785,4.1674805-6.6035175,4.1674805-10.8081074s-1.3896484-7.8222647-4.1674805-10.8530264
			C131.5506134,8.9269209,127.9925156,7.4112954,123.6546249,7.4112954z"/>
		<path class="st2" d="M145.3152618,6.0743814h11.9892578v1.2924805H146.785965v18.1845703h8.7802734v1.2924805h-8.7802734
			v11.3657246h10.5185547v1.2924805h-11.9892578V6.0743814z"/>
		<path class="st2" d="M175.9344025,40.2599297L159.3098907,6.0743814h1.6044922l15.1538086,30.9765644l15.0649414-30.9765644
			h1.4262695L175.9344025,40.2599297z"/>
		<path class="st2" d="M196.7932892,6.0743814h11.9892578v1.2924805h-10.5185547v18.1845703h8.7802734v1.2924805h-8.7802734
			v11.3657246h10.5185547v1.2924805h-11.9892578V6.0743814z"/>
		<path class="st2" d="M214.7102814,6.0743814v32.1352539h10.340332v1.2924805h-11.8110352V6.0743814H214.7102814z"/>
		<path class="st2" d="M228.1038361,34.8668633c-3.3725586-3.4765644-5.0585938-7.5395527-5.0585938-12.1899433
			c0-4.6499023,1.7080078-8.6762686,5.1254883-12.0786123c3.4165039-3.4018559,7.5170898-5.1035161,12.3012695-5.1035161
			c4.7836914,0,8.8696289,1.6938477,12.2568359,5.0810552c3.3877106,3.387207,5.0810699,7.4208975,5.0810699,12.1010733
			c0,4.6796875-1.6791992,8.7509766-5.0366364,12.2124043c-3.3579102,3.4614258-7.3691406,5.1923828-12.0336914,5.1923828h-0.668457
			C235.4646759,40.081707,231.4759064,38.3434258,228.1038361,34.8668633z M256.3392029,22.7657871
			c0-4.3823242-1.5532379-8.1411123-4.6577301-11.2763662c-3.1054688-3.1342773-6.8491211-4.7021489-11.2314453-4.7021489
			c-4.3833008,0-8.1342773,1.5678716-11.2543945,4.7021489c-3.1196289,3.1352539-4.6796875,6.894042-4.6796875,11.2763662
			c0,4.3833008,1.5600586,8.1494141,4.6796875,11.29883c3.1201172,3.1499023,6.8637695,4.7246094,11.2319336,4.7246094
			c4.3676758,0,8.1118164-1.574707,11.2314453-4.7246094C254.779129,30.9152012,256.3392029,27.1490879,256.3392029,22.7657871z"/>
		<path class="st2" d="M263.1131287,6.0743814h1.4707031c3.0908203,0,5.7197266,1.0625,7.8896484,3.1865239
			c2.1679688,2.125,3.2539063,4.628418,3.2539063,7.510253c0,2.8823242-1.1220703,5.3637695-3.3652344,7.4433594
			c-2.2441406,2.0800781-4.7177734,3.1201172-7.4208984,3.1201172h-0.3574219v12.1674824h-1.4707031V6.0743814z
			 M264.5838318,26.0865879h0.3574219c2.4951172,0,4.671875-0.9208984,6.5292969-2.7636719
			c1.8564453-1.8417969,2.7851563-4.0258789,2.7851563-6.5517578c0-2.5249014-0.9433594-4.7246084-2.8300781-6.5961905
			c-1.8867188-1.8720703-4.0488281-2.8081059-6.484375-2.8081059h-0.3574219V26.0865879z"/>
		<path class="st2" d="M314.8147888,6.0743814v33.4277344h-1.4707031V7.8126626l-15.7773438,32.3134766L281.8772888,7.8126626
			v31.689455h-1.3369141V6.0743814h2.1396484l15.0195313,30.8427753l15.0654297-30.8427753H314.8147888z"/>
		<path class="st2" d="M321.4993591,6.0743814h11.9892578v1.2924805h-10.5185547v18.1845703h8.7802734v1.2924805h-8.7802734
			v11.3657246h10.5185547v1.2924805h-11.9892578V6.0743814z"/>
		<path class="st2" d="M362.5481873,6.0743814h1.2929688v33.9179688L339.2386169,9.729167v29.7729492h-1.2929688V5.584147
			l24.6025391,30.2187519V6.0743814z"/>
		<path class="st2" d="M384.8772888,6.0743814v1.2924805h-7.6210938v32.1352539h-1.4707031V7.3668618h-7.7109375V6.0743814
			H384.8772888z"/>
	</g>
</g>
<g id="Слой_5" class="st0">
	<g class="st4">
		<path class="st2" d="M24.8343105,407.3981018h-0.4902344c-3.0610352,0-5.9135742-0.8027344-8.5576181-2.4072266
			c-2.6450195-1.6044922-4.7324219-3.7363281-6.262207-6.3955078c-1.5307612-2.6591797-2.2954097-5.4892578-2.2954097-8.4912109
			c0-4.7241211,1.7084956-8.7871094,5.1254878-12.1899414c3.4165039-3.4018555,7.5024424-5.1030273,12.2568369-5.1030273
			c3.1791992,0,6.1953125,0.8320313,9.0478497,2.4956055v1.6494141c-2.7934551-1.9013672-5.8095684-2.8525391-9.0478497-2.8525391
			c-4.3676758,0-8.1118164,1.5673828-11.2314463,4.7021484c-3.1201172,3.1352539-4.6801758,6.894043-4.6801758,11.2768555
			s1.5600586,8.1494141,4.6801758,11.2978516c3.1196299,3.1503906,6.8637705,4.7246094,11.2314463,4.7246094
			c3.2382813,0,6.2543945-0.9501953,9.0478497-2.8525391v1.6494141
			C30.954916,406.5660706,28.0135098,407.3981018,24.8343105,407.3981018z"/>
		<path class="st2" d="M62.9412422,373.4796448h1.4711952v33.4282227h-1.4711952v-12.7470703H40.0320625v12.7470703h-1.4707031
			v-33.4282227h1.4707031v19.3881836h22.9091797V373.4796448z"/>
		<path class="st2" d="M97.260582,373.4796448v33.4282227h-1.4707031v-31.3334961l-23.3100586,31.3334961h-1.3818359v-33.4282227
			h1.4707031v31.2436523l23.2211914-31.2436523H97.260582z"/>
		<path class="st2" d="M120.3479843,373.4796448h1.4262695v12.0786133l11.0981369-12.0786133h1.6489258l-12.2123947,13.2817383
			l18.0956955,20.1464844h-1.8271484l-16.803215-18.5859375v18.5859375h-1.4262695v-18.5859375l-16.7583008,18.5859375h-1.8720703
			l18.1401367-20.1464844l-12.2124023-13.2817383h1.6044922l11.0981445,12.0786133V373.4796448z"/>
		<path class="st2" d="M156.8509064,374.7721252h-10.5185547v18.1845703h8.7802734v1.2929688h-8.7802734v11.3652344h10.5185547
			v1.2929688h-11.9892578v-33.4282227h11.9892578V374.7721252z"/>
		<path class="st2" d="M185.6873322,373.4796448h1.4711914v33.4282227h-1.4711914v-12.7470703h-22.9091797v12.7470703h-1.4707031
			v-33.4282227h1.4707031v19.3881836h22.9091797V373.4796448z"/>
		<path class="st2" d="M220.0061798,373.4796448v33.4282227h-1.4707031v-31.3334961l-23.3100586,31.3334961h-1.3818359v-33.4282227
			h1.4707031v31.2436523l23.2211914-31.2436523H220.0061798z"/>
		<path class="st2" d="M238.6814728,374.7721252h-10.5185547v18.1845703h8.7802734v1.2929688h-8.7802734v11.3652344h10.5185547
			v1.2929688H226.692215v-33.4282227h11.9892578V374.7721252z"/>
		<path class="st2" d="M8.3430986,426.9645081H29.380209v33.4277344h-1.4707031v-32.1357422H9.8138018v32.1357422H8.3430986
			V426.9645081z"/>
		<path class="st2" d="M50.4622383,426.2066956l16.6245155,34.1855469h-1.6044922l-15.1538124-30.9765625l-15.0649414,30.9765625
			h-1.4262695L50.4622383,426.2066956z"/>
		<path class="st2" d="M85.9842148,426.1617737l16.7138672,34.2304688h-1.5600586l-6.3291016-12.7470703H76.9363632
			l-6.2397461,12.7470703h-1.3818359L85.9842148,426.1617737z M85.8504257,429.236969l-8.3344727,17.1152344h16.7583008
			L85.8504257,429.236969z"/>
		<path class="st2" d="M115.4895859,426.9645081v1.2919922h-7.621582v32.1357422h-1.4711914v-32.1357422h-7.7104492v-1.2919922
			H115.4895859z"/>
		<path class="st2" d="M131.935379,428.2565002H121.416832v18.1845703h8.7802658v1.2929688h-8.7802658v11.3652344h10.5185471
			v1.2929688h-11.9892502v-33.4277344h11.9892502V428.2565002z"/>
		<path class="st2" d="M152.7937775,426.9645081h1.4262695v12.078125l11.0981445-12.078125h1.6489258l-12.2124023,13.28125
			l18.0957031,20.1464844h-1.8271484l-16.8032227-18.5859375v18.5859375h-1.4262695v-18.5859375l-16.7583008,18.5859375h-1.8720703
			l18.1401367-20.1464844l-12.2124023-13.28125h1.6044922l11.0981445,12.078125V426.9645081z"/>
		<path class="st2" d="M189.2967072,428.2565002h-10.5185547v18.1845703h8.7802734v1.2929688h-8.7802734v11.3652344h10.5185547
			v1.2929688h-11.9892578v-33.4277344h11.9892578V428.2565002z"/>
		<path class="st2" d="M219.9158478,426.9645081v33.4277344h-1.4707031v-31.3330078l-23.3100586,31.3330078h-1.3818359v-33.4277344
			h1.4707031v31.2431641l23.2211914-31.2431641H219.9158478z M204.4949493,421.6383362
			c0.8310547,0.7871094,1.7895508,1.1806641,2.8745117,1.1806641c1.0844727,0,2.0424805-0.4013672,2.875-1.203125
			c0.831543-0.8027344,1.3071289-1.7382813,1.4262695-2.8076172h1.2924805
			c-0.0600586,1.3964844-0.6171875,2.6064453-1.6713867,3.6318359c-1.0551758,1.0253906-2.2954102,1.5380859-3.7216797,1.5380859
			h-0.3564453c-1.4262695,0-2.659668-0.5048828-3.699707-1.515625c-1.0400391-1.0097656-1.5898438-2.2285156-1.6489258-3.6542969
			h1.2480469C203.2019806,419.9078674,203.6624298,420.8512268,204.4949493,421.6383362z"/>
	</g>
	<g class="st1">
		<path class="st2" d="M15.2874346,36.1534843c-3.3725586-3.4765625-5.0585938-7.5395527-5.0585938-12.1904316
			c0-4.6499023,1.7084961-8.6757803,5.1254883-12.078124c3.4165049-3.4023438,7.5170908-5.1035161,12.3017588-5.1035161
			c4.7832012,0,8.8691387,1.6938481,12.256834,5.0810552c3.387207,3.387207,5.0810547,7.4208975,5.0810547,12.100585
			c0,4.6801758-1.6791992,8.7514668-5.0366211,12.2124043c-3.3583984,3.4619141-7.3696289,5.1923828-12.0341778,5.1923828h-0.668457
			C22.6487637,41.3678398,18.6595058,39.6295586,15.2874346,36.1534843z M43.5227852,24.0524082
			c0-4.3823242-1.5527344-8.1411123-4.6572266-11.2763662c-3.1054688-3.1342773-6.8496094-4.7021484-11.2319317-4.7021484
			c-4.3833008,0-8.1342773,1.5678711-11.2539063,4.7021484c-3.1201181,3.1352539-4.6801767,6.894042-4.6801767,11.2763662
			c0,4.3833008,1.5600586,8.149416,4.6801767,11.29883c3.1196289,3.1494141,6.8637695,4.7241211,11.2314453,4.7241211
			c4.3681641,0,8.1118145-1.574707,11.2319317-4.7241211C41.9627266,32.2018242,43.5227852,28.435709,43.5227852,24.0524082z"/>
		<path class="st2" d="M66.1639023,7.405436h21.0371094v33.4277344h-1.4707031V8.697917H67.6346054v32.1352539h-1.4707031V7.405436z
			"/>
		<path class="st2" d="M108.2830429,6.6476235l16.6245117,34.1855469h-1.6044922L108.1492538,9.8566084L93.0843124,40.8331718
			h-1.4262695L108.2830429,6.6476235z"/>
		<path class="st2" d="M129.36409,40.8331718V7.405436h1.4707031v19.3881836h8.2011719
			c-0.1489258-0.9506836-0.2231445-1.8422852-0.2231445-2.6743164c0-4.7246094,1.7084961-8.7875967,5.1259766-12.1899405
			c3.4165039-3.4018555,7.5024414-5.1035161,12.2568359-5.1035161c4.753418,0,8.8393555,1.6938481,12.2568359,5.0810552
			c3.4165039,3.387207,5.1254883,7.4140615,5.1254883,12.0786123c0,4.6655273-1.6938477,8.7358418-5.0810547,12.2124043
			s-7.3842773,5.2148438-11.9892578,5.2148438h-0.6689453c-3.8330078,0-7.2871094-1.2924805-10.3623047-3.8779297
			c-3.0756836-2.5849609-5.1479492-5.7338886-6.2177734-9.4487324h-8.4238281v12.7470722H129.36409z M172.107254,24.0968418
			c0-4.3823242-1.5678711-8.1411123-4.7021484-11.2763662c-3.1352539-3.1342773-6.8862305-4.7021484-11.2543945-4.7021484
			c-4.3676758,0-8.1044922,1.5678711-11.2094727,4.7021484c-3.1049805,3.1352539-4.6572266,6.894042-4.6572266,11.2763662
			c0,4.3833008,1.5595703,8.149416,4.6796875,11.29883c3.1201172,3.1499023,6.8564453,4.7246094,11.2094727,4.7246094
			c4.3525391,0,8.0966797-1.574707,11.2319336-4.7246094C170.5393829,32.2462578,172.107254,28.4801426,172.107254,24.0968418z"/>
		<path class="st2" d="M195.6399689,41.3234062h-0.4902344c-3.0610352,0-5.9135742-0.8022461-8.5576172-2.4067383
			c-2.6450195-1.6044922-4.7324219-3.7363281-6.262207-6.3959961c-1.5307617-2.6586933-2.2954102-5.4887714-2.2954102-8.4907246
			c0-4.7241211,1.7084961-8.7871084,5.1254883-12.1899405c3.4165039-3.4018555,7.5024414-5.1030278,12.2568359-5.1030278
			c3.1791992,0,6.1953125,0.8320313,9.0478516,2.4956059v1.6494141c-2.793457-1.9013672-5.8095703-2.8525391-9.0478516-2.8525391
			c-4.3676758,0-8.1118164,1.5673828-11.2314453,4.7021484c-3.1201172,3.1352539-4.6801758,6.8935537-4.6801758,11.2763662
			c0,4.3833008,1.5600586,8.149416,4.6801758,11.2983418c3.1196289,3.1499023,6.8637695,4.7246094,11.2314453,4.7246094
			c3.2382813,0,6.2543945-0.9506836,9.0478516-2.8525391v1.6489258
			C201.7605743,40.4918633,198.8191681,41.3234062,195.6399689,41.3234062z"/>
		<path class="st2" d="M223.8079376,6.6031899l16.7138672,34.2299805h-1.5600586l-6.3291016-12.7470722h-17.8725586
			L208.52034,40.8331718h-1.3818359L223.8079376,6.6031899z M223.6741486,9.6783857l-8.3344727,17.1152344h16.7583008
			L223.6741486,9.6783857z"/>
		<path class="st2" d="M260.5335388,7.405436l-7.1757965,14.7080078l9.136734,18.7197285h-1.6489258l-8.3349762-17.1596699
			l-8.3789063,17.1596699h-1.3818359l9.0478516-18.6748066L244.4436798,7.405436h1.6933594l6.5073242,13.2373047
			l6.4629059-13.2373047H260.5335388z"/>
		<path class="st2" d="M15.2874346,89.6378555c-3.3725586-3.4765625-5.0585938-7.5395508-5.0585938-12.1904297
			c0-4.6499023,1.7084961-8.6757813,5.1254883-12.078125c3.4165049-3.4023399,7.5170908-5.1035118,12.3017588-5.1035118
			c4.7832012,0,8.8691387,1.6938477,12.256834,5.0810509c3.387207,3.387207,5.0810547,7.4208984,5.0810547,12.1005859
			c0,4.6801758-1.6791992,8.7514648-5.0366211,12.2124023c-3.3583984,3.4619141-7.3696289,5.1923828-12.0341778,5.1923828h-0.668457
			C22.6487637,94.852211,18.6595058,93.1139297,15.2874346,89.6378555z M43.5227852,77.5367813
			c0-4.3823242-1.5527344-8.1411133-4.6572266-11.2763672c-3.1054688-3.1342735-6.8496094-4.7021446-11.2319317-4.7021446
			c-4.3833008,0-8.1342773,1.5678711-11.2539063,4.7021446c-3.1201181,3.1352539-4.6801767,6.894043-4.6801767,11.2763672
			c0,4.3833008,1.5600586,8.1494141,4.6801767,11.2988281c3.1196289,3.1494141,6.8637695,4.7241211,11.2314453,4.7241211
			c4.3681641,0,8.1118145-1.574707,11.2319317-4.7241211C41.9627266,85.6861954,43.5227852,81.9200821,43.5227852,77.5367813z"/>
		<path class="st2" d="M50.5647774,60.8898125h1.4262695v12.2568321L66.119957,60.8898125h1.7827148L52.6150703,74.2164688
			L71.8250351,94.317543h-1.9614258L52.0354805,75.7316055V94.317543h-1.4707031V60.8898125z"/>
		<path class="st2" d="M76.2815781,60.8898125h1.4707031c3.090332,0,5.7197266,1.0625,7.8891602,3.1865196
			c2.168457,2.125,3.253418,4.628418,3.253418,7.5102539c0,2.8823242-1.121582,5.3637695-3.3647461,7.4433594
			c-2.2441406,2.0800781-4.7177734,3.1201172-7.4213867,3.1201172h-0.3564453V94.317543h-1.4707031V60.8898125z
			 M77.7522812,80.9020157h0.3564453c2.4960938,0,4.6723633-0.9208984,6.5297852-2.7636719
			c1.8564453-1.8417969,2.7856445-4.0258789,2.7856445-6.5517578c0-2.5249023-0.9438477-4.7246094-2.8300781-6.5961914
			c-1.887207-1.8720665-4.0488281-2.8081017-6.4853516-2.8081017h-0.3564453V80.9020157z"/>
		<path class="st2" d="M118.1326523,60.8898125L102.2654648,94.317543h-1.3818359l3.8330078-8.0673828L92.2371445,60.8898125
			h1.6044922l11.6772461,23.8002892l11.2319336-23.8002892H118.1326523z"/>
		<path class="st2" d="M134.5349884,60.8898125h1.4262695v12.0786095l11.0981445-12.0786095h1.6489258l-12.2124023,13.2817345
			L154.591629,94.317543h-1.8271484l-16.8032227-18.5859375V94.317543h-1.4262695V75.7316055L117.7766953,94.317543h-1.8720703
			l18.1401291-20.1459961l-12.2123947-13.2817345h1.6044922l11.0981369,12.0786095V60.8898125z"/>
		<path class="st2" d="M171.0379181,62.1822929h-10.5185547v18.1845665h8.7802734v1.2924805h-8.7802734v11.3657227h10.5185547
			v1.2924805h-11.9892578V60.8898125h11.9892578V62.1822929z"/>
		<path class="st2" d="M199.8743439,60.8898125h1.4711914V94.317543h-1.4711914V81.5704727h-22.9091797V94.317543h-1.4707031
			V60.8898125h1.4707031v19.3881798h22.9091797V60.8898125z"/>
		<path class="st2" d="M234.1931915,60.8898125V94.317543h-1.4707031V62.984539l-23.3100586,31.333004h-1.3818359V60.8898125
			h1.4707031V92.133461l23.2211914-31.2436485H234.1931915z"/>
		<path class="st2" d="M250.372879,60.8898125h1.9165039V94.317543h-1.4262695V83.7096329L240.7454376,94.317543h-1.6489258
			l11.4990234-12.1230469h-0.5795898c-2.5556641,0-4.9472656-1.0546875-7.1757813-3.1645508
			c-2.2285156-2.109375-3.3427734-4.5976563-3.3427734-7.4658203c0-2.8666992,1.0922852-5.362793,3.2758789-7.487793
			C244.9573517,61.9523125,247.4900665,60.8898125,250.372879,60.8898125z M250.0608673,80.9020157h0.8022461V62.1822929h-0.5795898
			c-2.4365234,0-4.605957,0.9360352-6.5073242,2.8081017c-1.9018555,1.871582-2.8525391,4.0712891-2.8525391,6.5961914
			c0,2.5258789,0.9208984,4.7099609,2.7636719,6.5517578C245.529129,79.9811172,247.654129,80.9020157,250.0608673,80.9020157z"/>
	</g>
</g>
</svg>
