<?xml version="1.0" encoding="utf-8"?>
<!-- Generator: Adobe Illustrator 21.0.1, SVG Export Plug-In . SVG Version: 6.00 Build 0)  -->
<svg version="1.1" xmlns="http://www.w3.org/2000/svg" xmlns:xlink="http://www.w3.org/1999/xlink" x="0px" y="0px"
	 viewBox="0 0 180.6666718 52.5" style="enable-background:new 0 0 180.6666718 52.5;" xml:space="preserve">
<style type="text/css">
	.st0{display:none;}
	.st1{display:inline;opacity:0.2;}
	.st2{fill:#D3D3D3;stroke:#D8D8D8;stroke-width:2;}
	.st3{opacity:0.3;}
	.st4{opacity:0.2;}
</style>
<g id="Слой_1" class="st0">
	<g class="st1">
		<path class="st2" d="M32.7224922-6.8535156h1.4711914v33.4277344h-1.4711914V13.8271484H9.8133135v12.7470703H8.3426104
			V-6.8535156h1.4707031V12.534668h22.9091797V-6.8535156z"/>
		<path class="st2" d="M44.8230782,21.8945313c-3.3725586-3.4765625-5.0585938-7.5395508-5.0585938-12.1904297
			c0-4.6499023,1.7084961-8.6757813,5.1254883-12.078125c3.4165039-3.4023438,7.5170898-5.1035156,12.3017578-5.1035156
			c4.7832031,0,8.8691444,1.6938477,12.2568398,5.0810547c3.387207,3.387207,5.0810547,7.4208984,5.0810547,12.1005859
			c0,4.6801758-1.6791992,8.7514648-5.0366211,12.2124023c-3.3583984,3.4619141-7.3696327,5.1923828-12.0341835,5.1923828h-0.668457
			C52.1844063,27.1088867,48.1951485,25.3706055,44.8230782,21.8945313z M73.0584335,9.793457
			c0-4.3823242-1.5527344-8.1411133-4.6572266-11.2763672c-3.1054688-3.1342773-6.8496132-4.7021484-11.2319374-4.7021484
			c-4.3833008,0-8.1342773,1.5678711-11.2539063,4.7021484c-3.1201172,3.1352539-4.6801758,6.894043-4.6801758,11.2763672
			c0,4.3833008,1.5600586,8.1494141,4.6801758,11.2988281c3.1196289,3.1494141,6.8637695,4.7241211,11.2314453,4.7241211
			c4.3681641,0,8.1118202-1.574707,11.2319374-4.7241211C71.4983749,17.9428711,73.0584335,14.1767578,73.0584335,9.793457z"/>
		<path class="st2" d="M80.1004257-6.8535156h1.4262695c1.9311523,0,3.550293,0.6015625,4.8583984,1.8051758
			c1.3071289,1.203125,1.9609375,2.7407227,1.9609375,4.612793c0,1.1298828-0.3642578,2.2807617-1.0922852,3.4541016
			c-0.7280273,1.1743164-1.5820313,1.9389648-2.5625,2.2954102c2.2875977,0.5649414,4.1894531,1.7832031,5.7050781,3.6547852
			c1.5151367,1.8720703,2.2729492,4.2275391,2.2729492,7.0644531c0,2.8378906-1.0849609,5.3041992-3.253418,7.3989258
			c-2.1694336,2.0947266-4.7993164,3.1420898-7.8891602,3.1420898h-1.4262695V-6.8535156z M81.5266953-5.6054688V4.9130859
			h0.3564453c1.3374023,0,2.5185547-0.5419922,3.543457-1.6269531c1.0249023-1.0844727,1.5375977-2.3320313,1.5375977-3.7436523
			c0-1.4111328-0.5053711-2.6220703-1.5151367-3.6328125c-1.0107422-1.0097656-2.1992188-1.5151367-3.565918-1.5151367H81.5266953z
			 M81.5266953,6.1162109v19.2099609h0.3564453c2.5551758,0,4.7617188-0.9506836,6.6186523-2.8525391
			c1.8569336-1.9008789,2.7856445-4.159668,2.7856445-6.7744141s-0.9213867-4.8652344-2.7631836-6.7524414
			c-1.8427734-1.8867188-4.0561523-2.8305664-6.6411133-2.8305664H81.5266953z"/>
		<path class="st2" d="M101.5159531,21.8945313c-3.3725586-3.4765625-5.0585938-7.5395508-5.0585938-12.1904297
			c0-4.6499023,1.7084961-8.6757813,5.1254883-12.078125c3.4165039-3.4023438,7.5170898-5.1035156,12.3017578-5.1035156
			c4.7832031,0,8.8691406,1.6938477,12.2568359,5.0810547c3.3871994,3.387207,5.0810471,7.4208984,5.0810471,12.1005859
			c0,4.6801758-1.6791992,8.7514648-5.0366135,12.2124023c-3.3583984,3.4619141-7.3696289,5.1923828-12.0341797,5.1923828h-0.668457
			C108.8772812,27.1088867,104.8880234,25.3706055,101.5159531,21.8945313z M129.751297,9.793457
			c0-4.3823242-1.5527344-8.1411133-4.6572189-11.2763672c-3.1054688-3.1342773-6.8496094-4.7021484-11.2319336-4.7021484
			c-4.3833008,0-8.1342773,1.5678711-11.2539063,4.7021484c-3.1201172,3.1352539-4.6801758,6.894043-4.6801758,11.2763672
			c0,4.3833008,1.5600586,8.1494141,4.6801758,11.2988281c3.1196289,3.1494141,6.8637695,4.7241211,11.2314453,4.7241211
			c4.3681641,0,8.1118164-1.574707,11.2319336-4.7241211C128.1912384,17.9428711,129.751297,14.1767578,129.751297,9.793457z"/>
		<path class="st2" d="M136.7932892-6.8535156h1.4262695V5.4033203L152.348465-6.8535156h1.7827148L138.8435822,6.4731445
			l19.2099609,20.1010742h-1.9614258l-17.828125-18.5859375v18.5859375h-1.4707031V-6.8535156z"/>
		<path class="st2" d="M163.3347931,21.8945313c-3.3725586-3.4765625-5.0585938-7.5395508-5.0585938-12.1904297
			c0-4.6499023,1.7084961-8.6757813,5.1254883-12.078125c3.4165039-3.4023438,7.5170898-5.1035156,12.3017578-5.1035156
			c4.7832031,0,8.8691406,1.6938477,12.2568359,5.0810547c3.387207,3.387207,5.0810547,7.4208984,5.0810547,12.1005859
			c0,4.6801758-1.6791992,8.7514648-5.0366211,12.2124023c-3.3583984,3.4619141-7.3696289,5.1923828-12.0341797,5.1923828h-0.668457
			C170.6961212,27.1088867,166.7068634,25.3706055,163.3347931,21.8945313z M191.5701447,9.793457
			c0-4.3823242-1.5527344-8.1411133-4.6572266-11.2763672c-3.1054688-3.1342773-6.8496094-4.7021484-11.2319336-4.7021484
			c-4.3833008,0-8.1342773,1.5678711-11.2539063,4.7021484c-3.1201172,3.1352539-4.6801758,6.894043-4.6801758,11.2763672
			c0,4.3833008,1.5600586,8.1494141,4.6801758,11.2988281c3.1196289,3.1494141,6.8637695,4.7241211,11.2314453,4.7241211
			c4.3681641,0,8.1118164-1.574707,11.2319336-4.7241211C190.0100861,17.9428711,191.5701447,14.1767578,191.5701447,9.793457z"/>
		<path class="st2" d="M193.7097931,30.8974609v-5.6157227h2.4511719l16.0898438-32.8930664l16.090332,32.8930664h2.1391602
			v5.6157227h-1.3818359v-4.3232422h-34.0961914v4.3232422H193.7097931z M212.1175079-4.5361328l-14.574707,29.8178711h29.2827148
			L212.1175079-4.5361328z"/>
		<path class="st2" d="M249.8235626-7.6557617l16.7133942,34.2299805h-1.5595703l-6.3291016-12.7470703h-17.8725739
			l-6.2397461,12.7470703h-1.3818359L249.8235626-7.6557617z M249.6897736-4.5805664l-8.3344727,17.1152344h16.758316
			L249.6897736-4.5805664z"/>
		<path class="st2" d="M294.1263123,26.5742188H270.993988V-6.8535156h1.4707031v32.1352539h18.0512695V-6.8535156h1.4707031
			v32.1352539h3.4326172v5.6157227h-1.2929688V26.5742188z"/>
		<path class="st2" d="M299.8763123-6.8535156h1.4707031v13.059082h0.4013672c2.4355469,0,4.7246094,1.0102539,6.8632813,3.0307617
			c2.1396484,2.0209961,3.2099609,4.3979492,3.2099609,7.1313477c0,2.7338867-1.0478516,5.1186523-3.1425781,7.1533203
			c-2.0947266,2.0356445-4.5390625,3.0532227-7.3320313,3.0532227h-1.4707031V-6.8535156z M301.7034607,7.4980469h-0.3564453
			v17.7836914h0.3564453c2.2285156,0,4.2265625-0.8916016,5.9951172-2.6743164
			c1.7675781-1.7827148,2.6513672-3.8623047,2.6513672-6.2397461c0-2.3769531-0.8759766-4.4492188-2.6289063-6.2177734
			C305.9671326,8.3823242,303.9612732,7.4980469,301.7034607,7.4980469z"/>
		<path class="st2" d="M317.3919373-6.8535156h1.4257813V5.4033203l14.1289063-12.2568359h1.7832031L319.4417419,6.4731445
			l19.2099609,20.1010742h-1.9609375l-17.828125-18.5859375v18.5859375h-1.4707031V-6.8535156z"/>
		<path class="st2" d="M343.3313904-6.8535156h1.4707031v33.4277344h-1.4707031V-6.8535156z"/>
		<path class="st2" d="M8.3426104,46.6308594h1.4262695c1.9311523,0,3.550293,0.6015625,4.8583984,1.8051758
			c1.3071289,1.203125,1.9609385,2.7407227,1.9609385,4.612793c0,1.1298828-0.3642578,2.2807617-1.0922861,3.4541016
			c-0.7280273,1.1743164-1.5820313,1.9389648-2.5625,2.2954102c2.2875977,0.5649414,4.1894541,1.7832031,5.7050791,3.6547852
			c1.5151367,1.8720703,2.2729492,4.2275391,2.2729492,7.0644531c0,2.8378906-1.0849609,5.3041992-3.253418,7.3989258
			c-2.1694345,2.0947266-4.7993174,3.1420898-7.8891611,3.1420898H8.3426104V46.6308594z M9.7688799,47.8789063v10.5185547
			h0.3564453c1.3374023,0,2.5185547-0.5419922,3.543457-1.6269531c1.0249023-1.0844727,1.5375977-2.3320313,1.5375977-3.7436523
			c0-1.4111328-0.5053711-2.6220703-1.5151367-3.6328125c-1.0107422-1.0097656-2.1992188-1.5151367-3.565918-1.5151367H9.7688799z
			 M9.7688799,59.6005859v19.2099609h0.3564453c2.5551758,0,4.7617188-0.9506836,6.6186533-2.8525391
			c1.8569336-1.9008789,2.7856445-4.159668,2.7856445-6.7744141s-0.9213867-4.8652344-2.7631836-6.7524414
			c-1.8427744-1.8867188-4.0561533-2.8305664-6.6411142-2.8305664H9.7688799z"/>
		<path class="st2" d="M37.8035469,47.9233398H27.2849941v18.1845703h8.7802715v1.2924805h-8.7802715v11.3657227h10.5185528
			v1.2924805H25.814291V46.6308594h11.9892559V47.9233398z"/>
		<path class="st2" d="M58.6619453,46.6308594h1.4262695v12.0786133l11.0981483-12.0786133h1.6489258L60.6228828,59.9125977
			l18.0957069,20.1459961h-1.8271484L60.0882149,61.4726563v18.5859375h-1.4262695V61.4726563L41.9036446,80.0585938h-1.8720703
			L58.171711,59.9125977L45.9593086,46.6308594h1.6044922l11.0981445,12.0786133V46.6308594z"/>
		<path class="st2" d="M83.3982773,46.6308594h1.4711914v33.4277344h-1.4711914V46.6308594z"/>
	</g>
</g>
<g id="Слой_2" class="st0">
	<g class="st1">
		<path class="st2" d="M8.0096025,12.8129883h1.4262695c1.9311523,0,3.550293,0.6015625,4.8583984,1.8051758
			c1.3071289,1.203125,1.9609385,2.7407227,1.9609385,4.612793c0,1.1298828-0.3642588,2.2807617-1.0922861,3.4541016
			c-0.7280273,1.1743164-1.5820313,1.9389648-2.5625,2.2954102c2.2875977,0.5649414,4.1894541,1.7832031,5.7050791,3.6547852
			c1.5151367,1.8720703,2.2729492,4.2275391,2.2729492,7.0644531c0,2.8378906-1.0849609,5.3041992-3.253418,7.3989258
			c-2.1694345,2.0947266-4.7993174,3.1420898-7.8891611,3.1420898H8.0096025V12.8129883z M9.4358721,14.0610352v10.5185547
			h0.3564453c1.3374023,0,2.5185547-0.5419922,3.543457-1.6269531c1.0249023-1.0844727,1.5375977-2.3320313,1.5375977-3.7436523
			c0-1.4111328-0.5053711-2.6220703-1.5151367-3.6328125c-1.0107422-1.0097656-2.1992188-1.5151367-3.565918-1.5151367H9.4358721z
			 M9.4358721,25.7827148v19.2099609h0.3564453c2.5551758,0,4.7617188-0.9506836,6.6186533-2.8525391
			c1.8569336-1.9008789,2.7856445-4.159668,2.7856445-6.7744141s-0.9213867-4.8652344-2.7631836-6.7524414
			c-1.8427744-1.8867188-4.0561533-2.8305664-6.6411142-2.8305664H9.4358721z"/>
		<path class="st2" d="M55.0755196,18.9189453c0,2.4960938-1.1889648,4.4277344-3.5654297,5.7944336
			c2.4067383,0.534668,4.3901367,1.8793945,5.949707,4.0336914c1.5600586,2.1542969,2.340332,4.4946289,2.340332,7.0195313
			c0,3.0307617-1.1142578,5.6313477-3.3427734,7.7998047c-2.2285156,2.1694336-4.918457,3.2539063-8.0673828,3.2539063
			c-1.9018555,0-3.6625977-0.4238281-5.2817383-1.2705078c-1.6196289-0.8466797-2.8901367-2.027832-3.8105469-3.543457v-2.4956055
			c0.8022461,1.7827148,2.0126953,3.2314453,3.6323242,4.3457031c1.6191406,1.1142578,3.4541016,1.6713867,5.5043945,1.6713867
			c2.7036133,0,5.0288086-0.965332,6.9755859-2.8974609c1.9458008-1.9311523,2.9189453-4.2563477,2.9189453-6.9750977
			s-0.9580078-5.0732422-2.8745117-7.0644531c-1.9165039-1.9902344-4.2563477-2.9863281-7.0200195-2.9863281h-1.6933594v-1.2480469
			h1.4262695c1.5151367,0,2.800293-0.534668,3.8549805-1.6044922c1.0546875-1.0693359,1.5825195-2.3466797,1.5825195-3.8330078
			c0-1.4853516-0.527832-2.7553711-1.5825195-3.8105469c-1.0546875-1.0546875-2.2661133-1.5825195-3.6323242-1.5825195
			c-1.3671875,0-2.5556641,0.3422852-3.5654297,1.0253906c-1.0107422,0.6835938-1.6938477,1.5751953-2.050293,2.6743164v-2.3178711
			c1.3369141-1.7827148,3.0454102-2.6743164,5.1254883-2.6743164c2.0795898,0,3.7954102,0.6538086,5.1479492,1.9614258
			C54.39925,15.5024414,55.0755196,17.0771484,55.0755196,18.9189453z"/>
		<path class="st2" d="M76.9143906,14.1054688H66.3958359v18.1845703h8.7802734v1.2924805h-8.7802734v11.3657227h10.5185547
			v1.2924805H64.9251328V12.8129883h11.9892578V14.1054688z"/>
		<path class="st2" d="M95.7674179,12.0551758l16.6245117,34.1855469h-1.6044922L95.6336288,15.2641602L80.5686874,46.2407227
			h-1.4262695L95.7674179,12.0551758z"/>
		<path class="st2" d="M128.8377228,14.1054688h-10.5185471v18.1845703h8.7802734v1.2924805h-8.7802734v11.3657227h10.5185471
			v1.2924805h-11.9892502V12.8129883h11.9892502V14.1054688z"/>
		<path class="st2" d="M157.6741486,12.8129883h1.4711914v33.4277344h-1.4711914V33.4936523h-22.9091797v12.7470703h-1.4707031
			V12.8129883h1.4707031v19.3881836h22.9091797V12.8129883z"/>
		<path class="st2" d="M169.7747345,41.5610352c-3.3725586-3.4765625-5.0585938-7.5395508-5.0585938-12.1904297
			c0-4.6499023,1.7084961-8.6757813,5.1254883-12.078125c3.4165039-3.4023438,7.5170898-5.1035156,12.3017578-5.1035156
			c4.7832031,0,8.8691406,1.6938477,12.2568359,5.0810547c3.387207,3.387207,5.0810547,7.4208984,5.0810547,12.1005859
			c0,4.6801758-1.6791992,8.7514648-5.0366211,12.2124023c-3.3583984,3.4619141-7.3696289,5.1923828-12.0341797,5.1923828h-0.668457
			C177.1360626,46.7753906,173.1468048,45.0371094,169.7747345,41.5610352z M198.0100861,29.4599609
			c0-4.3823242-1.5527344-8.1411133-4.6572266-11.2763672c-3.1054688-3.1342773-6.8496094-4.7021484-11.2319336-4.7021484
			c-4.3833008,0-8.1342773,1.5678711-11.2539063,4.7021484c-3.1201172,3.1352539-4.6801758,6.894043-4.6801758,11.2763672
			c0,4.3833008,1.5600586,8.1494141,4.6801758,11.2988281c3.1196289,3.1494141,6.8637695,4.7241211,11.2314453,4.7241211
			c4.3681641,0,8.1118164-1.574707,11.2319336-4.7241211C196.4500275,37.609375,198.0100861,33.8432617,198.0100861,29.4599609z"/>
		<path class="st2" d="M239.3264923,12.8129883v33.4277344h-1.4707031V14.5512695l-15.777832,32.3134766l-15.6889648-32.3134766
			v31.6894531h-1.3369141V12.8129883h2.1391602l15.0205078,30.8427734l15.0649414-30.8427734H239.3264923z"/>
		<path class="st2" d="M11.9539385,95.0454102c-3.3725586-3.4765625-5.0585933-7.5395508-5.0585933-12.1904297
			c0-4.6499023,1.7084956-8.6757813,5.1254878-12.078125c3.4165039-3.4023438,7.5170908-5.1035156,12.3017588-5.1035156
			c4.7832031,0,8.8691387,1.6938477,12.256834,5.0810547c3.387207,3.387207,5.0810547,7.4208984,5.0810547,12.1005859
			c0,4.6801758-1.6791992,8.7514648-5.0366211,12.2124023c-3.3583984,3.4619141-7.369627,5.1923828-12.0341778,5.1923828h-0.668457
			C19.3152676,100.2597656,15.3260088,98.5214844,11.9539385,95.0454102z M40.1892891,82.9443359
			c0-4.3823242-1.5527344-8.1411133-4.6572266-11.2763672c-3.1054688-3.1342773-6.8496075-4.7021484-11.2319317-4.7021484
			c-4.3833008,0-8.1342773,1.5678711-11.2539072,4.7021484c-3.1201172,3.1352539-4.6801758,6.894043-4.6801758,11.2763672
			c0,4.3833008,1.5600586,8.1494141,4.6801758,11.2988281c3.1196299,3.1494141,6.8637705,4.7241211,11.2314463,4.7241211
			c4.3681641,0,8.1118145-1.574707,11.2319317-4.7241211C38.6292305,91.09375,40.1892891,87.3276367,40.1892891,82.9443359z"/>
		<path class="st2" d="M58.5525703,65.4951172l16.713871,34.2299805h-1.5600586l-6.3291016-12.7470703H49.5047188
			l-6.2397461,12.7470703h-1.3818359L58.5525703,65.4951172z M58.4187813,68.5703125l-8.3344727,17.1152344h16.7583046
			L58.4187813,68.5703125z"/>
		<path class="st2" d="M93.7181015,72.4033203c0,2.4960938-1.1889648,4.4277344-3.5654297,5.7944336
			c2.4067383,0.534668,4.3901367,1.8793945,5.949707,4.0336914c1.5600586,2.1542969,2.340332,4.4946289,2.340332,7.0195313
			c0,3.0307617-1.1142578,5.6313477-3.3427734,7.7998047c-2.2285156,2.1694336-4.918457,3.2539063-8.0673828,3.2539063
			c-1.9018555,0-3.6625977-0.4238281-5.2817383-1.2705078c-1.6196289-0.8466797-2.8901367-2.027832-3.8105469-3.543457v-2.4956055
			c0.8022461,1.7827148,2.0126953,3.2314453,3.6323242,4.3457031c1.6191406,1.1142578,3.4541016,1.6713867,5.5043945,1.6713867
			c2.7036133,0,5.0288086-0.965332,6.9755859-2.8974609c1.9458008-1.9311523,2.9189453-4.2563477,2.9189453-6.9750977
			s-0.9580078-5.0732422-2.8745117-7.0644531c-1.9165039-1.9902344-4.2563477-2.9863281-7.0200195-2.9863281h-1.6933594v-1.2480469
			h1.4262695c1.5151367,0,2.800293-0.534668,3.8549805-1.6044922c1.0546875-1.0693359,1.5825195-2.3466797,1.5825195-3.8330078
			c0-1.4853516-0.527832-2.7553711-1.5825195-3.8105469c-1.0546875-1.0546875-2.2661133-1.5825195-3.6323242-1.5825195
			c-1.3671875,0-2.5556641,0.3422852-3.5654297,1.0253906c-1.0107422,0.6835938-1.6938477,1.5751953-2.050293,2.6743164v-2.3178711
			c1.3369141-1.7827148,3.0454102-2.6743164,5.1254883-2.6743164c2.0795898,0,3.7954102,0.6538086,5.1479492,1.9614258
			C93.041832,68.9868164,93.7181015,70.5615234,93.7181015,72.4033203z"/>
		<path class="st2" d="M129.7303009,66.2973633v33.4277344h-1.4707031V68.3920898l-23.310051,31.3330078h-1.3818359V66.2973633
			h1.4707031v31.2436523l23.2211838-31.2436523H129.7303009z"/>
		<path class="st2" d="M152.9070587,100.215332h-0.4902344c-3.0610352,0-5.9135742-0.8022461-8.5576172-2.4067383
			c-2.6450195-1.6044922-4.7324219-3.7363281-6.262207-6.3959961c-1.5307617-2.6586914-2.2954102-5.4887695-2.2954102-8.4907227
			c0-4.7241211,1.7084961-8.7871094,5.1254883-12.1899414c3.4165039-3.4018555,7.5024414-5.1030273,12.2568359-5.1030273
			c3.1791992,0,6.1953125,0.8320313,9.0478516,2.4956055v1.6494141c-2.793457-1.9013672-5.8095703-2.8525391-9.0478516-2.8525391
			c-4.3676758,0-8.1118164,1.5673828-11.2314453,4.7021484c-3.1201172,3.1352539-4.6801758,6.8935547-4.6801758,11.2763672
			c0,4.3833008,1.5600586,8.1494141,4.6801758,11.2983398c3.1196289,3.1499023,6.8637695,4.7246094,11.2314453,4.7246094
			c3.2382813,0,6.2543945-0.9506836,9.0478516-2.8525391v1.6489258
			C159.0276642,99.3837891,156.0862579,100.215332,152.9070587,100.215332z"/>
		<path class="st2" d="M178.6238556,67.5898438h-10.5185547v18.1845703h8.7802734v1.2924805h-8.7802734v11.3657227h10.5185547
			v1.2924805h-11.9892578V66.2973633h11.9892578V67.5898438z"/>
	</g>
</g>
<g id="Слой_3" class="st0">
	<g class="st1">
		<path class="st2" d="M5.009603,15.1464844h1.4262695v12.2568359l14.1289063-12.2568359h1.7827148L7.059896,28.4731445
			l19.2099609,20.1010742h-1.9614258L6.4803061,29.9882813v18.5859375H5.009603V15.1464844z"/>
		<path class="st2" d="M31.5511074,43.8945313c-3.3725586-3.4765625-5.0585938-7.5395508-5.0585938-12.1904297
			c0-4.6499023,1.7084961-8.6757813,5.1254883-12.078125c3.416502-3.4023438,7.5170879-5.1035156,12.3017559-5.1035156
			c4.7832031,0,8.8691406,1.6938477,12.2568359,5.0810547c3.387207,3.387207,5.0810547,7.4208984,5.0810547,12.1005859
			c0,4.6801758-1.6791992,8.7514648-5.0366211,12.2124023c-3.3583984,3.4619141-7.3696289,5.1923828-12.0341797,5.1923828h-0.668457
			C38.9124336,49.1088867,34.9231758,47.3706055,31.5511074,43.8945313z M59.7864571,31.793457
			c0-4.3823242-1.5527344-8.1411133-4.6572266-11.2763672c-3.1054688-3.1342773-6.8496094-4.7021484-11.2319336-4.7021484
			c-4.3833008,0-8.1342773,1.5678711-11.2539063,4.7021484c-3.1201153,3.1352539-4.6801739,6.894043-4.6801739,11.2763672
			c0,4.3833008,1.5600586,8.1494141,4.6801739,11.2988281c3.1196289,3.1494141,6.8637695,4.7241211,11.2314453,4.7241211
			c4.3681641,0,8.1118164-1.574707,11.2319336-4.7241211C58.2263985,39.9428711,59.7864571,36.1767578,59.7864571,31.793457z"/>
		<path class="st2" d="M101.1028671,15.1464844v33.4277344H99.632164V16.8847656L83.854332,49.1982422L68.1653671,16.8847656
			v31.6894531h-1.3369141V15.1464844h2.1391602L83.988121,45.9892578l15.0649414-30.8427734H101.1028671z"/>
		<path class="st2" d="M122.5857773,49.6884766v-2.6743164h-0.3120117c-4.2495117,0-7.9111328-1.5224609-10.9863281-4.5683594
			c-3.0756836-3.0454102-4.6132813-6.6186523-4.6132813-10.7192383s1.5375977-7.6435547,4.6132813-10.6298828
			c3.0751953-2.9863281,6.722168-4.4794922,10.9418945-4.4794922h0.3564453v-2.5849609h1.4707031v2.5849609h0.3120117
			c4.2490158,0,7.9111252,1.5229492,10.9868088,4.5683594c3.0751953,3.0463867,4.612793,6.6040039,4.612793,10.6748047
			c0,4.0712891-1.5454102,7.6147461-4.6352539,10.6298828c-3.0908203,3.0161133-6.7456055,4.5239258-10.9643478,4.5239258
			h-0.3120117v2.6743164H122.5857773z M122.2737656,45.8110352h0.3120117V17.8208008h-0.3564453
			c-3.8330078,0-7.1391602,1.3813477-9.9169922,4.1450195c-2.7788086,2.7631836-4.1674805,6.0390625-4.1674805,9.8276367
			s1.3886719,7.0722656,4.1674805,9.8500977C115.0901718,44.4223633,118.4109726,45.8110352,122.2737656,45.8110352z
			 M124.413414,17.8208008h-0.3569336v27.9902344h0.3120117c3.8330002,0,7.153801-1.3818359,9.9614182-4.1450195
			c2.8081055-2.7636719,4.2119141-6.0317383,4.2119141-9.8056641c0-3.7734375-1.4189453-7.0566406-4.2563477-9.8500977
			C131.4475861,19.2177734,128.1570587,17.8208008,124.413414,17.8208008z"/>
		<path class="st2" d="M149.4832306,43.8945313c-3.3725586-3.4765625-5.0585938-7.5395508-5.0585938-12.1904297
			c0-4.6499023,1.7084961-8.6757813,5.1254883-12.078125c3.4165039-3.4023438,7.5170898-5.1035156,12.3017578-5.1035156
			c4.7832031,0,8.8691406,1.6938477,12.2568359,5.0810547c3.387207,3.387207,5.0810547,7.4208984,5.0810547,12.1005859
			c0,4.6801758-1.6791992,8.7514648-5.0366211,12.2124023c-3.3583984,3.4619141-7.3696289,5.1923828-12.0341797,5.1923828h-0.668457
			C156.8445587,49.1088867,152.8553009,47.3706055,149.4832306,43.8945313z M177.7185822,31.793457
			c0-4.3823242-1.5527344-8.1411133-4.6572266-11.2763672c-3.1054688-3.1342773-6.8496094-4.7021484-11.2319336-4.7021484
			c-4.3833008,0-8.1342773,1.5678711-11.2539063,4.7021484c-3.1201172,3.1352539-4.6801758,6.894043-4.6801758,11.2763672
			c0,4.3833008,1.5600586,8.1494141,4.6801758,11.2988281c3.1196289,3.1494141,6.8637695,4.7241211,11.2314453,4.7241211
			c4.3681641,0,8.1118164-1.574707,11.2319336-4.7241211C176.1585236,39.9428711,177.7185822,36.1767578,177.7185822,31.793457z"/>
		<path class="st2" d="M184.7600861,15.1464844h1.4707031c3.090332,0,5.7197266,1.0625,7.8891602,3.1865234
			c2.168457,2.125,3.253418,4.628418,3.253418,7.5102539c0,2.8823242-1.121582,5.3637695-3.3647461,7.4433594
			c-2.2441406,2.0800781-4.7177734,3.1201172-7.4213867,3.1201172h-0.3564453v12.1674805h-1.4707031V15.1464844z
			 M186.2307892,35.1586914h0.3564453c2.4960938,0,4.6723633-0.9208984,6.5297852-2.7636719
			c1.8564453-1.8417969,2.7856445-4.0258789,2.7856445-6.5517578c0-2.5249023-0.9438477-4.7246094-2.8300781-6.5961914
			c-1.887207-1.8720703-4.0488281-2.8081055-6.4853516-2.8081055h-0.3564453V35.1586914z"/>
		<path class="st2" d="M217.5193634,15.1464844v1.2924805h-7.621582v32.1352539H208.42659V16.4389648h-7.7104492v-1.2924805
			H217.5193634z"/>
		<path class="st2" d="M263.7371521,15.1464844v33.4277344h-1.4707031V17.2412109l-23.3100739,31.3330078h-1.3818359V15.1464844
			h1.4707031v31.2436523l23.2212067-31.2436523H263.7371521z"/>
		<path class="st2" d="M286.0227966,15.1464844h1.4257813v12.2568359l14.1289063-12.2568359h1.7832031l-15.2880859,13.3266602
			l19.2099609,20.1010742h-1.9609375l-17.828125-18.5859375v18.5859375h-1.4707031V15.1464844z"/>
		<path class="st2" d="M326.1800232,14.3442383l16.7138672,34.2299805h-1.5595703l-6.3291016-12.7470703h-17.8730469
			l-6.2392578,12.7470703h-1.3818359L326.1800232,14.3442383z M326.0462341,17.4194336l-8.3339844,17.1152344h16.7578125
			L326.0462341,17.4194336z"/>
		<path class="st2" d="M341.1106873,26.0664063V15.1464844h1.4716797v10.6079102
			c0,2.4365234,0.8242188,4.5234375,2.4736328,6.2617188c1.6484375,1.7382813,3.6542969,2.6074219,6.0166016,2.6074219
			s4.3681641-0.8691406,6.0166016-2.6074219c1.6494141-1.7382813,2.4736328-3.8251953,2.4736328-6.2617188V15.1464844h1.4716797
			v33.4277344h-1.4716797V30.4785156c-0.7431641,1.5751953-1.8574219,2.875-3.3427734,3.8999023
			c-1.4853516,1.0253906-3.1191406,1.5375977-4.9023438,1.5375977h-0.4453125c-2.6455078,0-4.9326172-0.9873047-6.8642578-2.9638672
			C342.0765076,30.9765625,341.1106873,28.6811523,341.1106873,26.0664063z"/>
		<path class="st2" d="M379.7083435,16.4389648h-10.5185547v18.1845703h8.7802734v1.2924805h-8.7802734v11.3657227h10.5185547
			v1.2924805h-11.9892578V15.1464844h11.9892578V16.4389648z"/>
		<path class="st2" d="M400.6565857,49.0644531h-0.4902344c-3.0605469,0-5.9130859-0.8022461-8.5576172-2.4067383
			c-2.6455078-1.6044922-4.7324219-3.7363281-6.2626953-6.3959961c-1.5302734-2.6586914-2.2949219-5.4887695-2.2949219-8.4907227
			c0-4.7241211,1.7080078-8.7871094,5.1259766-12.1899414c3.4160156-3.4018555,7.5019531-5.1030273,12.2568359-5.1030273
			c3.1787109,0,6.1953125,0.8320313,9.0478516,2.4956055v1.6494141c-2.7939453-1.9013672-5.8095703-2.8525391-9.0478516-2.8525391
			c-4.3681641,0-8.1123047,1.5673828-11.2324219,4.7021484c-3.1191406,3.1352539-4.6796875,6.8935547-4.6796875,11.2763672
			c0,4.3833008,1.5605469,8.1494141,4.6796875,11.2983398c3.1201172,3.1499023,6.8642578,4.7246094,11.2324219,4.7246094
			c3.2382813,0,6.2539063-0.9506836,9.0478516-2.8525391v1.6489258
			C406.7776794,48.2329102,403.8352966,49.0644531,400.6565857,49.0644531z"/>
		<path class="st2" d="M428.9573669,15.1464844v1.2924805h-7.6210938v32.1352539h-1.4707031V16.4389648h-7.7109375v-1.2924805
			H428.9573669z"/>
		<path class="st2" d="M433.4143982,15.1464844h1.4257813c1.9316406,0,3.5507813,0.6015625,4.8583984,1.8051758
			c1.3076172,1.203125,1.9609375,2.7407227,1.9609375,4.612793c0,1.1298828-0.3642578,2.2807617-1.0917969,3.4541016
			c-0.7285156,1.1743164-1.5820313,1.9389648-2.5625,2.2954102c2.2880859,0.5649414,4.1894531,1.7832031,5.7050781,3.6547852
			c1.515625,1.8720703,2.2734375,4.2275391,2.2734375,7.0644531c0,2.8378906-1.0859375,5.3041992-3.2539063,7.3989258
			c-2.1699219,2.0947266-4.7988281,3.1420898-7.8896484,3.1420898h-1.4257813V15.1464844z M434.8401794,16.3945313v10.5185547
			h0.3574219c1.3369141,0,2.5175781-0.5419922,3.5429688-1.6269531c1.0253906-1.0844727,1.5380859-2.3320313,1.5380859-3.7436523
			c0-1.4111328-0.5058594-2.6220703-1.515625-3.6328125c-1.0107422-1.0097656-2.1992188-1.5151367-3.5654297-1.5151367H434.8401794z
			 M434.8401794,28.1162109v19.2099609h0.3574219c2.5546875,0,4.7607422-0.9506836,6.6181641-2.8525391
			c1.8564453-1.9008789,2.7861328-4.159668,2.7861328-6.7744141s-0.921875-4.8652344-2.7636719-6.7524414
			c-1.8427734-1.8867188-4.0556641-2.8305664-6.640625-2.8305664H434.8401794z"/>
		<path class="st2" d="M454.8304138,43.8945313c-3.3730469-3.4765625-5.0585938-7.5395508-5.0585938-12.1904297
			c0-4.6499023,1.7080078-8.6757813,5.1259766-12.078125c3.4160156-3.4023438,7.5166016-5.1035156,12.3007813-5.1035156
			s8.8701172,1.6938477,12.2568359,5.0810547c3.3876953,3.387207,5.0810547,7.4208984,5.0810547,12.1005859
			c0,4.6801758-1.6787109,8.7514648-5.0361328,12.2124023c-3.3583984,3.4619141-7.3691406,5.1923828-12.0341797,5.1923828
			h-0.6679688C462.1917419,49.1088867,458.2024841,47.3706055,454.8304138,43.8945313z M483.0657654,31.793457
			c0-4.3823242-1.5527344-8.1411133-4.6572266-11.2763672c-3.1054688-3.1342773-6.8496094-4.7021484-11.2324219-4.7021484
			s-8.1337891,1.5678711-11.2539063,4.7021484c-3.1191406,3.1352539-4.6796875,6.894043-4.6796875,11.2763672
			c0,4.3833008,1.5605469,8.1494141,4.6796875,11.2988281c3.1201172,3.1494141,6.8642578,4.7241211,11.2324219,4.7241211
			c4.3671875,0,8.1113281-1.574707,11.2314453-4.7241211S483.0657654,36.1767578,483.0657654,31.793457z"/>
	</g>
</g>
<g id="Слой_4" class="st0">
	<g class="st1">
		<path class="st2" d="M5.6785483,10.4077148h1.4262695c1.9311519,0,3.5502925,0.6015625,4.858398,1.8051758
			c1.3071289,1.203125,1.9609375,2.7407227,1.9609375,4.612793c0,1.1298828-0.3642578,2.2807617-1.0922852,3.4541016
			c-0.7280273,1.1743164-1.5820313,1.9389648-2.5625,2.2954102c2.2875977,0.5649414,4.1894531,1.7832031,5.7050781,3.6547852
			c1.5151377,1.8720703,2.2729502,4.2275391,2.2729502,7.0644531c0,2.8378906-1.0849609,5.3041992-3.2534189,7.3989258
			c-2.1694336,2.0947266-4.7993164,3.1420898-7.8891597,3.1420898H5.6785483V10.4077148z M7.1048179,11.6557617v10.5185547
			h0.3564453c1.3374019,0,2.5185542-0.5419922,3.5434566-1.6269531c1.0249023-1.0844727,1.5375977-2.3320313,1.5375977-3.7436523
			c0-1.4111328-0.5053711-2.6220703-1.5151367-3.6328125c-1.0107422-1.0097656-2.1992188-1.5151367-3.5659175-1.5151367H7.1048179z
			 M7.1048179,23.3774414v19.2099609h0.3564453c2.5551753,0,4.7617183-0.9506836,6.6186519-2.8525391
			c1.8569336-1.9008789,2.7856455-4.159668,2.7856455-6.7744141s-0.9213877-4.8652344-2.7631845-6.7524414
			c-1.8427734-1.8867188-4.0561523-2.8305664-6.6411128-2.8305664H7.1048179z"/>
		<path class="st2" d="M22.927084,10.4077148h1.9165039c2.8818359,0,5.4155273,1.0625,7.5991192,3.1865234
			c2.184082,2.125,3.2758789,4.6210938,3.2758789,7.487793c0,2.8681641-1.1142578,5.3564453-3.3427734,7.4658203
			c-2.2285137,2.1098633-4.6206036,3.1645508-7.1757793,3.1645508h-0.3120117l11.4995098,12.1230469h-1.9165039
			L24.3533535,33.2275391v10.6079102H22.927084V10.4077148z M24.3533535,30.4199219h0.8022461
			c2.4067383,0,4.5307617-0.9208984,6.3735352-2.7636719c1.8422832-1.8417969,2.7631817-4.0258789,2.7631817-6.5517578
			c0-2.5249023-0.9511719-4.7246094-2.8520489-6.5961914c-1.9023438-1.8720703-4.0712891-2.8081055-6.5073242-2.8081055h-0.5795898
			V30.4199219z"/>
		<path class="st2" d="M41.289875,10.4077148h1.4711914v33.4277344H41.289875V10.4077148z"/>
		<path class="st2" d="M65.9368515,44.3256836h-0.4902344c-3.0605507,0-5.9130898-0.8022461-8.557621-2.4067383
			c-2.6450195-1.6044922-4.7319336-3.7363281-6.2617188-6.3959961c-1.5307617-2.6586914-2.2954102-5.4887695-2.2954102-8.4907227
			c0-4.7241211,1.7080078-8.7871094,5.1254883-12.1899414c3.4165039-3.4018555,7.5024414-5.1030273,12.2568398-5.1030273
			c3.1791992,0,6.1953125,0.8320313,9.0478516,2.4956055v1.6494141c-2.793457-1.9013672-5.8095703-2.8525391-9.0478516-2.8525391
			c-4.3681679,0-8.1118202,1.5673828-11.2319374,4.7021484c-3.1196289,3.1352539-4.6796875,6.8935547-4.6796875,11.2763672
			c0,4.3833008,1.5600586,8.1494141,4.6796875,11.2983398c3.1201172,3.1499023,6.8637695,4.7246094,11.2319374,4.7246094
			c3.2382813,0,6.2543945-0.9506836,9.0478516-2.8525391v1.6489258
			C72.0579453,43.4941406,69.1160507,44.3256836,65.9368515,44.3256836z"/>
		<path class="st2" d="M80.7786484,10.4077148h1.4262695v12.2568359l14.1289063-12.2568359h1.7827148L82.8289413,23.734375
			l19.2099609,20.1010742h-1.9614258l-17.828125-18.5859375v18.5859375h-1.4707031V10.4077148z"/>
		<path class="st2" d="M121.8719101,10.4077148h1.4262695c4.9916916,0,9.0180588,1.6420898,12.0786057,4.9248047
			c3.0600586,3.2836914,4.5908203,7.2207031,4.5908203,11.8115234c0,4.590332-1.5229492,8.5205078-4.5683594,11.7885742
			c-3.0463867,3.269043-7.0800781,4.902832-12.1010666,4.902832h-1.4262695V10.4077148z M123.6546249,11.7446289h-0.3564453
			v30.7089844h0.3564453c4.3378906,0,7.8959885-1.5,10.6747971-4.5014648
			c2.777832-3.0009766,4.1674805-6.6035156,4.1674805-10.8081055s-1.3896484-7.8222656-4.1674805-10.8530273
			C131.5506134,13.2602539,127.9925156,11.7446289,123.6546249,11.7446289z"/>
		<path class="st2" d="M145.3152618,10.4077148h11.9892578v1.2924805H146.785965v18.1845703h8.7802734v1.2924805h-8.7802734
			v11.3657227h10.5185547v1.2924805h-11.9892578V10.4077148z"/>
		<path class="st2" d="M175.9344025,44.5932617l-16.6245117-34.1855469h1.6044922l15.1538086,30.9765625l15.0649414-30.9765625
			h1.4262695L175.9344025,44.5932617z"/>
		<path class="st2" d="M196.7932892,10.4077148h11.9892578v1.2924805h-10.5185547v18.1845703h8.7802734v1.2924805h-8.7802734
			v11.3657227h10.5185547v1.2924805h-11.9892578V10.4077148z"/>
		<path class="st2" d="M214.7102814,10.4077148v32.1352539h10.340332v1.2924805h-11.8110352V10.4077148H214.7102814z"/>
		<path class="st2" d="M228.1038361,39.2001953c-3.3725586-3.4765625-5.0585938-7.5395508-5.0585938-12.1899414
			c0-4.6499023,1.7080078-8.6762695,5.1254883-12.0786133c3.4165039-3.4018555,7.5170898-5.1035156,12.3012695-5.1035156
			c4.7836914,0,8.8696289,1.6938477,12.2568359,5.0810547c3.3877106,3.387207,5.0810699,7.4208984,5.0810699,12.1010742
			c0,4.6796875-1.6791992,8.7509766-5.0366364,12.2124023c-3.3579102,3.4614258-7.3691406,5.1923828-12.0336914,5.1923828h-0.668457
			C235.4646759,44.4150391,231.4759064,42.6767578,228.1038361,39.2001953z M256.3392029,27.0991211
			c0-4.3823242-1.5532379-8.1411133-4.6577301-11.2763672c-3.1054688-3.1342773-6.8491211-4.7021484-11.2314453-4.7021484
			c-4.3833008,0-8.1342773,1.5678711-11.2543945,4.7021484c-3.1196289,3.1352539-4.6796875,6.894043-4.6796875,11.2763672
			c0,4.3833008,1.5600586,8.1494141,4.6796875,11.2988281c3.1201172,3.1499023,6.8637695,4.7246094,11.2319336,4.7246094
			c4.3676758,0,8.1118164-1.574707,11.2314453-4.7246094C254.779129,35.2485352,256.3392029,31.4824219,256.3392029,27.0991211z"/>
		<path class="st2" d="M263.1131287,10.4077148h1.4707031c3.0908203,0,5.7197266,1.0625,7.8896484,3.1865234
			c2.1679688,2.125,3.2539063,4.628418,3.2539063,7.5102539c0,2.8823242-1.1220703,5.3637695-3.3652344,7.4433594
			c-2.2441406,2.0800781-4.7177734,3.1201172-7.4208984,3.1201172h-0.3574219v12.1674805h-1.4707031V10.4077148z
			 M264.5838318,30.4199219h0.3574219c2.4951172,0,4.671875-0.9208984,6.5292969-2.7636719
			c1.8564453-1.8417969,2.7851563-4.0258789,2.7851563-6.5517578c0-2.5249023-0.9433594-4.7246094-2.8300781-6.5961914
			c-1.8867188-1.8720703-4.0488281-2.8081055-6.484375-2.8081055h-0.3574219V30.4199219z"/>
		<path class="st2" d="M314.8147888,10.4077148v33.4277344h-1.4707031V12.1459961l-15.7773438,32.3134766l-15.6894531-32.3134766
			v31.6894531h-1.3369141V10.4077148h2.1396484l15.0195313,30.8427734l15.0654297-30.8427734H314.8147888z"/>
		<path class="st2" d="M321.4993591,10.4077148h11.9892578v1.2924805h-10.5185547v18.1845703h8.7802734v1.2924805h-8.7802734
			v11.3657227h10.5185547v1.2924805h-11.9892578V10.4077148z"/>
		<path class="st2" d="M362.5481873,10.4077148h1.2929688v33.9179688L339.2386169,14.0625v29.7729492h-1.2929688V9.9174805
			l24.6025391,30.21875V10.4077148z"/>
		<path class="st2" d="M384.8772888,10.4077148v1.2924805h-7.6210938v32.1352539h-1.4707031V11.7001953h-7.7109375v-1.2924805
			H384.8772888z"/>
	</g>
</g>
<g id="Слой_5">
	<g class="st3">
		<path class="st2" d="M24.8343105,411.7314453h-0.4902344c-3.0610352,0-5.9135742-0.8027344-8.5576181-2.4072266
			c-2.6450195-1.6044922-4.7324219-3.7363281-6.262207-6.3955078c-1.5307612-2.6591797-2.2954097-5.4892578-2.2954097-8.4912109
			c0-4.7241211,1.7084956-8.7871094,5.1254878-12.1899414c3.4165039-3.4018555,7.5024424-5.1030273,12.2568369-5.1030273
			c3.1791992,0,6.1953125,0.8320313,9.0478497,2.4956055v1.6494141c-2.7934551-1.9013672-5.8095684-2.8525391-9.0478497-2.8525391
			c-4.3676758,0-8.1118164,1.5673828-11.2314463,4.7021484c-3.1201172,3.1352539-4.6801758,6.894043-4.6801758,11.2768555
			s1.5600586,8.1494141,4.6801758,11.2978516c3.1196299,3.1503906,6.8637705,4.7246094,11.2314463,4.7246094
			c3.2382813,0,6.2543945-0.9501953,9.0478497-2.8525391v1.6494141
			C30.954916,410.8994141,28.0135098,411.7314453,24.8343105,411.7314453z"/>
		<path class="st2" d="M62.9412422,377.8129883h1.4711952v33.4282227h-1.4711952v-12.7470703H40.0320625v12.7470703h-1.4707031
			v-33.4282227h1.4707031v19.3881836h22.9091797V377.8129883z"/>
		<path class="st2" d="M97.260582,377.8129883v33.4282227h-1.4707031v-31.3334961l-23.3100586,31.3334961h-1.3818359v-33.4282227
			h1.4707031v31.2436523l23.2211914-31.2436523H97.260582z"/>
		<path class="st2" d="M120.3479843,377.8129883h1.4262695v12.0786133l11.0981369-12.0786133h1.6489258l-12.2123947,13.2817383
			l18.0956955,20.1464844h-1.8271484l-16.803215-18.5859375v18.5859375h-1.4262695v-18.5859375l-16.7583008,18.5859375h-1.8720703
			l18.1401367-20.1464844l-12.2124023-13.2817383h1.6044922l11.0981445,12.0786133V377.8129883z"/>
		<path class="st2" d="M156.8509064,379.1054688h-10.5185547v18.1845703h8.7802734v1.2929688h-8.7802734v11.3652344h10.5185547
			v1.2929688h-11.9892578v-33.4282227h11.9892578V379.1054688z"/>
		<path class="st2" d="M185.6873322,377.8129883h1.4711914v33.4282227h-1.4711914v-12.7470703h-22.9091797v12.7470703h-1.4707031
			v-33.4282227h1.4707031v19.3881836h22.9091797V377.8129883z"/>
		<path class="st2" d="M220.0061798,377.8129883v33.4282227h-1.4707031v-31.3334961l-23.3100586,31.3334961h-1.3818359v-33.4282227
			h1.4707031v31.2436523l23.2211914-31.2436523H220.0061798z"/>
		<path class="st2" d="M238.6814728,379.1054688h-10.5185547v18.1845703h8.7802734v1.2929688h-8.7802734v11.3652344h10.5185547
			v1.2929688H226.692215v-33.4282227h11.9892578V379.1054688z"/>
		<path class="st2" d="M8.3430986,431.2978516H29.380209v33.4277344h-1.4707031v-32.1357422H9.8138018v32.1357422H8.3430986
			V431.2978516z"/>
		<path class="st2" d="M50.4622383,430.5400391l16.6245155,34.1855469h-1.6044922l-15.1538124-30.9765625l-15.0649414,30.9765625
			h-1.4262695L50.4622383,430.5400391z"/>
		<path class="st2" d="M85.9842148,430.4951172l16.7138672,34.2304688h-1.5600586l-6.3291016-12.7470703H76.9363632
			l-6.2397461,12.7470703h-1.3818359L85.9842148,430.4951172z M85.8504257,433.5703125l-8.3344727,17.1152344h16.7583008
			L85.8504257,433.5703125z"/>
		<path class="st2" d="M115.4895859,431.2978516v1.2919922h-7.621582v32.1357422h-1.4711914v-32.1357422h-7.7104492v-1.2919922
			H115.4895859z"/>
		<path class="st2" d="M131.935379,432.5898438H121.416832v18.1845703h8.7802658v1.2929688h-8.7802658v11.3652344h10.5185471
			v1.2929688h-11.9892502v-33.4277344h11.9892502V432.5898438z"/>
		<path class="st2" d="M152.7937775,431.2978516h1.4262695v12.078125l11.0981445-12.078125h1.6489258l-12.2124023,13.28125
			l18.0957031,20.1464844h-1.8271484l-16.8032227-18.5859375v18.5859375h-1.4262695v-18.5859375l-16.7583008,18.5859375h-1.8720703
			l18.1401367-20.1464844l-12.2124023-13.28125h1.6044922l11.0981445,12.078125V431.2978516z"/>
		<path class="st2" d="M189.2967072,432.5898438h-10.5185547v18.1845703h8.7802734v1.2929688h-8.7802734v11.3652344h10.5185547
			v1.2929688h-11.9892578v-33.4277344h11.9892578V432.5898438z"/>
		<path class="st2" d="M219.9158478,431.2978516v33.4277344h-1.4707031v-31.3330078l-23.3100586,31.3330078h-1.3818359v-33.4277344
			h1.4707031v31.2431641l23.2211914-31.2431641H219.9158478z M204.4949493,425.9716797
			c0.8310547,0.7871094,1.7895508,1.1806641,2.8745117,1.1806641c1.0844727,0,2.0424805-0.4013672,2.875-1.203125
			c0.831543-0.8027344,1.3071289-1.7382813,1.4262695-2.8076172h1.2924805
			c-0.0600586,1.3964844-0.6171875,2.6064453-1.6713867,3.6318359c-1.0551758,1.0253906-2.2954102,1.5380859-3.7216797,1.5380859
			h-0.3564453c-1.4262695,0-2.659668-0.5048828-3.699707-1.515625c-1.0400391-1.0097656-1.5898438-2.2285156-1.6489258-3.6542969
			h1.2480469C203.2019806,424.2412109,203.6624298,425.1845703,204.4949493,425.9716797z"/>
	</g>
	<g class="st4">
		<path class="st2" d="M15.6077471,10.1591797c4.7534189,0,8.8393564,1.7016602,12.2568369,5.1035156
			c3.4165039,3.4023438,5.1254864,7.4287109,5.1254864,12.0786133c0,4.6503906-1.6865215,8.7133789-5.0585918,12.1899414
			c-3.3730469,3.4765625-7.3618164,5.2148438-11.9672861,5.2148438h-0.668457c-3.1201172,0-6.0322266-0.831543-8.7358398-2.4960938
			v-1.6489258c2.79248,1.9018555,5.8833003,2.8525391,9.2705078,2.8525391s6.5297861-1.1591797,9.4267588-3.4765625
			c2.8969727-2.3178711,4.8203125-5.1704102,5.7719727-8.5576172H14.6272783v-1.2924805h16.6689453
			c0.1484375-0.9506836,0.2231445-1.8422852,0.2231445-2.6743164c0-4.3969727-1.5600586-8.1635742-4.6801758-11.2988281
			c-3.1196289-3.1342773-6.8637695-4.7021484-11.2314463-4.7021484c-3.2392578,0-6.2553711,0.9516602-9.0478516,2.8525391V12.699707
			C9.3821611,11.0063477,12.3987627,10.1591797,15.6077471,10.1591797z"/>
		<path class="st2" d="M38.5608711,10.7387695h1.4262695v12.2568359l14.1289063-12.2568359h1.7827148L40.6111641,24.0654297
			L59.821125,44.1665039h-1.9614258l-17.828125-18.5859375v18.5859375h-1.4707031V10.7387695z"/>
		<path class="st2" d="M65.1028671,39.4868164c-3.3725624-3.4765625-5.0585976-7.5395508-5.0585976-12.1904297
			c0-4.6499023,1.7084961-8.6757813,5.1254921-12.078125c3.4165039-3.4023438,7.5170898-5.1035156,12.3017578-5.1035156
			c4.7832031,0,8.8691406,1.6938477,12.2568359,5.0810547c3.387207,3.387207,5.0810547,7.4208984,5.0810547,12.1005859
			c0,4.6801758-1.6791992,8.7514648-5.0366211,12.2124023c-3.3583984,3.4619141-7.3696289,5.1923828-12.0341797,5.1923828h-0.668457
			C72.4641953,44.7011719,68.4749374,42.9628906,65.1028671,39.4868164z M93.3382187,27.3857422
			c0-4.3823242-1.5527344-8.1411133-4.6572266-11.2763672c-3.1054688-3.1342773-6.8496094-4.7021484-11.2319336-4.7021484
			c-4.3833008,0-8.1342773,1.5678711-11.2539063,4.7021484c-3.120121,3.1352539-4.6801796,6.894043-4.6801796,11.2763672
			c0,4.3833008,1.5600586,8.1494141,4.6801796,11.2988281c3.1196289,3.1494141,6.8637695,4.7241211,11.2314453,4.7241211
			c4.3681641,0,8.1118164-1.574707,11.2319336-4.7241211C91.7781601,35.5351563,93.3382187,31.769043,93.3382187,27.3857422z"/>
		<path class="st2" d="M100.3797226,44.1665039V10.7387695h10.6967773V12.03125h-9.2260742v10.875h0.4013672
			c2.8222656,0,5.3183594,1.0551758,7.487793,3.1645508c2.168457,2.1103516,3.253418,4.605957,3.253418,7.487793
			c0,2.8828125-1.1142578,5.3710938-3.3427734,7.4658203s-4.8286133,3.1420898-7.7998047,3.1420898H100.3797226z
			 M101.8504257,24.1542969V42.918457h0.3564453c2.4365234,0,4.5981445-0.9282227,6.4853516-2.7856445
			c1.8862305-1.8564453,2.8300781-4.0556641,2.8300781-6.5961914s-0.9067383-4.7392578-2.71875-6.5966797
			c-1.8129883-1.8564453-4.0112305-2.7856445-6.5966797-2.7856445H101.8504257z"/>
		<path class="st2" d="M141.5628204,10.7387695l-15.8671799,33.4277344h-1.3818359l3.8330002-8.0673828l-12.4794846-25.3603516
			h1.6044922l11.6772385,23.800293l11.2319336-23.800293H141.5628204z"/>
		<path class="st2" d="M138.6653595,48.4897461v-5.6157227h2.4511719L157.2063751,9.980957l16.090332,32.8930664h2.1391602
			v5.6157227h-1.3818359v-4.3232422H139.95784v4.3232422H138.6653595z M157.0730743,13.0561523l-14.574707,29.8178711h29.2827148
			L157.0730743,13.0561523z"/>
	</g>
	<g>
	</g>
	<g>
	</g>
	<g>
	</g>
	<g>
	</g>
	<g>
	</g>
</g>
</svg>
