<?xml version="1.0" encoding="utf-8"?>
<!-- Generator: Adobe Illustrator 21.0.1, SVG Export Plug-In . SVG Version: 6.00 Build 0)  -->
<svg version="1.1" xmlns="http://www.w3.org/2000/svg" xmlns:xlink="http://www.w3.org/1999/xlink" x="0px" y="0px"
	 viewBox="0 0 271.8333435 109.8333359" style="enable-background:new 0 0 271.8333435 109.8333359;" xml:space="preserve">
<style type="text/css">
	.st0{display:none;}
	.st1{display:inline;opacity:0.2;}
	.st2{fill:#D3D3D3;stroke:#D8D8D8;stroke-width:2;}
	.st3{display:inline;opacity:0.3;}
	.st4{opacity:0.3;}
	.st5{opacity:0.2;}
</style>
<g id="Слой_1" class="st0">
	<g class="st1">
		<path class="st2" d="M32.7224922-8.5201826h1.4711914v33.4277344h-1.4711914V12.1604815H9.8133135v12.7470713H8.3426104
			V-8.5201826h1.4707031V10.868001h22.9091797V-8.5201826z"/>
		<path class="st2" d="M44.8230782,20.2278652c-3.3725586-3.4765625-5.0585938-7.5395517-5.0585938-12.1904306
			c0-4.6499023,1.7084961-8.6757813,5.1254883-12.078125c3.4165039-3.4023438,7.5170898-5.1035161,12.3017578-5.1035161
			c4.7832031,0,8.8691444,1.6938481,12.2568398,5.0810552c3.387207,3.3872068,5.0810547,7.4208984,5.0810547,12.1005859
			c0,4.6801758-1.6791992,8.7514658-5.0366211,12.2124033c-3.3583984,3.4619141-7.3696327,5.1923828-12.0341835,5.1923828h-0.668457
			C52.1844063,25.4422207,48.1951485,23.7039394,44.8230782,20.2278652z M73.0584335,8.12679
			c0-4.3823242-1.5527344-8.1411133-4.6572266-11.2763672c-3.1054688-3.1342771-6.8496132-4.7021484-11.2319374-4.7021484
			c-4.3833008,0-8.1342773,1.5678711-11.2539063,4.7021484c-3.1201172,3.1352539-4.6801758,6.894043-4.6801758,11.2763672
			c0,4.3833008,1.5600586,8.149415,4.6801758,11.2988291c3.1196289,3.1494141,6.8637695,4.7241211,11.2314453,4.7241211
			c4.3681641,0,8.1118202-1.574707,11.2319374-4.7241211C71.4983749,16.2762051,73.0584335,12.5100908,73.0584335,8.12679z"/>
		<path class="st2" d="M80.1004257-8.5201826h1.4262695c1.9311523,0,3.550293,0.601563,4.8583984,1.8051763
			c1.3071289,1.203125,1.9609375,2.7407224,1.9609375,4.612793c0,1.1298828-0.3642578,2.2807617-1.0922852,3.4541016
			c-0.7280273,1.1743163-1.5820313,1.9389647-2.5625,2.2954102c2.2875977,0.5649416,4.1894531,1.7832034,5.7050781,3.6547854
			c1.5151367,1.8720698,2.2729492,4.2275386,2.2729492,7.0644526c0,2.8378916-1.0849609,5.3042002-3.253418,7.3989267
			c-2.1694336,2.0947266-4.7993164,3.1420898-7.8891602,3.1420898h-1.4262695V-8.5201826z M81.5266953-7.2721353V3.2464192
			h0.3564453c1.3374023,0,2.5185547-0.5419922,3.543457-1.626953c1.0249023-1.0844727,1.5375977-2.3320313,1.5375977-3.7436523
			c0-1.4111328-0.5053711-2.6220701-1.5151367-3.6328123c-1.0107422-1.0097656-2.1992188-1.5151367-3.565918-1.5151367H81.5266953z
			 M81.5266953,4.4495444v19.2099609h0.3564453c2.5551758,0,4.7617188-0.9506836,6.6186523-2.8525391
			c1.8569336-1.9008789,2.7856445-4.159668,2.7856445-6.774415s-0.9213867-4.8652344-2.7631836-6.7524409
			c-1.8427734-1.8867188-4.0561523-2.8305664-6.6411133-2.8305664H81.5266953z"/>
		<path class="st2" d="M101.5159531,20.2278652c-3.3725586-3.4765625-5.0585938-7.5395517-5.0585938-12.1904306
			c0-4.6499023,1.7084961-8.6757813,5.1254883-12.078125c3.4165039-3.4023438,7.5170898-5.1035161,12.3017578-5.1035161
			c4.7832031,0,8.8691406,1.6938481,12.2568359,5.0810552c3.3871994,3.3872068,5.0810471,7.4208984,5.0810471,12.1005859
			c0,4.6801758-1.6791992,8.7514658-5.0366135,12.2124033c-3.3583984,3.4619141-7.3696289,5.1923828-12.0341797,5.1923828h-0.668457
			C108.8772812,25.4422207,104.8880234,23.7039394,101.5159531,20.2278652z M129.751297,8.12679
			c0-4.3823242-1.5527344-8.1411133-4.6572189-11.2763672c-3.1054688-3.1342771-6.8496094-4.7021484-11.2319336-4.7021484
			c-4.3833008,0-8.1342773,1.5678711-11.2539063,4.7021484C99.488121-0.0143229,97.9280624,3.7444661,97.9280624,8.12679
			c0,4.3833008,1.5600586,8.149415,4.6801758,11.2988291c3.1196289,3.1494141,6.8637695,4.7241211,11.2314453,4.7241211
			c4.3681641,0,8.1118164-1.574707,11.2319336-4.7241211C128.1912384,16.2762051,129.751297,12.5100908,129.751297,8.12679z"/>
		<path class="st2" d="M136.7932892-8.5201826h1.4262695V3.7366536L152.348465-8.5201826h1.7827148L138.8435822,4.806478
			l19.2099609,20.1010742h-1.9614258l-17.828125-18.5859375v18.5859375h-1.4707031V-8.5201826z"/>
		<path class="st2" d="M163.3347931,20.2278652c-3.3725586-3.4765625-5.0585938-7.5395517-5.0585938-12.1904306
			c0-4.6499023,1.7084961-8.6757813,5.1254883-12.078125c3.4165039-3.4023438,7.5170898-5.1035161,12.3017578-5.1035161
			c4.7832031,0,8.8691406,1.6938481,12.2568359,5.0810552c3.387207,3.3872068,5.0810547,7.4208984,5.0810547,12.1005859
			c0,4.6801758-1.6791992,8.7514658-5.0366211,12.2124033c-3.3583984,3.4619141-7.3696289,5.1923828-12.0341797,5.1923828h-0.668457
			C170.6961212,25.4422207,166.7068634,23.7039394,163.3347931,20.2278652z M191.5701447,8.12679
			c0-4.3823242-1.5527344-8.1411133-4.6572266-11.2763672c-3.1054688-3.1342771-6.8496094-4.7021484-11.2319336-4.7021484
			c-4.3833008,0-8.1342773,1.5678711-11.2539063,4.7021484c-3.1201172,3.1352539-4.6801758,6.894043-4.6801758,11.2763672
			c0,4.3833008,1.5600586,8.149415,4.6801758,11.2988291c3.1196289,3.1494141,6.8637695,4.7241211,11.2314453,4.7241211
			c4.3681641,0,8.1118164-1.574707,11.2319336-4.7241211C190.0100861,16.2762051,191.5701447,12.5100908,191.5701447,8.12679z"/>
		<path class="st2" d="M193.7097931,29.2307949v-5.6157227h2.4511719l16.0898438-32.8930664l16.090332,32.8930664h2.1391602
			v5.6157227h-1.3818359v-4.3232422h-34.0961914v4.3232422H193.7097931z M212.1175079-6.2027993l-14.574707,29.8178711h29.2827148
			L212.1175079-6.2027993z"/>
		<path class="st2" d="M249.8235626-9.3224287l16.7133942,34.2299805h-1.5595703l-6.3291016-12.7470713h-17.8725739
			l-6.2397461,12.7470713h-1.3818359L249.8235626-9.3224287z M249.6897736-6.2472329l-8.3344727,17.1152344h16.758316
			L249.6897736-6.2472329z"/>
		<path class="st2" d="M294.1263123,24.9075527H270.993988V-8.5201826h1.4707031v32.1352539h18.0512695V-8.5201826h1.4707031
			v32.1352539h3.4326172v5.6157227h-1.2929688V24.9075527z"/>
		<path class="st2" d="M299.8763123-8.5201826h1.4707031v13.059082h0.4013672c2.4355469,0,4.7246094,1.0102539,6.8632813,3.0307617
			c2.1396484,2.0209956,3.2099609,4.3979487,3.2099609,7.1313472c0,2.7338877-1.0478516,5.1186533-3.1425781,7.1533213
			c-2.0947266,2.0356445-4.5390625,3.0532227-7.3320313,3.0532227h-1.4707031V-8.5201826z M301.7034607,5.8313804h-0.3564453
			v17.7836914h0.3564453c2.2285156,0,4.2265625-0.8916016,5.9951172-2.6743164
			c1.7675781-1.7827148,2.6513672-3.8623047,2.6513672-6.239747c0-2.3769531-0.8759766-4.4492188-2.6289063-6.2177734
			C305.9671326,6.7156577,303.9612732,5.8313804,301.7034607,5.8313804z"/>
		<path class="st2" d="M317.3919373-8.5201826h1.4257813V3.7366536l14.1289063-12.2568359h1.7832031L319.4417419,4.806478
			l19.2099609,20.1010742h-1.9609375l-17.828125-18.5859375v18.5859375h-1.4707031V-8.5201826z"/>
		<path class="st2" d="M343.3313904-8.5201826h1.4707031v33.4277344h-1.4707031V-8.5201826z"/>
		<path class="st2" d="M8.3426104,44.9641914h1.4262695c1.9311523,0,3.550293,0.6015625,4.8583984,1.8051758
			c1.3071289,1.203125,1.9609385,2.7407227,1.9609385,4.612793c0,1.1298828-0.3642578,2.2807617-1.0922861,3.4541016
			c-0.7280273,1.1743164-1.5820313,1.9389648-2.5625,2.2954102c2.2875977,0.5649414,4.1894541,1.7832031,5.7050791,3.6547852
			c1.5151367,1.8720703,2.2729492,4.2275429,2.2729492,7.0644569c0,2.8378906-1.0849609,5.3041992-3.253418,7.3989258
			c-2.1694345,2.0947266-4.7993174,3.1420898-7.8891611,3.1420898H8.3426104V44.9641914z M9.7688799,46.2122383V56.730793h0.3564453
			c1.3374023,0,2.5185547-0.5419922,3.543457-1.6269531c1.0249023-1.0844727,1.5375977-2.3320313,1.5375977-3.7436523
			c0-1.4111328-0.5053711-2.6220703-1.5151367-3.6328125c-1.0107422-1.0097656-2.1992188-1.5151367-3.565918-1.5151367H9.7688799z
			 M9.7688799,57.933918v19.2099648h0.3564453c2.5551758,0,4.7617188-0.9506836,6.6186533-2.8525391
			c1.8569336-1.9008789,2.7856445-4.159668,2.7856445-6.7744141s-0.9213867-4.8652382-2.7631836-6.7524452
			c-1.8427744-1.8867188-4.0561533-2.8305664-6.6411142-2.8305664H9.7688799z"/>
		<path class="st2" d="M37.8035469,46.2566719H27.2849941V64.441246h8.7802715v1.2924805h-8.7802715v11.3657227h10.5185528
			v1.2924805H25.814291V44.9641914h11.9892559V46.2566719z"/>
		<path class="st2" d="M58.6619453,44.9641914h1.4262695v12.0786133l11.0981483-12.0786133h1.6489258L60.6228828,58.2459297
			l18.0957069,20.1459999h-1.8271484L60.0882149,59.8059883v18.5859413h-1.4262695V59.8059883L41.9036446,78.3919296h-1.8720703
			L58.171711,58.2459297L45.9593086,44.9641914h1.6044922l11.0981445,12.0786133V44.9641914z"/>
		<path class="st2" d="M83.3982773,44.9641914h1.4711914v33.4277382h-1.4711914V44.9641914z"/>
	</g>
</g>
<g id="Слой_2" class="st0">
	<g class="st3">
		<path class="st2" d="M12.3426104-10.5201826h1.4262695c1.9311523,0,3.5502939,0.6015625,4.8583994,1.8051758
			c1.3071289,1.2031255,1.9609375,2.7407231,1.9609375,4.6127934c0,1.1298826-0.3642578,2.2807617-1.0922852,3.4541013
			c-0.7280273,1.1743164-1.5820313,1.9389648-2.5625,2.2954102c2.2875977,0.5649413,4.1894531,1.783203,5.7050781,3.6547852
			c1.5151367,1.8720703,2.2729492,4.2275386,2.2729492,7.0644526c0,2.8378906-1.0849609,5.3042002-3.253418,7.3989267
			c-2.1694336,2.0947266-4.7993164,3.1420898-7.8891611,3.1420898h-1.4262695V-10.5201826z M13.7688799-9.2721357V1.2464193
			h0.3564453c1.3374023,0,2.5185556-0.5419922,3.543458-1.6269531c1.0249023-1.0844727,1.5375977-2.3320313,1.5375977-3.7436521
			c0-1.4111328-0.5053711-2.6220703-1.5151367-3.6328125c-1.0107422-1.0097661-2.1992197-1.5151372-3.5659189-1.5151372H13.7688799z
			 M13.7688799,2.4495442v19.2099609h0.3564453c2.5551767,0,4.7617197-0.9506836,6.6186533-2.8525391
			c1.8569336-1.9008789,2.7856445-4.1596689,2.7856445-6.774415s-0.9213867-4.8652339-2.7631836-6.7524409
			c-1.8427734-1.886719-4.0561523-2.8305666-6.6411142-2.8305666H13.7688799z"/>
		<path class="st2" d="M59.4085274-4.4142251c0,2.4960938-1.1889648,4.4277344-3.5654297,5.7944336
			c2.4067383,0.534668,4.3901367,1.8793944,5.949707,4.0336914c1.5600586,2.1542969,2.3403358,4.4946284,2.3403358,7.0195308
			c0,3.0307617-1.1142616,5.6313486-3.3427773,7.7998056c-2.2285156,2.1694336-4.918457,3.2539063-8.0673828,3.2539063
			c-1.9018555,0-3.6625977-0.4238281-5.2817383-1.2705078c-1.6196289-0.8466797-2.8901367-2.027832-3.8105469-3.543457v-2.4956055
			c0.8022461,1.7827148,2.0126953,3.2314453,3.6323242,4.3457031c1.6191406,1.1142578,3.4541016,1.6713867,5.5043945,1.6713867
			c2.7036133,0,5.0288086-0.965332,6.9755859-2.8974609c1.9458008-1.9311523,2.9189453-4.2563486,2.9189453-6.9750986
			s-0.9580078-5.0732417-2.8745117-7.0644526c-1.9165039-1.9902346-4.2563477-2.9863284-7.0200195-2.9863284h-1.6933594V1.0232748
			h1.4262695c1.5151367,0,2.800293-0.534668,3.8549805-1.6044922c1.0546875-1.0693359,1.5825195-2.3466797,1.5825195-3.8330076
			c0-1.4853516-0.527832-2.7553711-1.5825195-3.8105474C55.3006172-9.27946,54.0891914-9.807292,52.7229805-9.807292
			c-1.3671875,0-2.5556641,0.3422852-3.5654297,1.0253906c-1.0107422,0.6835938-1.6938477,1.5751958-2.050293,2.6743169V-8.425456
			c1.3369141-1.7827148,3.0454102-2.6743164,5.1254883-2.6743164c2.0795898,0,3.7954102,0.6538086,5.1479492,1.9614258
			C58.7322578-7.830729,59.4085274-6.256022,59.4085274-4.4142251z"/>
		<path class="st2" d="M81.2473984-9.2277021H70.7288437V8.9568682h8.7802734v1.2924805h-8.7802734v11.3657236h10.5185547v1.2924805
			H69.2581406v-33.4277344h11.9892578V-9.2277021z"/>
		<path class="st2" d="M100.1004257-11.2779951l16.6245117,34.1855469h-1.6044922L99.9666367-8.0690107L84.9016953,22.9075527
			h-1.4262695L100.1004257-11.2779951z"/>
		<path class="st2" d="M133.1707306-9.2277021h-10.5185471V8.9568682h8.7802658v1.2924805h-8.7802658v11.3657236h10.5185471
			v1.2924805h-11.9892502v-33.4277344h11.9892502V-9.2277021z"/>
		<path class="st2" d="M162.0071564-10.5201826h1.4711914v33.4277344h-1.4711914V10.1604815h-22.9091797v12.7470713h-1.4707031
			v-33.4277344h1.4707031V8.868001h22.9091797V-10.5201826z"/>
		<path class="st2" d="M174.1077423,18.2278652c-3.3725586-3.4765635-5.0585938-7.5395517-5.0585938-12.1904297
			c0-4.6499023,1.7084961-8.6757813,5.1254883-12.078125c3.4165039-3.4023442,7.5170898-5.1035161,12.3017578-5.1035161
			c4.7832031,0,8.8691406,1.6938477,12.2568359,5.0810552c3.387207,3.3872068,5.0810547,7.4208984,5.0810547,12.1005859
			c0,4.6801753-1.6791992,8.7514648-5.0366211,12.2124023c-3.3583984,3.4619141-7.3696289,5.1923828-12.0341797,5.1923828h-0.668457
			C181.4690704,23.4422207,177.4798126,21.7039394,174.1077423,18.2278652z M202.3430939,6.1267905
			c0-4.3823242-1.5527344-8.1411133-4.6572266-11.2763672c-3.1054688-3.1342778-6.8496094-4.7021489-11.2319336-4.7021489
			c-4.3833008,0-8.1342773,1.5678711-11.2539063,4.7021489c-3.1201172,3.1352537-4.6801758,6.894043-4.6801758,11.2763672
			c0,4.3833003,1.5600586,8.1494141,4.6801758,11.2988281c3.1196289,3.1494141,6.8637695,4.7241211,11.2314453,4.7241211
			c4.3681641,0,8.1118164-1.574707,11.2319336-4.7241211C200.7830353,14.2762041,202.3430939,10.5100908,202.3430939,6.1267905z"/>
		<path class="st2" d="M243.6595001-10.5201826v33.4277344h-1.4707031V-8.7819014l-15.777832,32.3134766L210.7220001-8.7819014
			v31.6894531h-1.3369141v-33.4277344h2.1391602l15.0205078,30.8427734l15.0649414-30.8427734H243.6595001z"/>
		<path class="st2" d="M16.2869473,71.7122421c-3.3725595-3.4765625-5.0585947-7.5395508-5.0585947-12.1904335
			c0-4.6499023,1.7084961-8.6757813,5.1254892-12.078125c3.4165039-3.4023438,7.5170898-5.1035156,12.3017578-5.1035156
			c4.7832012,0,8.8691387,1.6938477,12.256834,5.0810547c3.387207,3.387207,5.0810547,7.4208984,5.0810547,12.1005859
			c0,4.6801796-1.6791992,8.7514687-5.0366211,12.2124062c-3.3583984,3.4619141-7.3696289,5.1923828-12.0341778,5.1923828h-0.668457
			C23.6482754,76.9265976,19.6590176,75.1883163,16.2869473,71.7122421z M44.5222969,59.6111641
			c0-4.3823242-1.5527344-8.1411133-4.6572266-11.2763672c-3.1054688-3.1342773-6.8496094-4.7021484-11.2319317-4.7021484
			c-4.3833008,0-8.1342773,1.5678711-11.2539063,4.7021484c-3.1201181,3.1352539-4.6801767,6.894043-4.6801767,11.2763672
			c0,4.3833008,1.5600586,8.1494179,4.6801767,11.2988319c3.1196289,3.1494141,6.8637695,4.7241211,11.2314453,4.7241211
			c4.3681622,0,8.1118145-1.574707,11.2319317-4.7241211C42.9622383,67.760582,44.5222969,63.9944649,44.5222969,59.6111641z"/>
		<path class="st2" d="M62.8855782,42.1619453l16.713871,34.2299843h-1.5600586L71.710289,63.6448555H53.8377266
			l-6.2397461,12.7470741h-1.3818359L62.8855782,42.1619453z M62.7517891,45.2371407L54.4173164,62.352375H71.175621
			L62.7517891,45.2371407z"/>
		<path class="st2" d="M98.0511093,49.0701485c0,2.4960938-1.1889648,4.4277344-3.5654297,5.7944336
			c2.4067383,0.534668,4.3901367,1.8793945,5.949707,4.0336914c1.5600586,2.1542969,2.340332,4.4946289,2.340332,7.0195351
			c0,3.0307617-1.1142578,5.6313477-3.3427734,7.7998047c-2.2285156,2.1694336-4.918457,3.2539063-8.0673828,3.2539063
			c-1.9018555,0-3.6625977-0.4238281-5.2817383-1.2705078c-1.6196289-0.8466797-2.8901367-2.027832-3.8105469-3.543457v-2.4956055
			c0.8022461,1.7827148,2.0126953,3.2314453,3.6323242,4.3457031c1.6191406,1.1142578,3.4541016,1.6713867,5.5043945,1.6713867
			c2.7036133,0,5.0288086-0.965332,6.9755859-2.8974609c1.9458008-1.9311523,2.9189453-4.2563477,2.9189453-6.9750977
			c0-2.7187538-0.9580078-5.073246-2.8745117-7.0644569c-1.9165039-1.9902344-4.2563477-2.9863281-7.0200195-2.9863281h-1.6933594
			v-1.2480469h1.4262695c1.5151367,0,2.800293-0.534668,3.8549805-1.6044922
			c1.0546875-1.0693359,1.5825195-2.3466797,1.5825195-3.8330078c0-1.4853516-0.527832-2.7553711-1.5825195-3.8105469
			c-1.0546875-1.0546875-2.2661133-1.5825195-3.6323242-1.5825195c-1.3671875,0-2.5556641,0.3422852-3.5654297,1.0253906
			c-1.0107422,0.6835938-1.6938477,1.5751953-2.050293,2.6743164V45.058918
			c1.3369141-1.7827148,3.0454102-2.6743164,5.1254883-2.6743164c2.0795898,0,3.7954102,0.6538086,5.1479492,1.9614258
			C97.3748398,45.6536446,98.0511093,47.2283516,98.0511093,49.0701485z"/>
		<path class="st2" d="M134.0633087,42.9641914v33.4277382h-1.4707031V45.058918l-23.310051,31.3330116h-1.3818359V42.9641914
			h1.4707031v31.2436562l23.2211838-31.2436562H134.0633087z"/>
		<path class="st2" d="M157.2400665,76.882164h-0.4902344c-3.0610352,0-5.9135742-0.8022461-8.5576172-2.4067383
			c-2.6450195-1.6044922-4.7324219-3.7363281-6.262207-6.3959961c-1.5307617-2.6586914-2.2954102-5.4887733-2.2954102-8.4907265
			c0-4.7241211,1.7084961-8.7871094,5.1254883-12.1899414c3.4165039-3.4018555,7.5024414-5.1030273,12.2568359-5.1030273
			c3.1791992,0,6.1953125,0.8320313,9.0478516,2.4956055v1.6494141c-2.793457-1.9013672-5.8095703-2.8525391-9.0478516-2.8525391
			c-4.3676758,0-8.1118164,1.5673828-11.2314453,4.7021484c-3.1201172,3.1352539-4.6801758,6.8935547-4.6801758,11.2763672
			c0,4.3833008,1.5600586,8.1494179,4.6801758,11.2983437c3.1196289,3.1499023,6.8637695,4.7246094,11.2314453,4.7246094
			c3.2382813,0,6.2543945-0.9506836,9.0478516-2.8525391v1.6489258
			C163.360672,76.050621,160.4192657,76.882164,157.2400665,76.882164z"/>
		<path class="st2" d="M182.9568634,44.2566719h-10.5185547v18.1845703h8.7802734v1.2924805h-8.7802734v11.3657265h10.5185547
			v1.2924805h-11.9892578V42.9641914h11.9892578V44.2566719z"/>
	</g>
</g>
<g id="Слой_3" class="st0">
	<g class="st3">
		<path class="st2" d="M5.009603,13.4798174h1.4262695v12.2568369l14.1289063-12.2568369h1.7827148L7.059896,26.8064785
			l19.2099609,20.1010723h-1.9614258L6.4803061,28.3216152v18.5859356H5.009603V13.4798174z"/>
		<path class="st2" d="M31.5511074,42.2278633c-3.3725586-3.4765625-5.0585938-7.5395508-5.0585938-12.1904278
			c0-4.6499023,1.7084961-8.6757813,5.1254883-12.078125c3.416502-3.4023447,7.5170879-5.1035166,12.3017559-5.1035166
			c4.7832031,0,8.8691406,1.6938477,12.2568359,5.0810556c3.387207,3.387207,5.0810547,7.4208984,5.0810547,12.1005859
			c0,4.6801739-1.6791992,8.7514629-5.0366211,12.2124004c-3.3583984,3.4619141-7.3696289,5.1923828-12.0341797,5.1923828h-0.668457
			C38.9124336,47.4422188,34.9231758,45.7039375,31.5511074,42.2278633z M59.7864571,30.126791
			c0-4.3823242-1.5527344-8.1411133-4.6572266-11.2763672c-3.1054688-3.1342783-6.8496094-4.7021494-11.2319336-4.7021494
			c-4.3833008,0-8.1342773,1.5678711-11.2539063,4.7021494c-3.1201153,3.1352539-4.6801739,6.894043-4.6801739,11.2763672
			c0,4.3832989,1.5600586,8.1494122,4.6801739,11.2988262c3.1196289,3.1494141,6.8637695,4.7241211,11.2314453,4.7241211
			c4.3681641,0,8.1118164-1.574707,11.2319336-4.7241211C58.2263985,38.2762032,59.7864571,34.5100899,59.7864571,30.126791z"/>
		<path class="st2" d="M101.1028671,13.4798174v33.4277344H99.632164V15.2180986L83.854332,47.5315742L68.1653671,15.2180986
			v31.6894531h-1.3369141V13.4798174h2.1391602L83.988121,44.3225899l15.0649414-30.8427734H101.1028671z"/>
		<path class="st2" d="M122.5857773,48.0218086v-2.6743164h-0.3120117c-4.2495117,0-7.9111328-1.5224609-10.9863281-4.5683594
			c-3.0756836-3.0454102-4.6132813-6.6186523-4.6132813-10.7192364s1.5375977-7.6435547,4.6132813-10.6298828
			c3.0751953-2.9863281,6.722168-4.4794931,10.9418945-4.4794931h0.3564453v-2.5849609h1.4707031v2.5849609h0.3120117
			c4.2490158,0,7.9111252,1.5229502,10.9868088,4.5683603c3.0751953,3.0463867,4.612793,6.6040039,4.612793,10.6748047
			c0,4.0712872-1.5454102,7.6147442-4.6352539,10.6298809c-3.0908203,3.0161133-6.7456055,4.5239258-10.9643478,4.5239258
			h-0.3120117v2.6743164H122.5857773z M122.2737656,44.1443672h0.3120117V16.1541348h-0.3564453
			c-3.8330078,0-7.1391602,1.3813477-9.9169922,4.1450195c-2.7788086,2.7631836-4.1674805,6.0390625-4.1674805,9.8276367
			s1.3886719,7.0722637,4.1674805,9.8500957C115.0901718,42.7556953,118.4109726,44.1443672,122.2737656,44.1443672z
			 M124.413414,16.1541348h-0.3569336v27.9902325h0.3120117c3.8330002,0,7.153801-1.3818359,9.9614182-4.1450195
			c2.8081055-2.7636719,4.2119141-6.0317383,4.2119141-9.8056622c0-3.7734375-1.4189453-7.0566406-4.2563477-9.8500977
			C131.4475861,17.5511074,128.1570587,16.1541348,124.413414,16.1541348z"/>
		<path class="st2" d="M149.4832306,42.2278633c-3.3725586-3.4765625-5.0585938-7.5395508-5.0585938-12.1904278
			c0-4.6499023,1.7084961-8.6757813,5.1254883-12.078125c3.4165039-3.4023447,7.5170898-5.1035166,12.3017578-5.1035166
			c4.7832031,0,8.8691406,1.6938477,12.2568359,5.0810556c3.387207,3.387207,5.0810547,7.4208984,5.0810547,12.1005859
			c0,4.6801739-1.6791992,8.7514629-5.0366211,12.2124004c-3.3583984,3.4619141-7.3696289,5.1923828-12.0341797,5.1923828h-0.668457
			C156.8445587,47.4422188,152.8553009,45.7039375,149.4832306,42.2278633z M177.7185822,30.126791
			c0-4.3823242-1.5527344-8.1411133-4.6572266-11.2763672c-3.1054688-3.1342783-6.8496094-4.7021494-11.2319336-4.7021494
			c-4.3833008,0-8.1342773,1.5678711-11.2539063,4.7021494c-3.1201172,3.1352539-4.6801758,6.894043-4.6801758,11.2763672
			c0,4.3832989,1.5600586,8.1494122,4.6801758,11.2988262c3.1196289,3.1494141,6.8637695,4.7241211,11.2314453,4.7241211
			c4.3681641,0,8.1118164-1.574707,11.2319336-4.7241211C176.1585236,38.2762032,177.7185822,34.5100899,177.7185822,30.126791z"/>
		<path class="st2" d="M184.7600861,13.4798174h1.4707031c3.090332,0,5.7197266,1.0625,7.8891602,3.1865244
			c2.168457,2.125,3.253418,4.628418,3.253418,7.5102539c0,2.8823242-1.121582,5.3637695-3.3647461,7.4433594
			c-2.2441406,2.0800762-4.7177734,3.1201153-7.4213867,3.1201153h-0.3564453v12.1674805h-1.4707031V13.4798174z
			 M186.2307892,33.4920235h0.3564453c2.4960938,0,4.6723633-0.9208984,6.5297852-2.76367
			c1.8564453-1.8417969,2.7856445-4.0258789,2.7856445-6.5517578c0-2.5249023-0.9438477-4.7246094-2.8300781-6.5961914
			c-1.887207-1.8720713-4.0488281-2.8081064-6.4853516-2.8081064h-0.3564453V33.4920235z"/>
		<path class="st2" d="M217.5193634,13.4798174v1.2924805h-7.621582v32.1352539H208.42659V14.7722979h-7.7104492v-1.2924805
			H217.5193634z"/>
		<path class="st2" d="M263.7371521,13.4798174v33.4277344h-1.4707031V15.574544l-23.3100739,31.3330078h-1.3818359V13.4798174
			h1.4707031v31.2436523l23.2212067-31.2436523H263.7371521z"/>
		<path class="st2" d="M286.0227966,13.4798174h1.4257813v12.2568369l14.1289063-12.2568369h1.7832031l-15.2880859,13.3266611
			l19.2099609,20.1010723h-1.9609375l-17.828125-18.5859356v18.5859356h-1.4707031V13.4798174z"/>
		<path class="st2" d="M326.1800232,12.6775713l16.7138672,34.2299805h-1.5595703l-6.3291016-12.7470703h-17.8730469
			l-6.2392578,12.7470703h-1.3818359L326.1800232,12.6775713z M326.0462341,15.7527666L317.7122498,32.868h16.7578125
			L326.0462341,15.7527666z"/>
		<path class="st2" d="M341.1106873,24.3997402V13.4798174h1.4716797v10.6079111
			c0,2.4365234,0.8242188,4.5234375,2.4736328,6.2617188c1.6484375,1.7382793,3.6542969,2.60742,6.0166016,2.60742
			s4.3681641-0.8691406,6.0166016-2.60742c1.6494141-1.7382813,2.4736328-3.8251953,2.4736328-6.2617188V13.4798174h1.4716797
			v33.4277344h-1.4716797V28.8118496c-0.7431641,1.5751953-1.8574219,2.875-3.3427734,3.8999004
			c-1.4853516,1.0253906-3.1191406,1.5375977-4.9023438,1.5375977h-0.4453125c-2.6455078,0-4.9326172-0.9873047-6.8642578-2.9638653
			C342.0765076,29.3098965,341.1106873,27.0144863,341.1106873,24.3997402z"/>
		<path class="st2" d="M379.7083435,14.7722979h-10.5185547v18.1845703h8.7802734v1.2924805h-8.7802734v11.3657227h10.5185547
			v1.2924805h-11.9892578V13.4798174h11.9892578V14.7722979z"/>
		<path class="st2" d="M400.6565857,47.3977852h-0.4902344c-3.0605469,0-5.9130859-0.8022461-8.5576172-2.4067383
			c-2.6455078-1.6044922-4.7324219-3.7363281-6.2626953-6.3959961c-1.5302734-2.6586914-2.2949219-5.4887695-2.2949219-8.4907207
			c0-4.7241211,1.7080078-8.7871094,5.1259766-12.1899414c3.4160156-3.4018564,7.5019531-5.1030283,12.2568359-5.1030283
			c3.1787109,0,6.1953125,0.8320313,9.0478516,2.4956055v1.649415c-2.7939453-1.9013681-5.8095703-2.85254-9.0478516-2.85254
			c-4.3681641,0-8.1123047,1.5673828-11.2324219,4.7021494c-3.1191406,3.1352539-4.6796875,6.8935547-4.6796875,11.2763672
			c0,4.3832989,1.5605469,8.1494122,4.6796875,11.2983379c3.1201172,3.1499023,6.8642578,4.7246094,11.2324219,4.7246094
			c3.2382813,0,6.2539063-0.9506836,9.0478516-2.8525391v1.6489258
			C406.7776794,46.5662422,403.8352966,47.3977852,400.6565857,47.3977852z"/>
		<path class="st2" d="M428.9573669,13.4798174v1.2924805h-7.6210938v32.1352539h-1.4707031V14.7722979h-7.7109375v-1.2924805
			H428.9573669z"/>
		<path class="st2" d="M433.4143982,13.4798174h1.4257813c1.9316406,0,3.5507813,0.6015625,4.8583984,1.8051758
			c1.3076172,1.203126,1.9609375,2.7407236,1.9609375,4.6127939c0,1.1298828-0.3642578,2.2807617-1.0917969,3.4541016
			c-0.7285156,1.1743164-1.5820313,1.9389648-2.5625,2.2954102c2.2880859,0.5649414,4.1894531,1.7832031,5.7050781,3.6547852
			c1.515625,1.8720703,2.2734375,4.2275372,2.2734375,7.0644512c0,2.8378906-1.0859375,5.3041992-3.2539063,7.3989258
			c-2.1699219,2.0947266-4.7988281,3.1420898-7.8896484,3.1420898h-1.4257813V13.4798174z M434.8401794,14.7278643v10.5185556
			h0.3574219c1.3369141,0,2.5175781-0.5419922,3.5429688-1.6269531c1.0253906-1.0844727,1.5380859-2.3320313,1.5380859-3.7436523
			c0-1.4111328-0.5058594-2.6220703-1.515625-3.6328125c-1.0107422-1.0097666-2.1992188-1.5151377-3.5654297-1.5151377H434.8401794z
			 M434.8401794,26.4495449v19.209959h0.3574219c2.5546875,0,4.7607422-0.9506836,6.6181641-2.8525391
			c1.8564453-1.9008789,2.7861328-4.159668,2.7861328-6.7744141s-0.921875-4.8652325-2.7636719-6.7524395
			c-1.8427734-1.8867188-4.0556641-2.8305664-6.640625-2.8305664H434.8401794z"/>
		<path class="st2" d="M454.8304138,42.2278633c-3.3730469-3.4765625-5.0585938-7.5395508-5.0585938-12.1904278
			c0-4.6499023,1.7080078-8.6757813,5.1259766-12.078125c3.4160156-3.4023447,7.5166016-5.1035166,12.3007813-5.1035166
			s8.8701172,1.6938477,12.2568359,5.0810556c3.3876953,3.387207,5.0810547,7.4208984,5.0810547,12.1005859
			c0,4.6801739-1.6787109,8.7514629-5.0361328,12.2124004c-3.3583984,3.4619141-7.3691406,5.1923828-12.0341797,5.1923828
			h-0.6679688C462.1917419,47.4422188,458.2024841,45.7039375,454.8304138,42.2278633z M483.0657654,30.126791
			c0-4.3823242-1.5527344-8.1411133-4.6572266-11.2763672c-3.1054688-3.1342783-6.8496094-4.7021494-11.2324219-4.7021494
			s-8.1337891,1.5678711-11.2539063,4.7021494c-3.1191406,3.1352539-4.6796875,6.894043-4.6796875,11.2763672
			c0,4.3832989,1.5605469,8.1494122,4.6796875,11.2988262c3.1201172,3.1494141,6.8642578,4.7241211,11.2324219,4.7241211
			c4.3671875,0,8.1113281-1.574707,11.2314453-4.7241211S483.0657654,34.5100899,483.0657654,30.126791z"/>
	</g>
</g>
<g id="Слой_4" class="st0">
	<g class="st3">
		<path class="st2" d="M5.6785483,8.7410479h1.4262695c1.9311519,0,3.5502925,0.6015625,4.858398,1.8051758
			c1.3071289,1.203125,1.9609375,2.7407227,1.9609375,4.612793c0,1.1298838-0.3642578,2.2807627-1.0922852,3.4541025
			c-0.7280273,1.1743164-1.5820313,1.9389648-2.5625,2.2954102c2.2875977,0.5649414,4.1894531,1.7832031,5.7050781,3.6547852
			c1.5151377,1.8720703,2.2729502,4.2275391,2.2729502,7.0644531c0,2.8378887-1.0849609,5.3041973-3.2534189,7.3989239
			c-2.1694336,2.0947266-4.7993164,3.1420898-7.8891597,3.1420898H5.6785483V8.7410479z M7.1048179,9.9890947v10.5185556h0.3564453
			c1.3374019,0,2.5185542-0.5419922,3.5434566-1.6269531c1.0249023-1.0844727,1.5375977-2.3320313,1.5375977-3.7436533
			c0-1.4111328-0.5053711-2.6220703-1.5151367-3.6328125c-1.0107422-1.0097656-2.1992188-1.5151367-3.5659175-1.5151367H7.1048179z
			 M7.1048179,21.7107754v19.209959h0.3564453c2.5551753,0,4.7617183-0.9506836,6.6186519-2.8525391
			c1.8569336-1.9008789,2.7856455-4.159668,2.7856455-6.7744122s-0.9213877-4.8652344-2.7631845-6.7524414
			c-1.8427734-1.8867188-4.0561523-2.8305664-6.6411128-2.8305664H7.1048179z"/>
		<path class="st2" d="M22.927084,8.7410479h1.9165039c2.8818359,0,5.4155273,1.0625,7.5991192,3.1865234
			c2.184082,2.125,3.2758789,4.6210947,3.2758789,7.4877939c0,2.8681641-1.1142578,5.3564453-3.3427734,7.4658203
			c-2.2285137,2.1098633-4.6206036,3.1645508-7.1757793,3.1645508h-0.3120117l11.4995098,12.123045h-1.9165039L24.3533535,31.560873
			v10.6079082H22.927084V8.7410479z M24.3533535,28.7532558h0.8022461c2.4067383,0,4.5307617-0.9208984,6.3735352-2.7636719
			c1.8422832-1.8417969,2.7631817-4.0258789,2.7631817-6.5517578c0-2.5249023-0.9511719-4.7246103-2.8520489-6.5961924
			c-1.9023438-1.8720703-4.0712891-2.8081055-6.5073242-2.8081055h-0.5795898V28.7532558z"/>
		<path class="st2" d="M41.289875,8.7410479h1.4711914v33.4277344H41.289875V8.7410479z"/>
		<path class="st2" d="M65.9368515,42.6590157h-0.4902344c-3.0605507,0-5.9130898-0.8022461-8.557621-2.4067383
			c-2.6450195-1.6044922-4.7319336-3.7363281-6.2617188-6.3959961c-1.5307617-2.6586895-2.2954102-5.4887676-2.2954102-8.4907207
			c0-4.7241211,1.7080078-8.7871094,5.1254883-12.1899424c3.4165039-3.4018555,7.5024414-5.1030273,12.2568398-5.1030273
			c3.1791992,0,6.1953125,0.8320313,9.0478516,2.4956055v1.6494141c-2.793457-1.9013672-5.8095703-2.8525391-9.0478516-2.8525391
			c-4.3681679,0-8.1118202,1.5673828-11.2319374,4.7021484c-3.1196289,3.1352549-4.6796875,6.8935556-4.6796875,11.2763681
			c0,4.3833008,1.5600586,8.1494122,4.6796875,11.2983379c3.1201172,3.1499023,6.8637695,4.7246094,11.2319374,4.7246094
			c3.2382813,0,6.2543945-0.9506836,9.0478516-2.8525391v1.6489258
			C72.0579453,41.8274727,69.1160507,42.6590157,65.9368515,42.6590157z"/>
		<path class="st2" d="M80.7786484,8.7410479h1.4262695v12.2568369L96.3338242,8.7410479h1.7827148L82.8289413,22.067709
			l19.2099609,20.1010723h-1.9614258l-17.828125-18.5859356v18.5859356h-1.4707031V8.7410479z"/>
		<path class="st2" d="M121.8719101,8.7410479h1.4262695c4.9916916,0,9.0180588,1.6420898,12.0786057,4.9248047
			c3.0600586,3.2836924,4.5908203,7.2207041,4.5908203,11.8115244c0,4.590332-1.5229492,8.5205059-4.5683594,11.7885723
			c-3.0463867,3.269043-7.0800781,4.902832-12.1010666,4.902832h-1.4262695V8.7410479z M123.6546249,10.0779619h-0.3564453
			v30.7089844h0.3564453c4.3378906,0,7.8959885-1.5,10.6747971-4.5014648
			c2.777832-3.0009766,4.1674805-6.6035137,4.1674805-10.8081036s-1.3896484-7.8222656-4.1674805-10.8530283
			C131.5506134,11.5935869,127.9925156,10.0779619,123.6546249,10.0779619z"/>
		<path class="st2" d="M145.3152618,8.7410479h11.9892578v1.2924805H146.785965v18.1845703h8.7802734v1.2924805h-8.7802734
			v11.3657207h10.5185547v1.2924805h-11.9892578V8.7410479z"/>
		<path class="st2" d="M175.9344025,42.9265938L159.3098907,8.7410479h1.6044922l15.1538086,30.9765625l15.0649414-30.9765625
			h1.4262695L175.9344025,42.9265938z"/>
		<path class="st2" d="M196.7932892,8.7410479h11.9892578v1.2924805h-10.5185547v18.1845703h8.7802734v1.2924805h-8.7802734
			v11.3657207h10.5185547v1.2924805h-11.9892578V8.7410479z"/>
		<path class="st2" d="M214.7102814,8.7410479v32.1352539h10.340332v1.2924805h-11.8110352V8.7410479H214.7102814z"/>
		<path class="st2" d="M228.1038361,37.5335274c-3.3725586-3.4765625-5.0585938-7.5395489-5.0585938-12.1899395
			c0-4.6499023,1.7080078-8.6762695,5.1254883-12.0786142c3.4165039-3.4018555,7.5170898-5.1035156,12.3012695-5.1035156
			c4.7836914,0,8.8696289,1.6938477,12.2568359,5.0810547c3.3877106,3.387208,5.0810699,7.4208994,5.0810699,12.1010752
			c0,4.6796875-1.6791992,8.7509747-5.0366364,12.2124004c-3.3579102,3.4614258-7.3691406,5.1923828-12.0336914,5.1923828h-0.668457
			C235.4646759,42.7483711,231.4759064,41.0100899,228.1038361,37.5335274z M256.3392029,25.4324551
			c0-4.3823242-1.5532379-8.1411133-4.6577301-11.2763681c-3.1054688-3.1342773-6.8491211-4.7021484-11.2314453-4.7021484
			c-4.3833008,0-8.1342773,1.5678711-11.2543945,4.7021484c-3.1196289,3.1352549-4.6796875,6.8940439-4.6796875,11.2763681
			c0,4.3833008,1.5600586,8.1494122,4.6796875,11.2988262c3.1201172,3.1499023,6.8637695,4.7246094,11.2319336,4.7246094
			c4.3676758,0,8.1118164-1.574707,11.2314453-4.7246094C254.779129,33.5818672,256.3392029,29.8157558,256.3392029,25.4324551z"/>
		<path class="st2" d="M263.1131287,8.7410479h1.4707031c3.0908203,0,5.7197266,1.0625,7.8896484,3.1865234
			c2.1679688,2.125,3.2539063,4.6284189,3.2539063,7.5102549c0,2.8823242-1.1220703,5.3637695-3.3652344,7.4433594
			c-2.2441406,2.0800781-4.7177734,3.1201172-7.4208984,3.1201172h-0.3574219v12.1674786h-1.4707031V8.7410479z
			 M264.5838318,28.7532558h0.3574219c2.4951172,0,4.671875-0.9208984,6.5292969-2.7636719
			c1.8564453-1.8417969,2.7851563-4.0258789,2.7851563-6.5517578c0-2.5249023-0.9433594-4.7246103-2.8300781-6.5961924
			c-1.8867188-1.8720703-4.0488281-2.8081055-6.484375-2.8081055h-0.3574219V28.7532558z"/>
		<path class="st2" d="M314.8147888,8.7410479v33.4277344h-1.4707031V10.4793291l-15.7773438,32.3134766l-15.6894531-32.3134766
			v31.6894531h-1.3369141V8.7410479h2.1396484l15.0195313,30.8427734l15.0654297-30.8427734H314.8147888z"/>
		<path class="st2" d="M321.4993591,8.7410479h11.9892578v1.2924805h-10.5185547v18.1845703h8.7802734v1.2924805h-8.7802734
			v11.3657207h10.5185547v1.2924805h-11.9892578V8.7410479z"/>
		<path class="st2" d="M362.5481873,8.7410479h1.2929688v33.9179688L339.2386169,12.395833v29.7729492h-1.2929688V8.2508135
			l24.6025391,30.21875V8.7410479z"/>
		<path class="st2" d="M384.8772888,8.7410479v1.2924805h-7.6210938v32.1352539h-1.4707031V10.0335283h-7.7109375V8.7410479
			H384.8772888z"/>
	</g>
</g>
<g id="Слой_5">
	<g class="st4">
		<path class="st2" d="M24.8343105,410.0647888h-0.4902344c-3.0610352,0-5.9135742-0.8027344-8.5576181-2.4072266
			c-2.6450195-1.6044922-4.7324219-3.7363281-6.262207-6.3955078c-1.5307612-2.6591797-2.2954097-5.4892578-2.2954097-8.4912109
			c0-4.7241211,1.7084956-8.7871094,5.1254878-12.1899414c3.4165039-3.4018555,7.5024424-5.1030273,12.2568369-5.1030273
			c3.1791992,0,6.1953125,0.8320313,9.0478497,2.4956055v1.6494141c-2.7934551-1.9013672-5.8095684-2.8525391-9.0478497-2.8525391
			c-4.3676758,0-8.1118164,1.5673828-11.2314463,4.7021484c-3.1201172,3.1352539-4.6801758,6.894043-4.6801758,11.2768555
			s1.5600586,8.1494141,4.6801758,11.2978516c3.1196299,3.1503906,6.8637705,4.7246094,11.2314463,4.7246094
			c3.2382813,0,6.2543945-0.9501953,9.0478497-2.8525391v1.6494141
			C30.954916,409.2327576,28.0135098,410.0647888,24.8343105,410.0647888z"/>
		<path class="st2" d="M62.9412422,376.1463318h1.4711952v33.4282227h-1.4711952v-12.7470703H40.0320625v12.7470703h-1.4707031
			v-33.4282227h1.4707031v19.3881836h22.9091797V376.1463318z"/>
		<path class="st2" d="M97.260582,376.1463318v33.4282227h-1.4707031v-31.3334961l-23.3100586,31.3334961h-1.3818359v-33.4282227
			h1.4707031v31.2436523l23.2211914-31.2436523H97.260582z"/>
		<path class="st2" d="M120.3479843,376.1463318h1.4262695v12.0786133l11.0981369-12.0786133h1.6489258l-12.2123947,13.2817383
			l18.0956955,20.1464844h-1.8271484l-16.803215-18.5859375v18.5859375h-1.4262695v-18.5859375l-16.7583008,18.5859375h-1.8720703
			l18.1401367-20.1464844l-12.2124023-13.2817383h1.6044922l11.0981445,12.0786133V376.1463318z"/>
		<path class="st2" d="M156.8509064,377.4388123h-10.5185547v18.1845703h8.7802734v1.2929688h-8.7802734v11.3652344h10.5185547
			v1.2929688h-11.9892578v-33.4282227h11.9892578V377.4388123z"/>
		<path class="st2" d="M185.6873322,376.1463318h1.4711914v33.4282227h-1.4711914v-12.7470703h-22.9091797v12.7470703h-1.4707031
			v-33.4282227h1.4707031v19.3881836h22.9091797V376.1463318z"/>
		<path class="st2" d="M220.0061798,376.1463318v33.4282227h-1.4707031v-31.3334961l-23.3100586,31.3334961h-1.3818359v-33.4282227
			h1.4707031v31.2436523l23.2211914-31.2436523H220.0061798z"/>
		<path class="st2" d="M238.6814728,377.4388123h-10.5185547v18.1845703h8.7802734v1.2929688h-8.7802734v11.3652344h10.5185547
			v1.2929688H226.692215v-33.4282227h11.9892578V377.4388123z"/>
		<path class="st2" d="M8.3430986,429.6311951H29.380209v33.4277344h-1.4707031v-32.1357422H9.8138018v32.1357422H8.3430986
			V429.6311951z"/>
		<path class="st2" d="M50.4622383,428.8733826l16.6245155,34.1855469h-1.6044922l-15.1538124-30.9765625l-15.0649414,30.9765625
			h-1.4262695L50.4622383,428.8733826z"/>
		<path class="st2" d="M85.9842148,428.8284607l16.7138672,34.2304688h-1.5600586l-6.3291016-12.7470703H76.9363632
			l-6.2397461,12.7470703h-1.3818359L85.9842148,428.8284607z M85.8504257,431.903656l-8.3344727,17.1152344h16.7583008
			L85.8504257,431.903656z"/>
		<path class="st2" d="M115.4895859,429.6311951v1.2919922h-7.621582v32.1357422h-1.4711914v-32.1357422h-7.7104492v-1.2919922
			H115.4895859z"/>
		<path class="st2" d="M131.935379,430.9231873H121.416832v18.1845703h8.7802658v1.2929688h-8.7802658v11.3652344h10.5185471
			v1.2929688h-11.9892502v-33.4277344h11.9892502V430.9231873z"/>
		<path class="st2" d="M152.7937775,429.6311951h1.4262695v12.078125l11.0981445-12.078125h1.6489258l-12.2124023,13.28125
			l18.0957031,20.1464844h-1.8271484l-16.8032227-18.5859375v18.5859375h-1.4262695v-18.5859375l-16.7583008,18.5859375h-1.8720703
			l18.1401367-20.1464844l-12.2124023-13.28125h1.6044922l11.0981445,12.078125V429.6311951z"/>
		<path class="st2" d="M189.2967072,430.9231873h-10.5185547v18.1845703h8.7802734v1.2929688h-8.7802734v11.3652344h10.5185547
			v1.2929688h-11.9892578v-33.4277344h11.9892578V430.9231873z"/>
		<path class="st2" d="M219.9158478,429.6311951v33.4277344h-1.4707031v-31.3330078l-23.3100586,31.3330078h-1.3818359v-33.4277344
			h1.4707031v31.2431641l23.2211914-31.2431641H219.9158478z M204.4949493,424.3050232
			c0.8310547,0.7871094,1.7895508,1.1806641,2.8745117,1.1806641c1.0844727,0,2.0424805-0.4013672,2.875-1.203125
			c0.831543-0.8027344,1.3071289-1.7382813,1.4262695-2.8076172h1.2924805
			c-0.0600586,1.3964844-0.6171875,2.6064453-1.6713867,3.6318359c-1.0551758,1.0253906-2.2954102,1.5380859-3.7216797,1.5380859
			h-0.3564453c-1.4262695,0-2.659668-0.5048828-3.699707-1.515625c-1.0400391-1.0097656-1.5898438-2.2285156-1.6489258-3.6542969
			h1.2480469C203.2019806,422.5745544,203.6624298,423.5179138,204.4949493,424.3050232z"/>
	</g>
	<g class="st5">
		<path class="st2" d="M15.2874346,38.8201485c-3.3725586-3.4765625-5.0585938-7.5395489-5.0585938-12.1904278
			c0-4.6499023,1.7084961-8.6757813,5.1254883-12.078126c3.4165049-3.4023438,7.5170908-5.1035156,12.3017588-5.1035156
			c4.7832012,0,8.8691387,1.6938477,12.256834,5.0810547c3.387207,3.387208,5.0810547,7.4208994,5.0810547,12.1005869
			c0,4.6801758-1.6791992,8.7514629-5.0366211,12.2124004c-3.3583984,3.4619141-7.3696289,5.1923828-12.0341778,5.1923828h-0.668457
			C22.6487637,44.0345039,18.6595058,42.2962227,15.2874346,38.8201485z M43.5227852,26.7190762
			c0-4.3823242-1.5527344-8.1411133-4.6572266-11.2763681c-3.1054688-3.1342773-6.8496094-4.7021484-11.2319317-4.7021484
			c-4.3833008,0-8.1342773,1.5678711-11.2539063,4.7021484c-3.1201181,3.1352549-4.6801767,6.8940439-4.6801767,11.2763681
			c0,4.3833008,1.5600586,8.1494122,4.6801767,11.2988262c3.1196289,3.1494141,6.8637695,4.7241211,11.2314453,4.7241211
			c4.3681641,0,8.1118145-1.574707,11.2319317-4.7241211C41.9627266,34.8684883,43.5227852,31.1023769,43.5227852,26.7190762z"/>
		<path class="st2" d="M66.1639023,10.0721025h21.0371094V43.499836h-1.4707031V11.364583H67.6346054V43.499836h-1.4707031
			V10.0721025z"/>
		<path class="st2" d="M108.2830429,9.31429l16.6245117,34.1855469h-1.6044922l-15.1538086-30.9765625L93.0843124,43.499836
			h-1.4262695L108.2830429,9.31429z"/>
		<path class="st2" d="M129.36409,43.499836V10.0721025h1.4707031v19.3881836h8.2011719
			c-0.1489258-0.9506836-0.2231445-1.8422852-0.2231445-2.6743164c0-4.7246094,1.7084961-8.7875977,5.1259766-12.1899424
			c3.4165039-3.4018555,7.5024414-5.1035156,12.2568359-5.1035156c4.753418,0,8.8393555,1.6938477,12.2568359,5.0810547
			c3.4165039,3.387208,5.1254883,7.4140635,5.1254883,12.0786142c0,4.6655273-1.6938477,8.7358379-5.0810547,12.2124004
			s-7.3842773,5.2148438-11.9892578,5.2148438h-0.6689453c-3.8330078,0-7.2871094-1.2924805-10.3623047-3.8779297
			c-3.0756836-2.5849609-5.1479492-5.7338867-6.2177734-9.4487286h-8.4238281V43.499836H129.36409z M172.107254,26.7635098
			c0-4.3823242-1.5678711-8.1411133-4.7021484-11.2763681c-3.1352539-3.1342773-6.8862305-4.7021484-11.2543945-4.7021484
			c-4.3676758,0-8.1044922,1.5678711-11.2094727,4.7021484c-3.1049805,3.1352549-4.6572266,6.8940439-4.6572266,11.2763681
			c0,4.3833008,1.5595703,8.1494122,4.6796875,11.2988262c3.1201172,3.1499023,6.8564453,4.7246094,11.2094727,4.7246094
			c4.3525391,0,8.0966797-1.574707,11.2319336-4.7246094C170.5393829,34.9129219,172.107254,31.1468105,172.107254,26.7635098z"/>
		<path class="st2" d="M195.6399689,43.9900703h-0.4902344c-3.0610352,0-5.9135742-0.8022461-8.5576172-2.4067383
			c-2.6450195-1.6044922-4.7324219-3.7363281-6.262207-6.3959961c-1.5307617-2.6586914-2.2954102-5.4887676-2.2954102-8.4907207
			c0-4.7241211,1.7084961-8.7871094,5.1254883-12.1899424c3.4165039-3.4018555,7.5024414-5.1030273,12.2568359-5.1030273
			c3.1791992,0,6.1953125,0.8320313,9.0478516,2.4956055v1.6494141c-2.793457-1.9013672-5.8095703-2.8525391-9.0478516-2.8525391
			c-4.3676758,0-8.1118164,1.5673828-11.2314453,4.7021484c-3.1201172,3.1352549-4.6801758,6.8935556-4.6801758,11.2763681
			c0,4.3833008,1.5600586,8.1494122,4.6801758,11.2983379c3.1196289,3.1499023,6.8637695,4.7246094,11.2314453,4.7246094
			c3.2382813,0,6.2543945-0.9506836,9.0478516-2.8525391v1.6489258
			C201.7605743,43.1585274,198.8191681,43.9900703,195.6399689,43.9900703z"/>
		<path class="st2" d="M223.8079376,9.2698565l16.7138672,34.2299805h-1.5600586l-6.3291016-12.7470684h-17.8725586
			L208.52034,43.499836h-1.3818359L223.8079376,9.2698565z M223.6741486,12.3450518l-8.3344727,17.1152344h16.7583008
			L223.6741486,12.3450518z"/>
		<path class="st2" d="M260.5335388,10.0721025l-7.1757965,14.7080088l9.136734,18.7197247h-1.6489258l-8.3349762-17.1596661
			l-8.3789063,17.1596661h-1.3818359l9.0478516-18.6748028l-7.3540039-14.7529306h1.6933594l6.5073242,13.2373056
			l6.4629059-13.2373056H260.5335388z"/>
		<path class="st2" d="M15.2874346,92.3045273c-3.3725586-3.4765625-5.0585938-7.5395508-5.0585938-12.1904297
			c0-4.6499023,1.7084961-8.6757813,5.1254883-12.078125c3.4165049-3.4023438,7.5170908-5.1035194,12.3017588-5.1035194
			c4.7832012,0,8.8691387,1.6938515,12.256834,5.0810585c3.387207,3.387207,5.0810547,7.4208984,5.0810547,12.1005859
			c0,4.6801758-1.6791992,8.7514648-5.0366211,12.2124023c-3.3583984,3.4619141-7.3696289,5.1923828-12.0341778,5.1923828h-0.668457
			C22.6487637,97.5188828,18.6595058,95.7806015,15.2874346,92.3045273z M43.5227852,80.2034531
			c0-4.3823242-1.5527344-8.1411133-4.6572266-11.2763672c-3.1054688-3.1342773-6.8496094-4.7021484-11.2319317-4.7021484
			c-4.3833008,0-8.1342773,1.5678711-11.2539063,4.7021484c-3.1201181,3.1352539-4.6801767,6.894043-4.6801767,11.2763672
			c0,4.3833008,1.5600586,8.1494141,4.6801767,11.2988281c3.1196289,3.1494141,6.8637695,4.7241211,11.2314453,4.7241211
			c4.3681641,0,8.1118145-1.574707,11.2319317-4.7241211C41.9627266,88.3528671,43.5227852,84.5867538,43.5227852,80.2034531z"/>
		<path class="st2" d="M50.5647774,63.5564766h1.4262695v12.2568398L66.119957,63.5564766h1.7827148l-15.2876015,13.326664
			l19.2099648,20.1010742h-1.9614258L52.0354805,78.3982773v18.5859375h-1.4707031V63.5564766z"/>
		<path class="st2" d="M76.2815781,63.5564766h1.4707031c3.090332,0,5.7197266,1.0625038,7.8891602,3.1865273
			c2.168457,2.125,3.253418,4.628418,3.253418,7.5102539c0,2.8823242-1.121582,5.3637695-3.3647461,7.4433594
			c-2.2441406,2.0800781-4.7177734,3.1201172-7.4213867,3.1201172h-0.3564453v12.1674805h-1.4707031V63.5564766z
			 M77.7522812,83.5686874h0.3564453c2.4960938,0,4.6723633-0.9208984,6.5297852-2.7636719
			c1.8564453-1.8417969,2.7856445-4.0258789,2.7856445-6.5517578c0-2.5249023-0.9438477-4.7246094-2.8300781-6.5961914
			c-1.887207-1.8720703-4.0488281-2.8081055-6.4853516-2.8081055h-0.3564453V83.5686874z"/>
		<path class="st2" d="M118.1326523,63.5564766l-15.8671875,33.4277382h-1.3818359l3.8330078-8.0673828L92.2371445,63.5564766
			h1.6044922l11.6772461,23.8002968l11.2319336-23.8002968H118.1326523z"/>
		<path class="st2" d="M134.5349884,63.5564766h1.4262695v12.0786171l11.0981445-12.0786171h1.6489258l-12.2124023,13.2817421
			l18.0957031,20.1459961h-1.8271484l-16.8032227-18.5859375v18.5859375h-1.4262695V78.3982773l-16.7582932,18.5859375h-1.8720703
			l18.1401291-20.1459961l-12.2123947-13.2817421h1.6044922l11.0981369,12.0786171V63.5564766z"/>
		<path class="st2" d="M171.0379181,64.8489609h-10.5185547v18.1845703h8.7802734v1.2924805h-8.7802734v11.3657227h10.5185547
			v1.2924805h-11.9892578V63.5564766h11.9892578V64.8489609z"/>
		<path class="st2" d="M199.8743439,63.5564766h1.4711914v33.4277382h-1.4711914V84.2371445h-22.9091797v12.7470703h-1.4707031
			V63.5564766h1.4707031V82.944664h22.9091797V63.5564766z"/>
		<path class="st2" d="M234.1931915,63.5564766v33.4277382h-1.4707031V65.651207l-23.3100586,31.3330078h-1.3818359V63.5564766
			h1.4707031v31.2436562l23.2211914-31.2436562H234.1931915z"/>
		<path class="st2" d="M250.372879,63.5564766h1.9165039v33.4277382h-1.4262695V86.3763046l-10.1176758,10.6079102h-1.6489258
			l11.4990234-12.1230469h-0.5795898c-2.5556641,0-4.9472656-1.0546875-7.1757813-3.1645508
			c-2.2285156-2.109375-3.3427734-4.5976563-3.3427734-7.4658203c0-2.8666992,1.0922852-5.362793,3.2758789-7.487793
			C244.9573517,64.6189804,247.4900665,63.5564766,250.372879,63.5564766z M250.0608673,83.5686874h0.8022461V64.8489609h-0.5795898
			c-2.4365234,0-4.605957,0.9360352-6.5073242,2.8081055c-1.9018555,1.871582-2.8525391,4.0712891-2.8525391,6.5961914
			c0,2.5258789,0.9208984,4.7099609,2.7636719,6.5517578C245.529129,82.647789,247.654129,83.5686874,250.0608673,83.5686874z"/>
	</g>
	<g>
	</g>
	<g>
	</g>
	<g>
	</g>
	<g>
	</g>
	<g>
	</g>
</g>
</svg>
