<?xml version="1.0" encoding="utf-8"?>
<!-- Generator: Adobe Illustrator 21.0.1, SVG Export Plug-In . SVG Version: 6.00 Build 0)  -->
<svg version="1.1" id="Слой_1" xmlns="http://www.w3.org/2000/svg" xmlns:xlink="http://www.w3.org/1999/xlink" x="0px" y="0px"
	 viewBox="0 0 357.5 105" style="enable-background:new 0 0 357.5 105;" xml:space="preserve">
<style type="text/css">
	.st0{display:none;}
	.st1{display:inline;opacity:0.2;}
	.st2{fill:#D3D3D3;stroke:#D8D8D8;stroke-width:2;}
	.st3{display:none;opacity:0.3;}
	.st4{display:inline;fill:#D3D3D3;stroke:#D8D8D8;stroke-width:2;}
	.st5{opacity:0.2;}
</style>
<g id="Слой_1_1_" class="st0">
	<g class="st1">
		<path class="st2" d="M32.7-6.9h1.5v33.4h-1.5V13.8H9.8v12.7H8.3V-6.9h1.5v19.4h22.9V-6.9z"/>
		<path class="st2" d="M44.8,21.9c-3.4-3.5-5.1-7.5-5.1-12.2c0-4.6,1.7-8.7,5.1-12.1c3.4-3.4,7.5-5.1,12.3-5.1
			c4.8,0,8.9,1.7,12.3,5.1C72.8,1,74.5,5,74.5,9.7c0,4.7-1.7,8.8-5,12.2c-3.4,3.5-7.4,5.2-12,5.2h-0.7
			C52.2,27.1,48.2,25.4,44.8,21.9z M73.1,9.8c0-4.4-1.6-8.1-4.7-11.3c-3.1-3.1-6.8-4.7-11.2-4.7c-4.4,0-8.1,1.6-11.3,4.7
			c-3.1,3.1-4.7,6.9-4.7,11.3c0,4.4,1.6,8.1,4.7,11.3c3.1,3.1,6.9,4.7,11.2,4.7c4.4,0,8.1-1.6,11.2-4.7
			C71.5,17.9,73.1,14.2,73.1,9.8z"/>
		<path class="st2" d="M80.1-6.9h1.4c1.9,0,3.6,0.6,4.9,1.8c1.3,1.2,2,2.7,2,4.6c0,1.1-0.4,2.3-1.1,3.5c-0.7,1.2-1.6,1.9-2.6,2.3
			C87,5.9,88.9,7.1,90.4,9c1.5,1.9,2.3,4.2,2.3,7.1c0,2.8-1.1,5.3-3.3,7.4c-2.2,2.1-4.8,3.1-7.9,3.1h-1.4V-6.9z M81.5-5.6V4.9h0.4
			c1.3,0,2.5-0.5,3.5-1.6C86.5,2.2,87,1,87-0.5c0-1.4-0.5-2.6-1.5-3.6c-1-1-2.2-1.5-3.6-1.5H81.5z M81.5,6.1v19.2h0.4
			c2.6,0,4.8-1,6.6-2.9c1.9-1.9,2.8-4.2,2.8-6.8s-0.9-4.9-2.8-6.8c-1.8-1.9-4.1-2.8-6.6-2.8H81.5z"/>
		<path class="st2" d="M101.5,21.9c-3.4-3.5-5.1-7.5-5.1-12.2c0-4.6,1.7-8.7,5.1-12.1c3.4-3.4,7.5-5.1,12.3-5.1
			c4.8,0,8.9,1.7,12.3,5.1c3.4,3.4,5.1,7.4,5.1,12.1c0,4.7-1.7,8.8-5,12.2c-3.4,3.5-7.4,5.2-12,5.2h-0.7
			C108.9,27.1,104.9,25.4,101.5,21.9z M129.8,9.8c0-4.4-1.6-8.1-4.7-11.3c-3.1-3.1-6.8-4.7-11.2-4.7c-4.4,0-8.1,1.6-11.3,4.7
			c-3.1,3.1-4.7,6.9-4.7,11.3c0,4.4,1.6,8.1,4.7,11.3c3.1,3.1,6.9,4.7,11.2,4.7c4.4,0,8.1-1.6,11.2-4.7
			C128.2,17.9,129.8,14.2,129.8,9.8z"/>
		<path class="st2" d="M136.8-6.9h1.4V5.4l14.1-12.3h1.8L138.8,6.5l19.2,20.1h-2L138.3,8v18.6h-1.5V-6.9z"/>
		<path class="st2" d="M163.3,21.9c-3.4-3.5-5.1-7.5-5.1-12.2c0-4.6,1.7-8.7,5.1-12.1c3.4-3.4,7.5-5.1,12.3-5.1
			c4.8,0,8.9,1.7,12.3,5.1C191.3,1,193,5,193,9.7c0,4.7-1.7,8.8-5,12.2c-3.4,3.5-7.4,5.2-12,5.2h-0.7
			C170.7,27.1,166.7,25.4,163.3,21.9z M191.6,9.8c0-4.4-1.6-8.1-4.7-11.3c-3.1-3.1-6.8-4.7-11.2-4.7c-4.4,0-8.1,1.6-11.3,4.7
			c-3.1,3.1-4.7,6.9-4.7,11.3c0,4.4,1.6,8.1,4.7,11.3c3.1,3.1,6.9,4.7,11.2,4.7c4.4,0,8.1-1.6,11.2-4.7
			C190,17.9,191.6,14.2,191.6,9.8z"/>
		<path class="st2" d="M193.7,30.9v-5.6h2.5l16.1-32.9l16.1,32.9h2.1v5.6h-1.4v-4.3H195v4.3H193.7z M212.1-4.5l-14.6,29.8h29.3
			L212.1-4.5z"/>
		<path class="st2" d="M249.8-7.7l16.7,34.2H265l-6.3-12.7h-17.9l-6.2,12.7h-1.4L249.8-7.7z M249.7-4.6l-8.3,17.1h16.8L249.7-4.6z"
			/>
		<path class="st2" d="M294.1,26.6H271V-6.9h1.5v32.1h18.1V-6.9h1.5v32.1h3.4v5.6h-1.3V26.6z"/>
		<path class="st2" d="M299.9-6.9h1.5V6.2h0.4c2.4,0,4.7,1,6.9,3c2.1,2,3.2,4.4,3.2,7.1c0,2.7-1,5.1-3.1,7.2c-2.1,2-4.5,3.1-7.3,3.1
			h-1.5V-6.9z M301.7,7.5h-0.4v17.8h0.4c2.2,0,4.2-0.9,6-2.7c1.8-1.8,2.7-3.9,2.7-6.2c0-2.4-0.9-4.4-2.6-6.2
			C306,8.4,304,7.5,301.7,7.5z"/>
		<path class="st2" d="M317.4-6.9h1.4V5.4l14.1-12.3h1.8L319.4,6.5l19.2,20.1h-2L318.9,8v18.6h-1.5V-6.9z"/>
		<path class="st2" d="M343.3-6.9h1.5v33.4h-1.5V-6.9z"/>
		<path class="st2" d="M8.3,46.6h1.4c1.9,0,3.6,0.6,4.9,1.8c1.3,1.2,2,2.7,2,4.6c0,1.1-0.4,2.3-1.1,3.5c-0.7,1.2-1.6,1.9-2.6,2.3
			c2.3,0.6,4.2,1.8,5.7,3.7c1.5,1.9,2.3,4.2,2.3,7.1c0,2.8-1.1,5.3-3.3,7.4c-2.2,2.1-4.8,3.1-7.9,3.1H8.3V46.6z M9.8,47.9v10.5h0.4
			c1.3,0,2.5-0.5,3.5-1.6c1-1.1,1.5-2.3,1.5-3.7c0-1.4-0.5-2.6-1.5-3.6c-1-1-2.2-1.5-3.6-1.5H9.8z M9.8,59.6v19.2h0.4
			c2.6,0,4.8-1,6.6-2.9c1.9-1.9,2.8-4.2,2.8-6.8s-0.9-4.9-2.8-6.8c-1.8-1.9-4.1-2.8-6.6-2.8H9.8z"/>
		<path class="st2" d="M37.8,47.9H27.3v18.2h8.8v1.3h-8.8v11.4h10.5v1.3h-12V46.6h12V47.9z"/>
		<path class="st2" d="M58.7,46.6h1.4v12.1l11.1-12.1h1.6L60.6,59.9l18.1,20.1h-1.8L60.1,61.5v18.6h-1.4V61.5L41.9,80.1H40
			l18.1-20.1L46,46.6h1.6l11.1,12.1V46.6z"/>
		<path class="st2" d="M83.4,46.6h1.5v33.4h-1.5V46.6z"/>
	</g>
</g>
<g id="Слой_2" class="st0">
	<g class="st1">
		<path class="st2" d="M8,12.8h1.4c1.9,0,3.6,0.6,4.9,1.8c1.3,1.2,2,2.7,2,4.6c0,1.1-0.4,2.3-1.1,3.5c-0.7,1.2-1.6,1.9-2.6,2.3
			c2.3,0.6,4.2,1.8,5.7,3.7c1.5,1.9,2.3,4.2,2.3,7.1c0,2.8-1.1,5.3-3.3,7.4c-2.2,2.1-4.8,3.1-7.9,3.1H8V12.8z M9.4,14.1v10.5h0.4
			c1.3,0,2.5-0.5,3.5-1.6c1-1.1,1.5-2.3,1.5-3.7c0-1.4-0.5-2.6-1.5-3.6c-1-1-2.2-1.5-3.6-1.5H9.4z M9.4,25.8V45h0.4
			c2.6,0,4.8-1,6.6-2.9c1.9-1.9,2.8-4.2,2.8-6.8s-0.9-4.9-2.8-6.8c-1.8-1.9-4.1-2.8-6.6-2.8H9.4z"/>
		<path class="st2" d="M55.1,18.9c0,2.5-1.2,4.4-3.6,5.8c2.4,0.5,4.4,1.9,5.9,4c1.6,2.2,2.3,4.5,2.3,7c0,3-1.1,5.6-3.3,7.8
			c-2.2,2.2-4.9,3.3-8.1,3.3c-1.9,0-3.7-0.4-5.3-1.3c-1.6-0.8-2.9-2-3.8-3.5v-2.5c0.8,1.8,2,3.2,3.6,4.3c1.6,1.1,3.5,1.7,5.5,1.7
			c2.7,0,5-1,7-2.9c1.9-1.9,2.9-4.3,2.9-7s-1-5.1-2.9-7.1c-1.9-2-4.3-3-7-3h-1.7v-1.2h1.4c1.5,0,2.8-0.5,3.9-1.6
			c1.1-1.1,1.6-2.3,1.6-3.8c0-1.5-0.5-2.8-1.6-3.8c-1.1-1.1-2.3-1.6-3.6-1.6c-1.4,0-2.6,0.3-3.6,1c-1,0.7-1.7,1.6-2.1,2.7v-2.3
			c1.3-1.8,3-2.7,5.1-2.7c2.1,0,3.8,0.7,5.1,2C54.4,15.5,55.1,17.1,55.1,18.9z"/>
		<path class="st2" d="M76.9,14.1H66.4v18.2h8.8v1.3h-8.8v11.4h10.5v1.3h-12V12.8h12V14.1z"/>
		<path class="st2" d="M95.8,12.1l16.6,34.2h-1.6l-15.2-31l-15.1,31h-1.4L95.8,12.1z"/>
		<path class="st2" d="M128.8,14.1h-10.5v18.2h8.8v1.3h-8.8v11.4h10.5v1.3h-12V12.8h12V14.1z"/>
		<path class="st2" d="M157.7,12.8h1.5v33.4h-1.5V33.5h-22.9v12.7h-1.5V12.8h1.5v19.4h22.9V12.8z"/>
		<path class="st2" d="M169.8,41.6c-3.4-3.5-5.1-7.5-5.1-12.2c0-4.6,1.7-8.7,5.1-12.1c3.4-3.4,7.5-5.1,12.3-5.1
			c4.8,0,8.9,1.7,12.3,5.1c3.4,3.4,5.1,7.4,5.1,12.1c0,4.7-1.7,8.8-5,12.2c-3.4,3.5-7.4,5.2-12,5.2h-0.7
			C177.1,46.8,173.1,45,169.8,41.6z M198,29.5c0-4.4-1.6-8.1-4.7-11.3c-3.1-3.1-6.8-4.7-11.2-4.7c-4.4,0-8.1,1.6-11.3,4.7
			c-3.1,3.1-4.7,6.9-4.7,11.3c0,4.4,1.6,8.1,4.7,11.3c3.1,3.1,6.9,4.7,11.2,4.7c4.4,0,8.1-1.6,11.2-4.7
			C196.5,37.6,198,33.8,198,29.5z"/>
		<path class="st2" d="M239.3,12.8v33.4h-1.5V14.6l-15.8,32.3l-15.7-32.3v31.7h-1.3V12.8h2.1l15,30.8l15.1-30.8H239.3z"/>
		<path class="st2" d="M12,95c-3.4-3.5-5.1-7.5-5.1-12.2c0-4.6,1.7-8.7,5.1-12.1c3.4-3.4,7.5-5.1,12.3-5.1c4.8,0,8.9,1.7,12.3,5.1
			c3.4,3.4,5.1,7.4,5.1,12.1c0,4.7-1.7,8.8-5,12.2c-3.4,3.5-7.4,5.2-12,5.2h-0.7C19.3,100.3,15.3,98.5,12,95z M40.2,82.9
			c0-4.4-1.6-8.1-4.7-11.3c-3.1-3.1-6.8-4.7-11.2-4.7c-4.4,0-8.1,1.6-11.3,4.7c-3.1,3.1-4.7,6.9-4.7,11.3c0,4.4,1.6,8.1,4.7,11.3
			c3.1,3.1,6.9,4.7,11.2,4.7c4.4,0,8.1-1.6,11.2-4.7C38.6,91.1,40.2,87.3,40.2,82.9z"/>
		<path class="st2" d="M58.6,65.5l16.7,34.2h-1.6L67.4,87H49.5l-6.2,12.7h-1.4L58.6,65.5z M58.4,68.6l-8.3,17.1h16.8L58.4,68.6z"/>
		<path class="st2" d="M93.7,72.4c0,2.5-1.2,4.4-3.6,5.8c2.4,0.5,4.4,1.9,5.9,4c1.6,2.2,2.3,4.5,2.3,7c0,3-1.1,5.6-3.3,7.8
			c-2.2,2.2-4.9,3.3-8.1,3.3c-1.9,0-3.7-0.4-5.3-1.3c-1.6-0.8-2.9-2-3.8-3.5V93c0.8,1.8,2,3.2,3.6,4.3c1.6,1.1,3.5,1.7,5.5,1.7
			c2.7,0,5-1,7-2.9c1.9-1.9,2.9-4.3,2.9-7s-1-5.1-2.9-7.1c-1.9-2-4.3-3-7-3h-1.7v-1.2h1.4c1.5,0,2.8-0.5,3.9-1.6
			c1.1-1.1,1.6-2.3,1.6-3.8c0-1.5-0.5-2.8-1.6-3.8C89.6,67.5,88.4,67,87,67c-1.4,0-2.6,0.3-3.6,1c-1,0.7-1.7,1.6-2.1,2.7v-2.3
			c1.3-1.8,3-2.7,5.1-2.7c2.1,0,3.8,0.7,5.1,2C93,69,93.7,70.6,93.7,72.4z"/>
		<path class="st2" d="M129.7,66.3v33.4h-1.5V68.4l-23.3,31.3h-1.4V66.3h1.5v31.2l23.2-31.2H129.7z"/>
		<path class="st2" d="M152.9,100.2h-0.5c-3.1,0-5.9-0.8-8.6-2.4c-2.6-1.6-4.7-3.7-6.3-6.4c-1.5-2.7-2.3-5.5-2.3-8.5
			c0-4.7,1.7-8.8,5.1-12.2c3.4-3.4,7.5-5.1,12.3-5.1c3.2,0,6.2,0.8,9,2.5v1.6c-2.8-1.9-5.8-2.9-9-2.9c-4.4,0-8.1,1.6-11.2,4.7
			c-3.1,3.1-4.7,6.9-4.7,11.3c0,4.4,1.6,8.1,4.7,11.3c3.1,3.1,6.9,4.7,11.2,4.7c3.2,0,6.3-1,9-2.9v1.6
			C159,99.4,156.1,100.2,152.9,100.2z"/>
		<path class="st2" d="M178.6,67.6h-10.5v18.2h8.8v1.3h-8.8v11.4h10.5v1.3h-12V66.3h12V67.6z"/>
	</g>
</g>
<g id="Слой_3" class="st0">
	<g class="st1">
		<path class="st2" d="M5,15.1h1.4v12.3l14.1-12.3h1.8L7.1,28.5l19.2,20.1h-2L6.5,30v18.6H5V15.1z"/>
		<path class="st2" d="M31.6,43.9c-3.4-3.5-5.1-7.5-5.1-12.2c0-4.6,1.7-8.7,5.1-12.1c3.4-3.4,7.5-5.1,12.3-5.1
			c4.8,0,8.9,1.7,12.3,5.1c3.4,3.4,5.1,7.4,5.1,12.1c0,4.7-1.7,8.8-5,12.2c-3.4,3.5-7.4,5.2-12,5.2h-0.7
			C38.9,49.1,34.9,47.4,31.6,43.9z M59.8,31.8c0-4.4-1.6-8.1-4.7-11.3c-3.1-3.1-6.8-4.7-11.2-4.7c-4.4,0-8.1,1.6-11.3,4.7
			c-3.1,3.1-4.7,6.9-4.7,11.3c0,4.4,1.6,8.1,4.7,11.3c3.1,3.1,6.9,4.7,11.2,4.7c4.4,0,8.1-1.6,11.2-4.7
			C58.2,39.9,59.8,36.2,59.8,31.8z"/>
		<path class="st2" d="M101.1,15.1v33.4h-1.5V16.9L83.9,49.2L68.2,16.9v31.7h-1.3V15.1H69L84,46l15.1-30.8H101.1z"/>
		<path class="st2" d="M122.6,49.7V47h-0.3c-4.2,0-7.9-1.5-11-4.6c-3.1-3-4.6-6.6-4.6-10.7s1.5-7.6,4.6-10.6c3.1-3,6.7-4.5,10.9-4.5
			h0.4V14h1.5v2.6h0.3c4.2,0,7.9,1.5,11,4.6c3.1,3,4.6,6.6,4.6,10.7c0,4.1-1.5,7.6-4.6,10.6c-3.1,3-6.7,4.5-11,4.5h-0.3v2.7H122.6z
			 M122.3,45.8h0.3v-28h-0.4c-3.8,0-7.1,1.4-9.9,4.1c-2.8,2.8-4.2,6-4.2,9.8s1.4,7.1,4.2,9.9C115.1,44.4,118.4,45.8,122.3,45.8z
			 M124.4,17.8h-0.4v28h0.3c3.8,0,7.2-1.4,10-4.1c2.8-2.8,4.2-6,4.2-9.8c0-3.8-1.4-7.1-4.3-9.9C131.4,19.2,128.2,17.8,124.4,17.8z"
			/>
		<path class="st2" d="M149.5,43.9c-3.4-3.5-5.1-7.5-5.1-12.2c0-4.6,1.7-8.7,5.1-12.1c3.4-3.4,7.5-5.1,12.3-5.1
			c4.8,0,8.9,1.7,12.3,5.1c3.4,3.4,5.1,7.4,5.1,12.1c0,4.7-1.7,8.8-5,12.2c-3.4,3.5-7.4,5.2-12,5.2h-0.7
			C156.8,49.1,152.9,47.4,149.5,43.9z M177.7,31.8c0-4.4-1.6-8.1-4.7-11.3c-3.1-3.1-6.8-4.7-11.2-4.7c-4.4,0-8.1,1.6-11.3,4.7
			c-3.1,3.1-4.7,6.9-4.7,11.3c0,4.4,1.6,8.1,4.7,11.3c3.1,3.1,6.9,4.7,11.2,4.7c4.4,0,8.1-1.6,11.2-4.7
			C176.2,39.9,177.7,36.2,177.7,31.8z"/>
		<path class="st2" d="M184.8,15.1h1.5c3.1,0,5.7,1.1,7.9,3.2c2.2,2.1,3.3,4.6,3.3,7.5c0,2.9-1.1,5.4-3.4,7.4
			c-2.2,2.1-4.7,3.1-7.4,3.1h-0.4v12.2h-1.5V15.1z M186.2,35.2h0.4c2.5,0,4.7-0.9,6.5-2.8c1.9-1.8,2.8-4,2.8-6.6
			c0-2.5-0.9-4.7-2.8-6.6c-1.9-1.9-4-2.8-6.5-2.8h-0.4V35.2z"/>
		<path class="st2" d="M217.5,15.1v1.3h-7.6v32.1h-1.5V16.4h-7.7v-1.3H217.5z"/>
		<path class="st2" d="M263.7,15.1v33.4h-1.5V17.2L239,48.6h-1.4V15.1h1.5v31.2l23.2-31.2H263.7z"/>
		<path class="st2" d="M286,15.1h1.4v12.3l14.1-12.3h1.8l-15.3,13.3l19.2,20.1h-2L287.5,30v18.6H286V15.1z"/>
		<path class="st2" d="M326.2,14.3l16.7,34.2h-1.6L335,35.8h-17.9l-6.2,12.7h-1.4L326.2,14.3z M326,17.4l-8.3,17.1h16.8L326,17.4z"
			/>
		<path class="st2" d="M341.1,26.1V15.1h1.5v10.6c0,2.4,0.8,4.5,2.5,6.3c1.6,1.7,3.7,2.6,6,2.6s4.4-0.9,6-2.6
			c1.6-1.7,2.5-3.8,2.5-6.3V15.1h1.5v33.4h-1.5V30.5c-0.7,1.6-1.9,2.9-3.3,3.9c-1.5,1-3.1,1.5-4.9,1.5h-0.4c-2.6,0-4.9-1-6.9-3
			C342.1,31,341.1,28.7,341.1,26.1z"/>
		<path class="st2" d="M379.7,16.4h-10.5v18.2h8.8v1.3h-8.8v11.4h10.5v1.3h-12V15.1h12V16.4z"/>
		<path class="st2" d="M400.7,49.1h-0.5c-3.1,0-5.9-0.8-8.6-2.4c-2.6-1.6-4.7-3.7-6.3-6.4c-1.5-2.7-2.3-5.5-2.3-8.5
			c0-4.7,1.7-8.8,5.1-12.2c3.4-3.4,7.5-5.1,12.3-5.1c3.2,0,6.2,0.8,9,2.5v1.6c-2.8-1.9-5.8-2.9-9-2.9c-4.4,0-8.1,1.6-11.2,4.7
			c-3.1,3.1-4.7,6.9-4.7,11.3c0,4.4,1.6,8.1,4.7,11.3c3.1,3.1,6.9,4.7,11.2,4.7c3.2,0,6.3-1,9-2.9v1.6
			C406.8,48.2,403.8,49.1,400.7,49.1z"/>
		<path class="st2" d="M429,15.1v1.3h-7.6v32.1h-1.5V16.4h-7.7v-1.3H429z"/>
		<path class="st2" d="M433.4,15.1h1.4c1.9,0,3.6,0.6,4.9,1.8c1.3,1.2,2,2.7,2,4.6c0,1.1-0.4,2.3-1.1,3.5c-0.7,1.2-1.6,1.9-2.6,2.3
			c2.3,0.6,4.2,1.8,5.7,3.7c1.5,1.9,2.3,4.2,2.3,7.1c0,2.8-1.1,5.3-3.3,7.4c-2.2,2.1-4.8,3.1-7.9,3.1h-1.4V15.1z M434.8,16.4v10.5
			h0.4c1.3,0,2.5-0.5,3.5-1.6c1-1.1,1.5-2.3,1.5-3.7c0-1.4-0.5-2.6-1.5-3.6c-1-1-2.2-1.5-3.6-1.5H434.8z M434.8,28.1v19.2h0.4
			c2.6,0,4.8-1,6.6-2.9c1.9-1.9,2.8-4.2,2.8-6.8s-0.9-4.9-2.8-6.8c-1.8-1.9-4.1-2.8-6.6-2.8H434.8z"/>
		<path class="st2" d="M454.8,43.9c-3.4-3.5-5.1-7.5-5.1-12.2c0-4.6,1.7-8.7,5.1-12.1c3.4-3.4,7.5-5.1,12.3-5.1s8.9,1.7,12.3,5.1
			c3.4,3.4,5.1,7.4,5.1,12.1c0,4.7-1.7,8.8-5,12.2c-3.4,3.5-7.4,5.2-12,5.2h-0.7C462.2,49.1,458.2,47.4,454.8,43.9z M483.1,31.8
			c0-4.4-1.6-8.1-4.7-11.3c-3.1-3.1-6.8-4.7-11.2-4.7s-8.1,1.6-11.3,4.7c-3.1,3.1-4.7,6.9-4.7,11.3c0,4.4,1.6,8.1,4.7,11.3
			c3.1,3.1,6.9,4.7,11.2,4.7c4.4,0,8.1-1.6,11.2-4.7S483.1,36.2,483.1,31.8z"/>
	</g>
</g>
<g id="Слой_4" class="st0">
	<g class="st1">
		<path class="st2" d="M5.7,10.4h1.4c1.9,0,3.6,0.6,4.9,1.8c1.3,1.2,2,2.7,2,4.6c0,1.1-0.4,2.3-1.1,3.5c-0.7,1.2-1.6,1.9-2.6,2.3
			c2.3,0.6,4.2,1.8,5.7,3.7c1.5,1.9,2.3,4.2,2.3,7.1c0,2.8-1.1,5.3-3.3,7.4c-2.2,2.1-4.8,3.1-7.9,3.1H5.7V10.4z M7.1,11.7v10.5h0.4
			c1.3,0,2.5-0.5,3.5-1.6c1-1.1,1.5-2.3,1.5-3.7c0-1.4-0.5-2.6-1.5-3.6c-1-1-2.2-1.5-3.6-1.5H7.1z M7.1,23.4v19.2h0.4
			c2.6,0,4.8-1,6.6-2.9c1.9-1.9,2.8-4.2,2.8-6.8s-0.9-4.9-2.8-6.8c-1.8-1.9-4.1-2.8-6.6-2.8H7.1z"/>
		<path class="st2" d="M22.9,10.4h1.9c2.9,0,5.4,1.1,7.6,3.2c2.2,2.1,3.3,4.6,3.3,7.5c0,2.9-1.1,5.4-3.3,7.5
			c-2.2,2.1-4.6,3.2-7.2,3.2h-0.3l11.5,12.1h-1.9L24.4,33.2v10.6h-1.4V10.4z M24.4,30.4h0.8c2.4,0,4.5-0.9,6.4-2.8
			c1.8-1.8,2.8-4,2.8-6.6c0-2.5-1-4.7-2.9-6.6c-1.9-1.9-4.1-2.8-6.5-2.8h-0.6V30.4z"/>
		<path class="st2" d="M41.3,10.4h1.5v33.4h-1.5V10.4z"/>
		<path class="st2" d="M65.9,44.3h-0.5c-3.1,0-5.9-0.8-8.6-2.4c-2.6-1.6-4.7-3.7-6.3-6.4c-1.5-2.7-2.3-5.5-2.3-8.5
			c0-4.7,1.7-8.8,5.1-12.2c3.4-3.4,7.5-5.1,12.3-5.1c3.2,0,6.2,0.8,9,2.5v1.6C72,12,69,11,65.7,11c-4.4,0-8.1,1.6-11.2,4.7
			c-3.1,3.1-4.7,6.9-4.7,11.3c0,4.4,1.6,8.1,4.7,11.3c3.1,3.1,6.9,4.7,11.2,4.7c3.2,0,6.3-1,9-2.9v1.6
			C72.1,43.5,69.1,44.3,65.9,44.3z"/>
		<path class="st2" d="M80.8,10.4h1.4v12.3l14.1-12.3h1.8L82.8,23.7L102,43.8h-2L82.2,25.2v18.6h-1.5V10.4z"/>
		<path class="st2" d="M121.9,10.4h1.4c5,0,9,1.6,12.1,4.9c3.1,3.3,4.6,7.2,4.6,11.8c0,4.6-1.5,8.5-4.6,11.8
			c-3,3.3-7.1,4.9-12.1,4.9h-1.4V10.4z M123.7,11.7h-0.4v30.7h0.4c4.3,0,7.9-1.5,10.7-4.5c2.8-3,4.2-6.6,4.2-10.8s-1.4-7.8-4.2-10.9
			C131.6,13.3,128,11.7,123.7,11.7z"/>
		<path class="st2" d="M145.3,10.4h12v1.3h-10.5v18.2h8.8v1.3h-8.8v11.4h10.5v1.3h-12V10.4z"/>
		<path class="st2" d="M175.9,44.6l-16.6-34.2h1.6l15.2,31l15.1-31h1.4L175.9,44.6z"/>
		<path class="st2" d="M196.8,10.4h12v1.3h-10.5v18.2h8.8v1.3h-8.8v11.4h10.5v1.3h-12V10.4z"/>
		<path class="st2" d="M214.7,10.4v32.1h10.3v1.3h-11.8V10.4H214.7z"/>
		<path class="st2" d="M228.1,39.2c-3.4-3.5-5.1-7.5-5.1-12.2c0-4.6,1.7-8.7,5.1-12.1c3.4-3.4,7.5-5.1,12.3-5.1
			c4.8,0,8.9,1.7,12.3,5.1c3.4,3.4,5.1,7.4,5.1,12.1c0,4.7-1.7,8.8-5,12.2c-3.4,3.5-7.4,5.2-12,5.2h-0.7
			C235.5,44.4,231.5,42.7,228.1,39.2z M256.3,27.1c0-4.4-1.6-8.1-4.7-11.3c-3.1-3.1-6.8-4.7-11.2-4.7c-4.4,0-8.1,1.6-11.3,4.7
			c-3.1,3.1-4.7,6.9-4.7,11.3c0,4.4,1.6,8.1,4.7,11.3c3.1,3.1,6.9,4.7,11.2,4.7c4.4,0,8.1-1.6,11.2-4.7
			C254.8,35.2,256.3,31.5,256.3,27.1z"/>
		<path class="st2" d="M263.1,10.4h1.5c3.1,0,5.7,1.1,7.9,3.2c2.2,2.1,3.3,4.6,3.3,7.5c0,2.9-1.1,5.4-3.4,7.4
			c-2.2,2.1-4.7,3.1-7.4,3.1h-0.4v12.2h-1.5V10.4z M264.6,30.4h0.4c2.5,0,4.7-0.9,6.5-2.8c1.9-1.8,2.8-4,2.8-6.6
			c0-2.5-0.9-4.7-2.8-6.6c-1.9-1.9-4-2.8-6.5-2.8h-0.4V30.4z"/>
		<path class="st2" d="M314.8,10.4v33.4h-1.5V12.1l-15.8,32.3l-15.7-32.3v31.7h-1.3V10.4h2.1l15,30.8l15.1-30.8H314.8z"/>
		<path class="st2" d="M321.5,10.4h12v1.3H323v18.2h8.8v1.3H323v11.4h10.5v1.3h-12V10.4z"/>
		<path class="st2" d="M362.5,10.4h1.3v33.9l-24.6-30.3v29.8h-1.3V9.9l24.6,30.2V10.4z"/>
		<path class="st2" d="M384.9,10.4v1.3h-7.6v32.1h-1.5V11.7h-7.7v-1.3H384.9z"/>
	</g>
</g>
<g id="Слой_5">
	<g class="st3">
		<path class="st4" d="M24.8,411.7h-0.5c-3.1,0-5.9-0.8-8.6-2.4c-2.6-1.6-4.7-3.7-6.3-6.4c-1.5-2.7-2.3-5.5-2.3-8.5
			c0-4.7,1.7-8.8,5.1-12.2c3.4-3.4,7.5-5.1,12.3-5.1c3.2,0,6.2,0.8,9,2.5v1.6c-2.8-1.9-5.8-2.9-9-2.9c-4.4,0-8.1,1.6-11.2,4.7
			c-3.1,3.1-4.7,6.9-4.7,11.3s1.6,8.1,4.7,11.3c3.1,3.2,6.9,4.7,11.2,4.7c3.2,0,6.3-1,9-2.9v1.6C31,410.9,28,411.7,24.8,411.7z"/>
		<path class="st4" d="M62.9,377.8h1.5v33.4h-1.5v-12.7H40v12.7h-1.5v-33.4H40v19.4h22.9V377.8z"/>
		<path class="st4" d="M97.3,377.8v33.4h-1.5v-31.3l-23.3,31.3h-1.4v-33.4h1.5v31.2l23.2-31.2H97.3z"/>
		<path class="st4" d="M120.3,377.8h1.4v12.1l11.1-12.1h1.6l-12.2,13.3l18.1,20.1h-1.8l-16.8-18.6v18.6h-1.4v-18.6l-16.8,18.6h-1.9
			l18.1-20.1l-12.2-13.3h1.6l11.1,12.1V377.8z"/>
		<path class="st4" d="M156.9,379.1h-10.5v18.2h8.8v1.3h-8.8v11.4h10.5v1.3h-12v-33.4h12V379.1z"/>
		<path class="st4" d="M185.7,377.8h1.5v33.4h-1.5v-12.7h-22.9v12.7h-1.5v-33.4h1.5v19.4h22.9V377.8z"/>
		<path class="st4" d="M220,377.8v33.4h-1.5v-31.3l-23.3,31.3h-1.4v-33.4h1.5v31.2l23.2-31.2H220z"/>
		<path class="st4" d="M238.7,379.1h-10.5v18.2h8.8v1.3h-8.8v11.4h10.5v1.3h-12v-33.4h12V379.1z"/>
		<path class="st4" d="M8.3,431.3h21v33.4h-1.5v-32.1H9.8v32.1H8.3V431.3z"/>
		<path class="st4" d="M50.5,430.5l16.6,34.2h-1.6l-15.2-31l-15.1,31h-1.4L50.5,430.5z"/>
		<path class="st4" d="M86,430.5l16.7,34.2h-1.6L94.8,452H76.9l-6.2,12.7h-1.4L86,430.5z M85.9,433.6l-8.3,17.1h16.8L85.9,433.6z"/>
		<path class="st4" d="M115.5,431.3v1.3h-7.6v32.1h-1.5v-32.1h-7.7v-1.3H115.5z"/>
		<path class="st4" d="M131.9,432.6h-10.5v18.2h8.8v1.3h-8.8v11.4h10.5v1.3h-12v-33.4h12V432.6z"/>
		<path class="st4" d="M152.8,431.3h1.4v12.1l11.1-12.1h1.6l-12.2,13.3l18.1,20.1H171l-16.8-18.6v18.6h-1.4v-18.6L136,464.7h-1.9
			l18.1-20.1l-12.2-13.3h1.6l11.1,12.1V431.3z"/>
		<path class="st4" d="M189.3,432.6h-10.5v18.2h8.8v1.3h-8.8v11.4h10.5v1.3h-12v-33.4h12V432.6z"/>
		<path class="st4" d="M219.9,431.3v33.4h-1.5v-31.3l-23.3,31.3h-1.4v-33.4h1.5v31.2l23.2-31.2H219.9z M204.5,426
			c0.8,0.8,1.8,1.2,2.9,1.2c1.1,0,2-0.4,2.9-1.2c0.8-0.8,1.3-1.7,1.4-2.8h1.3c-0.1,1.4-0.6,2.6-1.7,3.6c-1.1,1-2.3,1.5-3.7,1.5h-0.4
			c-1.4,0-2.7-0.5-3.7-1.5c-1-1-1.6-2.2-1.6-3.7h1.2C203.2,424.2,203.7,425.2,204.5,426z"/>
	</g>
	<g class="st5">
		<path class="st2" d="M74.3,8.7h1.4V21L89.9,8.7h1.8L76.4,22.1l19.2,20.1h-2L75.8,23.6v18.6h-1.5V8.7z"/>
		<path class="st2" d="M114.5,7.9l16.7,34.2h-1.6l-6.3-12.7h-17.9l-6.2,12.7h-1.4L114.5,7.9z M114.4,11L106,28.1h16.8L114.4,11z"/>
		<path class="st2" d="M129.4,19.7V8.7h1.5v10.6c0,2.4,0.8,4.5,2.5,6.3s3.7,2.6,6,2.6s4.4-0.9,6-2.6c1.6-1.7,2.5-3.8,2.5-6.3V8.7
			h1.5v33.4h-1.5V24.1c-0.7,1.6-1.9,2.9-3.3,3.9c-1.5,1-3.1,1.5-4.9,1.5h-0.4c-2.6,0-4.9-1-6.9-3C130.4,24.6,129.4,22.3,129.4,19.7z
			"/>
		<path class="st2" d="M168,10h-10.5v18.2h8.8v1.3h-8.8v11.4H168v1.3h-12V8.7h12V10z"/>
		<path class="st2" d="M189,42.7h-0.5c-3.1,0-5.9-0.8-8.6-2.4c-2.6-1.6-4.7-3.7-6.3-6.4c-1.5-2.7-2.3-5.5-2.3-8.5
			c0-4.7,1.7-8.8,5.1-12.2c3.4-3.4,7.5-5.1,12.3-5.1c3.2,0,6.2,0.8,9,2.5v1.6c-2.8-1.9-5.8-2.9-9-2.9c-4.4,0-8.1,1.6-11.2,4.7
			c-3.1,3.1-4.7,6.9-4.7,11.3c0,4.4,1.6,8.1,4.7,11.3c3.1,3.1,6.9,4.7,11.2,4.7c3.2,0,6.3-1,9-2.9v1.6
			C195.1,41.8,192.2,42.7,189,42.7z"/>
		<path class="st2" d="M217.3,8.7V10h-7.6v32.1h-1.5V10h-7.7V8.7H217.3z"/>
		<path class="st2" d="M221.7,8.7h1.4c1.9,0,3.6,0.6,4.9,1.8c1.3,1.2,2,2.7,2,4.6c0,1.1-0.4,2.3-1.1,3.5c-0.7,1.2-1.6,1.9-2.6,2.3
			c2.3,0.6,4.2,1.8,5.7,3.7c1.5,1.9,2.3,4.2,2.3,7.1c0,2.8-1.1,5.3-3.3,7.4c-2.2,2.1-4.8,3.1-7.9,3.1h-1.4V8.7z M223.2,10v10.5h0.4
			c1.3,0,2.5-0.5,3.5-1.6c1-1.1,1.5-2.3,1.5-3.7c0-1.4-0.5-2.6-1.5-3.6c-1-1-2.2-1.5-3.6-1.5H223.2z M223.2,21.7v19.2h0.4
			c2.6,0,4.8-1,6.6-2.9c1.9-1.9,2.8-4.2,2.8-6.8s-0.9-4.9-2.8-6.8c-1.8-1.9-4.1-2.8-6.6-2.8H223.2z"/>
		<path class="st2" d="M251.2,10h-10.5v18.2h8.8v1.3h-8.8v11.4h10.5v1.3h-12V8.7h12V10z"/>
		<path class="st2" d="M280,8.7h1.5v33.4H280V29.4h-22.9v12.7h-1.5V8.7h1.5v19.4H280V8.7z"/>
		<path class="st2" d="M312.6,8.7h1.5v33.4h-1.5V29.4h-22.9v12.7h-1.5V8.7h1.5v19.4h22.9V8.7z"/>
		<path class="st2" d="M324.7,37.5c-3.4-3.5-5.1-7.5-5.1-12.2c0-4.6,1.7-8.7,5.1-12.1c3.4-3.4,7.5-5.1,12.3-5.1s8.9,1.7,12.3,5.1
			c3.4,3.4,5.1,7.4,5.1,12.1c0,4.7-1.7,8.8-5,12.2c-3.4,3.5-7.4,5.2-12,5.2h-0.7C332,42.7,328,41,324.7,37.5z M352.9,25.4
			c0-4.4-1.6-8.1-4.7-11.3c-3.1-3.1-6.9-4.7-11.2-4.7s-8.1,1.6-11.3,4.7c-3.1,3.1-4.7,6.9-4.7,11.3c0,4.4,1.6,8.1,4.7,11.3
			c3.1,3.1,6.9,4.7,11.2,4.7c4.4,0,8.1-1.6,11.2-4.7S352.9,29.8,352.9,25.4z"/>
		<path class="st2" d="M34.7,62.2h1.5v33.4h-1.5V82.9H11.8v12.7h-1.5V62.2h1.5v19.4h22.9V62.2z"/>
		<path class="st2" d="M46.8,91c-3.4-3.5-5.1-7.5-5.1-12.2c0-4.6,1.7-8.7,5.1-12.1c3.4-3.4,7.5-5.1,12.3-5.1c4.8,0,8.9,1.7,12.3,5.1
			c3.4,3.4,5.1,7.4,5.1,12.1c0,4.7-1.7,8.8-5,12.2c-3.4,3.5-7.4,5.2-12,5.2h-0.7C54.2,96.2,50.2,94.4,46.8,91z M75.1,78.9
			c0-4.4-1.6-8.1-4.7-11.3c-3.1-3.1-6.8-4.7-11.2-4.7c-4.4,0-8.1,1.6-11.3,4.7c-3.1,3.1-4.7,6.9-4.7,11.3c0,4.4,1.6,8.1,4.7,11.3
			c3.1,3.1,6.9,4.7,11.2,4.7c4.4,0,8.1-1.6,11.2-4.7C73.5,87,75.1,83.3,75.1,78.9z"/>
		<path class="st2" d="M82.1,62.2h1.4c1.9,0,3.6,0.6,4.9,1.8c1.3,1.2,2,2.7,2,4.6c0,1.1-0.4,2.3-1.1,3.5c-0.7,1.2-1.6,1.9-2.6,2.3
			c2.3,0.6,4.2,1.8,5.7,3.7c1.5,1.9,2.3,4.2,2.3,7.1c0,2.8-1.1,5.3-3.3,7.4c-2.2,2.1-4.8,3.1-7.9,3.1h-1.4V62.2z M83.5,63.5V74h0.4
			c1.3,0,2.5-0.5,3.5-1.6c1-1.1,1.5-2.3,1.5-3.7c0-1.4-0.5-2.6-1.5-3.6c-1-1-2.2-1.5-3.6-1.5H83.5z M83.5,75.2v19.2h0.4
			c2.6,0,4.8-1,6.6-2.9c1.9-1.9,2.8-4.2,2.8-6.8s-0.9-4.9-2.8-6.8c-1.8-1.9-4.1-2.8-6.6-2.8H83.5z"/>
		<path class="st2" d="M99.6,62.2h1.5v13.1h0.4c2.4,0,4.7,1,6.9,3c2.1,2,3.2,4.4,3.2,7.1c0,2.7-1,5.1-3.1,7.2
			c-2.1,2-4.5,3.1-7.3,3.1h-1.5V62.2z M101.4,76.6H101v17.8h0.4c2.2,0,4.2-0.9,6-2.7c1.8-1.8,2.7-3.9,2.7-6.2c0-2.4-0.9-4.4-2.6-6.2
			C105.7,77.5,103.7,76.6,101.4,76.6z M115.6,95.7V62.2h1.5v33.4H115.6z"/>
		<path class="st2" d="M149.9,62.2v33.4h-1.5V64.3l-23.3,31.3h-1.4V62.2h1.5v31.2l23.2-31.2H149.9z M134.5,56.9
			c0.8,0.8,1.8,1.2,2.9,1.2c1.1,0,2-0.4,2.9-1.2c0.8-0.8,1.3-1.7,1.4-2.8h1.3c-0.1,1.4-0.6,2.6-1.7,3.6c-1.1,1-2.3,1.5-3.7,1.5h-0.4
			c-1.4,0-2.7-0.5-3.7-1.5c-1-1-1.6-2.2-1.6-3.7h1.2C133.2,55.2,133.6,56.1,134.5,56.9z"/>
		<path class="st2" d="M172.2,62.2h1.4v12.3l14.1-12.3h1.8l-15.3,13.3l19.2,20.1h-2l-17.8-18.6v18.6h-1.5V62.2z"/>
		<path class="st2" d="M198.7,91c-3.4-3.5-5.1-7.5-5.1-12.2c0-4.6,1.7-8.7,5.1-12.1c3.4-3.4,7.5-5.1,12.3-5.1
			c4.8,0,8.9,1.7,12.3,5.1c3.4,3.4,5.1,7.4,5.1,12.1c0,4.7-1.7,8.8-5,12.2c-3.4,3.5-7.4,5.2-12,5.2h-0.7
			C206.1,96.2,202.1,94.4,198.7,91z M227,78.9c0-4.4-1.6-8.1-4.7-11.3c-3.1-3.1-6.8-4.7-11.2-4.7c-4.4,0-8.1,1.6-11.3,4.7
			c-3.1,3.1-4.7,6.9-4.7,11.3c0,4.4,1.6,8.1,4.7,11.3c3.1,3.1,6.9,4.7,11.2,4.7c4.4,0,8.1-1.6,11.2-4.7C225.4,87,227,83.3,227,78.9z
			"/>
		<path class="st2" d="M258.4,62.2h1.5v33.4h-1.5V82.9h-22.9v12.7H234V62.2h1.5v19.4h22.9V62.2z"/>
		<path class="st2" d="M289.7,95.7h-23.1V62.2h1.5v32.1h18.1V62.2h1.5v32.1h3.4v5.6h-1.3V95.7z"/>
		<path class="st2" d="M307.4,63.5h-10.5v18.2h8.8V83h-8.8v11.4h10.5v1.3h-12V62.2h12V63.5z"/>
		<path class="st2" d="M311.9,62.2h21v33.4h-1.5V63.5h-18.1v32.1h-1.5V62.2z"/>
		<path class="st2" d="M354.2,62.2v1.3h-7.6v32.1h-1.5V63.5h-7.7v-1.3H354.2z"/>
	</g>
</g>
</svg>
